M48
;DRILL file {KiCad 4.0.2+e4-6225~38~ubuntu14.04.1-stable} date Fri 29 Jul 2016 09:53:01 PM PDT
;FORMAT={-:-/ absolute / inch / decimal}
FMAT,2
INCH,TZ
T1C0.012
T2C0.040
%
G90
G05
M72
T1
X5.3425Y-3.1654
X5.3819Y-3.4921
X5.4409Y-3.1024
X5.4646Y-3.0591
X5.4843Y-3.4843
X5.5433Y-3.7441
X5.5945Y-3.0472
X5.6063Y-3.185
X5.6339Y-3.4843
X5.6457Y-3.2244
X5.6614Y-3.6969
X5.6772Y-3.0512
X5.6969Y-3.6457
X5.7402Y-3.5906
X5.7717Y-3.2323
X5.8031Y-3.1732
X5.8346Y-3.0827
X5.9528Y-3.7598
X5.9567Y-2.9646
X5.9567Y-3.0984
X5.9567Y-3.2992
X5.9567Y-3.4331
X5.9803Y-3.6102
X6.1614Y-3.7598
T2
X5.9945Y-2.8543
X6.0945Y-2.8543
X6.1945Y-2.8543
X6.4067Y-3.0783
X6.4067Y-3.1783
X6.4067Y-3.2783
X6.4067Y-3.3783
X6.5067Y-3.0783
X6.5067Y-3.1783
X6.5067Y-3.2783
X6.5067Y-3.3783
T0
M30
