G04 #@! TF.FileFunction,Legend,Top*
%FSLAX46Y46*%
G04 Gerber Fmt 4.6, Leading zero omitted, Abs format (unit mm)*
G04 Created by KiCad (PCBNEW 4.0.2+e4-6225~38~ubuntu14.04.1-stable) date Fri 29 Jul 2016 09:52:58 PM PDT*
%MOMM*%
G01*
G04 APERTURE LIST*
%ADD10C,0.100000*%
%ADD11C,0.300000*%
%ADD12C,0.150000*%
%ADD13C,0.152400*%
G04 APERTURE END LIST*
D10*
D11*
X147619047Y-71404762D02*
X146666666Y-71404762D01*
X146571428Y-72357143D01*
X146666666Y-72261905D01*
X146857143Y-72166667D01*
X147333333Y-72166667D01*
X147523809Y-72261905D01*
X147619047Y-72357143D01*
X147714286Y-72547619D01*
X147714286Y-73023810D01*
X147619047Y-73214286D01*
X147523809Y-73309524D01*
X147333333Y-73404762D01*
X146857143Y-73404762D01*
X146666666Y-73309524D01*
X146571428Y-73214286D01*
X148285714Y-71404762D02*
X148952381Y-73404762D01*
X149619048Y-71404762D01*
X160047619Y-71504762D02*
X161285715Y-71504762D01*
X160619048Y-72266667D01*
X160904762Y-72266667D01*
X161095238Y-72361905D01*
X161190476Y-72457143D01*
X161285715Y-72647619D01*
X161285715Y-73123810D01*
X161190476Y-73314286D01*
X161095238Y-73409524D01*
X160904762Y-73504762D01*
X160333334Y-73504762D01*
X160142857Y-73409524D01*
X160047619Y-73314286D01*
X162142857Y-73314286D02*
X162238096Y-73409524D01*
X162142857Y-73504762D01*
X162047619Y-73409524D01*
X162142857Y-73314286D01*
X162142857Y-73504762D01*
X162904762Y-71504762D02*
X164142858Y-71504762D01*
X163476191Y-72266667D01*
X163761905Y-72266667D01*
X163952381Y-72361905D01*
X164047619Y-72457143D01*
X164142858Y-72647619D01*
X164142858Y-73123810D01*
X164047619Y-73314286D01*
X163952381Y-73409524D01*
X163761905Y-73504762D01*
X163190477Y-73504762D01*
X163000000Y-73409524D01*
X162904762Y-73314286D01*
X164714286Y-71504762D02*
X165380953Y-73504762D01*
X166047620Y-71504762D01*
D12*
X138150000Y-81000000D02*
X137450000Y-81000000D01*
X137450000Y-79800000D02*
X138150000Y-79800000D01*
X152650000Y-77000000D02*
X151950000Y-77000000D01*
X151950000Y-75800000D02*
X152650000Y-75800000D01*
X152550000Y-80200000D02*
X151850000Y-80200000D01*
X151850000Y-79000000D02*
X152550000Y-79000000D01*
X152550000Y-83400000D02*
X151850000Y-83400000D01*
X151850000Y-82200000D02*
X152550000Y-82200000D01*
X152550000Y-86600000D02*
X151850000Y-86600000D01*
X151850000Y-85400000D02*
X152550000Y-85400000D01*
X153530000Y-71230000D02*
X158610000Y-71230000D01*
X153530000Y-73770000D02*
X158610000Y-73770000D01*
X150710000Y-74050000D02*
X152260000Y-74050000D01*
X158610000Y-71230000D02*
X158610000Y-73770000D01*
X153530000Y-73770000D02*
X153530000Y-71230000D01*
X152260000Y-70950000D02*
X150710000Y-70950000D01*
X150710000Y-70950000D02*
X150710000Y-74050000D01*
X166540000Y-79460000D02*
X166540000Y-87080000D01*
X166540000Y-87080000D02*
X161460000Y-87080000D01*
X161460000Y-87080000D02*
X161460000Y-76920000D01*
X161460000Y-76920000D02*
X164000000Y-76920000D01*
X166820000Y-78190000D02*
X166820000Y-76640000D01*
X164000000Y-76920000D02*
X164000000Y-79460000D01*
X164000000Y-79460000D02*
X166540000Y-79460000D01*
X166820000Y-76640000D02*
X165270000Y-76640000D01*
X142175000Y-86200000D02*
X142175000Y-87200000D01*
X140825000Y-87200000D02*
X140825000Y-86200000D01*
X143775000Y-86200000D02*
X143775000Y-87200000D01*
X142425000Y-87200000D02*
X142425000Y-86200000D01*
X136900000Y-82875000D02*
X135900000Y-82875000D01*
X135900000Y-81525000D02*
X136900000Y-81525000D01*
X140575000Y-86200000D02*
X140575000Y-87200000D01*
X139225000Y-87200000D02*
X139225000Y-86200000D01*
X137125000Y-76300000D02*
X137125000Y-75300000D01*
X138475000Y-75300000D02*
X138475000Y-76300000D01*
X138725000Y-76300000D02*
X138725000Y-75300000D01*
X140075000Y-75300000D02*
X140075000Y-76300000D01*
X140325000Y-76300000D02*
X140325000Y-75300000D01*
X141675000Y-75300000D02*
X141675000Y-76300000D01*
X141925000Y-76300000D02*
X141925000Y-75300000D01*
X143275000Y-75300000D02*
X143275000Y-76300000D01*
X157700000Y-75725000D02*
X158700000Y-75725000D01*
X158700000Y-77075000D02*
X157700000Y-77075000D01*
X157700000Y-78925000D02*
X158700000Y-78925000D01*
X158700000Y-80275000D02*
X157700000Y-80275000D01*
X157700000Y-82125000D02*
X158700000Y-82125000D01*
X158700000Y-83475000D02*
X157700000Y-83475000D01*
X157700000Y-85325000D02*
X158700000Y-85325000D01*
X158700000Y-86675000D02*
X157700000Y-86675000D01*
X158700000Y-78675000D02*
X157700000Y-78675000D01*
X157700000Y-77325000D02*
X158700000Y-77325000D01*
X158700000Y-81875000D02*
X157700000Y-81875000D01*
X157700000Y-80525000D02*
X158700000Y-80525000D01*
X158700000Y-85075000D02*
X157700000Y-85075000D01*
X157700000Y-83725000D02*
X158700000Y-83725000D01*
X158700000Y-88275000D02*
X157700000Y-88275000D01*
X157700000Y-86925000D02*
X158700000Y-86925000D01*
D13*
X141323607Y-79600000D02*
G75*
G03X141323607Y-79600000I-223607J0D01*
G01*
D12*
X144550000Y-79750000D02*
X144550000Y-80100000D01*
X141250000Y-83050000D02*
X141250000Y-82700000D01*
X144550000Y-83050000D02*
X144550000Y-82700000D01*
X141250000Y-83050000D02*
X141600000Y-83050000D01*
X144550000Y-83050000D02*
X144200000Y-83050000D01*
X144550000Y-79750000D02*
X144200000Y-79750000D01*
X135233334Y-80757143D02*
X135185715Y-80804762D01*
X135042858Y-80852381D01*
X134947620Y-80852381D01*
X134804762Y-80804762D01*
X134709524Y-80709524D01*
X134661905Y-80614286D01*
X134614286Y-80423810D01*
X134614286Y-80280952D01*
X134661905Y-80090476D01*
X134709524Y-79995238D01*
X134804762Y-79900000D01*
X134947620Y-79852381D01*
X135042858Y-79852381D01*
X135185715Y-79900000D01*
X135233334Y-79947619D01*
X136185715Y-80852381D02*
X135614286Y-80852381D01*
X135900000Y-80852381D02*
X135900000Y-79852381D01*
X135804762Y-79995238D01*
X135709524Y-80090476D01*
X135614286Y-80138095D01*
X149633334Y-76757143D02*
X149585715Y-76804762D01*
X149442858Y-76852381D01*
X149347620Y-76852381D01*
X149204762Y-76804762D01*
X149109524Y-76709524D01*
X149061905Y-76614286D01*
X149014286Y-76423810D01*
X149014286Y-76280952D01*
X149061905Y-76090476D01*
X149109524Y-75995238D01*
X149204762Y-75900000D01*
X149347620Y-75852381D01*
X149442858Y-75852381D01*
X149585715Y-75900000D01*
X149633334Y-75947619D01*
X150014286Y-75947619D02*
X150061905Y-75900000D01*
X150157143Y-75852381D01*
X150395239Y-75852381D01*
X150490477Y-75900000D01*
X150538096Y-75947619D01*
X150585715Y-76042857D01*
X150585715Y-76138095D01*
X150538096Y-76280952D01*
X149966667Y-76852381D01*
X150585715Y-76852381D01*
X149533334Y-79957143D02*
X149485715Y-80004762D01*
X149342858Y-80052381D01*
X149247620Y-80052381D01*
X149104762Y-80004762D01*
X149009524Y-79909524D01*
X148961905Y-79814286D01*
X148914286Y-79623810D01*
X148914286Y-79480952D01*
X148961905Y-79290476D01*
X149009524Y-79195238D01*
X149104762Y-79100000D01*
X149247620Y-79052381D01*
X149342858Y-79052381D01*
X149485715Y-79100000D01*
X149533334Y-79147619D01*
X149866667Y-79052381D02*
X150485715Y-79052381D01*
X150152381Y-79433333D01*
X150295239Y-79433333D01*
X150390477Y-79480952D01*
X150438096Y-79528571D01*
X150485715Y-79623810D01*
X150485715Y-79861905D01*
X150438096Y-79957143D01*
X150390477Y-80004762D01*
X150295239Y-80052381D01*
X150009524Y-80052381D01*
X149914286Y-80004762D01*
X149866667Y-79957143D01*
X149533334Y-83157143D02*
X149485715Y-83204762D01*
X149342858Y-83252381D01*
X149247620Y-83252381D01*
X149104762Y-83204762D01*
X149009524Y-83109524D01*
X148961905Y-83014286D01*
X148914286Y-82823810D01*
X148914286Y-82680952D01*
X148961905Y-82490476D01*
X149009524Y-82395238D01*
X149104762Y-82300000D01*
X149247620Y-82252381D01*
X149342858Y-82252381D01*
X149485715Y-82300000D01*
X149533334Y-82347619D01*
X150390477Y-82585714D02*
X150390477Y-83252381D01*
X150152381Y-82204762D02*
X149914286Y-82919048D01*
X150533334Y-82919048D01*
X149533334Y-86357143D02*
X149485715Y-86404762D01*
X149342858Y-86452381D01*
X149247620Y-86452381D01*
X149104762Y-86404762D01*
X149009524Y-86309524D01*
X148961905Y-86214286D01*
X148914286Y-86023810D01*
X148914286Y-85880952D01*
X148961905Y-85690476D01*
X149009524Y-85595238D01*
X149104762Y-85500000D01*
X149247620Y-85452381D01*
X149342858Y-85452381D01*
X149485715Y-85500000D01*
X149533334Y-85547619D01*
X150438096Y-85452381D02*
X149961905Y-85452381D01*
X149914286Y-85928571D01*
X149961905Y-85880952D01*
X150057143Y-85833333D01*
X150295239Y-85833333D01*
X150390477Y-85880952D01*
X150438096Y-85928571D01*
X150485715Y-86023810D01*
X150485715Y-86261905D01*
X150438096Y-86357143D01*
X150390477Y-86404762D01*
X150295239Y-86452381D01*
X150057143Y-86452381D01*
X149961905Y-86404762D01*
X149914286Y-86357143D01*
X154366667Y-74252381D02*
X154366667Y-74966667D01*
X154319047Y-75109524D01*
X154223809Y-75204762D01*
X154080952Y-75252381D01*
X153985714Y-75252381D01*
X154795238Y-74347619D02*
X154842857Y-74300000D01*
X154938095Y-74252381D01*
X155176191Y-74252381D01*
X155271429Y-74300000D01*
X155319048Y-74347619D01*
X155366667Y-74442857D01*
X155366667Y-74538095D01*
X155319048Y-74680952D01*
X154747619Y-75252381D01*
X155366667Y-75252381D01*
X163666667Y-87652381D02*
X163666667Y-88366667D01*
X163619047Y-88509524D01*
X163523809Y-88604762D01*
X163380952Y-88652381D01*
X163285714Y-88652381D01*
X164047619Y-87652381D02*
X164666667Y-87652381D01*
X164333333Y-88033333D01*
X164476191Y-88033333D01*
X164571429Y-88080952D01*
X164619048Y-88128571D01*
X164666667Y-88223810D01*
X164666667Y-88461905D01*
X164619048Y-88557143D01*
X164571429Y-88604762D01*
X164476191Y-88652381D01*
X164190476Y-88652381D01*
X164095238Y-88604762D01*
X164047619Y-88557143D01*
X141952381Y-89166666D02*
X141476190Y-89500000D01*
X141952381Y-89738095D02*
X140952381Y-89738095D01*
X140952381Y-89357142D01*
X141000000Y-89261904D01*
X141047619Y-89214285D01*
X141142857Y-89166666D01*
X141285714Y-89166666D01*
X141380952Y-89214285D01*
X141428571Y-89261904D01*
X141476190Y-89357142D01*
X141476190Y-89738095D01*
X141952381Y-88214285D02*
X141952381Y-88785714D01*
X141952381Y-88500000D02*
X140952381Y-88500000D01*
X141095238Y-88595238D01*
X141190476Y-88690476D01*
X141238095Y-88785714D01*
X143552381Y-89166666D02*
X143076190Y-89500000D01*
X143552381Y-89738095D02*
X142552381Y-89738095D01*
X142552381Y-89357142D01*
X142600000Y-89261904D01*
X142647619Y-89214285D01*
X142742857Y-89166666D01*
X142885714Y-89166666D01*
X142980952Y-89214285D01*
X143028571Y-89261904D01*
X143076190Y-89357142D01*
X143076190Y-89738095D01*
X142647619Y-88785714D02*
X142600000Y-88738095D01*
X142552381Y-88642857D01*
X142552381Y-88404761D01*
X142600000Y-88309523D01*
X142647619Y-88261904D01*
X142742857Y-88214285D01*
X142838095Y-88214285D01*
X142980952Y-88261904D01*
X143552381Y-88833333D01*
X143552381Y-88214285D01*
X133933334Y-82652381D02*
X133600000Y-82176190D01*
X133361905Y-82652381D02*
X133361905Y-81652381D01*
X133742858Y-81652381D01*
X133838096Y-81700000D01*
X133885715Y-81747619D01*
X133933334Y-81842857D01*
X133933334Y-81985714D01*
X133885715Y-82080952D01*
X133838096Y-82128571D01*
X133742858Y-82176190D01*
X133361905Y-82176190D01*
X134266667Y-81652381D02*
X134885715Y-81652381D01*
X134552381Y-82033333D01*
X134695239Y-82033333D01*
X134790477Y-82080952D01*
X134838096Y-82128571D01*
X134885715Y-82223810D01*
X134885715Y-82461905D01*
X134838096Y-82557143D01*
X134790477Y-82604762D01*
X134695239Y-82652381D01*
X134409524Y-82652381D01*
X134314286Y-82604762D01*
X134266667Y-82557143D01*
X140352381Y-89166666D02*
X139876190Y-89500000D01*
X140352381Y-89738095D02*
X139352381Y-89738095D01*
X139352381Y-89357142D01*
X139400000Y-89261904D01*
X139447619Y-89214285D01*
X139542857Y-89166666D01*
X139685714Y-89166666D01*
X139780952Y-89214285D01*
X139828571Y-89261904D01*
X139876190Y-89357142D01*
X139876190Y-89738095D01*
X139685714Y-88309523D02*
X140352381Y-88309523D01*
X139304762Y-88547619D02*
X140019048Y-88785714D01*
X140019048Y-88166666D01*
X138252381Y-73666666D02*
X137776190Y-74000000D01*
X138252381Y-74238095D02*
X137252381Y-74238095D01*
X137252381Y-73857142D01*
X137300000Y-73761904D01*
X137347619Y-73714285D01*
X137442857Y-73666666D01*
X137585714Y-73666666D01*
X137680952Y-73714285D01*
X137728571Y-73761904D01*
X137776190Y-73857142D01*
X137776190Y-74238095D01*
X137252381Y-72761904D02*
X137252381Y-73238095D01*
X137728571Y-73285714D01*
X137680952Y-73238095D01*
X137633333Y-73142857D01*
X137633333Y-72904761D01*
X137680952Y-72809523D01*
X137728571Y-72761904D01*
X137823810Y-72714285D01*
X138061905Y-72714285D01*
X138157143Y-72761904D01*
X138204762Y-72809523D01*
X138252381Y-72904761D01*
X138252381Y-73142857D01*
X138204762Y-73238095D01*
X138157143Y-73285714D01*
X139852381Y-73666666D02*
X139376190Y-74000000D01*
X139852381Y-74238095D02*
X138852381Y-74238095D01*
X138852381Y-73857142D01*
X138900000Y-73761904D01*
X138947619Y-73714285D01*
X139042857Y-73666666D01*
X139185714Y-73666666D01*
X139280952Y-73714285D01*
X139328571Y-73761904D01*
X139376190Y-73857142D01*
X139376190Y-74238095D01*
X138852381Y-72809523D02*
X138852381Y-73000000D01*
X138900000Y-73095238D01*
X138947619Y-73142857D01*
X139090476Y-73238095D01*
X139280952Y-73285714D01*
X139661905Y-73285714D01*
X139757143Y-73238095D01*
X139804762Y-73190476D01*
X139852381Y-73095238D01*
X139852381Y-72904761D01*
X139804762Y-72809523D01*
X139757143Y-72761904D01*
X139661905Y-72714285D01*
X139423810Y-72714285D01*
X139328571Y-72761904D01*
X139280952Y-72809523D01*
X139233333Y-72904761D01*
X139233333Y-73095238D01*
X139280952Y-73190476D01*
X139328571Y-73238095D01*
X139423810Y-73285714D01*
X141452381Y-73666666D02*
X140976190Y-74000000D01*
X141452381Y-74238095D02*
X140452381Y-74238095D01*
X140452381Y-73857142D01*
X140500000Y-73761904D01*
X140547619Y-73714285D01*
X140642857Y-73666666D01*
X140785714Y-73666666D01*
X140880952Y-73714285D01*
X140928571Y-73761904D01*
X140976190Y-73857142D01*
X140976190Y-74238095D01*
X140452381Y-73333333D02*
X140452381Y-72666666D01*
X141452381Y-73095238D01*
X143052381Y-73666666D02*
X142576190Y-74000000D01*
X143052381Y-74238095D02*
X142052381Y-74238095D01*
X142052381Y-73857142D01*
X142100000Y-73761904D01*
X142147619Y-73714285D01*
X142242857Y-73666666D01*
X142385714Y-73666666D01*
X142480952Y-73714285D01*
X142528571Y-73761904D01*
X142576190Y-73857142D01*
X142576190Y-74238095D01*
X142480952Y-73095238D02*
X142433333Y-73190476D01*
X142385714Y-73238095D01*
X142290476Y-73285714D01*
X142242857Y-73285714D01*
X142147619Y-73238095D01*
X142100000Y-73190476D01*
X142052381Y-73095238D01*
X142052381Y-72904761D01*
X142100000Y-72809523D01*
X142147619Y-72761904D01*
X142242857Y-72714285D01*
X142290476Y-72714285D01*
X142385714Y-72761904D01*
X142433333Y-72809523D01*
X142480952Y-72904761D01*
X142480952Y-73095238D01*
X142528571Y-73190476D01*
X142576190Y-73238095D01*
X142671429Y-73285714D01*
X142861905Y-73285714D01*
X142957143Y-73238095D01*
X143004762Y-73190476D01*
X143052381Y-73095238D01*
X143052381Y-72904761D01*
X143004762Y-72809523D01*
X142957143Y-72761904D01*
X142861905Y-72714285D01*
X142671429Y-72714285D01*
X142576190Y-72761904D01*
X142528571Y-72809523D01*
X142480952Y-72904761D01*
X155733334Y-76852381D02*
X155400000Y-76376190D01*
X155161905Y-76852381D02*
X155161905Y-75852381D01*
X155542858Y-75852381D01*
X155638096Y-75900000D01*
X155685715Y-75947619D01*
X155733334Y-76042857D01*
X155733334Y-76185714D01*
X155685715Y-76280952D01*
X155638096Y-76328571D01*
X155542858Y-76376190D01*
X155161905Y-76376190D01*
X156209524Y-76852381D02*
X156400000Y-76852381D01*
X156495239Y-76804762D01*
X156542858Y-76757143D01*
X156638096Y-76614286D01*
X156685715Y-76423810D01*
X156685715Y-76042857D01*
X156638096Y-75947619D01*
X156590477Y-75900000D01*
X156495239Y-75852381D01*
X156304762Y-75852381D01*
X156209524Y-75900000D01*
X156161905Y-75947619D01*
X156114286Y-76042857D01*
X156114286Y-76280952D01*
X156161905Y-76376190D01*
X156209524Y-76423810D01*
X156304762Y-76471429D01*
X156495239Y-76471429D01*
X156590477Y-76423810D01*
X156638096Y-76376190D01*
X156685715Y-76280952D01*
X154757143Y-80052381D02*
X154423809Y-79576190D01*
X154185714Y-80052381D02*
X154185714Y-79052381D01*
X154566667Y-79052381D01*
X154661905Y-79100000D01*
X154709524Y-79147619D01*
X154757143Y-79242857D01*
X154757143Y-79385714D01*
X154709524Y-79480952D01*
X154661905Y-79528571D01*
X154566667Y-79576190D01*
X154185714Y-79576190D01*
X155709524Y-80052381D02*
X155138095Y-80052381D01*
X155423809Y-80052381D02*
X155423809Y-79052381D01*
X155328571Y-79195238D01*
X155233333Y-79290476D01*
X155138095Y-79338095D01*
X156328571Y-79052381D02*
X156423810Y-79052381D01*
X156519048Y-79100000D01*
X156566667Y-79147619D01*
X156614286Y-79242857D01*
X156661905Y-79433333D01*
X156661905Y-79671429D01*
X156614286Y-79861905D01*
X156566667Y-79957143D01*
X156519048Y-80004762D01*
X156423810Y-80052381D01*
X156328571Y-80052381D01*
X156233333Y-80004762D01*
X156185714Y-79957143D01*
X156138095Y-79861905D01*
X156090476Y-79671429D01*
X156090476Y-79433333D01*
X156138095Y-79242857D01*
X156185714Y-79147619D01*
X156233333Y-79100000D01*
X156328571Y-79052381D01*
X154757143Y-83252381D02*
X154423809Y-82776190D01*
X154185714Y-83252381D02*
X154185714Y-82252381D01*
X154566667Y-82252381D01*
X154661905Y-82300000D01*
X154709524Y-82347619D01*
X154757143Y-82442857D01*
X154757143Y-82585714D01*
X154709524Y-82680952D01*
X154661905Y-82728571D01*
X154566667Y-82776190D01*
X154185714Y-82776190D01*
X155709524Y-83252381D02*
X155138095Y-83252381D01*
X155423809Y-83252381D02*
X155423809Y-82252381D01*
X155328571Y-82395238D01*
X155233333Y-82490476D01*
X155138095Y-82538095D01*
X156661905Y-83252381D02*
X156090476Y-83252381D01*
X156376190Y-83252381D02*
X156376190Y-82252381D01*
X156280952Y-82395238D01*
X156185714Y-82490476D01*
X156090476Y-82538095D01*
X154757143Y-86452381D02*
X154423809Y-85976190D01*
X154185714Y-86452381D02*
X154185714Y-85452381D01*
X154566667Y-85452381D01*
X154661905Y-85500000D01*
X154709524Y-85547619D01*
X154757143Y-85642857D01*
X154757143Y-85785714D01*
X154709524Y-85880952D01*
X154661905Y-85928571D01*
X154566667Y-85976190D01*
X154185714Y-85976190D01*
X155709524Y-86452381D02*
X155138095Y-86452381D01*
X155423809Y-86452381D02*
X155423809Y-85452381D01*
X155328571Y-85595238D01*
X155233333Y-85690476D01*
X155138095Y-85738095D01*
X156090476Y-85547619D02*
X156138095Y-85500000D01*
X156233333Y-85452381D01*
X156471429Y-85452381D01*
X156566667Y-85500000D01*
X156614286Y-85547619D01*
X156661905Y-85642857D01*
X156661905Y-85738095D01*
X156614286Y-85880952D01*
X156042857Y-86452381D01*
X156661905Y-86452381D01*
X154757143Y-78452381D02*
X154423809Y-77976190D01*
X154185714Y-78452381D02*
X154185714Y-77452381D01*
X154566667Y-77452381D01*
X154661905Y-77500000D01*
X154709524Y-77547619D01*
X154757143Y-77642857D01*
X154757143Y-77785714D01*
X154709524Y-77880952D01*
X154661905Y-77928571D01*
X154566667Y-77976190D01*
X154185714Y-77976190D01*
X155709524Y-78452381D02*
X155138095Y-78452381D01*
X155423809Y-78452381D02*
X155423809Y-77452381D01*
X155328571Y-77595238D01*
X155233333Y-77690476D01*
X155138095Y-77738095D01*
X156042857Y-77452381D02*
X156661905Y-77452381D01*
X156328571Y-77833333D01*
X156471429Y-77833333D01*
X156566667Y-77880952D01*
X156614286Y-77928571D01*
X156661905Y-78023810D01*
X156661905Y-78261905D01*
X156614286Y-78357143D01*
X156566667Y-78404762D01*
X156471429Y-78452381D01*
X156185714Y-78452381D01*
X156090476Y-78404762D01*
X156042857Y-78357143D01*
X154757143Y-81652381D02*
X154423809Y-81176190D01*
X154185714Y-81652381D02*
X154185714Y-80652381D01*
X154566667Y-80652381D01*
X154661905Y-80700000D01*
X154709524Y-80747619D01*
X154757143Y-80842857D01*
X154757143Y-80985714D01*
X154709524Y-81080952D01*
X154661905Y-81128571D01*
X154566667Y-81176190D01*
X154185714Y-81176190D01*
X155709524Y-81652381D02*
X155138095Y-81652381D01*
X155423809Y-81652381D02*
X155423809Y-80652381D01*
X155328571Y-80795238D01*
X155233333Y-80890476D01*
X155138095Y-80938095D01*
X156566667Y-80985714D02*
X156566667Y-81652381D01*
X156328571Y-80604762D02*
X156090476Y-81319048D01*
X156709524Y-81319048D01*
X154757143Y-84852381D02*
X154423809Y-84376190D01*
X154185714Y-84852381D02*
X154185714Y-83852381D01*
X154566667Y-83852381D01*
X154661905Y-83900000D01*
X154709524Y-83947619D01*
X154757143Y-84042857D01*
X154757143Y-84185714D01*
X154709524Y-84280952D01*
X154661905Y-84328571D01*
X154566667Y-84376190D01*
X154185714Y-84376190D01*
X155709524Y-84852381D02*
X155138095Y-84852381D01*
X155423809Y-84852381D02*
X155423809Y-83852381D01*
X155328571Y-83995238D01*
X155233333Y-84090476D01*
X155138095Y-84138095D01*
X156614286Y-83852381D02*
X156138095Y-83852381D01*
X156090476Y-84328571D01*
X156138095Y-84280952D01*
X156233333Y-84233333D01*
X156471429Y-84233333D01*
X156566667Y-84280952D01*
X156614286Y-84328571D01*
X156661905Y-84423810D01*
X156661905Y-84661905D01*
X156614286Y-84757143D01*
X156566667Y-84804762D01*
X156471429Y-84852381D01*
X156233333Y-84852381D01*
X156138095Y-84804762D01*
X156090476Y-84757143D01*
X154757143Y-88052381D02*
X154423809Y-87576190D01*
X154185714Y-88052381D02*
X154185714Y-87052381D01*
X154566667Y-87052381D01*
X154661905Y-87100000D01*
X154709524Y-87147619D01*
X154757143Y-87242857D01*
X154757143Y-87385714D01*
X154709524Y-87480952D01*
X154661905Y-87528571D01*
X154566667Y-87576190D01*
X154185714Y-87576190D01*
X155709524Y-88052381D02*
X155138095Y-88052381D01*
X155423809Y-88052381D02*
X155423809Y-87052381D01*
X155328571Y-87195238D01*
X155233333Y-87290476D01*
X155138095Y-87338095D01*
X156566667Y-87052381D02*
X156376190Y-87052381D01*
X156280952Y-87100000D01*
X156233333Y-87147619D01*
X156138095Y-87290476D01*
X156090476Y-87480952D01*
X156090476Y-87861905D01*
X156138095Y-87957143D01*
X156185714Y-88004762D01*
X156280952Y-88052381D01*
X156471429Y-88052381D01*
X156566667Y-88004762D01*
X156614286Y-87957143D01*
X156661905Y-87861905D01*
X156661905Y-87623810D01*
X156614286Y-87528571D01*
X156566667Y-87480952D01*
X156471429Y-87433333D01*
X156280952Y-87433333D01*
X156185714Y-87480952D01*
X156138095Y-87528571D01*
X156090476Y-87623810D01*
X142366667Y-78416667D02*
X142366667Y-78983333D01*
X142400000Y-79050000D01*
X142433333Y-79083333D01*
X142500000Y-79116667D01*
X142633333Y-79116667D01*
X142700000Y-79083333D01*
X142733333Y-79050000D01*
X142766667Y-78983333D01*
X142766667Y-78416667D01*
X143466666Y-79116667D02*
X143066666Y-79116667D01*
X143266666Y-79116667D02*
X143266666Y-78416667D01*
X143200000Y-78516667D01*
X143133333Y-78583333D01*
X143066666Y-78616667D01*
M02*
