G04 #@! TF.FileFunction,Paste,Top*
%FSLAX46Y46*%
G04 Gerber Fmt 4.6, Leading zero omitted, Abs format (unit mm)*
G04 Created by KiCad (PCBNEW 4.0.2+e4-6225~38~ubuntu14.04.1-stable) date Fri 29 Jul 2016 09:52:58 PM PDT*
%MOMM*%
G01*
G04 APERTURE LIST*
%ADD10C,0.100000*%
%ADD11R,0.800000X0.750000*%
%ADD12R,0.900000X0.500000*%
%ADD13R,0.500000X0.900000*%
%ADD14R,0.350000X0.350000*%
%ADD15R,0.900000X0.300000*%
%ADD16R,0.300000X0.900000*%
%ADD17R,1.080000X1.080000*%
G04 APERTURE END LIST*
D10*
D11*
X138550000Y-80400000D03*
X137050000Y-80400000D03*
X153050000Y-76400000D03*
X151550000Y-76400000D03*
X152950000Y-79600000D03*
X151450000Y-79600000D03*
X152950000Y-82800000D03*
X151450000Y-82800000D03*
X152950000Y-86000000D03*
X151450000Y-86000000D03*
D12*
X141500000Y-87450000D03*
X141500000Y-85950000D03*
X143100000Y-87450000D03*
X143100000Y-85950000D03*
D13*
X135650000Y-82200000D03*
X137150000Y-82200000D03*
D12*
X139900000Y-87450000D03*
X139900000Y-85950000D03*
X137800000Y-75050000D03*
X137800000Y-76550000D03*
X139400000Y-75050000D03*
X139400000Y-76550000D03*
X141000000Y-75050000D03*
X141000000Y-76550000D03*
X142600000Y-75050000D03*
X142600000Y-76550000D03*
D13*
X158950000Y-76400000D03*
X157450000Y-76400000D03*
X158950000Y-79600000D03*
X157450000Y-79600000D03*
X158950000Y-82800000D03*
X157450000Y-82800000D03*
X158950000Y-86000000D03*
X157450000Y-86000000D03*
X157450000Y-78000000D03*
X158950000Y-78000000D03*
X157450000Y-81200000D03*
X158950000Y-81200000D03*
X157450000Y-84400000D03*
X158950000Y-84400000D03*
X157450000Y-87600000D03*
X158950000Y-87600000D03*
D14*
X141650000Y-80150000D03*
D15*
X141350000Y-80650000D03*
X141350000Y-81150000D03*
X141350000Y-81650000D03*
X141350000Y-82150000D03*
D14*
X141650000Y-82650000D03*
D16*
X142150000Y-82950000D03*
X142650000Y-82950000D03*
X143150000Y-82950000D03*
X143650000Y-82950000D03*
D14*
X144150000Y-82650000D03*
D15*
X144450000Y-82150000D03*
X144450000Y-81650000D03*
X144450000Y-81150000D03*
X144450000Y-80650000D03*
D14*
X144150000Y-80150000D03*
D16*
X143650000Y-79850000D03*
X143150000Y-79850000D03*
X142650000Y-79850000D03*
X142150000Y-79850000D03*
D17*
X142900000Y-81400000D03*
M02*
