G04 #@! TF.FileFunction,Legend,Bot*
%FSLAX46Y46*%
G04 Gerber Fmt 4.6, Leading zero omitted, Abs format (unit mm)*
G04 Created by KiCad (PCBNEW 4.0.2+e4-6225~38~ubuntu14.04.1-stable) date Fri 29 Jul 2016 09:52:58 PM PDT*
%MOMM*%
G01*
G04 APERTURE LIST*
%ADD10C,0.100000*%
%ADD11C,0.300000*%
%ADD12C,0.150000*%
%ADD13C,0.010000*%
G04 APERTURE END LIST*
D10*
D11*
X146985714Y-84178571D02*
X147485714Y-83464286D01*
X147842857Y-84178571D02*
X147842857Y-82678571D01*
X147271429Y-82678571D01*
X147128571Y-82750000D01*
X147057143Y-82821429D01*
X146985714Y-82964286D01*
X146985714Y-83178571D01*
X147057143Y-83321429D01*
X147128571Y-83392857D01*
X147271429Y-83464286D01*
X147842857Y-83464286D01*
X145557143Y-84178571D02*
X146414286Y-84178571D01*
X145985714Y-84178571D02*
X145985714Y-82678571D01*
X146128571Y-82892857D01*
X146271429Y-83035714D01*
X146414286Y-83107143D01*
X144628572Y-82678571D02*
X144485715Y-82678571D01*
X144342858Y-82750000D01*
X144271429Y-82821429D01*
X144200000Y-82964286D01*
X144128572Y-83250000D01*
X144128572Y-83607143D01*
X144200000Y-83892857D01*
X144271429Y-84035714D01*
X144342858Y-84107143D01*
X144485715Y-84178571D01*
X144628572Y-84178571D01*
X144771429Y-84107143D01*
X144842858Y-84035714D01*
X144914286Y-83892857D01*
X144985715Y-83607143D01*
X144985715Y-83250000D01*
X144914286Y-82964286D01*
X144842858Y-82821429D01*
X144771429Y-82750000D01*
X144628572Y-82678571D01*
X143200001Y-82678571D02*
X143057144Y-82678571D01*
X142914287Y-82750000D01*
X142842858Y-82821429D01*
X142771429Y-82964286D01*
X142700001Y-83250000D01*
X142700001Y-83607143D01*
X142771429Y-83892857D01*
X142842858Y-84035714D01*
X142914287Y-84107143D01*
X143057144Y-84178571D01*
X143200001Y-84178571D01*
X143342858Y-84107143D01*
X143414287Y-84035714D01*
X143485715Y-83892857D01*
X143557144Y-83607143D01*
X143557144Y-83250000D01*
X143485715Y-82964286D01*
X143414287Y-82821429D01*
X143342858Y-82750000D01*
X143200001Y-82678571D01*
X142200001Y-82678571D02*
X141271430Y-82678571D01*
X141771430Y-83250000D01*
X141557144Y-83250000D01*
X141414287Y-83321429D01*
X141342858Y-83392857D01*
X141271430Y-83535714D01*
X141271430Y-83892857D01*
X141342858Y-84035714D01*
X141414287Y-84107143D01*
X141557144Y-84178571D01*
X141985716Y-84178571D01*
X142128573Y-84107143D01*
X142200001Y-84035714D01*
X139628573Y-83178571D02*
X139271430Y-84178571D01*
X138914288Y-83178571D01*
X137557145Y-84178571D02*
X138414288Y-84178571D01*
X137985716Y-84178571D02*
X137985716Y-82678571D01*
X138128573Y-82892857D01*
X138271431Y-83035714D01*
X138414288Y-83107143D01*
X136914288Y-84035714D02*
X136842860Y-84107143D01*
X136914288Y-84178571D01*
X136985717Y-84107143D01*
X136914288Y-84035714D01*
X136914288Y-84178571D01*
X135914288Y-82678571D02*
X135771431Y-82678571D01*
X135628574Y-82750000D01*
X135557145Y-82821429D01*
X135485716Y-82964286D01*
X135414288Y-83250000D01*
X135414288Y-83607143D01*
X135485716Y-83892857D01*
X135557145Y-84035714D01*
X135628574Y-84107143D01*
X135771431Y-84178571D01*
X135914288Y-84178571D01*
X136057145Y-84107143D01*
X136128574Y-84035714D01*
X136200002Y-83892857D01*
X136271431Y-83607143D01*
X136271431Y-83250000D01*
X136200002Y-82964286D01*
X136128574Y-82821429D01*
X136057145Y-82750000D01*
X135914288Y-82678571D01*
X134771431Y-84035714D02*
X134700003Y-84107143D01*
X134771431Y-84178571D01*
X134842860Y-84107143D01*
X134771431Y-84035714D01*
X134771431Y-84178571D01*
X133771431Y-82678571D02*
X133628574Y-82678571D01*
X133485717Y-82750000D01*
X133414288Y-82821429D01*
X133342859Y-82964286D01*
X133271431Y-83250000D01*
X133271431Y-83607143D01*
X133342859Y-83892857D01*
X133414288Y-84035714D01*
X133485717Y-84107143D01*
X133628574Y-84178571D01*
X133771431Y-84178571D01*
X133914288Y-84107143D01*
X133985717Y-84035714D01*
X134057145Y-83892857D01*
X134128574Y-83607143D01*
X134128574Y-83250000D01*
X134057145Y-82964286D01*
X133985717Y-82821429D01*
X133914288Y-82750000D01*
X133771431Y-82678571D01*
X147914286Y-86150000D02*
X147200000Y-86150000D01*
X148057143Y-86578571D02*
X147557143Y-85078571D01*
X147057143Y-86578571D01*
X146557143Y-85578571D02*
X146557143Y-86578571D01*
X146557143Y-85721429D02*
X146485715Y-85650000D01*
X146342857Y-85578571D01*
X146128572Y-85578571D01*
X145985715Y-85650000D01*
X145914286Y-85792857D01*
X145914286Y-86578571D01*
X144557143Y-86578571D02*
X144557143Y-85792857D01*
X144628572Y-85650000D01*
X144771429Y-85578571D01*
X145057143Y-85578571D01*
X145200000Y-85650000D01*
X144557143Y-86507143D02*
X144700000Y-86578571D01*
X145057143Y-86578571D01*
X145200000Y-86507143D01*
X145271429Y-86364286D01*
X145271429Y-86221429D01*
X145200000Y-86078571D01*
X145057143Y-86007143D01*
X144700000Y-86007143D01*
X144557143Y-85935714D01*
X143628571Y-86578571D02*
X143771429Y-86507143D01*
X143842857Y-86364286D01*
X143842857Y-85078571D01*
X142842857Y-86578571D02*
X142985715Y-86507143D01*
X143057143Y-86435714D01*
X143128572Y-86292857D01*
X143128572Y-85864286D01*
X143057143Y-85721429D01*
X142985715Y-85650000D01*
X142842857Y-85578571D01*
X142628572Y-85578571D01*
X142485715Y-85650000D01*
X142414286Y-85721429D01*
X142342857Y-85864286D01*
X142342857Y-86292857D01*
X142414286Y-86435714D01*
X142485715Y-86507143D01*
X142628572Y-86578571D01*
X142842857Y-86578571D01*
X141057143Y-85578571D02*
X141057143Y-86792857D01*
X141128572Y-86935714D01*
X141200000Y-87007143D01*
X141342857Y-87078571D01*
X141557143Y-87078571D01*
X141700000Y-87007143D01*
X141057143Y-86507143D02*
X141200000Y-86578571D01*
X141485714Y-86578571D01*
X141628572Y-86507143D01*
X141700000Y-86435714D01*
X141771429Y-86292857D01*
X141771429Y-85864286D01*
X141700000Y-85721429D01*
X141628572Y-85650000D01*
X141485714Y-85578571D01*
X141200000Y-85578571D01*
X141057143Y-85650000D01*
X139271429Y-85007143D02*
X140557143Y-86935714D01*
X138771428Y-86578571D02*
X138771428Y-85078571D01*
X138414285Y-85078571D01*
X138200000Y-85150000D01*
X138057142Y-85292857D01*
X137985714Y-85435714D01*
X137914285Y-85721429D01*
X137914285Y-85935714D01*
X137985714Y-86221429D01*
X138057142Y-86364286D01*
X138200000Y-86507143D01*
X138414285Y-86578571D01*
X138771428Y-86578571D01*
X137271428Y-86578571D02*
X137271428Y-85578571D01*
X137271428Y-85078571D02*
X137342857Y-85150000D01*
X137271428Y-85221429D01*
X137200000Y-85150000D01*
X137271428Y-85078571D01*
X137271428Y-85221429D01*
X135914285Y-85578571D02*
X135914285Y-86792857D01*
X135985714Y-86935714D01*
X136057142Y-87007143D01*
X136199999Y-87078571D01*
X136414285Y-87078571D01*
X136557142Y-87007143D01*
X135914285Y-86507143D02*
X136057142Y-86578571D01*
X136342856Y-86578571D01*
X136485714Y-86507143D01*
X136557142Y-86435714D01*
X136628571Y-86292857D01*
X136628571Y-85864286D01*
X136557142Y-85721429D01*
X136485714Y-85650000D01*
X136342856Y-85578571D01*
X136057142Y-85578571D01*
X135914285Y-85650000D01*
X135199999Y-86578571D02*
X135199999Y-85578571D01*
X135199999Y-85078571D02*
X135271428Y-85150000D01*
X135199999Y-85221429D01*
X135128571Y-85150000D01*
X135199999Y-85078571D01*
X135199999Y-85221429D01*
X134699999Y-85578571D02*
X134128570Y-85578571D01*
X134485713Y-85078571D02*
X134485713Y-86364286D01*
X134414285Y-86507143D01*
X134271427Y-86578571D01*
X134128570Y-86578571D01*
X132985713Y-86578571D02*
X132985713Y-85792857D01*
X133057142Y-85650000D01*
X133199999Y-85578571D01*
X133485713Y-85578571D01*
X133628570Y-85650000D01*
X132985713Y-86507143D02*
X133128570Y-86578571D01*
X133485713Y-86578571D01*
X133628570Y-86507143D01*
X133699999Y-86364286D01*
X133699999Y-86221429D01*
X133628570Y-86078571D01*
X133485713Y-86007143D01*
X133128570Y-86007143D01*
X132985713Y-85935714D01*
X132057141Y-86578571D02*
X132199999Y-86507143D01*
X132271427Y-86364286D01*
X132271427Y-85078571D01*
X130342856Y-86578571D02*
X130342856Y-85078571D01*
X128557142Y-85007143D02*
X129842856Y-86935714D01*
X127771427Y-85078571D02*
X127485713Y-85078571D01*
X127342855Y-85150000D01*
X127199998Y-85292857D01*
X127128570Y-85578571D01*
X127128570Y-86078571D01*
X127199998Y-86364286D01*
X127342855Y-86507143D01*
X127485713Y-86578571D01*
X127771427Y-86578571D01*
X127914284Y-86507143D01*
X128057141Y-86364286D01*
X128128570Y-86078571D01*
X128128570Y-85578571D01*
X128057141Y-85292857D01*
X127914284Y-85150000D01*
X127771427Y-85078571D01*
X126557141Y-86507143D02*
X126414284Y-86578571D01*
X126128569Y-86578571D01*
X125985712Y-86507143D01*
X125914284Y-86364286D01*
X125914284Y-86292857D01*
X125985712Y-86150000D01*
X126128569Y-86078571D01*
X126342855Y-86078571D01*
X126485712Y-86007143D01*
X126557141Y-85864286D01*
X126557141Y-85792857D01*
X126485712Y-85650000D01*
X126342855Y-85578571D01*
X126128569Y-85578571D01*
X125985712Y-85650000D01*
X147842857Y-87978571D02*
X147842857Y-89478571D01*
X147842857Y-88050000D02*
X147700000Y-87978571D01*
X147414286Y-87978571D01*
X147271429Y-88050000D01*
X147200000Y-88121429D01*
X147128571Y-88264286D01*
X147128571Y-88692857D01*
X147200000Y-88835714D01*
X147271429Y-88907143D01*
X147414286Y-88978571D01*
X147700000Y-88978571D01*
X147842857Y-88907143D01*
X146271428Y-88978571D02*
X146414286Y-88907143D01*
X146485714Y-88764286D01*
X146485714Y-87478571D01*
X145057143Y-87978571D02*
X145057143Y-88978571D01*
X145700000Y-87978571D02*
X145700000Y-88764286D01*
X145628572Y-88907143D01*
X145485714Y-88978571D01*
X145271429Y-88978571D01*
X145128572Y-88907143D01*
X145057143Y-88835714D01*
X143700000Y-87978571D02*
X143700000Y-89192857D01*
X143771429Y-89335714D01*
X143842857Y-89407143D01*
X143985714Y-89478571D01*
X144200000Y-89478571D01*
X144342857Y-89407143D01*
X143700000Y-88907143D02*
X143842857Y-88978571D01*
X144128571Y-88978571D01*
X144271429Y-88907143D01*
X144342857Y-88835714D01*
X144414286Y-88692857D01*
X144414286Y-88264286D01*
X144342857Y-88121429D01*
X144271429Y-88050000D01*
X144128571Y-87978571D01*
X143842857Y-87978571D01*
X143700000Y-88050000D01*
X142342857Y-87978571D02*
X142342857Y-89192857D01*
X142414286Y-89335714D01*
X142485714Y-89407143D01*
X142628571Y-89478571D01*
X142842857Y-89478571D01*
X142985714Y-89407143D01*
X142342857Y-88907143D02*
X142485714Y-88978571D01*
X142771428Y-88978571D01*
X142914286Y-88907143D01*
X142985714Y-88835714D01*
X143057143Y-88692857D01*
X143057143Y-88264286D01*
X142985714Y-88121429D01*
X142914286Y-88050000D01*
X142771428Y-87978571D01*
X142485714Y-87978571D01*
X142342857Y-88050000D01*
X141628571Y-88835714D02*
X141557143Y-88907143D01*
X141628571Y-88978571D01*
X141700000Y-88907143D01*
X141628571Y-88835714D01*
X141628571Y-88978571D01*
X140342857Y-88907143D02*
X140485714Y-88978571D01*
X140771428Y-88978571D01*
X140914285Y-88907143D01*
X140985714Y-88764286D01*
X140985714Y-88192857D01*
X140914285Y-88050000D01*
X140771428Y-87978571D01*
X140485714Y-87978571D01*
X140342857Y-88050000D01*
X140271428Y-88192857D01*
X140271428Y-88335714D01*
X140985714Y-88478571D01*
X139057143Y-88907143D02*
X139200000Y-88978571D01*
X139485714Y-88978571D01*
X139628571Y-88907143D01*
X139700000Y-88764286D01*
X139700000Y-88192857D01*
X139628571Y-88050000D01*
X139485714Y-87978571D01*
X139200000Y-87978571D01*
X139057143Y-88050000D01*
X138985714Y-88192857D01*
X138985714Y-88335714D01*
X139700000Y-88478571D01*
X136485714Y-88978571D02*
X137200000Y-88978571D01*
X137200000Y-87478571D01*
X135342857Y-88978571D02*
X135342857Y-88192857D01*
X135414286Y-88050000D01*
X135557143Y-87978571D01*
X135842857Y-87978571D01*
X135985714Y-88050000D01*
X135342857Y-88907143D02*
X135485714Y-88978571D01*
X135842857Y-88978571D01*
X135985714Y-88907143D01*
X136057143Y-88764286D01*
X136057143Y-88621429D01*
X135985714Y-88478571D01*
X135842857Y-88407143D01*
X135485714Y-88407143D01*
X135342857Y-88335714D01*
X134628571Y-88978571D02*
X134628571Y-87478571D01*
X134628571Y-88050000D02*
X134485714Y-87978571D01*
X134200000Y-87978571D01*
X134057143Y-88050000D01*
X133985714Y-88121429D01*
X133914285Y-88264286D01*
X133914285Y-88692857D01*
X133985714Y-88835714D01*
X134057143Y-88907143D01*
X134200000Y-88978571D01*
X134485714Y-88978571D01*
X134628571Y-88907143D01*
X133342857Y-88907143D02*
X133200000Y-88978571D01*
X132914285Y-88978571D01*
X132771428Y-88907143D01*
X132700000Y-88764286D01*
X132700000Y-88692857D01*
X132771428Y-88550000D01*
X132914285Y-88478571D01*
X133128571Y-88478571D01*
X133271428Y-88407143D01*
X133342857Y-88264286D01*
X133342857Y-88192857D01*
X133271428Y-88050000D01*
X133128571Y-87978571D01*
X132914285Y-87978571D01*
X132771428Y-88050000D01*
X130985714Y-87621429D02*
X130914285Y-87550000D01*
X130771428Y-87478571D01*
X130414285Y-87478571D01*
X130271428Y-87550000D01*
X130199999Y-87621429D01*
X130128571Y-87764286D01*
X130128571Y-87907143D01*
X130199999Y-88121429D01*
X131057142Y-88978571D01*
X130128571Y-88978571D01*
X129200000Y-87478571D02*
X129057143Y-87478571D01*
X128914286Y-87550000D01*
X128842857Y-87621429D01*
X128771428Y-87764286D01*
X128700000Y-88050000D01*
X128700000Y-88407143D01*
X128771428Y-88692857D01*
X128842857Y-88835714D01*
X128914286Y-88907143D01*
X129057143Y-88978571D01*
X129200000Y-88978571D01*
X129342857Y-88907143D01*
X129414286Y-88835714D01*
X129485714Y-88692857D01*
X129557143Y-88407143D01*
X129557143Y-88050000D01*
X129485714Y-87764286D01*
X129414286Y-87621429D01*
X129342857Y-87550000D01*
X129200000Y-87478571D01*
X127271429Y-88978571D02*
X128128572Y-88978571D01*
X127700000Y-88978571D02*
X127700000Y-87478571D01*
X127842857Y-87692857D01*
X127985715Y-87835714D01*
X128128572Y-87907143D01*
X125985715Y-87478571D02*
X126271429Y-87478571D01*
X126414286Y-87550000D01*
X126485715Y-87621429D01*
X126628572Y-87835714D01*
X126700001Y-88121429D01*
X126700001Y-88692857D01*
X126628572Y-88835714D01*
X126557144Y-88907143D01*
X126414286Y-88978571D01*
X126128572Y-88978571D01*
X125985715Y-88907143D01*
X125914286Y-88835714D01*
X125842858Y-88692857D01*
X125842858Y-88335714D01*
X125914286Y-88192857D01*
X125985715Y-88121429D01*
X126128572Y-88050000D01*
X126414286Y-88050000D01*
X126557144Y-88121429D01*
X126628572Y-88192857D01*
X126700001Y-88335714D01*
X147842857Y-91378571D02*
X147842857Y-89878571D01*
X147200000Y-91378571D02*
X147200000Y-90592857D01*
X147271429Y-90450000D01*
X147414286Y-90378571D01*
X147628571Y-90378571D01*
X147771429Y-90450000D01*
X147842857Y-90521429D01*
X146700000Y-90378571D02*
X146128571Y-90378571D01*
X146485714Y-89878571D02*
X146485714Y-91164286D01*
X146414286Y-91307143D01*
X146271428Y-91378571D01*
X146128571Y-91378571D01*
X145842857Y-90378571D02*
X145271428Y-90378571D01*
X145628571Y-89878571D02*
X145628571Y-91164286D01*
X145557143Y-91307143D01*
X145414285Y-91378571D01*
X145271428Y-91378571D01*
X144771428Y-90378571D02*
X144771428Y-91878571D01*
X144771428Y-90450000D02*
X144628571Y-90378571D01*
X144342857Y-90378571D01*
X144200000Y-90450000D01*
X144128571Y-90521429D01*
X144057142Y-90664286D01*
X144057142Y-91092857D01*
X144128571Y-91235714D01*
X144200000Y-91307143D01*
X144342857Y-91378571D01*
X144628571Y-91378571D01*
X144771428Y-91307143D01*
X143414285Y-91235714D02*
X143342857Y-91307143D01*
X143414285Y-91378571D01*
X143485714Y-91307143D01*
X143414285Y-91235714D01*
X143414285Y-91378571D01*
X143414285Y-90450000D02*
X143342857Y-90521429D01*
X143414285Y-90592857D01*
X143485714Y-90521429D01*
X143414285Y-90450000D01*
X143414285Y-90592857D01*
X141628571Y-89807143D02*
X142914285Y-91735714D01*
X140057142Y-89807143D02*
X141342856Y-91735714D01*
X139557141Y-90378571D02*
X139557141Y-91878571D01*
X139557141Y-90450000D02*
X139414284Y-90378571D01*
X139128570Y-90378571D01*
X138985713Y-90450000D01*
X138914284Y-90521429D01*
X138842855Y-90664286D01*
X138842855Y-91092857D01*
X138914284Y-91235714D01*
X138985713Y-91307143D01*
X139128570Y-91378571D01*
X139414284Y-91378571D01*
X139557141Y-91307143D01*
X137985712Y-91378571D02*
X138128570Y-91307143D01*
X138199998Y-91164286D01*
X138199998Y-89878571D01*
X136771427Y-90378571D02*
X136771427Y-91378571D01*
X137414284Y-90378571D02*
X137414284Y-91164286D01*
X137342856Y-91307143D01*
X137199998Y-91378571D01*
X136985713Y-91378571D01*
X136842856Y-91307143D01*
X136771427Y-91235714D01*
X135414284Y-90378571D02*
X135414284Y-91592857D01*
X135485713Y-91735714D01*
X135557141Y-91807143D01*
X135699998Y-91878571D01*
X135914284Y-91878571D01*
X136057141Y-91807143D01*
X135414284Y-91307143D02*
X135557141Y-91378571D01*
X135842855Y-91378571D01*
X135985713Y-91307143D01*
X136057141Y-91235714D01*
X136128570Y-91092857D01*
X136128570Y-90664286D01*
X136057141Y-90521429D01*
X135985713Y-90450000D01*
X135842855Y-90378571D01*
X135557141Y-90378571D01*
X135414284Y-90450000D01*
X134057141Y-90378571D02*
X134057141Y-91592857D01*
X134128570Y-91735714D01*
X134199998Y-91807143D01*
X134342855Y-91878571D01*
X134557141Y-91878571D01*
X134699998Y-91807143D01*
X134057141Y-91307143D02*
X134199998Y-91378571D01*
X134485712Y-91378571D01*
X134628570Y-91307143D01*
X134699998Y-91235714D01*
X134771427Y-91092857D01*
X134771427Y-90664286D01*
X134699998Y-90521429D01*
X134628570Y-90450000D01*
X134485712Y-90378571D01*
X134199998Y-90378571D01*
X134057141Y-90450000D01*
X133342855Y-91235714D02*
X133271427Y-91307143D01*
X133342855Y-91378571D01*
X133414284Y-91307143D01*
X133342855Y-91235714D01*
X133342855Y-91378571D01*
X132057141Y-91307143D02*
X132199998Y-91378571D01*
X132485712Y-91378571D01*
X132628569Y-91307143D01*
X132699998Y-91164286D01*
X132699998Y-90592857D01*
X132628569Y-90450000D01*
X132485712Y-90378571D01*
X132199998Y-90378571D01*
X132057141Y-90450000D01*
X131985712Y-90592857D01*
X131985712Y-90735714D01*
X132699998Y-90878571D01*
X130771427Y-91307143D02*
X130914284Y-91378571D01*
X131199998Y-91378571D01*
X131342855Y-91307143D01*
X131414284Y-91164286D01*
X131414284Y-90592857D01*
X131342855Y-90450000D01*
X131199998Y-90378571D01*
X130914284Y-90378571D01*
X130771427Y-90450000D01*
X130699998Y-90592857D01*
X130699998Y-90735714D01*
X131414284Y-90878571D01*
D12*
X148900180Y-97500640D02*
X148900180Y-94300240D01*
X148900180Y-94300240D02*
X147099320Y-94300240D01*
X147099320Y-94300240D02*
X147099320Y-97500640D01*
X160200640Y-97500640D02*
X148900180Y-97500640D01*
X148900180Y-97500640D02*
X148900180Y-103299460D01*
X148900180Y-103299460D02*
X160200640Y-103299460D01*
X160200640Y-103299460D02*
X160200640Y-97500640D01*
X139799360Y-97500640D02*
X147099320Y-97500640D01*
X147099320Y-103299460D02*
X139799360Y-103299460D01*
X147099320Y-97500640D02*
X147099320Y-103299460D01*
X139799360Y-97500640D02*
X139799360Y-103299460D01*
D13*
G36*
X156413853Y-91969638D02*
X156575154Y-91928180D01*
X156777877Y-91863566D01*
X157004988Y-91782105D01*
X157239449Y-91690106D01*
X157464227Y-91593878D01*
X157602081Y-91529620D01*
X158153760Y-91226006D01*
X158666624Y-90871168D01*
X159137687Y-90468508D01*
X159563962Y-90021427D01*
X159942463Y-89533324D01*
X160270204Y-89007601D01*
X160544197Y-88447658D01*
X160723251Y-87975655D01*
X160893985Y-87365050D01*
X161001482Y-86755397D01*
X161047902Y-86150079D01*
X161035402Y-85552484D01*
X160966142Y-84965997D01*
X160842281Y-84394003D01*
X160665977Y-83839888D01*
X160439389Y-83307037D01*
X160164676Y-82798836D01*
X159843996Y-82318670D01*
X159479509Y-81869925D01*
X159073372Y-81455987D01*
X158627746Y-81080241D01*
X158144788Y-80746072D01*
X157626658Y-80456866D01*
X157075514Y-80216009D01*
X156493515Y-80026886D01*
X155882819Y-79892882D01*
X155538273Y-79844219D01*
X155385140Y-79830823D01*
X155192387Y-79819909D01*
X154985848Y-79812681D01*
X154809987Y-79810321D01*
X154376289Y-79810052D01*
X154376289Y-81839433D01*
X154302642Y-81839726D01*
X154214861Y-81853593D01*
X154083965Y-81890781D01*
X153925425Y-81945399D01*
X153754710Y-82011556D01*
X153587291Y-82083362D01*
X153438637Y-82154926D01*
X153357654Y-82199560D01*
X153169292Y-82328664D01*
X152965361Y-82497170D01*
X152763634Y-82688142D01*
X152581888Y-82884645D01*
X152437897Y-83069746D01*
X152426332Y-83086866D01*
X152211229Y-83467887D01*
X152055488Y-83875122D01*
X151958473Y-84310416D01*
X151933959Y-84514248D01*
X151912363Y-84752578D01*
X153492526Y-84752578D01*
X153492526Y-86258248D01*
X154212629Y-86258248D01*
X154212629Y-84752578D01*
X155554639Y-84752578D01*
X155554639Y-86258248D01*
X156242011Y-86258248D01*
X156242011Y-84752578D01*
X157845877Y-84752578D01*
X157845877Y-84642304D01*
X157836449Y-84508747D01*
X157810955Y-84334032D01*
X157773577Y-84139252D01*
X157728496Y-83945503D01*
X157679895Y-83773879D01*
X157664630Y-83728073D01*
X157506514Y-83366081D01*
X157291364Y-83025388D01*
X157032146Y-82717354D01*
X156715342Y-82424169D01*
X156373599Y-82184346D01*
X156013357Y-82001660D01*
X155641058Y-81879885D01*
X155579188Y-81865965D01*
X155390980Y-81826336D01*
X155390980Y-80859111D01*
X155480993Y-80873779D01*
X155851181Y-80940306D01*
X156172721Y-81012849D01*
X156462419Y-81096462D01*
X156737083Y-81196195D01*
X157013521Y-81317100D01*
X157109408Y-81363195D01*
X157623336Y-81650375D01*
X158093576Y-81985569D01*
X158518332Y-82366491D01*
X158895807Y-82790850D01*
X159224205Y-83256357D01*
X159501731Y-83760723D01*
X159726587Y-84301659D01*
X159896978Y-84876876D01*
X159910125Y-84932604D01*
X159940472Y-85087556D01*
X159963466Y-85262910D01*
X159980385Y-85472085D01*
X159992508Y-85728500D01*
X159995880Y-85832732D01*
X160001563Y-86067371D01*
X160002530Y-86253748D01*
X159997913Y-86408952D01*
X159986842Y-86550072D01*
X159968447Y-86694196D01*
X159944465Y-86843211D01*
X159815236Y-87409979D01*
X159626601Y-87951948D01*
X159381014Y-88465383D01*
X159080928Y-88946547D01*
X158728797Y-89391706D01*
X158327077Y-89797124D01*
X157878220Y-90159065D01*
X157674799Y-90298149D01*
X157406686Y-90459399D01*
X157117100Y-90611076D01*
X156828834Y-90742090D01*
X156564683Y-90841354D01*
X156545369Y-90847562D01*
X156308649Y-90922552D01*
X156307475Y-91991542D01*
X156413853Y-91969638D01*
X156413853Y-91969638D01*
G37*
X156413853Y-91969638D02*
X156575154Y-91928180D01*
X156777877Y-91863566D01*
X157004988Y-91782105D01*
X157239449Y-91690106D01*
X157464227Y-91593878D01*
X157602081Y-91529620D01*
X158153760Y-91226006D01*
X158666624Y-90871168D01*
X159137687Y-90468508D01*
X159563962Y-90021427D01*
X159942463Y-89533324D01*
X160270204Y-89007601D01*
X160544197Y-88447658D01*
X160723251Y-87975655D01*
X160893985Y-87365050D01*
X161001482Y-86755397D01*
X161047902Y-86150079D01*
X161035402Y-85552484D01*
X160966142Y-84965997D01*
X160842281Y-84394003D01*
X160665977Y-83839888D01*
X160439389Y-83307037D01*
X160164676Y-82798836D01*
X159843996Y-82318670D01*
X159479509Y-81869925D01*
X159073372Y-81455987D01*
X158627746Y-81080241D01*
X158144788Y-80746072D01*
X157626658Y-80456866D01*
X157075514Y-80216009D01*
X156493515Y-80026886D01*
X155882819Y-79892882D01*
X155538273Y-79844219D01*
X155385140Y-79830823D01*
X155192387Y-79819909D01*
X154985848Y-79812681D01*
X154809987Y-79810321D01*
X154376289Y-79810052D01*
X154376289Y-81839433D01*
X154302642Y-81839726D01*
X154214861Y-81853593D01*
X154083965Y-81890781D01*
X153925425Y-81945399D01*
X153754710Y-82011556D01*
X153587291Y-82083362D01*
X153438637Y-82154926D01*
X153357654Y-82199560D01*
X153169292Y-82328664D01*
X152965361Y-82497170D01*
X152763634Y-82688142D01*
X152581888Y-82884645D01*
X152437897Y-83069746D01*
X152426332Y-83086866D01*
X152211229Y-83467887D01*
X152055488Y-83875122D01*
X151958473Y-84310416D01*
X151933959Y-84514248D01*
X151912363Y-84752578D01*
X153492526Y-84752578D01*
X153492526Y-86258248D01*
X154212629Y-86258248D01*
X154212629Y-84752578D01*
X155554639Y-84752578D01*
X155554639Y-86258248D01*
X156242011Y-86258248D01*
X156242011Y-84752578D01*
X157845877Y-84752578D01*
X157845877Y-84642304D01*
X157836449Y-84508747D01*
X157810955Y-84334032D01*
X157773577Y-84139252D01*
X157728496Y-83945503D01*
X157679895Y-83773879D01*
X157664630Y-83728073D01*
X157506514Y-83366081D01*
X157291364Y-83025388D01*
X157032146Y-82717354D01*
X156715342Y-82424169D01*
X156373599Y-82184346D01*
X156013357Y-82001660D01*
X155641058Y-81879885D01*
X155579188Y-81865965D01*
X155390980Y-81826336D01*
X155390980Y-80859111D01*
X155480993Y-80873779D01*
X155851181Y-80940306D01*
X156172721Y-81012849D01*
X156462419Y-81096462D01*
X156737083Y-81196195D01*
X157013521Y-81317100D01*
X157109408Y-81363195D01*
X157623336Y-81650375D01*
X158093576Y-81985569D01*
X158518332Y-82366491D01*
X158895807Y-82790850D01*
X159224205Y-83256357D01*
X159501731Y-83760723D01*
X159726587Y-84301659D01*
X159896978Y-84876876D01*
X159910125Y-84932604D01*
X159940472Y-85087556D01*
X159963466Y-85262910D01*
X159980385Y-85472085D01*
X159992508Y-85728500D01*
X159995880Y-85832732D01*
X160001563Y-86067371D01*
X160002530Y-86253748D01*
X159997913Y-86408952D01*
X159986842Y-86550072D01*
X159968447Y-86694196D01*
X159944465Y-86843211D01*
X159815236Y-87409979D01*
X159626601Y-87951948D01*
X159381014Y-88465383D01*
X159080928Y-88946547D01*
X158728797Y-89391706D01*
X158327077Y-89797124D01*
X157878220Y-90159065D01*
X157674799Y-90298149D01*
X157406686Y-90459399D01*
X157117100Y-90611076D01*
X156828834Y-90742090D01*
X156564683Y-90841354D01*
X156545369Y-90847562D01*
X156308649Y-90922552D01*
X156307475Y-91991542D01*
X156413853Y-91969638D01*
G36*
X155398683Y-91152310D02*
X155407346Y-90145887D01*
X155642311Y-90086228D01*
X156044530Y-89951379D01*
X156417037Y-89761253D01*
X156755661Y-89520849D01*
X157056232Y-89235165D01*
X157314580Y-88909200D01*
X157526535Y-88547952D01*
X157687928Y-88156420D01*
X157794588Y-87739602D01*
X157832266Y-87461147D01*
X157854906Y-87207475D01*
X151912939Y-87207475D01*
X151936098Y-87472964D01*
X152004541Y-87899902D01*
X152130966Y-88305648D01*
X152311064Y-88685060D01*
X152540526Y-89032993D01*
X152815046Y-89344305D01*
X153130315Y-89613853D01*
X153482025Y-89836492D01*
X153865868Y-90007081D01*
X154124958Y-90086201D01*
X154359923Y-90145832D01*
X154368999Y-90627399D01*
X154378076Y-91108967D01*
X154205339Y-91086804D01*
X153800820Y-91013926D01*
X153377617Y-90899690D01*
X152960440Y-90751752D01*
X152592397Y-90587060D01*
X152087362Y-90297767D01*
X151623371Y-89958961D01*
X151203110Y-89574180D01*
X150829266Y-89146960D01*
X150504523Y-88680836D01*
X150231568Y-88179346D01*
X150013086Y-87646025D01*
X149851764Y-87084411D01*
X149820018Y-86936708D01*
X149774257Y-86632266D01*
X149748001Y-86287289D01*
X149741250Y-85923736D01*
X149754006Y-85563563D01*
X149786266Y-85228725D01*
X149820018Y-85023345D01*
X149966101Y-84455827D01*
X150170746Y-83913079D01*
X150431490Y-83399549D01*
X150745873Y-82919683D01*
X151111433Y-82477931D01*
X151374617Y-82213996D01*
X151688586Y-81949311D01*
X152043522Y-81698242D01*
X152421710Y-81471307D01*
X152805433Y-81279023D01*
X153176976Y-81131908D01*
X153222487Y-81116960D01*
X153459794Y-81040981D01*
X153459794Y-80507346D01*
X153459249Y-80305283D01*
X153456359Y-80160172D01*
X153449242Y-80063504D01*
X153436013Y-80006772D01*
X153414790Y-79981464D01*
X153383690Y-79979071D01*
X153345232Y-79989632D01*
X153302795Y-80003338D01*
X153211458Y-80032707D01*
X153084661Y-80073418D01*
X152936083Y-80121079D01*
X152354997Y-80340989D01*
X151805587Y-80616195D01*
X151290831Y-80943151D01*
X150813709Y-81318314D01*
X150377199Y-81738141D01*
X149984280Y-82199088D01*
X149637931Y-82697610D01*
X149341131Y-83230163D01*
X149096858Y-83793205D01*
X148908091Y-84383190D01*
X148777809Y-84996576D01*
X148764409Y-85084098D01*
X148737829Y-85329619D01*
X148721282Y-85619287D01*
X148714770Y-85932560D01*
X148718291Y-86248897D01*
X148731845Y-86547753D01*
X148755434Y-86808586D01*
X148764409Y-86875954D01*
X148886750Y-87494564D01*
X149068066Y-88088873D01*
X149305378Y-88655724D01*
X149595706Y-89191962D01*
X149936070Y-89694429D01*
X150323491Y-90159970D01*
X150754989Y-90585429D01*
X151227583Y-90967649D01*
X151738295Y-91303473D01*
X152284146Y-91589747D01*
X152862154Y-91823312D01*
X153469340Y-92001014D01*
X153638752Y-92039186D01*
X153799289Y-92070624D01*
X153952883Y-92094459D01*
X154114994Y-92112153D01*
X154301082Y-92125166D01*
X154526607Y-92134959D01*
X154711312Y-92140550D01*
X155390021Y-92158732D01*
X155398683Y-91152310D01*
X155398683Y-91152310D01*
G37*
X155398683Y-91152310D02*
X155407346Y-90145887D01*
X155642311Y-90086228D01*
X156044530Y-89951379D01*
X156417037Y-89761253D01*
X156755661Y-89520849D01*
X157056232Y-89235165D01*
X157314580Y-88909200D01*
X157526535Y-88547952D01*
X157687928Y-88156420D01*
X157794588Y-87739602D01*
X157832266Y-87461147D01*
X157854906Y-87207475D01*
X151912939Y-87207475D01*
X151936098Y-87472964D01*
X152004541Y-87899902D01*
X152130966Y-88305648D01*
X152311064Y-88685060D01*
X152540526Y-89032993D01*
X152815046Y-89344305D01*
X153130315Y-89613853D01*
X153482025Y-89836492D01*
X153865868Y-90007081D01*
X154124958Y-90086201D01*
X154359923Y-90145832D01*
X154368999Y-90627399D01*
X154378076Y-91108967D01*
X154205339Y-91086804D01*
X153800820Y-91013926D01*
X153377617Y-90899690D01*
X152960440Y-90751752D01*
X152592397Y-90587060D01*
X152087362Y-90297767D01*
X151623371Y-89958961D01*
X151203110Y-89574180D01*
X150829266Y-89146960D01*
X150504523Y-88680836D01*
X150231568Y-88179346D01*
X150013086Y-87646025D01*
X149851764Y-87084411D01*
X149820018Y-86936708D01*
X149774257Y-86632266D01*
X149748001Y-86287289D01*
X149741250Y-85923736D01*
X149754006Y-85563563D01*
X149786266Y-85228725D01*
X149820018Y-85023345D01*
X149966101Y-84455827D01*
X150170746Y-83913079D01*
X150431490Y-83399549D01*
X150745873Y-82919683D01*
X151111433Y-82477931D01*
X151374617Y-82213996D01*
X151688586Y-81949311D01*
X152043522Y-81698242D01*
X152421710Y-81471307D01*
X152805433Y-81279023D01*
X153176976Y-81131908D01*
X153222487Y-81116960D01*
X153459794Y-81040981D01*
X153459794Y-80507346D01*
X153459249Y-80305283D01*
X153456359Y-80160172D01*
X153449242Y-80063504D01*
X153436013Y-80006772D01*
X153414790Y-79981464D01*
X153383690Y-79979071D01*
X153345232Y-79989632D01*
X153302795Y-80003338D01*
X153211458Y-80032707D01*
X153084661Y-80073418D01*
X152936083Y-80121079D01*
X152354997Y-80340989D01*
X151805587Y-80616195D01*
X151290831Y-80943151D01*
X150813709Y-81318314D01*
X150377199Y-81738141D01*
X149984280Y-82199088D01*
X149637931Y-82697610D01*
X149341131Y-83230163D01*
X149096858Y-83793205D01*
X148908091Y-84383190D01*
X148777809Y-84996576D01*
X148764409Y-85084098D01*
X148737829Y-85329619D01*
X148721282Y-85619287D01*
X148714770Y-85932560D01*
X148718291Y-86248897D01*
X148731845Y-86547753D01*
X148755434Y-86808586D01*
X148764409Y-86875954D01*
X148886750Y-87494564D01*
X149068066Y-88088873D01*
X149305378Y-88655724D01*
X149595706Y-89191962D01*
X149936070Y-89694429D01*
X150323491Y-90159970D01*
X150754989Y-90585429D01*
X151227583Y-90967649D01*
X151738295Y-91303473D01*
X152284146Y-91589747D01*
X152862154Y-91823312D01*
X153469340Y-92001014D01*
X153638752Y-92039186D01*
X153799289Y-92070624D01*
X153952883Y-92094459D01*
X154114994Y-92112153D01*
X154301082Y-92125166D01*
X154526607Y-92134959D01*
X154711312Y-92140550D01*
X155390021Y-92158732D01*
X155398683Y-91152310D01*
G36*
X129367241Y-71801725D02*
X126301724Y-71801725D01*
X126301724Y-74429311D01*
X126739655Y-74429311D01*
X126739655Y-72239656D01*
X128929310Y-72239656D01*
X128929310Y-74429311D01*
X126739655Y-74429311D01*
X126301724Y-74429311D01*
X126301724Y-74867242D01*
X129367241Y-74867242D01*
X129367241Y-71801725D01*
X129367241Y-71801725D01*
G37*
X129367241Y-71801725D02*
X126301724Y-71801725D01*
X126301724Y-74429311D01*
X126739655Y-74429311D01*
X126739655Y-72239656D01*
X128929310Y-72239656D01*
X128929310Y-74429311D01*
X126739655Y-74429311D01*
X126301724Y-74429311D01*
X126301724Y-74867242D01*
X129367241Y-74867242D01*
X129367241Y-71801725D01*
G36*
X130681034Y-72239656D02*
X131118965Y-72239656D01*
X131118965Y-71801725D01*
X129805172Y-71801725D01*
X129805172Y-72677587D01*
X130243103Y-72677587D01*
X130243103Y-73115518D01*
X130681034Y-73115518D01*
X130681034Y-72239656D01*
X130681034Y-72239656D01*
G37*
X130681034Y-72239656D02*
X131118965Y-72239656D01*
X131118965Y-71801725D01*
X129805172Y-71801725D01*
X129805172Y-72677587D01*
X130243103Y-72677587D01*
X130243103Y-73115518D01*
X130681034Y-73115518D01*
X130681034Y-72239656D01*
G36*
X134184482Y-72239656D02*
X133746551Y-72239656D01*
X133746551Y-72677587D01*
X134184482Y-72677587D01*
X134184482Y-72239656D01*
X134184482Y-72239656D01*
G37*
X134184482Y-72239656D02*
X133746551Y-72239656D01*
X133746551Y-72677587D01*
X134184482Y-72677587D01*
X134184482Y-72239656D01*
G36*
X134622413Y-73553449D02*
X135498275Y-73553449D01*
X135498275Y-72677587D01*
X135060344Y-72677587D01*
X135060344Y-73115518D01*
X134622413Y-73115518D01*
X134622413Y-73553449D01*
X134622413Y-73553449D01*
G37*
X134622413Y-73553449D02*
X135498275Y-73553449D01*
X135498275Y-72677587D01*
X135060344Y-72677587D01*
X135060344Y-73115518D01*
X134622413Y-73115518D01*
X134622413Y-73553449D01*
G36*
X130243103Y-73115518D02*
X129805172Y-73115518D01*
X129805172Y-73553449D01*
X130243103Y-73553449D01*
X130243103Y-73115518D01*
X130243103Y-73115518D01*
G37*
X130243103Y-73115518D02*
X129805172Y-73115518D01*
X129805172Y-73553449D01*
X130243103Y-73553449D01*
X130243103Y-73115518D01*
G36*
X135498275Y-73991380D02*
X135060344Y-73991380D01*
X135060344Y-74429311D01*
X135498275Y-74429311D01*
X135498275Y-73991380D01*
X135498275Y-73991380D01*
G37*
X135498275Y-73991380D02*
X135060344Y-73991380D01*
X135060344Y-74429311D01*
X135498275Y-74429311D01*
X135498275Y-73991380D01*
G36*
X135498275Y-74867242D02*
X135060344Y-74867242D01*
X135060344Y-75305173D01*
X135498275Y-75305173D01*
X135498275Y-74867242D01*
X135498275Y-74867242D01*
G37*
X135498275Y-74867242D02*
X135060344Y-74867242D01*
X135060344Y-75305173D01*
X135498275Y-75305173D01*
X135498275Y-74867242D01*
G36*
X135498275Y-75743104D02*
X134622413Y-75743104D01*
X134622413Y-76181035D01*
X135060344Y-76181035D01*
X135060344Y-77056897D01*
X135498275Y-77056897D01*
X135498275Y-75743104D01*
X135498275Y-75743104D01*
G37*
X135498275Y-75743104D02*
X134622413Y-75743104D01*
X134622413Y-76181035D01*
X135060344Y-76181035D01*
X135060344Y-77056897D01*
X135498275Y-77056897D01*
X135498275Y-75743104D01*
G36*
X127177586Y-77056897D02*
X126739655Y-77056897D01*
X126739655Y-76181035D01*
X126301724Y-76181035D01*
X126301724Y-77494828D01*
X127177586Y-77494828D01*
X127177586Y-77056897D01*
X127177586Y-77056897D01*
G37*
X127177586Y-77056897D02*
X126739655Y-77056897D01*
X126739655Y-76181035D01*
X126301724Y-76181035D01*
X126301724Y-77494828D01*
X127177586Y-77494828D01*
X127177586Y-77056897D01*
G36*
X134622413Y-76181035D02*
X134184482Y-76181035D01*
X134184482Y-76618966D01*
X134622413Y-76618966D01*
X134622413Y-76181035D01*
X134622413Y-76181035D01*
G37*
X134622413Y-76181035D02*
X134184482Y-76181035D01*
X134184482Y-76618966D01*
X134622413Y-76618966D01*
X134622413Y-76181035D01*
G36*
X135060344Y-77056897D02*
X134184482Y-77056897D01*
X134184482Y-77494828D01*
X135060344Y-77494828D01*
X135060344Y-77056897D01*
X135060344Y-77056897D01*
G37*
X135060344Y-77056897D02*
X134184482Y-77056897D01*
X134184482Y-77494828D01*
X135060344Y-77494828D01*
X135060344Y-77056897D01*
G36*
X131994827Y-77932759D02*
X131556896Y-77932759D01*
X131556896Y-78370690D01*
X131994827Y-78370690D01*
X131994827Y-77932759D01*
X131994827Y-77932759D01*
G37*
X131994827Y-77932759D02*
X131556896Y-77932759D01*
X131556896Y-78370690D01*
X131994827Y-78370690D01*
X131994827Y-77932759D01*
G36*
X131556896Y-78370690D02*
X131118965Y-78370690D01*
X131118965Y-78808621D01*
X131556896Y-78808621D01*
X131556896Y-78370690D01*
X131556896Y-78370690D01*
G37*
X131556896Y-78370690D02*
X131118965Y-78370690D01*
X131118965Y-78808621D01*
X131556896Y-78808621D01*
X131556896Y-78370690D01*
G36*
X130681034Y-79246552D02*
X130243103Y-79246552D01*
X130243103Y-79684483D01*
X129805172Y-79684483D01*
X129805172Y-80560345D01*
X130243103Y-80560345D01*
X130243103Y-80998276D01*
X130681034Y-80998276D01*
X130681034Y-79246552D01*
X130681034Y-79246552D01*
G37*
X130681034Y-79246552D02*
X130243103Y-79246552D01*
X130243103Y-79684483D01*
X129805172Y-79684483D01*
X129805172Y-80560345D01*
X130243103Y-80560345D01*
X130243103Y-80998276D01*
X130681034Y-80998276D01*
X130681034Y-79246552D01*
G36*
X127177586Y-75743104D02*
X127615517Y-75743104D01*
X127615517Y-75305173D01*
X126301724Y-75305173D01*
X126301724Y-75743104D01*
X126739655Y-75743104D01*
X126739655Y-76181035D01*
X127177586Y-76181035D01*
X127177586Y-75743104D01*
X127177586Y-75743104D01*
G37*
X127177586Y-75743104D02*
X127615517Y-75743104D01*
X127615517Y-75305173D01*
X126301724Y-75305173D01*
X126301724Y-75743104D01*
X126739655Y-75743104D01*
X126739655Y-76181035D01*
X127177586Y-76181035D01*
X127177586Y-75743104D01*
G36*
X134622413Y-72677587D02*
X134184482Y-72677587D01*
X134184482Y-73115518D01*
X134622413Y-73115518D01*
X134622413Y-72677587D01*
X134622413Y-72677587D01*
G37*
X134622413Y-72677587D02*
X134184482Y-72677587D01*
X134184482Y-73115518D01*
X134622413Y-73115518D01*
X134622413Y-72677587D01*
G36*
X135060344Y-74867242D02*
X135060344Y-74429311D01*
X133746551Y-74429311D01*
X133746551Y-73991380D01*
X134184482Y-73991380D01*
X134184482Y-73553449D01*
X133746551Y-73553449D01*
X133746551Y-72677587D01*
X133308620Y-72677587D01*
X133308620Y-72239656D01*
X132870689Y-72239656D01*
X132870689Y-71801725D01*
X132432758Y-71801725D01*
X132432758Y-72239656D01*
X131994827Y-72239656D01*
X131994827Y-71801725D01*
X131556896Y-71801725D01*
X131556896Y-72677587D01*
X132432758Y-72677587D01*
X132432758Y-72239656D01*
X132870689Y-72239656D01*
X132870689Y-72677587D01*
X132432758Y-72677587D01*
X131556896Y-72677587D01*
X131118965Y-72677587D01*
X131118965Y-73115518D01*
X131556896Y-73115518D01*
X131556896Y-73553449D01*
X131118965Y-73553449D01*
X131118965Y-73991380D01*
X131556896Y-73991380D01*
X131556896Y-74429311D01*
X130681034Y-74429311D01*
X130681034Y-73553449D01*
X130243103Y-73553449D01*
X130243103Y-74429311D01*
X129805172Y-74429311D01*
X129805172Y-74867242D01*
X130243103Y-74867242D01*
X130243103Y-74429311D01*
X130681034Y-74429311D01*
X130681034Y-74867242D01*
X130243103Y-74867242D01*
X129805172Y-74867242D01*
X129805172Y-75305173D01*
X128491379Y-75305173D01*
X128491379Y-76181035D01*
X128929310Y-76181035D01*
X128929310Y-75743104D01*
X129367241Y-75743104D01*
X129367241Y-76181035D01*
X128929310Y-76181035D01*
X128491379Y-76181035D01*
X127177586Y-76181035D01*
X127177586Y-76618966D01*
X129367241Y-76618966D01*
X129367241Y-77056897D01*
X128929310Y-77056897D01*
X128929310Y-77494828D01*
X129805172Y-77494828D01*
X129805172Y-76618966D01*
X130243103Y-76618966D01*
X130243103Y-76181035D01*
X129805172Y-76181035D01*
X129805172Y-75305173D01*
X130681034Y-75305173D01*
X130681034Y-74867242D01*
X131118965Y-74867242D01*
X131994827Y-74867242D01*
X131994827Y-73115518D01*
X132432758Y-73115518D01*
X132870689Y-73115518D01*
X132870689Y-72677587D01*
X133308620Y-72677587D01*
X133308620Y-73115518D01*
X132870689Y-73115518D01*
X132432758Y-73115518D01*
X132432758Y-73553449D01*
X132870689Y-73553449D01*
X132870689Y-73991380D01*
X133308620Y-73991380D01*
X133308620Y-74867242D01*
X131994827Y-74867242D01*
X131118965Y-74867242D01*
X131118965Y-75305173D01*
X130681034Y-75305173D01*
X130681034Y-75743104D01*
X131556896Y-75743104D01*
X131556896Y-75305173D01*
X132870689Y-75305173D01*
X132870689Y-75743104D01*
X132432758Y-75743104D01*
X132432758Y-76181035D01*
X132870689Y-76181035D01*
X132870689Y-75743104D01*
X133308620Y-75743104D01*
X133308620Y-76181035D01*
X132870689Y-76181035D01*
X132432758Y-76181035D01*
X131994827Y-76181035D01*
X131994827Y-75743104D01*
X131556896Y-75743104D01*
X131556896Y-76181035D01*
X130681034Y-76181035D01*
X130681034Y-76618966D01*
X131118965Y-76618966D01*
X131118965Y-77056897D01*
X130243103Y-77056897D01*
X130243103Y-77494828D01*
X129805172Y-77494828D01*
X129805172Y-79246552D01*
X130243103Y-79246552D01*
X130243103Y-77932759D01*
X130681034Y-77932759D01*
X130681034Y-78370690D01*
X131118965Y-78370690D01*
X131118965Y-77056897D01*
X131556896Y-77056897D01*
X131556896Y-77494828D01*
X131994827Y-77494828D01*
X131994827Y-77056897D01*
X132432758Y-77056897D01*
X132432758Y-76618966D01*
X133308620Y-76618966D01*
X133308620Y-77056897D01*
X132432758Y-77056897D01*
X132432758Y-77494828D01*
X133746551Y-77494828D01*
X133746551Y-76618966D01*
X133308620Y-76618966D01*
X133308620Y-76181035D01*
X134184482Y-76181035D01*
X134184482Y-75305173D01*
X133746551Y-75305173D01*
X133746551Y-75743104D01*
X133308620Y-75743104D01*
X133308620Y-74867242D01*
X135060344Y-74867242D01*
X135060344Y-74867242D01*
G37*
X135060344Y-74867242D02*
X135060344Y-74429311D01*
X133746551Y-74429311D01*
X133746551Y-73991380D01*
X134184482Y-73991380D01*
X134184482Y-73553449D01*
X133746551Y-73553449D01*
X133746551Y-72677587D01*
X133308620Y-72677587D01*
X133308620Y-72239656D01*
X132870689Y-72239656D01*
X132870689Y-71801725D01*
X132432758Y-71801725D01*
X132432758Y-72239656D01*
X131994827Y-72239656D01*
X131994827Y-71801725D01*
X131556896Y-71801725D01*
X131556896Y-72677587D01*
X132432758Y-72677587D01*
X132432758Y-72239656D01*
X132870689Y-72239656D01*
X132870689Y-72677587D01*
X132432758Y-72677587D01*
X131556896Y-72677587D01*
X131118965Y-72677587D01*
X131118965Y-73115518D01*
X131556896Y-73115518D01*
X131556896Y-73553449D01*
X131118965Y-73553449D01*
X131118965Y-73991380D01*
X131556896Y-73991380D01*
X131556896Y-74429311D01*
X130681034Y-74429311D01*
X130681034Y-73553449D01*
X130243103Y-73553449D01*
X130243103Y-74429311D01*
X129805172Y-74429311D01*
X129805172Y-74867242D01*
X130243103Y-74867242D01*
X130243103Y-74429311D01*
X130681034Y-74429311D01*
X130681034Y-74867242D01*
X130243103Y-74867242D01*
X129805172Y-74867242D01*
X129805172Y-75305173D01*
X128491379Y-75305173D01*
X128491379Y-76181035D01*
X128929310Y-76181035D01*
X128929310Y-75743104D01*
X129367241Y-75743104D01*
X129367241Y-76181035D01*
X128929310Y-76181035D01*
X128491379Y-76181035D01*
X127177586Y-76181035D01*
X127177586Y-76618966D01*
X129367241Y-76618966D01*
X129367241Y-77056897D01*
X128929310Y-77056897D01*
X128929310Y-77494828D01*
X129805172Y-77494828D01*
X129805172Y-76618966D01*
X130243103Y-76618966D01*
X130243103Y-76181035D01*
X129805172Y-76181035D01*
X129805172Y-75305173D01*
X130681034Y-75305173D01*
X130681034Y-74867242D01*
X131118965Y-74867242D01*
X131994827Y-74867242D01*
X131994827Y-73115518D01*
X132432758Y-73115518D01*
X132870689Y-73115518D01*
X132870689Y-72677587D01*
X133308620Y-72677587D01*
X133308620Y-73115518D01*
X132870689Y-73115518D01*
X132432758Y-73115518D01*
X132432758Y-73553449D01*
X132870689Y-73553449D01*
X132870689Y-73991380D01*
X133308620Y-73991380D01*
X133308620Y-74867242D01*
X131994827Y-74867242D01*
X131118965Y-74867242D01*
X131118965Y-75305173D01*
X130681034Y-75305173D01*
X130681034Y-75743104D01*
X131556896Y-75743104D01*
X131556896Y-75305173D01*
X132870689Y-75305173D01*
X132870689Y-75743104D01*
X132432758Y-75743104D01*
X132432758Y-76181035D01*
X132870689Y-76181035D01*
X132870689Y-75743104D01*
X133308620Y-75743104D01*
X133308620Y-76181035D01*
X132870689Y-76181035D01*
X132432758Y-76181035D01*
X131994827Y-76181035D01*
X131994827Y-75743104D01*
X131556896Y-75743104D01*
X131556896Y-76181035D01*
X130681034Y-76181035D01*
X130681034Y-76618966D01*
X131118965Y-76618966D01*
X131118965Y-77056897D01*
X130243103Y-77056897D01*
X130243103Y-77494828D01*
X129805172Y-77494828D01*
X129805172Y-79246552D01*
X130243103Y-79246552D01*
X130243103Y-77932759D01*
X130681034Y-77932759D01*
X130681034Y-78370690D01*
X131118965Y-78370690D01*
X131118965Y-77056897D01*
X131556896Y-77056897D01*
X131556896Y-77494828D01*
X131994827Y-77494828D01*
X131994827Y-77056897D01*
X132432758Y-77056897D01*
X132432758Y-76618966D01*
X133308620Y-76618966D01*
X133308620Y-77056897D01*
X132432758Y-77056897D01*
X132432758Y-77494828D01*
X133746551Y-77494828D01*
X133746551Y-76618966D01*
X133308620Y-76618966D01*
X133308620Y-76181035D01*
X134184482Y-76181035D01*
X134184482Y-75305173D01*
X133746551Y-75305173D01*
X133746551Y-75743104D01*
X133308620Y-75743104D01*
X133308620Y-74867242D01*
X135060344Y-74867242D01*
G36*
X135060344Y-71801725D02*
X134622413Y-71801725D01*
X134622413Y-72239656D01*
X135060344Y-72239656D01*
X135060344Y-71801725D01*
X135060344Y-71801725D01*
G37*
X135060344Y-71801725D02*
X134622413Y-71801725D01*
X134622413Y-72239656D01*
X135060344Y-72239656D01*
X135060344Y-71801725D01*
G36*
X128053448Y-77056897D02*
X127615517Y-77056897D01*
X127615517Y-77494828D01*
X128053448Y-77494828D01*
X128053448Y-77056897D01*
X128053448Y-77056897D01*
G37*
X128053448Y-77056897D02*
X127615517Y-77056897D01*
X127615517Y-77494828D01*
X128053448Y-77494828D01*
X128053448Y-77056897D01*
G36*
X129367241Y-77932759D02*
X126301724Y-77932759D01*
X126301724Y-80560345D01*
X126739655Y-80560345D01*
X126739655Y-78370690D01*
X128929310Y-78370690D01*
X128929310Y-80560345D01*
X126739655Y-80560345D01*
X126301724Y-80560345D01*
X126301724Y-80998276D01*
X129367241Y-80998276D01*
X129367241Y-77932759D01*
X129367241Y-77932759D01*
G37*
X129367241Y-77932759D02*
X126301724Y-77932759D01*
X126301724Y-80560345D01*
X126739655Y-80560345D01*
X126739655Y-78370690D01*
X128929310Y-78370690D01*
X128929310Y-80560345D01*
X126739655Y-80560345D01*
X126301724Y-80560345D01*
X126301724Y-80998276D01*
X129367241Y-80998276D01*
X129367241Y-77932759D01*
G36*
X135498275Y-77932759D02*
X132432758Y-77932759D01*
X132432758Y-80560345D01*
X132870689Y-80560345D01*
X132870689Y-78370690D01*
X135060344Y-78370690D01*
X135060344Y-80560345D01*
X132870689Y-80560345D01*
X132432758Y-80560345D01*
X132432758Y-80998276D01*
X135498275Y-80998276D01*
X135498275Y-77932759D01*
X135498275Y-77932759D01*
G37*
X135498275Y-77932759D02*
X132432758Y-77932759D01*
X132432758Y-80560345D01*
X132870689Y-80560345D01*
X132870689Y-78370690D01*
X135060344Y-78370690D01*
X135060344Y-80560345D01*
X132870689Y-80560345D01*
X132432758Y-80560345D01*
X132432758Y-80998276D01*
X135498275Y-80998276D01*
X135498275Y-77932759D01*
G36*
X131994827Y-79684483D02*
X131556896Y-79684483D01*
X131556896Y-80122414D01*
X131994827Y-80122414D01*
X131994827Y-79684483D01*
X131994827Y-79684483D01*
G37*
X131994827Y-79684483D02*
X131556896Y-79684483D01*
X131556896Y-80122414D01*
X131994827Y-80122414D01*
X131994827Y-79684483D01*
G36*
X131556896Y-80122414D02*
X131118965Y-80122414D01*
X131118965Y-80560345D01*
X131556896Y-80560345D01*
X131556896Y-80122414D01*
X131556896Y-80122414D01*
G37*
X131556896Y-80122414D02*
X131118965Y-80122414D01*
X131118965Y-80560345D01*
X131556896Y-80560345D01*
X131556896Y-80122414D01*
G36*
X131994827Y-80560345D02*
X131556896Y-80560345D01*
X131556896Y-80998276D01*
X131994827Y-80998276D01*
X131994827Y-80560345D01*
X131994827Y-80560345D01*
G37*
X131994827Y-80560345D02*
X131556896Y-80560345D01*
X131556896Y-80998276D01*
X131994827Y-80998276D01*
X131994827Y-80560345D01*
G36*
X128491379Y-72677587D02*
X127177586Y-72677587D01*
X127177586Y-73991380D01*
X128491379Y-73991380D01*
X128491379Y-72677587D01*
X128491379Y-72677587D01*
G37*
X128491379Y-72677587D02*
X127177586Y-72677587D01*
X127177586Y-73991380D01*
X128491379Y-73991380D01*
X128491379Y-72677587D01*
G36*
X130681034Y-75743104D02*
X130243103Y-75743104D01*
X130243103Y-76181035D01*
X130681034Y-76181035D01*
X130681034Y-75743104D01*
X130681034Y-75743104D01*
G37*
X130681034Y-75743104D02*
X130243103Y-75743104D01*
X130243103Y-76181035D01*
X130681034Y-76181035D01*
X130681034Y-75743104D01*
G36*
X128491379Y-78808621D02*
X127177586Y-78808621D01*
X127177586Y-80122414D01*
X128491379Y-80122414D01*
X128491379Y-78808621D01*
X128491379Y-78808621D01*
G37*
X128491379Y-78808621D02*
X127177586Y-78808621D01*
X127177586Y-80122414D01*
X128491379Y-80122414D01*
X128491379Y-78808621D01*
G36*
X134622413Y-78808621D02*
X133308620Y-78808621D01*
X133308620Y-80122414D01*
X134622413Y-80122414D01*
X134622413Y-78808621D01*
X134622413Y-78808621D01*
G37*
X134622413Y-78808621D02*
X133308620Y-78808621D01*
X133308620Y-80122414D01*
X134622413Y-80122414D01*
X134622413Y-78808621D01*
D12*
X154778333Y-95642381D02*
X154778333Y-96356667D01*
X154825953Y-96499524D01*
X154921191Y-96594762D01*
X155064048Y-96642381D01*
X155159286Y-96642381D01*
X153778333Y-96642381D02*
X154349762Y-96642381D01*
X154064048Y-96642381D02*
X154064048Y-95642381D01*
X154159286Y-95785238D01*
X154254524Y-95880476D01*
X154349762Y-95928095D01*
M02*
