G04 #@! TF.FileFunction,Soldermask,Top*
%FSLAX46Y46*%
G04 Gerber Fmt 4.6, Leading zero omitted, Abs format (unit mm)*
G04 Created by KiCad (PCBNEW 4.0.2+e4-6225~38~ubuntu14.04.1-stable) date Fri 29 Jul 2016 09:52:58 PM PDT*
%MOMM*%
G01*
G04 APERTURE LIST*
%ADD10C,0.100000*%
%ADD11R,0.650240X3.599180*%
%ADD12R,0.650240X4.599940*%
%ADD13O,0.650240X0.650240*%
%ADD14R,0.800000X0.750000*%
%ADD15R,1.727200X2.032000*%
%ADD16O,1.727200X2.032000*%
%ADD17R,1.727200X1.727200*%
%ADD18O,1.727200X1.727200*%
%ADD19R,0.900000X0.500000*%
%ADD20R,0.500000X0.900000*%
%ADD21R,0.350000X0.350000*%
%ADD22R,0.900000X0.300000*%
%ADD23R,0.300000X0.900000*%
%ADD24R,1.800000X1.800000*%
%ADD25C,0.600000*%
%ADD26C,0.254000*%
G04 APERTURE END LIST*
D10*
D11*
X159499600Y-99499620D03*
D12*
X158498840Y-100000000D03*
X157500620Y-100000000D03*
X156499860Y-100000000D03*
X155499100Y-100000000D03*
X154500880Y-100000000D03*
X153500120Y-100000000D03*
X152499360Y-100000000D03*
X151501140Y-100000000D03*
X150500380Y-100000000D03*
X149499620Y-100000000D03*
X144500900Y-100000000D03*
X143500140Y-100000000D03*
X142499380Y-100000000D03*
X141501160Y-100000000D03*
X140500400Y-100000000D03*
X146499880Y-100000000D03*
X145499120Y-100000000D03*
D13*
X156499860Y-102301240D03*
X155499100Y-102301240D03*
X154500880Y-102301240D03*
X153500120Y-102301240D03*
X152499360Y-102301240D03*
X151501140Y-102301240D03*
X150500380Y-102301240D03*
X144500900Y-102301240D03*
X143500140Y-102301240D03*
X157500620Y-102301240D03*
X145499120Y-102301240D03*
X142499380Y-102301240D03*
X149499620Y-102301240D03*
X146499880Y-102301240D03*
X141501160Y-102301240D03*
X140500400Y-102301240D03*
X158498840Y-102301240D03*
D14*
X138550000Y-80400000D03*
X137050000Y-80400000D03*
X153050000Y-76400000D03*
X151550000Y-76400000D03*
X152950000Y-79600000D03*
X151450000Y-79600000D03*
X152950000Y-82800000D03*
X151450000Y-82800000D03*
X152950000Y-86000000D03*
X151450000Y-86000000D03*
D15*
X152260000Y-72500000D03*
D16*
X154800000Y-72500000D03*
X157340000Y-72500000D03*
D17*
X165270000Y-78190000D03*
D18*
X162730000Y-78190000D03*
X165270000Y-80730000D03*
X162730000Y-80730000D03*
X165270000Y-83270000D03*
X162730000Y-83270000D03*
X165270000Y-85810000D03*
X162730000Y-85810000D03*
D19*
X141500000Y-87450000D03*
X141500000Y-85950000D03*
X143100000Y-87450000D03*
X143100000Y-85950000D03*
D20*
X135650000Y-82200000D03*
X137150000Y-82200000D03*
D19*
X139900000Y-87450000D03*
X139900000Y-85950000D03*
X137800000Y-75050000D03*
X137800000Y-76550000D03*
X139400000Y-75050000D03*
X139400000Y-76550000D03*
X141000000Y-75050000D03*
X141000000Y-76550000D03*
X142600000Y-75050000D03*
X142600000Y-76550000D03*
D20*
X158950000Y-76400000D03*
X157450000Y-76400000D03*
X158950000Y-79600000D03*
X157450000Y-79600000D03*
X158950000Y-82800000D03*
X157450000Y-82800000D03*
X158950000Y-86000000D03*
X157450000Y-86000000D03*
X157450000Y-78000000D03*
X158950000Y-78000000D03*
X157450000Y-81200000D03*
X158950000Y-81200000D03*
X157450000Y-84400000D03*
X158950000Y-84400000D03*
X157450000Y-87600000D03*
X158950000Y-87600000D03*
D21*
X141650000Y-80150000D03*
D22*
X141350000Y-80650000D03*
X141350000Y-81150000D03*
X141350000Y-81650000D03*
X141350000Y-82150000D03*
D21*
X141650000Y-82650000D03*
D23*
X142150000Y-82950000D03*
X142650000Y-82950000D03*
X143150000Y-82950000D03*
X143650000Y-82950000D03*
D21*
X144150000Y-82650000D03*
D22*
X144450000Y-82150000D03*
X144450000Y-81650000D03*
X144450000Y-81150000D03*
X144450000Y-80650000D03*
D21*
X144150000Y-80150000D03*
D23*
X143650000Y-79850000D03*
X143150000Y-79850000D03*
X142650000Y-79850000D03*
X142150000Y-79850000D03*
D24*
X142900000Y-81400000D03*
D25*
X142400000Y-80900000D03*
X143400000Y-81900000D03*
D26*
G36*
X160023000Y-103298000D02*
X139977000Y-103298000D01*
X139977000Y-97602000D01*
X160023000Y-97602000D01*
X160023000Y-103298000D01*
X160023000Y-103298000D01*
G37*
X160023000Y-103298000D02*
X139977000Y-103298000D01*
X139977000Y-97602000D01*
X160023000Y-97602000D01*
X160023000Y-103298000D01*
M02*
