G04 #@! TF.FileFunction,Copper,L1,Top,Signal*
%FSLAX46Y46*%
G04 Gerber Fmt 4.6, Leading zero omitted, Abs format (unit mm)*
G04 Created by KiCad (PCBNEW 4.0.2+e4-6225~38~ubuntu14.04.1-stable) date Fri 29 Jul 2016 09:52:58 PM PDT*
%MOMM*%
G01*
G04 APERTURE LIST*
%ADD10C,0.100000*%
%ADD11R,0.650240X3.599180*%
%ADD12R,0.650240X4.599940*%
%ADD13O,0.650240X0.650240*%
%ADD14R,0.800000X0.750000*%
%ADD15R,1.727200X2.032000*%
%ADD16O,1.727200X2.032000*%
%ADD17R,1.727200X1.727200*%
%ADD18O,1.727200X1.727200*%
%ADD19R,0.900000X0.500000*%
%ADD20R,0.500000X0.900000*%
%ADD21R,0.350000X0.350000*%
%ADD22R,0.900000X0.300000*%
%ADD23R,0.300000X0.900000*%
%ADD24R,1.800000X1.800000*%
%ADD25C,0.600000*%
%ADD26C,0.150000*%
%ADD27C,0.300000*%
%ADD28C,0.200000*%
G04 APERTURE END LIST*
D10*
D11*
X159499600Y-99499620D03*
D12*
X158498840Y-100000000D03*
X157500620Y-100000000D03*
X156499860Y-100000000D03*
X155499100Y-100000000D03*
X154500880Y-100000000D03*
X153500120Y-100000000D03*
X152499360Y-100000000D03*
X151501140Y-100000000D03*
X150500380Y-100000000D03*
X149499620Y-100000000D03*
X144500900Y-100000000D03*
X143500140Y-100000000D03*
X142499380Y-100000000D03*
X141501160Y-100000000D03*
X140500400Y-100000000D03*
X146499880Y-100000000D03*
X145499120Y-100000000D03*
D13*
X156499860Y-102301240D03*
X155499100Y-102301240D03*
X154500880Y-102301240D03*
X153500120Y-102301240D03*
X152499360Y-102301240D03*
X151501140Y-102301240D03*
X150500380Y-102301240D03*
X144500900Y-102301240D03*
X143500140Y-102301240D03*
X157500620Y-102301240D03*
X145499120Y-102301240D03*
X142499380Y-102301240D03*
X149499620Y-102301240D03*
X146499880Y-102301240D03*
X141501160Y-102301240D03*
X140500400Y-102301240D03*
X158498840Y-102301240D03*
D14*
X138550000Y-80400000D03*
X137050000Y-80400000D03*
X153050000Y-76400000D03*
X151550000Y-76400000D03*
X152950000Y-79600000D03*
X151450000Y-79600000D03*
X152950000Y-82800000D03*
X151450000Y-82800000D03*
X152950000Y-86000000D03*
X151450000Y-86000000D03*
D15*
X152260000Y-72500000D03*
D16*
X154800000Y-72500000D03*
X157340000Y-72500000D03*
D17*
X165270000Y-78190000D03*
D18*
X162730000Y-78190000D03*
X165270000Y-80730000D03*
X162730000Y-80730000D03*
X165270000Y-83270000D03*
X162730000Y-83270000D03*
X165270000Y-85810000D03*
X162730000Y-85810000D03*
D19*
X141500000Y-87450000D03*
X141500000Y-85950000D03*
X143100000Y-87450000D03*
X143100000Y-85950000D03*
D20*
X135650000Y-82200000D03*
X137150000Y-82200000D03*
D19*
X139900000Y-87450000D03*
X139900000Y-85950000D03*
X137800000Y-75050000D03*
X137800000Y-76550000D03*
X139400000Y-75050000D03*
X139400000Y-76550000D03*
X141000000Y-75050000D03*
X141000000Y-76550000D03*
X142600000Y-75050000D03*
X142600000Y-76550000D03*
D20*
X158950000Y-76400000D03*
X157450000Y-76400000D03*
X158950000Y-79600000D03*
X157450000Y-79600000D03*
X158950000Y-82800000D03*
X157450000Y-82800000D03*
X158950000Y-86000000D03*
X157450000Y-86000000D03*
X157450000Y-78000000D03*
X158950000Y-78000000D03*
X157450000Y-81200000D03*
X158950000Y-81200000D03*
X157450000Y-84400000D03*
X158950000Y-84400000D03*
X157450000Y-87600000D03*
X158950000Y-87600000D03*
D21*
X141650000Y-80150000D03*
D22*
X141350000Y-80650000D03*
X141350000Y-81150000D03*
X141350000Y-81650000D03*
X141350000Y-82150000D03*
D21*
X141650000Y-82650000D03*
D23*
X142150000Y-82950000D03*
X142650000Y-82950000D03*
X143150000Y-82950000D03*
X143650000Y-82950000D03*
D21*
X144150000Y-82650000D03*
D22*
X144450000Y-82150000D03*
X144450000Y-81650000D03*
X144450000Y-81150000D03*
X144450000Y-80650000D03*
D21*
X144150000Y-80150000D03*
D23*
X143650000Y-79850000D03*
X143150000Y-79850000D03*
X142650000Y-79850000D03*
X142150000Y-79850000D03*
D24*
X142900000Y-81400000D03*
D25*
X142400000Y-80900000D03*
X143400000Y-81900000D03*
X136700000Y-88700000D03*
X139300000Y-88500000D03*
X143100000Y-88500000D03*
X151200000Y-95500000D03*
X151300000Y-83800000D03*
X135700000Y-80400000D03*
X151300000Y-75300000D03*
X151300000Y-78700000D03*
X151300000Y-87200000D03*
X148200000Y-78300000D03*
X143800000Y-93900000D03*
X147400000Y-80600000D03*
X144700000Y-92600000D03*
X146600000Y-82100000D03*
X145800000Y-91200000D03*
X140800000Y-95100000D03*
X138800000Y-77700000D03*
X138200000Y-78800000D03*
X144200000Y-77500000D03*
X142100000Y-77400000D03*
X156500000Y-95500000D03*
X151900000Y-91700000D03*
D26*
X143100000Y-87450000D02*
X143100000Y-88500000D01*
D27*
X139900000Y-87900000D02*
X139900000Y-87450000D01*
X139300000Y-88500000D02*
X139900000Y-87900000D01*
D26*
X141350000Y-81650000D02*
X138850000Y-81650000D01*
X138550000Y-81350000D02*
X138550000Y-80400000D01*
X138850000Y-81650000D02*
X138550000Y-81350000D01*
X144450000Y-82150000D02*
X143650000Y-82150000D01*
X143650000Y-82150000D02*
X142900000Y-81400000D01*
X141350000Y-81150000D02*
X142650000Y-81150000D01*
X142650000Y-81150000D02*
X142900000Y-81400000D01*
X151450000Y-82800000D02*
X151450000Y-83650000D01*
X151450000Y-83650000D02*
X151300000Y-83800000D01*
D27*
X137050000Y-80400000D02*
X135700000Y-80400000D01*
X151550000Y-76400000D02*
X151550000Y-75550000D01*
X151550000Y-75550000D02*
X151300000Y-75300000D01*
X151450000Y-79600000D02*
X151450000Y-78850000D01*
X151450000Y-78850000D02*
X151300000Y-78700000D01*
X151450000Y-86000000D02*
X151450000Y-87050000D01*
X151450000Y-87050000D02*
X151300000Y-87200000D01*
D26*
X143500140Y-100000000D02*
X143500140Y-94199860D01*
X148200000Y-78300000D02*
X148200000Y-77600000D01*
X143500140Y-94199860D02*
X143800000Y-93900000D01*
X144150000Y-80150000D02*
X144150000Y-79050000D01*
X144150000Y-79050000D02*
X145600000Y-77600000D01*
X145600000Y-77600000D02*
X148200000Y-77600000D01*
X153050000Y-77250000D02*
X153050000Y-76400000D01*
X148200000Y-77600000D02*
X152700000Y-77600000D01*
X152700000Y-77600000D02*
X153050000Y-77250000D01*
X153050000Y-76400000D02*
X157450000Y-76400000D01*
X143500140Y-102301240D02*
X143500140Y-100000000D01*
X144500900Y-100000000D02*
X144500900Y-92799100D01*
X147400000Y-80600000D02*
X147400000Y-81150000D01*
X144500900Y-92799100D02*
X144700000Y-92600000D01*
X147400000Y-81150000D02*
X147400000Y-81100000D01*
X147400000Y-81100000D02*
X147400000Y-81150000D01*
X144450000Y-81150000D02*
X147400000Y-81150000D01*
X147400000Y-81150000D02*
X152650000Y-81150000D01*
X152650000Y-81150000D02*
X152950000Y-80850000D01*
X152950000Y-80850000D02*
X152950000Y-79600000D01*
X157450000Y-79600000D02*
X152950000Y-79600000D01*
X144500900Y-100000000D02*
X144500900Y-102301240D01*
X145499120Y-100000000D02*
X145499120Y-91500880D01*
X146600000Y-82100000D02*
X146600000Y-81650000D01*
X145499120Y-91500880D02*
X145800000Y-91200000D01*
X146600000Y-81650000D02*
X146600000Y-81700000D01*
X146600000Y-81700000D02*
X146600000Y-81650000D01*
X144450000Y-81650000D02*
X146600000Y-81650000D01*
X146600000Y-81650000D02*
X152650000Y-81650000D01*
X152650000Y-81650000D02*
X152950000Y-81950000D01*
X152950000Y-81950000D02*
X152950000Y-82800000D01*
X157450000Y-82800000D02*
X152950000Y-82800000D01*
X145499120Y-100000000D02*
X145499120Y-102301240D01*
X146499880Y-100000000D02*
X146499880Y-85000000D01*
X146499880Y-85000000D02*
X146500000Y-85000000D01*
X144150000Y-82650000D02*
X144150000Y-83550000D01*
X144150000Y-83550000D02*
X145600000Y-85000000D01*
X145600000Y-85000000D02*
X146500000Y-85000000D01*
X152950000Y-85250000D02*
X152950000Y-86000000D01*
X146500000Y-85000000D02*
X152700000Y-85000000D01*
X152700000Y-85000000D02*
X152950000Y-85250000D01*
X157450000Y-86000000D02*
X152950000Y-86000000D01*
X146499880Y-100000000D02*
X146499880Y-102301240D01*
X139050000Y-85950000D02*
X139900000Y-85950000D01*
X138500000Y-86500000D02*
X139050000Y-85950000D01*
X138500000Y-91000000D02*
X138500000Y-86500000D01*
X140800000Y-93300000D02*
X138500000Y-91000000D01*
X140800000Y-95100000D02*
X140800000Y-93300000D01*
X141650000Y-82650000D02*
X141650000Y-84150000D01*
X141650000Y-84150000D02*
X140800000Y-85000000D01*
X140800000Y-85000000D02*
X140100000Y-85000000D01*
X140100000Y-85000000D02*
X139900000Y-85200000D01*
X139900000Y-85200000D02*
X139900000Y-85950000D01*
X138800000Y-77700000D02*
X138900000Y-77600000D01*
X138900000Y-77600000D02*
X139400000Y-77600000D01*
X141650000Y-80150000D02*
X141650000Y-78350000D01*
X139800000Y-78000000D02*
X139400000Y-77600000D01*
X141000000Y-78000000D02*
X139800000Y-78000000D01*
X141300000Y-78000000D02*
X141000000Y-78000000D01*
X141650000Y-78350000D02*
X141300000Y-78000000D01*
X139400000Y-77600000D02*
X139400000Y-76550000D01*
X138550000Y-78450000D02*
X138550000Y-78350000D01*
X138200000Y-78800000D02*
X138550000Y-78450000D01*
X141350000Y-80650000D02*
X140650000Y-80650000D01*
X140650000Y-80650000D02*
X140400000Y-80400000D01*
X140400000Y-80400000D02*
X140400000Y-78900000D01*
X140400000Y-78900000D02*
X140100000Y-78600000D01*
X140100000Y-78600000D02*
X138800000Y-78600000D01*
X138800000Y-78600000D02*
X138550000Y-78350000D01*
X137800000Y-77600000D02*
X137800000Y-76550000D01*
X138550000Y-78350000D02*
X137800000Y-77600000D01*
X144200000Y-77500000D02*
X143250000Y-76550000D01*
X142600000Y-76550000D02*
X143250000Y-76550000D01*
X142650000Y-79850000D02*
X142650000Y-76600000D01*
X142650000Y-76600000D02*
X142600000Y-76550000D01*
X142100000Y-77400000D02*
X141850000Y-77650000D01*
X141550000Y-77650000D02*
X141850000Y-77650000D01*
X141000000Y-76550000D02*
X141000000Y-77100000D01*
X141000000Y-77100000D02*
X141550000Y-77650000D01*
X142150000Y-78250000D02*
X142150000Y-79850000D01*
X141550000Y-77650000D02*
X142150000Y-78250000D01*
D27*
X156499860Y-96500000D02*
X156499860Y-95500140D01*
X156499860Y-95500140D02*
X156500000Y-95500000D01*
X153500120Y-100000000D02*
X153500120Y-96500000D01*
X153500000Y-96600000D02*
X153500000Y-96500000D01*
X153500000Y-96500120D02*
X153500000Y-96600000D01*
X153500120Y-96500000D02*
X153500000Y-96500120D01*
X154500880Y-100000000D02*
X154500880Y-96500000D01*
X154500880Y-96500000D02*
X154500000Y-96500000D01*
X155499100Y-100000000D02*
X155499100Y-96500000D01*
X155500000Y-96600000D02*
X155500000Y-96500000D01*
X155500000Y-96500900D02*
X155500000Y-96600000D01*
X155499100Y-96500000D02*
X155500000Y-96500900D01*
X156499860Y-100000000D02*
X156499860Y-96500000D01*
X156499860Y-96500000D02*
X156500000Y-96500000D01*
X157500620Y-100000000D02*
X157500620Y-96500000D01*
X157500620Y-96500000D02*
X157400000Y-96500000D01*
X158498840Y-100000000D02*
X158498840Y-96898840D01*
X158498840Y-96898840D02*
X158100000Y-96500000D01*
X152499360Y-100000000D02*
X152499360Y-96900640D01*
X152900000Y-96500000D02*
X153500000Y-96500000D01*
X152499360Y-96900640D02*
X152900000Y-96500000D01*
X153500000Y-96500000D02*
X154500000Y-96500000D01*
X154500000Y-96500000D02*
X155500000Y-96500000D01*
X155500000Y-96500000D02*
X156500000Y-96500000D01*
X156500000Y-96500000D02*
X157400000Y-96500000D01*
X157400000Y-96500000D02*
X158100000Y-96500000D01*
X159499600Y-96899600D02*
X159499600Y-99499620D01*
X158100000Y-96500000D02*
X159100000Y-96500000D01*
X159100000Y-96500000D02*
X159499600Y-96899600D01*
D26*
X158498840Y-100000000D02*
X158498840Y-102301240D01*
X157500620Y-100000000D02*
X157500620Y-102301240D01*
X156499860Y-100000000D02*
X156499860Y-102301240D01*
X155499100Y-100000000D02*
X155499100Y-102301240D01*
X154500880Y-100000000D02*
X154500880Y-102301240D01*
X153500120Y-100000000D02*
X153500120Y-102301240D01*
X152499360Y-100000000D02*
X152499360Y-102301240D01*
X151501140Y-100000000D02*
X150500380Y-100000000D01*
X150500380Y-100000000D02*
X149499620Y-100000000D01*
X150500380Y-100000000D02*
X150500380Y-96400380D01*
X150500380Y-96400380D02*
X149900000Y-95800000D01*
X149900000Y-95800000D02*
X149499620Y-95800000D01*
X149499620Y-100000000D02*
X149499620Y-95800000D01*
X149499620Y-95800000D02*
X149499620Y-94100380D01*
X149499620Y-94100380D02*
X151900000Y-91700000D01*
X151501140Y-100000000D02*
X151501140Y-102301240D01*
X150500380Y-100000000D02*
X150500380Y-102301240D01*
X149499620Y-100000000D02*
X149499620Y-102301240D01*
X142499380Y-100000000D02*
X142499380Y-93000620D01*
X144050000Y-85950000D02*
X143100000Y-85950000D01*
X144500000Y-86400000D02*
X144050000Y-85950000D01*
X144500000Y-91000000D02*
X144500000Y-86400000D01*
X142499380Y-93000620D02*
X144500000Y-91000000D01*
X143100000Y-85950000D02*
X143100000Y-85200000D01*
X143100000Y-85200000D02*
X142650000Y-84750000D01*
X142650000Y-84750000D02*
X142650000Y-82950000D01*
X142499380Y-102301240D02*
X142499380Y-100000000D01*
X140700000Y-86900000D02*
X140700000Y-86000000D01*
X140700000Y-88900000D02*
X140700000Y-86900000D01*
X141501160Y-89701160D02*
X140700000Y-88900000D01*
X141501160Y-100000000D02*
X141501160Y-89701160D01*
X140750000Y-85950000D02*
X141500000Y-85950000D01*
X140700000Y-86000000D02*
X140750000Y-85950000D01*
X141500000Y-85950000D02*
X141500000Y-85600000D01*
X142150000Y-84950000D02*
X142150000Y-82950000D01*
X141500000Y-85600000D02*
X142150000Y-84950000D01*
X141501160Y-102301240D02*
X141501160Y-100000000D01*
X140500400Y-100000000D02*
X140500400Y-97400400D01*
X137150000Y-87550000D02*
X137150000Y-82200000D01*
X137500000Y-87900000D02*
X137150000Y-87550000D01*
X137500000Y-91100000D02*
X137500000Y-87900000D01*
X140200000Y-93800000D02*
X137500000Y-91100000D01*
X140200000Y-97100000D02*
X140200000Y-93800000D01*
X140500400Y-97400400D02*
X140200000Y-97100000D01*
X137150000Y-82200000D02*
X141300000Y-82200000D01*
X141300000Y-82200000D02*
X141350000Y-82150000D01*
X140500400Y-100000000D02*
X140500400Y-102301240D01*
D27*
X157450000Y-78000000D02*
X158100000Y-78000000D01*
X157450000Y-81200000D02*
X158100000Y-81200000D01*
X158100000Y-81200000D02*
X158000000Y-81200000D01*
X158000000Y-81200000D02*
X158100000Y-81200000D01*
X157450000Y-84400000D02*
X158100000Y-84400000D01*
X158100000Y-84400000D02*
X158000000Y-84400000D01*
X158000000Y-84400000D02*
X158100000Y-84400000D01*
X154800000Y-72500000D02*
X154800000Y-73700000D01*
X157800000Y-87600000D02*
X157450000Y-87600000D01*
X158100000Y-87300000D02*
X157800000Y-87600000D01*
X158100000Y-75000000D02*
X158100000Y-78000000D01*
X158100000Y-78000000D02*
X158100000Y-81200000D01*
X158100000Y-81200000D02*
X158100000Y-84400000D01*
X158100000Y-84400000D02*
X158100000Y-87300000D01*
X157800000Y-74700000D02*
X158100000Y-75000000D01*
X155800000Y-74700000D02*
X157800000Y-74700000D01*
X154800000Y-73700000D02*
X155800000Y-74700000D01*
D26*
X158950000Y-76400000D02*
X158950000Y-78000000D01*
X158950000Y-78000000D02*
X162540000Y-78000000D01*
X162540000Y-78000000D02*
X162730000Y-78190000D01*
X158950000Y-79600000D02*
X158950000Y-81200000D01*
X158950000Y-81200000D02*
X162260000Y-81200000D01*
X162260000Y-81200000D02*
X162730000Y-80730000D01*
X158950000Y-82800000D02*
X158950000Y-84400000D01*
X158950000Y-82800000D02*
X162260000Y-82800000D01*
X162260000Y-82800000D02*
X162730000Y-83270000D01*
X158950000Y-86000000D02*
X158950000Y-87600000D01*
X158950000Y-86000000D02*
X162540000Y-86000000D01*
X162540000Y-86000000D02*
X162730000Y-85810000D01*
D28*
G36*
X169597716Y-70402284D02*
X169605000Y-70438903D01*
X169605000Y-93061097D01*
X169597716Y-93097716D01*
X169561098Y-93105000D01*
X161100000Y-93105000D01*
X161061843Y-93112590D01*
X161022939Y-93112590D01*
X160659391Y-93184904D01*
X160659390Y-93184904D01*
X160517000Y-93243884D01*
X160208798Y-93449819D01*
X160154309Y-93504309D01*
X160099819Y-93558798D01*
X159893884Y-93867000D01*
X159834904Y-94009390D01*
X159834904Y-94009391D01*
X159762590Y-94372940D01*
X159762590Y-94411843D01*
X159755000Y-94450000D01*
X159755000Y-96490320D01*
X159432340Y-96167660D01*
X159279861Y-96065777D01*
X159100000Y-96030000D01*
X156969860Y-96030000D01*
X156969860Y-95907008D01*
X157025304Y-95851661D01*
X157119893Y-95623867D01*
X157120108Y-95377215D01*
X157025917Y-95149257D01*
X156851661Y-94974696D01*
X156623867Y-94880107D01*
X156377215Y-94879892D01*
X156149257Y-94974083D01*
X155974696Y-95148339D01*
X155880107Y-95376133D01*
X155879892Y-95622785D01*
X155974083Y-95850743D01*
X156029860Y-95906618D01*
X156029860Y-96030000D01*
X152900000Y-96030000D01*
X152720139Y-96065777D01*
X152567660Y-96167659D01*
X152167020Y-96568300D01*
X152065137Y-96720779D01*
X152029360Y-96900640D01*
X152029360Y-97412994D01*
X152000333Y-97431673D01*
X151953197Y-97399466D01*
X151826260Y-97373761D01*
X151176020Y-97373761D01*
X151057435Y-97396074D01*
X151000805Y-97432515D01*
X150952437Y-97399466D01*
X150895380Y-97387912D01*
X150895380Y-96400380D01*
X150865312Y-96249220D01*
X150810896Y-96167780D01*
X150779688Y-96121073D01*
X150179307Y-95520693D01*
X150051160Y-95435068D01*
X149900000Y-95405000D01*
X149894620Y-95405000D01*
X149894620Y-94263994D01*
X151838666Y-92319948D01*
X152022785Y-92320108D01*
X152250743Y-92225917D01*
X152425304Y-92051661D01*
X152519893Y-91823867D01*
X152520108Y-91577215D01*
X152425917Y-91349257D01*
X152251661Y-91174696D01*
X152023867Y-91080107D01*
X151777215Y-91079892D01*
X151549257Y-91174083D01*
X151374696Y-91348339D01*
X151280107Y-91576133D01*
X151279945Y-91761441D01*
X149220313Y-93821073D01*
X149197871Y-93854660D01*
X149000181Y-93558798D01*
X148945691Y-93504309D01*
X148891202Y-93449819D01*
X148583000Y-93243884D01*
X148440610Y-93184904D01*
X148440609Y-93184904D01*
X148077062Y-93112590D01*
X147922939Y-93112590D01*
X147559391Y-93184904D01*
X147559390Y-93184904D01*
X147417000Y-93243884D01*
X147108798Y-93449819D01*
X147054309Y-93504309D01*
X146999819Y-93558798D01*
X146894880Y-93715850D01*
X146894880Y-85395000D01*
X150819856Y-85395000D01*
X150749436Y-85498063D01*
X150723731Y-85625000D01*
X150723731Y-86375000D01*
X150746044Y-86493585D01*
X150816128Y-86602498D01*
X150923063Y-86675564D01*
X150943606Y-86679724D01*
X150774696Y-86848339D01*
X150680107Y-87076133D01*
X150679892Y-87322785D01*
X150774083Y-87550743D01*
X150948339Y-87725304D01*
X151176133Y-87819893D01*
X151422785Y-87820108D01*
X151650743Y-87725917D01*
X151825304Y-87551661D01*
X151919893Y-87323867D01*
X151920108Y-87077215D01*
X151916381Y-87068195D01*
X151920000Y-87050000D01*
X151920000Y-86688098D01*
X151968585Y-86678956D01*
X152077498Y-86608872D01*
X152150564Y-86501937D01*
X152176269Y-86375000D01*
X152176269Y-85625000D01*
X152153956Y-85506415D01*
X152083872Y-85397502D01*
X152080210Y-85395000D01*
X152319856Y-85395000D01*
X152249436Y-85498063D01*
X152223731Y-85625000D01*
X152223731Y-86375000D01*
X152246044Y-86493585D01*
X152316128Y-86602498D01*
X152423063Y-86675564D01*
X152550000Y-86701269D01*
X153350000Y-86701269D01*
X153468585Y-86678956D01*
X153577498Y-86608872D01*
X153650564Y-86501937D01*
X153672219Y-86395000D01*
X156873731Y-86395000D01*
X156873731Y-86450000D01*
X156896044Y-86568585D01*
X156966128Y-86677498D01*
X157073063Y-86750564D01*
X157200000Y-86776269D01*
X157630000Y-86776269D01*
X157630000Y-86823731D01*
X157200000Y-86823731D01*
X157081415Y-86846044D01*
X156972502Y-86916128D01*
X156899436Y-87023063D01*
X156873731Y-87150000D01*
X156873731Y-88050000D01*
X156896044Y-88168585D01*
X156966128Y-88277498D01*
X157073063Y-88350564D01*
X157200000Y-88376269D01*
X157700000Y-88376269D01*
X157818585Y-88353956D01*
X157927498Y-88283872D01*
X158000564Y-88176937D01*
X158026269Y-88050000D01*
X158026269Y-88003214D01*
X158132340Y-87932340D01*
X158373731Y-87690949D01*
X158373731Y-88050000D01*
X158396044Y-88168585D01*
X158466128Y-88277498D01*
X158573063Y-88350564D01*
X158700000Y-88376269D01*
X159200000Y-88376269D01*
X159318585Y-88353956D01*
X159427498Y-88283872D01*
X159500564Y-88176937D01*
X159526269Y-88050000D01*
X159526269Y-87150000D01*
X159503956Y-87031415D01*
X159433872Y-86922502D01*
X159345000Y-86861778D01*
X159345000Y-86736958D01*
X159427498Y-86683872D01*
X159500564Y-86576937D01*
X159526269Y-86450000D01*
X159526269Y-86395000D01*
X161709239Y-86395000D01*
X161893068Y-86670120D01*
X162277056Y-86926692D01*
X162730000Y-87016788D01*
X163182944Y-86926692D01*
X163566932Y-86670120D01*
X163823504Y-86286132D01*
X163913600Y-85833188D01*
X163913600Y-85786812D01*
X164086400Y-85786812D01*
X164086400Y-85833188D01*
X164176496Y-86286132D01*
X164433068Y-86670120D01*
X164817056Y-86926692D01*
X165270000Y-87016788D01*
X165722944Y-86926692D01*
X166106932Y-86670120D01*
X166363504Y-86286132D01*
X166453600Y-85833188D01*
X166453600Y-85786812D01*
X166363504Y-85333868D01*
X166106932Y-84949880D01*
X165722944Y-84693308D01*
X165270000Y-84603212D01*
X164817056Y-84693308D01*
X164433068Y-84949880D01*
X164176496Y-85333868D01*
X164086400Y-85786812D01*
X163913600Y-85786812D01*
X163823504Y-85333868D01*
X163566932Y-84949880D01*
X163182944Y-84693308D01*
X162730000Y-84603212D01*
X162277056Y-84693308D01*
X161893068Y-84949880D01*
X161636496Y-85333868D01*
X161582565Y-85605000D01*
X159526269Y-85605000D01*
X159526269Y-85550000D01*
X159503956Y-85431415D01*
X159433872Y-85322502D01*
X159326937Y-85249436D01*
X159200000Y-85223731D01*
X158700000Y-85223731D01*
X158581415Y-85246044D01*
X158570000Y-85253389D01*
X158570000Y-85148471D01*
X158573063Y-85150564D01*
X158700000Y-85176269D01*
X159200000Y-85176269D01*
X159318585Y-85153956D01*
X159427498Y-85083872D01*
X159500564Y-84976937D01*
X159526269Y-84850000D01*
X159526269Y-83950000D01*
X159503956Y-83831415D01*
X159433872Y-83722502D01*
X159345000Y-83661778D01*
X159345000Y-83536958D01*
X159427498Y-83483872D01*
X159500564Y-83376937D01*
X159526269Y-83250000D01*
X159526269Y-83195000D01*
X161556706Y-83195000D01*
X161546400Y-83246812D01*
X161546400Y-83293188D01*
X161636496Y-83746132D01*
X161893068Y-84130120D01*
X162277056Y-84386692D01*
X162730000Y-84476788D01*
X163182944Y-84386692D01*
X163566932Y-84130120D01*
X163823504Y-83746132D01*
X163913600Y-83293188D01*
X163913600Y-83246812D01*
X164086400Y-83246812D01*
X164086400Y-83293188D01*
X164176496Y-83746132D01*
X164433068Y-84130120D01*
X164817056Y-84386692D01*
X165270000Y-84476788D01*
X165722944Y-84386692D01*
X166106932Y-84130120D01*
X166363504Y-83746132D01*
X166453600Y-83293188D01*
X166453600Y-83246812D01*
X166363504Y-82793868D01*
X166106932Y-82409880D01*
X165722944Y-82153308D01*
X165270000Y-82063212D01*
X164817056Y-82153308D01*
X164433068Y-82409880D01*
X164176496Y-82793868D01*
X164086400Y-83246812D01*
X163913600Y-83246812D01*
X163823504Y-82793868D01*
X163566932Y-82409880D01*
X163182944Y-82153308D01*
X162730000Y-82063212D01*
X162277056Y-82153308D01*
X161900371Y-82405000D01*
X159526269Y-82405000D01*
X159526269Y-82350000D01*
X159503956Y-82231415D01*
X159433872Y-82122502D01*
X159326937Y-82049436D01*
X159200000Y-82023731D01*
X158700000Y-82023731D01*
X158581415Y-82046044D01*
X158570000Y-82053389D01*
X158570000Y-81948471D01*
X158573063Y-81950564D01*
X158700000Y-81976269D01*
X159200000Y-81976269D01*
X159318585Y-81953956D01*
X159427498Y-81883872D01*
X159500564Y-81776937D01*
X159526269Y-81650000D01*
X159526269Y-81595000D01*
X161900371Y-81595000D01*
X162277056Y-81846692D01*
X162730000Y-81936788D01*
X163182944Y-81846692D01*
X163566932Y-81590120D01*
X163823504Y-81206132D01*
X163913600Y-80753188D01*
X163913600Y-80706812D01*
X164086400Y-80706812D01*
X164086400Y-80753188D01*
X164176496Y-81206132D01*
X164433068Y-81590120D01*
X164817056Y-81846692D01*
X165270000Y-81936788D01*
X165722944Y-81846692D01*
X166106932Y-81590120D01*
X166363504Y-81206132D01*
X166453600Y-80753188D01*
X166453600Y-80706812D01*
X166363504Y-80253868D01*
X166106932Y-79869880D01*
X165722944Y-79613308D01*
X165270000Y-79523212D01*
X164817056Y-79613308D01*
X164433068Y-79869880D01*
X164176496Y-80253868D01*
X164086400Y-80706812D01*
X163913600Y-80706812D01*
X163823504Y-80253868D01*
X163566932Y-79869880D01*
X163182944Y-79613308D01*
X162730000Y-79523212D01*
X162277056Y-79613308D01*
X161893068Y-79869880D01*
X161636496Y-80253868D01*
X161546400Y-80706812D01*
X161546400Y-80753188D01*
X161556706Y-80805000D01*
X159526269Y-80805000D01*
X159526269Y-80750000D01*
X159503956Y-80631415D01*
X159433872Y-80522502D01*
X159345000Y-80461778D01*
X159345000Y-80336958D01*
X159427498Y-80283872D01*
X159500564Y-80176937D01*
X159526269Y-80050000D01*
X159526269Y-79150000D01*
X159503956Y-79031415D01*
X159433872Y-78922502D01*
X159326937Y-78849436D01*
X159200000Y-78823731D01*
X158700000Y-78823731D01*
X158581415Y-78846044D01*
X158570000Y-78853389D01*
X158570000Y-78748471D01*
X158573063Y-78750564D01*
X158700000Y-78776269D01*
X159200000Y-78776269D01*
X159318585Y-78753956D01*
X159427498Y-78683872D01*
X159500564Y-78576937D01*
X159526269Y-78450000D01*
X159526269Y-78395000D01*
X161582565Y-78395000D01*
X161636496Y-78666132D01*
X161893068Y-79050120D01*
X162277056Y-79306692D01*
X162730000Y-79396788D01*
X163182944Y-79306692D01*
X163566932Y-79050120D01*
X163823504Y-78666132D01*
X163913600Y-78213188D01*
X163913600Y-78166812D01*
X163823504Y-77713868D01*
X163566932Y-77329880D01*
X163561724Y-77326400D01*
X164080131Y-77326400D01*
X164080131Y-79053600D01*
X164102444Y-79172185D01*
X164172528Y-79281098D01*
X164279463Y-79354164D01*
X164406400Y-79379869D01*
X166133600Y-79379869D01*
X166252185Y-79357556D01*
X166361098Y-79287472D01*
X166434164Y-79180537D01*
X166459869Y-79053600D01*
X166459869Y-77326400D01*
X166437556Y-77207815D01*
X166367472Y-77098902D01*
X166260537Y-77025836D01*
X166133600Y-77000131D01*
X164406400Y-77000131D01*
X164287815Y-77022444D01*
X164178902Y-77092528D01*
X164105836Y-77199463D01*
X164080131Y-77326400D01*
X163561724Y-77326400D01*
X163182944Y-77073308D01*
X162730000Y-76983212D01*
X162277056Y-77073308D01*
X161893068Y-77329880D01*
X161709239Y-77605000D01*
X159526269Y-77605000D01*
X159526269Y-77550000D01*
X159503956Y-77431415D01*
X159433872Y-77322502D01*
X159345000Y-77261778D01*
X159345000Y-77136958D01*
X159427498Y-77083872D01*
X159500564Y-76976937D01*
X159526269Y-76850000D01*
X159526269Y-75950000D01*
X159503956Y-75831415D01*
X159433872Y-75722502D01*
X159326937Y-75649436D01*
X159200000Y-75623731D01*
X158700000Y-75623731D01*
X158581415Y-75646044D01*
X158570000Y-75653389D01*
X158570000Y-75000000D01*
X158534223Y-74820139D01*
X158432340Y-74667660D01*
X158132340Y-74367660D01*
X157979861Y-74265777D01*
X157800000Y-74230000D01*
X155994680Y-74230000D01*
X155423078Y-73658398D01*
X155636932Y-73515506D01*
X155893504Y-73131518D01*
X155983600Y-72678574D01*
X155983600Y-72525000D01*
X156376400Y-72525000D01*
X156376400Y-72677400D01*
X156459317Y-73044251D01*
X156676310Y-73351446D01*
X156994344Y-73552217D01*
X157164618Y-73599906D01*
X157315000Y-73590667D01*
X157315000Y-72525000D01*
X157365000Y-72525000D01*
X157365000Y-73590667D01*
X157515382Y-73599906D01*
X157685656Y-73552217D01*
X158003690Y-73351446D01*
X158220683Y-73044251D01*
X158303600Y-72677400D01*
X158303600Y-72525000D01*
X157365000Y-72525000D01*
X157315000Y-72525000D01*
X156376400Y-72525000D01*
X155983600Y-72525000D01*
X155983600Y-72322600D01*
X156376400Y-72322600D01*
X156376400Y-72475000D01*
X157315000Y-72475000D01*
X157315000Y-71409333D01*
X157365000Y-71409333D01*
X157365000Y-72475000D01*
X158303600Y-72475000D01*
X158303600Y-72322600D01*
X158220683Y-71955749D01*
X158003690Y-71648554D01*
X157685656Y-71447783D01*
X157515382Y-71400094D01*
X157365000Y-71409333D01*
X157315000Y-71409333D01*
X157164618Y-71400094D01*
X156994344Y-71447783D01*
X156676310Y-71648554D01*
X156459317Y-71955749D01*
X156376400Y-72322600D01*
X155983600Y-72322600D01*
X155983600Y-72321426D01*
X155893504Y-71868482D01*
X155636932Y-71484494D01*
X155252944Y-71227922D01*
X154800000Y-71137826D01*
X154347056Y-71227922D01*
X153963068Y-71484494D01*
X153706496Y-71868482D01*
X153616400Y-72321426D01*
X153616400Y-72678574D01*
X153706496Y-73131518D01*
X153963068Y-73515506D01*
X154343921Y-73769983D01*
X154365777Y-73879861D01*
X154467660Y-74032340D01*
X155467660Y-75032340D01*
X155620139Y-75134223D01*
X155800000Y-75170000D01*
X157605320Y-75170000D01*
X157630000Y-75194680D01*
X157630000Y-75623731D01*
X157200000Y-75623731D01*
X157081415Y-75646044D01*
X156972502Y-75716128D01*
X156899436Y-75823063D01*
X156873731Y-75950000D01*
X156873731Y-76005000D01*
X153772506Y-76005000D01*
X153753956Y-75906415D01*
X153683872Y-75797502D01*
X153576937Y-75724436D01*
X153450000Y-75698731D01*
X152650000Y-75698731D01*
X152531415Y-75721044D01*
X152422502Y-75791128D01*
X152349436Y-75898063D01*
X152323731Y-76025000D01*
X152323731Y-76775000D01*
X152346044Y-76893585D01*
X152416128Y-77002498D01*
X152523063Y-77075564D01*
X152641781Y-77099605D01*
X152536386Y-77205000D01*
X145600000Y-77205000D01*
X145448840Y-77235068D01*
X145374010Y-77285068D01*
X145320693Y-77320693D01*
X143870693Y-78770693D01*
X143785068Y-78898840D01*
X143755000Y-79050000D01*
X143755000Y-79073731D01*
X143500000Y-79073731D01*
X143396329Y-79093238D01*
X143300000Y-79073731D01*
X143045000Y-79073731D01*
X143045000Y-77126269D01*
X143050000Y-77126269D01*
X143168585Y-77103956D01*
X143215289Y-77073903D01*
X143580052Y-77438666D01*
X143579892Y-77622785D01*
X143674083Y-77850743D01*
X143848339Y-78025304D01*
X144076133Y-78119893D01*
X144322785Y-78120108D01*
X144550743Y-78025917D01*
X144725304Y-77851661D01*
X144819893Y-77623867D01*
X144820108Y-77377215D01*
X144725917Y-77149257D01*
X144551661Y-76974696D01*
X144323867Y-76880107D01*
X144138559Y-76879945D01*
X143529307Y-76270693D01*
X143401160Y-76185068D01*
X143349723Y-76174836D01*
X143283872Y-76072502D01*
X143176937Y-75999436D01*
X143050000Y-75973731D01*
X142150000Y-75973731D01*
X142031415Y-75996044D01*
X141922502Y-76066128D01*
X141849436Y-76173063D01*
X141823731Y-76300000D01*
X141823731Y-76800000D01*
X141831292Y-76840186D01*
X141762364Y-76868667D01*
X141776269Y-76800000D01*
X141776269Y-76300000D01*
X141753956Y-76181415D01*
X141683872Y-76072502D01*
X141576937Y-75999436D01*
X141450000Y-75973731D01*
X140550000Y-75973731D01*
X140431415Y-75996044D01*
X140322502Y-76066128D01*
X140249436Y-76173063D01*
X140223731Y-76300000D01*
X140223731Y-76800000D01*
X140246044Y-76918585D01*
X140316128Y-77027498D01*
X140423063Y-77100564D01*
X140550000Y-77126269D01*
X140610225Y-77126269D01*
X140635068Y-77251160D01*
X140720693Y-77379307D01*
X140946386Y-77605000D01*
X139963614Y-77605000D01*
X139795000Y-77436386D01*
X139795000Y-77126269D01*
X139850000Y-77126269D01*
X139968585Y-77103956D01*
X140077498Y-77033872D01*
X140150564Y-76926937D01*
X140176269Y-76800000D01*
X140176269Y-76300000D01*
X140153956Y-76181415D01*
X140083872Y-76072502D01*
X139976937Y-75999436D01*
X139850000Y-75973731D01*
X138950000Y-75973731D01*
X138831415Y-75996044D01*
X138722502Y-76066128D01*
X138649436Y-76173063D01*
X138623731Y-76300000D01*
X138623731Y-76800000D01*
X138646044Y-76918585D01*
X138716128Y-77027498D01*
X138792956Y-77079993D01*
X138677215Y-77079892D01*
X138449257Y-77174083D01*
X138274696Y-77348339D01*
X138225479Y-77466865D01*
X138195000Y-77436386D01*
X138195000Y-77126269D01*
X138250000Y-77126269D01*
X138368585Y-77103956D01*
X138477498Y-77033872D01*
X138550564Y-76926937D01*
X138576269Y-76800000D01*
X138576269Y-76300000D01*
X138553956Y-76181415D01*
X138483872Y-76072502D01*
X138376937Y-75999436D01*
X138250000Y-75973731D01*
X137350000Y-75973731D01*
X137231415Y-75996044D01*
X137122502Y-76066128D01*
X137049436Y-76173063D01*
X137023731Y-76300000D01*
X137023731Y-76800000D01*
X137046044Y-76918585D01*
X137116128Y-77027498D01*
X137223063Y-77100564D01*
X137350000Y-77126269D01*
X137405000Y-77126269D01*
X137405000Y-77600000D01*
X137435068Y-77751160D01*
X137520693Y-77879307D01*
X137896110Y-78254724D01*
X137849257Y-78274083D01*
X137674696Y-78448339D01*
X137580107Y-78676133D01*
X137579892Y-78922785D01*
X137674083Y-79150743D01*
X137848339Y-79325304D01*
X138076133Y-79419893D01*
X138322785Y-79420108D01*
X138550743Y-79325917D01*
X138725304Y-79151661D01*
X138791092Y-78993228D01*
X138800000Y-78995000D01*
X139936386Y-78995000D01*
X140005000Y-79063614D01*
X140005000Y-80400000D01*
X140035068Y-80551160D01*
X140120693Y-80679307D01*
X140370693Y-80929307D01*
X140498840Y-81014932D01*
X140573731Y-81029829D01*
X140573731Y-81300000D01*
X140596044Y-81418585D01*
X140666128Y-81527498D01*
X140773063Y-81600564D01*
X140807547Y-81607547D01*
X140825000Y-81625000D01*
X140893733Y-81625000D01*
X140900000Y-81626269D01*
X141395000Y-81626269D01*
X141395000Y-81673731D01*
X140900000Y-81673731D01*
X140893256Y-81675000D01*
X140825000Y-81675000D01*
X140809180Y-81690820D01*
X140781415Y-81696044D01*
X140672502Y-81766128D01*
X140645942Y-81805000D01*
X137726269Y-81805000D01*
X137726269Y-81750000D01*
X137703956Y-81631415D01*
X137633872Y-81522502D01*
X137526937Y-81449436D01*
X137400000Y-81423731D01*
X136900000Y-81423731D01*
X136781415Y-81446044D01*
X136672502Y-81516128D01*
X136599436Y-81623063D01*
X136573731Y-81750000D01*
X136573731Y-82650000D01*
X136596044Y-82768585D01*
X136666128Y-82877498D01*
X136755000Y-82938222D01*
X136755000Y-87550000D01*
X136785068Y-87701160D01*
X136870693Y-87829307D01*
X137105000Y-88063614D01*
X137105000Y-91100000D01*
X137135068Y-91251160D01*
X137220693Y-91379307D01*
X138953976Y-93112590D01*
X138938157Y-93112590D01*
X138900000Y-93105000D01*
X127038903Y-93105000D01*
X126388755Y-92975677D01*
X125870565Y-92629435D01*
X125524323Y-92111245D01*
X125395000Y-91461096D01*
X125395000Y-82250000D01*
X135300000Y-82250000D01*
X135300000Y-82669891D01*
X135315224Y-82706646D01*
X135343355Y-82734776D01*
X135380109Y-82750000D01*
X135600000Y-82750000D01*
X135625000Y-82725000D01*
X135625000Y-82225000D01*
X135675000Y-82225000D01*
X135675000Y-82725000D01*
X135700000Y-82750000D01*
X135919891Y-82750000D01*
X135956645Y-82734776D01*
X135984776Y-82706646D01*
X136000000Y-82669891D01*
X136000000Y-82250000D01*
X135975000Y-82225000D01*
X135675000Y-82225000D01*
X135625000Y-82225000D01*
X135325000Y-82225000D01*
X135300000Y-82250000D01*
X125395000Y-82250000D01*
X125395000Y-81730109D01*
X135300000Y-81730109D01*
X135300000Y-82150000D01*
X135325000Y-82175000D01*
X135625000Y-82175000D01*
X135625000Y-81675000D01*
X135675000Y-81675000D01*
X135675000Y-82175000D01*
X135975000Y-82175000D01*
X136000000Y-82150000D01*
X136000000Y-81730109D01*
X135984776Y-81693354D01*
X135956645Y-81665224D01*
X135919891Y-81650000D01*
X135700000Y-81650000D01*
X135675000Y-81675000D01*
X135625000Y-81675000D01*
X135600000Y-81650000D01*
X135380109Y-81650000D01*
X135343355Y-81665224D01*
X135315224Y-81693354D01*
X135300000Y-81730109D01*
X125395000Y-81730109D01*
X125395000Y-80522785D01*
X135079892Y-80522785D01*
X135174083Y-80750743D01*
X135348339Y-80925304D01*
X135576133Y-81019893D01*
X135822785Y-81020108D01*
X136050743Y-80925917D01*
X136106758Y-80870000D01*
X136341606Y-80870000D01*
X136346044Y-80893585D01*
X136416128Y-81002498D01*
X136523063Y-81075564D01*
X136650000Y-81101269D01*
X137450000Y-81101269D01*
X137568585Y-81078956D01*
X137677498Y-81008872D01*
X137750564Y-80901937D01*
X137776269Y-80775000D01*
X137776269Y-80450000D01*
X138050000Y-80450000D01*
X138050000Y-80794891D01*
X138065224Y-80831646D01*
X138093355Y-80859776D01*
X138130109Y-80875000D01*
X138500000Y-80875000D01*
X138525000Y-80850000D01*
X138525000Y-80425000D01*
X138575000Y-80425000D01*
X138575000Y-80850000D01*
X138600000Y-80875000D01*
X138969891Y-80875000D01*
X139006645Y-80859776D01*
X139034776Y-80831646D01*
X139050000Y-80794891D01*
X139050000Y-80450000D01*
X139025000Y-80425000D01*
X138575000Y-80425000D01*
X138525000Y-80425000D01*
X138075000Y-80425000D01*
X138050000Y-80450000D01*
X137776269Y-80450000D01*
X137776269Y-80025000D01*
X137772527Y-80005109D01*
X138050000Y-80005109D01*
X138050000Y-80350000D01*
X138075000Y-80375000D01*
X138525000Y-80375000D01*
X138525000Y-79950000D01*
X138575000Y-79950000D01*
X138575000Y-80375000D01*
X139025000Y-80375000D01*
X139050000Y-80350000D01*
X139050000Y-80005109D01*
X139034776Y-79968354D01*
X139006645Y-79940224D01*
X138969891Y-79925000D01*
X138600000Y-79925000D01*
X138575000Y-79950000D01*
X138525000Y-79950000D01*
X138500000Y-79925000D01*
X138130109Y-79925000D01*
X138093355Y-79940224D01*
X138065224Y-79968354D01*
X138050000Y-80005109D01*
X137772527Y-80005109D01*
X137753956Y-79906415D01*
X137683872Y-79797502D01*
X137576937Y-79724436D01*
X137450000Y-79698731D01*
X136650000Y-79698731D01*
X136531415Y-79721044D01*
X136422502Y-79791128D01*
X136349436Y-79898063D01*
X136342969Y-79930000D01*
X136106868Y-79930000D01*
X136051661Y-79874696D01*
X135823867Y-79780107D01*
X135577215Y-79779892D01*
X135349257Y-79874083D01*
X135174696Y-80048339D01*
X135080107Y-80276133D01*
X135079892Y-80522785D01*
X125395000Y-80522785D01*
X125395000Y-75422785D01*
X150679892Y-75422785D01*
X150774083Y-75650743D01*
X150919138Y-75796052D01*
X150849436Y-75898063D01*
X150823731Y-76025000D01*
X150823731Y-76775000D01*
X150846044Y-76893585D01*
X150916128Y-77002498D01*
X151023063Y-77075564D01*
X151150000Y-77101269D01*
X151950000Y-77101269D01*
X152068585Y-77078956D01*
X152177498Y-77008872D01*
X152250564Y-76901937D01*
X152276269Y-76775000D01*
X152276269Y-76025000D01*
X152253956Y-75906415D01*
X152183872Y-75797502D01*
X152076937Y-75724436D01*
X152020000Y-75712906D01*
X152020000Y-75550000D01*
X151984223Y-75370139D01*
X151920024Y-75274058D01*
X151920108Y-75177215D01*
X151825917Y-74949257D01*
X151651661Y-74774696D01*
X151423867Y-74680107D01*
X151177215Y-74679892D01*
X150949257Y-74774083D01*
X150774696Y-74948339D01*
X150680107Y-75176133D01*
X150679892Y-75422785D01*
X125395000Y-75422785D01*
X125395000Y-75100000D01*
X137250000Y-75100000D01*
X137250000Y-75319891D01*
X137265224Y-75356645D01*
X137293354Y-75384776D01*
X137330109Y-75400000D01*
X137750000Y-75400000D01*
X137775000Y-75375000D01*
X137775000Y-75075000D01*
X137825000Y-75075000D01*
X137825000Y-75375000D01*
X137850000Y-75400000D01*
X138269891Y-75400000D01*
X138306646Y-75384776D01*
X138334776Y-75356645D01*
X138350000Y-75319891D01*
X138350000Y-75100000D01*
X138850000Y-75100000D01*
X138850000Y-75319891D01*
X138865224Y-75356645D01*
X138893354Y-75384776D01*
X138930109Y-75400000D01*
X139350000Y-75400000D01*
X139375000Y-75375000D01*
X139375000Y-75075000D01*
X139425000Y-75075000D01*
X139425000Y-75375000D01*
X139450000Y-75400000D01*
X139869891Y-75400000D01*
X139906646Y-75384776D01*
X139934776Y-75356645D01*
X139950000Y-75319891D01*
X139950000Y-75100000D01*
X140450000Y-75100000D01*
X140450000Y-75319891D01*
X140465224Y-75356645D01*
X140493354Y-75384776D01*
X140530109Y-75400000D01*
X140950000Y-75400000D01*
X140975000Y-75375000D01*
X140975000Y-75075000D01*
X141025000Y-75075000D01*
X141025000Y-75375000D01*
X141050000Y-75400000D01*
X141469891Y-75400000D01*
X141506646Y-75384776D01*
X141534776Y-75356645D01*
X141550000Y-75319891D01*
X141550000Y-75100000D01*
X142050000Y-75100000D01*
X142050000Y-75319891D01*
X142065224Y-75356645D01*
X142093354Y-75384776D01*
X142130109Y-75400000D01*
X142550000Y-75400000D01*
X142575000Y-75375000D01*
X142575000Y-75075000D01*
X142625000Y-75075000D01*
X142625000Y-75375000D01*
X142650000Y-75400000D01*
X143069891Y-75400000D01*
X143106646Y-75384776D01*
X143134776Y-75356645D01*
X143150000Y-75319891D01*
X143150000Y-75100000D01*
X143125000Y-75075000D01*
X142625000Y-75075000D01*
X142575000Y-75075000D01*
X142075000Y-75075000D01*
X142050000Y-75100000D01*
X141550000Y-75100000D01*
X141525000Y-75075000D01*
X141025000Y-75075000D01*
X140975000Y-75075000D01*
X140475000Y-75075000D01*
X140450000Y-75100000D01*
X139950000Y-75100000D01*
X139925000Y-75075000D01*
X139425000Y-75075000D01*
X139375000Y-75075000D01*
X138875000Y-75075000D01*
X138850000Y-75100000D01*
X138350000Y-75100000D01*
X138325000Y-75075000D01*
X137825000Y-75075000D01*
X137775000Y-75075000D01*
X137275000Y-75075000D01*
X137250000Y-75100000D01*
X125395000Y-75100000D01*
X125395000Y-74780109D01*
X137250000Y-74780109D01*
X137250000Y-75000000D01*
X137275000Y-75025000D01*
X137775000Y-75025000D01*
X137775000Y-74725000D01*
X137825000Y-74725000D01*
X137825000Y-75025000D01*
X138325000Y-75025000D01*
X138350000Y-75000000D01*
X138350000Y-74780109D01*
X138850000Y-74780109D01*
X138850000Y-75000000D01*
X138875000Y-75025000D01*
X139375000Y-75025000D01*
X139375000Y-74725000D01*
X139425000Y-74725000D01*
X139425000Y-75025000D01*
X139925000Y-75025000D01*
X139950000Y-75000000D01*
X139950000Y-74780109D01*
X140450000Y-74780109D01*
X140450000Y-75000000D01*
X140475000Y-75025000D01*
X140975000Y-75025000D01*
X140975000Y-74725000D01*
X141025000Y-74725000D01*
X141025000Y-75025000D01*
X141525000Y-75025000D01*
X141550000Y-75000000D01*
X141550000Y-74780109D01*
X142050000Y-74780109D01*
X142050000Y-75000000D01*
X142075000Y-75025000D01*
X142575000Y-75025000D01*
X142575000Y-74725000D01*
X142625000Y-74725000D01*
X142625000Y-75025000D01*
X143125000Y-75025000D01*
X143150000Y-75000000D01*
X143150000Y-74780109D01*
X143134776Y-74743355D01*
X143106646Y-74715224D01*
X143069891Y-74700000D01*
X142650000Y-74700000D01*
X142625000Y-74725000D01*
X142575000Y-74725000D01*
X142550000Y-74700000D01*
X142130109Y-74700000D01*
X142093354Y-74715224D01*
X142065224Y-74743355D01*
X142050000Y-74780109D01*
X141550000Y-74780109D01*
X141534776Y-74743355D01*
X141506646Y-74715224D01*
X141469891Y-74700000D01*
X141050000Y-74700000D01*
X141025000Y-74725000D01*
X140975000Y-74725000D01*
X140950000Y-74700000D01*
X140530109Y-74700000D01*
X140493354Y-74715224D01*
X140465224Y-74743355D01*
X140450000Y-74780109D01*
X139950000Y-74780109D01*
X139934776Y-74743355D01*
X139906646Y-74715224D01*
X139869891Y-74700000D01*
X139450000Y-74700000D01*
X139425000Y-74725000D01*
X139375000Y-74725000D01*
X139350000Y-74700000D01*
X138930109Y-74700000D01*
X138893354Y-74715224D01*
X138865224Y-74743355D01*
X138850000Y-74780109D01*
X138350000Y-74780109D01*
X138334776Y-74743355D01*
X138306646Y-74715224D01*
X138269891Y-74700000D01*
X137850000Y-74700000D01*
X137825000Y-74725000D01*
X137775000Y-74725000D01*
X137750000Y-74700000D01*
X137330109Y-74700000D01*
X137293354Y-74715224D01*
X137265224Y-74743355D01*
X137250000Y-74780109D01*
X125395000Y-74780109D01*
X125395000Y-72038904D01*
X125505377Y-71484000D01*
X151070131Y-71484000D01*
X151070131Y-73516000D01*
X151092444Y-73634585D01*
X151162528Y-73743498D01*
X151269463Y-73816564D01*
X151396400Y-73842269D01*
X153123600Y-73842269D01*
X153242185Y-73819956D01*
X153351098Y-73749872D01*
X153424164Y-73642937D01*
X153449869Y-73516000D01*
X153449869Y-71484000D01*
X153427556Y-71365415D01*
X153357472Y-71256502D01*
X153250537Y-71183436D01*
X153123600Y-71157731D01*
X151396400Y-71157731D01*
X151277815Y-71180044D01*
X151168902Y-71250128D01*
X151095836Y-71357063D01*
X151070131Y-71484000D01*
X125505377Y-71484000D01*
X125524323Y-71388755D01*
X125870565Y-70870565D01*
X126388755Y-70524323D01*
X127038903Y-70395000D01*
X169561098Y-70395000D01*
X169597716Y-70402284D01*
X169597716Y-70402284D01*
G37*
X169597716Y-70402284D02*
X169605000Y-70438903D01*
X169605000Y-93061097D01*
X169597716Y-93097716D01*
X169561098Y-93105000D01*
X161100000Y-93105000D01*
X161061843Y-93112590D01*
X161022939Y-93112590D01*
X160659391Y-93184904D01*
X160659390Y-93184904D01*
X160517000Y-93243884D01*
X160208798Y-93449819D01*
X160154309Y-93504309D01*
X160099819Y-93558798D01*
X159893884Y-93867000D01*
X159834904Y-94009390D01*
X159834904Y-94009391D01*
X159762590Y-94372940D01*
X159762590Y-94411843D01*
X159755000Y-94450000D01*
X159755000Y-96490320D01*
X159432340Y-96167660D01*
X159279861Y-96065777D01*
X159100000Y-96030000D01*
X156969860Y-96030000D01*
X156969860Y-95907008D01*
X157025304Y-95851661D01*
X157119893Y-95623867D01*
X157120108Y-95377215D01*
X157025917Y-95149257D01*
X156851661Y-94974696D01*
X156623867Y-94880107D01*
X156377215Y-94879892D01*
X156149257Y-94974083D01*
X155974696Y-95148339D01*
X155880107Y-95376133D01*
X155879892Y-95622785D01*
X155974083Y-95850743D01*
X156029860Y-95906618D01*
X156029860Y-96030000D01*
X152900000Y-96030000D01*
X152720139Y-96065777D01*
X152567660Y-96167659D01*
X152167020Y-96568300D01*
X152065137Y-96720779D01*
X152029360Y-96900640D01*
X152029360Y-97412994D01*
X152000333Y-97431673D01*
X151953197Y-97399466D01*
X151826260Y-97373761D01*
X151176020Y-97373761D01*
X151057435Y-97396074D01*
X151000805Y-97432515D01*
X150952437Y-97399466D01*
X150895380Y-97387912D01*
X150895380Y-96400380D01*
X150865312Y-96249220D01*
X150810896Y-96167780D01*
X150779688Y-96121073D01*
X150179307Y-95520693D01*
X150051160Y-95435068D01*
X149900000Y-95405000D01*
X149894620Y-95405000D01*
X149894620Y-94263994D01*
X151838666Y-92319948D01*
X152022785Y-92320108D01*
X152250743Y-92225917D01*
X152425304Y-92051661D01*
X152519893Y-91823867D01*
X152520108Y-91577215D01*
X152425917Y-91349257D01*
X152251661Y-91174696D01*
X152023867Y-91080107D01*
X151777215Y-91079892D01*
X151549257Y-91174083D01*
X151374696Y-91348339D01*
X151280107Y-91576133D01*
X151279945Y-91761441D01*
X149220313Y-93821073D01*
X149197871Y-93854660D01*
X149000181Y-93558798D01*
X148945691Y-93504309D01*
X148891202Y-93449819D01*
X148583000Y-93243884D01*
X148440610Y-93184904D01*
X148440609Y-93184904D01*
X148077062Y-93112590D01*
X147922939Y-93112590D01*
X147559391Y-93184904D01*
X147559390Y-93184904D01*
X147417000Y-93243884D01*
X147108798Y-93449819D01*
X147054309Y-93504309D01*
X146999819Y-93558798D01*
X146894880Y-93715850D01*
X146894880Y-85395000D01*
X150819856Y-85395000D01*
X150749436Y-85498063D01*
X150723731Y-85625000D01*
X150723731Y-86375000D01*
X150746044Y-86493585D01*
X150816128Y-86602498D01*
X150923063Y-86675564D01*
X150943606Y-86679724D01*
X150774696Y-86848339D01*
X150680107Y-87076133D01*
X150679892Y-87322785D01*
X150774083Y-87550743D01*
X150948339Y-87725304D01*
X151176133Y-87819893D01*
X151422785Y-87820108D01*
X151650743Y-87725917D01*
X151825304Y-87551661D01*
X151919893Y-87323867D01*
X151920108Y-87077215D01*
X151916381Y-87068195D01*
X151920000Y-87050000D01*
X151920000Y-86688098D01*
X151968585Y-86678956D01*
X152077498Y-86608872D01*
X152150564Y-86501937D01*
X152176269Y-86375000D01*
X152176269Y-85625000D01*
X152153956Y-85506415D01*
X152083872Y-85397502D01*
X152080210Y-85395000D01*
X152319856Y-85395000D01*
X152249436Y-85498063D01*
X152223731Y-85625000D01*
X152223731Y-86375000D01*
X152246044Y-86493585D01*
X152316128Y-86602498D01*
X152423063Y-86675564D01*
X152550000Y-86701269D01*
X153350000Y-86701269D01*
X153468585Y-86678956D01*
X153577498Y-86608872D01*
X153650564Y-86501937D01*
X153672219Y-86395000D01*
X156873731Y-86395000D01*
X156873731Y-86450000D01*
X156896044Y-86568585D01*
X156966128Y-86677498D01*
X157073063Y-86750564D01*
X157200000Y-86776269D01*
X157630000Y-86776269D01*
X157630000Y-86823731D01*
X157200000Y-86823731D01*
X157081415Y-86846044D01*
X156972502Y-86916128D01*
X156899436Y-87023063D01*
X156873731Y-87150000D01*
X156873731Y-88050000D01*
X156896044Y-88168585D01*
X156966128Y-88277498D01*
X157073063Y-88350564D01*
X157200000Y-88376269D01*
X157700000Y-88376269D01*
X157818585Y-88353956D01*
X157927498Y-88283872D01*
X158000564Y-88176937D01*
X158026269Y-88050000D01*
X158026269Y-88003214D01*
X158132340Y-87932340D01*
X158373731Y-87690949D01*
X158373731Y-88050000D01*
X158396044Y-88168585D01*
X158466128Y-88277498D01*
X158573063Y-88350564D01*
X158700000Y-88376269D01*
X159200000Y-88376269D01*
X159318585Y-88353956D01*
X159427498Y-88283872D01*
X159500564Y-88176937D01*
X159526269Y-88050000D01*
X159526269Y-87150000D01*
X159503956Y-87031415D01*
X159433872Y-86922502D01*
X159345000Y-86861778D01*
X159345000Y-86736958D01*
X159427498Y-86683872D01*
X159500564Y-86576937D01*
X159526269Y-86450000D01*
X159526269Y-86395000D01*
X161709239Y-86395000D01*
X161893068Y-86670120D01*
X162277056Y-86926692D01*
X162730000Y-87016788D01*
X163182944Y-86926692D01*
X163566932Y-86670120D01*
X163823504Y-86286132D01*
X163913600Y-85833188D01*
X163913600Y-85786812D01*
X164086400Y-85786812D01*
X164086400Y-85833188D01*
X164176496Y-86286132D01*
X164433068Y-86670120D01*
X164817056Y-86926692D01*
X165270000Y-87016788D01*
X165722944Y-86926692D01*
X166106932Y-86670120D01*
X166363504Y-86286132D01*
X166453600Y-85833188D01*
X166453600Y-85786812D01*
X166363504Y-85333868D01*
X166106932Y-84949880D01*
X165722944Y-84693308D01*
X165270000Y-84603212D01*
X164817056Y-84693308D01*
X164433068Y-84949880D01*
X164176496Y-85333868D01*
X164086400Y-85786812D01*
X163913600Y-85786812D01*
X163823504Y-85333868D01*
X163566932Y-84949880D01*
X163182944Y-84693308D01*
X162730000Y-84603212D01*
X162277056Y-84693308D01*
X161893068Y-84949880D01*
X161636496Y-85333868D01*
X161582565Y-85605000D01*
X159526269Y-85605000D01*
X159526269Y-85550000D01*
X159503956Y-85431415D01*
X159433872Y-85322502D01*
X159326937Y-85249436D01*
X159200000Y-85223731D01*
X158700000Y-85223731D01*
X158581415Y-85246044D01*
X158570000Y-85253389D01*
X158570000Y-85148471D01*
X158573063Y-85150564D01*
X158700000Y-85176269D01*
X159200000Y-85176269D01*
X159318585Y-85153956D01*
X159427498Y-85083872D01*
X159500564Y-84976937D01*
X159526269Y-84850000D01*
X159526269Y-83950000D01*
X159503956Y-83831415D01*
X159433872Y-83722502D01*
X159345000Y-83661778D01*
X159345000Y-83536958D01*
X159427498Y-83483872D01*
X159500564Y-83376937D01*
X159526269Y-83250000D01*
X159526269Y-83195000D01*
X161556706Y-83195000D01*
X161546400Y-83246812D01*
X161546400Y-83293188D01*
X161636496Y-83746132D01*
X161893068Y-84130120D01*
X162277056Y-84386692D01*
X162730000Y-84476788D01*
X163182944Y-84386692D01*
X163566932Y-84130120D01*
X163823504Y-83746132D01*
X163913600Y-83293188D01*
X163913600Y-83246812D01*
X164086400Y-83246812D01*
X164086400Y-83293188D01*
X164176496Y-83746132D01*
X164433068Y-84130120D01*
X164817056Y-84386692D01*
X165270000Y-84476788D01*
X165722944Y-84386692D01*
X166106932Y-84130120D01*
X166363504Y-83746132D01*
X166453600Y-83293188D01*
X166453600Y-83246812D01*
X166363504Y-82793868D01*
X166106932Y-82409880D01*
X165722944Y-82153308D01*
X165270000Y-82063212D01*
X164817056Y-82153308D01*
X164433068Y-82409880D01*
X164176496Y-82793868D01*
X164086400Y-83246812D01*
X163913600Y-83246812D01*
X163823504Y-82793868D01*
X163566932Y-82409880D01*
X163182944Y-82153308D01*
X162730000Y-82063212D01*
X162277056Y-82153308D01*
X161900371Y-82405000D01*
X159526269Y-82405000D01*
X159526269Y-82350000D01*
X159503956Y-82231415D01*
X159433872Y-82122502D01*
X159326937Y-82049436D01*
X159200000Y-82023731D01*
X158700000Y-82023731D01*
X158581415Y-82046044D01*
X158570000Y-82053389D01*
X158570000Y-81948471D01*
X158573063Y-81950564D01*
X158700000Y-81976269D01*
X159200000Y-81976269D01*
X159318585Y-81953956D01*
X159427498Y-81883872D01*
X159500564Y-81776937D01*
X159526269Y-81650000D01*
X159526269Y-81595000D01*
X161900371Y-81595000D01*
X162277056Y-81846692D01*
X162730000Y-81936788D01*
X163182944Y-81846692D01*
X163566932Y-81590120D01*
X163823504Y-81206132D01*
X163913600Y-80753188D01*
X163913600Y-80706812D01*
X164086400Y-80706812D01*
X164086400Y-80753188D01*
X164176496Y-81206132D01*
X164433068Y-81590120D01*
X164817056Y-81846692D01*
X165270000Y-81936788D01*
X165722944Y-81846692D01*
X166106932Y-81590120D01*
X166363504Y-81206132D01*
X166453600Y-80753188D01*
X166453600Y-80706812D01*
X166363504Y-80253868D01*
X166106932Y-79869880D01*
X165722944Y-79613308D01*
X165270000Y-79523212D01*
X164817056Y-79613308D01*
X164433068Y-79869880D01*
X164176496Y-80253868D01*
X164086400Y-80706812D01*
X163913600Y-80706812D01*
X163823504Y-80253868D01*
X163566932Y-79869880D01*
X163182944Y-79613308D01*
X162730000Y-79523212D01*
X162277056Y-79613308D01*
X161893068Y-79869880D01*
X161636496Y-80253868D01*
X161546400Y-80706812D01*
X161546400Y-80753188D01*
X161556706Y-80805000D01*
X159526269Y-80805000D01*
X159526269Y-80750000D01*
X159503956Y-80631415D01*
X159433872Y-80522502D01*
X159345000Y-80461778D01*
X159345000Y-80336958D01*
X159427498Y-80283872D01*
X159500564Y-80176937D01*
X159526269Y-80050000D01*
X159526269Y-79150000D01*
X159503956Y-79031415D01*
X159433872Y-78922502D01*
X159326937Y-78849436D01*
X159200000Y-78823731D01*
X158700000Y-78823731D01*
X158581415Y-78846044D01*
X158570000Y-78853389D01*
X158570000Y-78748471D01*
X158573063Y-78750564D01*
X158700000Y-78776269D01*
X159200000Y-78776269D01*
X159318585Y-78753956D01*
X159427498Y-78683872D01*
X159500564Y-78576937D01*
X159526269Y-78450000D01*
X159526269Y-78395000D01*
X161582565Y-78395000D01*
X161636496Y-78666132D01*
X161893068Y-79050120D01*
X162277056Y-79306692D01*
X162730000Y-79396788D01*
X163182944Y-79306692D01*
X163566932Y-79050120D01*
X163823504Y-78666132D01*
X163913600Y-78213188D01*
X163913600Y-78166812D01*
X163823504Y-77713868D01*
X163566932Y-77329880D01*
X163561724Y-77326400D01*
X164080131Y-77326400D01*
X164080131Y-79053600D01*
X164102444Y-79172185D01*
X164172528Y-79281098D01*
X164279463Y-79354164D01*
X164406400Y-79379869D01*
X166133600Y-79379869D01*
X166252185Y-79357556D01*
X166361098Y-79287472D01*
X166434164Y-79180537D01*
X166459869Y-79053600D01*
X166459869Y-77326400D01*
X166437556Y-77207815D01*
X166367472Y-77098902D01*
X166260537Y-77025836D01*
X166133600Y-77000131D01*
X164406400Y-77000131D01*
X164287815Y-77022444D01*
X164178902Y-77092528D01*
X164105836Y-77199463D01*
X164080131Y-77326400D01*
X163561724Y-77326400D01*
X163182944Y-77073308D01*
X162730000Y-76983212D01*
X162277056Y-77073308D01*
X161893068Y-77329880D01*
X161709239Y-77605000D01*
X159526269Y-77605000D01*
X159526269Y-77550000D01*
X159503956Y-77431415D01*
X159433872Y-77322502D01*
X159345000Y-77261778D01*
X159345000Y-77136958D01*
X159427498Y-77083872D01*
X159500564Y-76976937D01*
X159526269Y-76850000D01*
X159526269Y-75950000D01*
X159503956Y-75831415D01*
X159433872Y-75722502D01*
X159326937Y-75649436D01*
X159200000Y-75623731D01*
X158700000Y-75623731D01*
X158581415Y-75646044D01*
X158570000Y-75653389D01*
X158570000Y-75000000D01*
X158534223Y-74820139D01*
X158432340Y-74667660D01*
X158132340Y-74367660D01*
X157979861Y-74265777D01*
X157800000Y-74230000D01*
X155994680Y-74230000D01*
X155423078Y-73658398D01*
X155636932Y-73515506D01*
X155893504Y-73131518D01*
X155983600Y-72678574D01*
X155983600Y-72525000D01*
X156376400Y-72525000D01*
X156376400Y-72677400D01*
X156459317Y-73044251D01*
X156676310Y-73351446D01*
X156994344Y-73552217D01*
X157164618Y-73599906D01*
X157315000Y-73590667D01*
X157315000Y-72525000D01*
X157365000Y-72525000D01*
X157365000Y-73590667D01*
X157515382Y-73599906D01*
X157685656Y-73552217D01*
X158003690Y-73351446D01*
X158220683Y-73044251D01*
X158303600Y-72677400D01*
X158303600Y-72525000D01*
X157365000Y-72525000D01*
X157315000Y-72525000D01*
X156376400Y-72525000D01*
X155983600Y-72525000D01*
X155983600Y-72322600D01*
X156376400Y-72322600D01*
X156376400Y-72475000D01*
X157315000Y-72475000D01*
X157315000Y-71409333D01*
X157365000Y-71409333D01*
X157365000Y-72475000D01*
X158303600Y-72475000D01*
X158303600Y-72322600D01*
X158220683Y-71955749D01*
X158003690Y-71648554D01*
X157685656Y-71447783D01*
X157515382Y-71400094D01*
X157365000Y-71409333D01*
X157315000Y-71409333D01*
X157164618Y-71400094D01*
X156994344Y-71447783D01*
X156676310Y-71648554D01*
X156459317Y-71955749D01*
X156376400Y-72322600D01*
X155983600Y-72322600D01*
X155983600Y-72321426D01*
X155893504Y-71868482D01*
X155636932Y-71484494D01*
X155252944Y-71227922D01*
X154800000Y-71137826D01*
X154347056Y-71227922D01*
X153963068Y-71484494D01*
X153706496Y-71868482D01*
X153616400Y-72321426D01*
X153616400Y-72678574D01*
X153706496Y-73131518D01*
X153963068Y-73515506D01*
X154343921Y-73769983D01*
X154365777Y-73879861D01*
X154467660Y-74032340D01*
X155467660Y-75032340D01*
X155620139Y-75134223D01*
X155800000Y-75170000D01*
X157605320Y-75170000D01*
X157630000Y-75194680D01*
X157630000Y-75623731D01*
X157200000Y-75623731D01*
X157081415Y-75646044D01*
X156972502Y-75716128D01*
X156899436Y-75823063D01*
X156873731Y-75950000D01*
X156873731Y-76005000D01*
X153772506Y-76005000D01*
X153753956Y-75906415D01*
X153683872Y-75797502D01*
X153576937Y-75724436D01*
X153450000Y-75698731D01*
X152650000Y-75698731D01*
X152531415Y-75721044D01*
X152422502Y-75791128D01*
X152349436Y-75898063D01*
X152323731Y-76025000D01*
X152323731Y-76775000D01*
X152346044Y-76893585D01*
X152416128Y-77002498D01*
X152523063Y-77075564D01*
X152641781Y-77099605D01*
X152536386Y-77205000D01*
X145600000Y-77205000D01*
X145448840Y-77235068D01*
X145374010Y-77285068D01*
X145320693Y-77320693D01*
X143870693Y-78770693D01*
X143785068Y-78898840D01*
X143755000Y-79050000D01*
X143755000Y-79073731D01*
X143500000Y-79073731D01*
X143396329Y-79093238D01*
X143300000Y-79073731D01*
X143045000Y-79073731D01*
X143045000Y-77126269D01*
X143050000Y-77126269D01*
X143168585Y-77103956D01*
X143215289Y-77073903D01*
X143580052Y-77438666D01*
X143579892Y-77622785D01*
X143674083Y-77850743D01*
X143848339Y-78025304D01*
X144076133Y-78119893D01*
X144322785Y-78120108D01*
X144550743Y-78025917D01*
X144725304Y-77851661D01*
X144819893Y-77623867D01*
X144820108Y-77377215D01*
X144725917Y-77149257D01*
X144551661Y-76974696D01*
X144323867Y-76880107D01*
X144138559Y-76879945D01*
X143529307Y-76270693D01*
X143401160Y-76185068D01*
X143349723Y-76174836D01*
X143283872Y-76072502D01*
X143176937Y-75999436D01*
X143050000Y-75973731D01*
X142150000Y-75973731D01*
X142031415Y-75996044D01*
X141922502Y-76066128D01*
X141849436Y-76173063D01*
X141823731Y-76300000D01*
X141823731Y-76800000D01*
X141831292Y-76840186D01*
X141762364Y-76868667D01*
X141776269Y-76800000D01*
X141776269Y-76300000D01*
X141753956Y-76181415D01*
X141683872Y-76072502D01*
X141576937Y-75999436D01*
X141450000Y-75973731D01*
X140550000Y-75973731D01*
X140431415Y-75996044D01*
X140322502Y-76066128D01*
X140249436Y-76173063D01*
X140223731Y-76300000D01*
X140223731Y-76800000D01*
X140246044Y-76918585D01*
X140316128Y-77027498D01*
X140423063Y-77100564D01*
X140550000Y-77126269D01*
X140610225Y-77126269D01*
X140635068Y-77251160D01*
X140720693Y-77379307D01*
X140946386Y-77605000D01*
X139963614Y-77605000D01*
X139795000Y-77436386D01*
X139795000Y-77126269D01*
X139850000Y-77126269D01*
X139968585Y-77103956D01*
X140077498Y-77033872D01*
X140150564Y-76926937D01*
X140176269Y-76800000D01*
X140176269Y-76300000D01*
X140153956Y-76181415D01*
X140083872Y-76072502D01*
X139976937Y-75999436D01*
X139850000Y-75973731D01*
X138950000Y-75973731D01*
X138831415Y-75996044D01*
X138722502Y-76066128D01*
X138649436Y-76173063D01*
X138623731Y-76300000D01*
X138623731Y-76800000D01*
X138646044Y-76918585D01*
X138716128Y-77027498D01*
X138792956Y-77079993D01*
X138677215Y-77079892D01*
X138449257Y-77174083D01*
X138274696Y-77348339D01*
X138225479Y-77466865D01*
X138195000Y-77436386D01*
X138195000Y-77126269D01*
X138250000Y-77126269D01*
X138368585Y-77103956D01*
X138477498Y-77033872D01*
X138550564Y-76926937D01*
X138576269Y-76800000D01*
X138576269Y-76300000D01*
X138553956Y-76181415D01*
X138483872Y-76072502D01*
X138376937Y-75999436D01*
X138250000Y-75973731D01*
X137350000Y-75973731D01*
X137231415Y-75996044D01*
X137122502Y-76066128D01*
X137049436Y-76173063D01*
X137023731Y-76300000D01*
X137023731Y-76800000D01*
X137046044Y-76918585D01*
X137116128Y-77027498D01*
X137223063Y-77100564D01*
X137350000Y-77126269D01*
X137405000Y-77126269D01*
X137405000Y-77600000D01*
X137435068Y-77751160D01*
X137520693Y-77879307D01*
X137896110Y-78254724D01*
X137849257Y-78274083D01*
X137674696Y-78448339D01*
X137580107Y-78676133D01*
X137579892Y-78922785D01*
X137674083Y-79150743D01*
X137848339Y-79325304D01*
X138076133Y-79419893D01*
X138322785Y-79420108D01*
X138550743Y-79325917D01*
X138725304Y-79151661D01*
X138791092Y-78993228D01*
X138800000Y-78995000D01*
X139936386Y-78995000D01*
X140005000Y-79063614D01*
X140005000Y-80400000D01*
X140035068Y-80551160D01*
X140120693Y-80679307D01*
X140370693Y-80929307D01*
X140498840Y-81014932D01*
X140573731Y-81029829D01*
X140573731Y-81300000D01*
X140596044Y-81418585D01*
X140666128Y-81527498D01*
X140773063Y-81600564D01*
X140807547Y-81607547D01*
X140825000Y-81625000D01*
X140893733Y-81625000D01*
X140900000Y-81626269D01*
X141395000Y-81626269D01*
X141395000Y-81673731D01*
X140900000Y-81673731D01*
X140893256Y-81675000D01*
X140825000Y-81675000D01*
X140809180Y-81690820D01*
X140781415Y-81696044D01*
X140672502Y-81766128D01*
X140645942Y-81805000D01*
X137726269Y-81805000D01*
X137726269Y-81750000D01*
X137703956Y-81631415D01*
X137633872Y-81522502D01*
X137526937Y-81449436D01*
X137400000Y-81423731D01*
X136900000Y-81423731D01*
X136781415Y-81446044D01*
X136672502Y-81516128D01*
X136599436Y-81623063D01*
X136573731Y-81750000D01*
X136573731Y-82650000D01*
X136596044Y-82768585D01*
X136666128Y-82877498D01*
X136755000Y-82938222D01*
X136755000Y-87550000D01*
X136785068Y-87701160D01*
X136870693Y-87829307D01*
X137105000Y-88063614D01*
X137105000Y-91100000D01*
X137135068Y-91251160D01*
X137220693Y-91379307D01*
X138953976Y-93112590D01*
X138938157Y-93112590D01*
X138900000Y-93105000D01*
X127038903Y-93105000D01*
X126388755Y-92975677D01*
X125870565Y-92629435D01*
X125524323Y-92111245D01*
X125395000Y-91461096D01*
X125395000Y-82250000D01*
X135300000Y-82250000D01*
X135300000Y-82669891D01*
X135315224Y-82706646D01*
X135343355Y-82734776D01*
X135380109Y-82750000D01*
X135600000Y-82750000D01*
X135625000Y-82725000D01*
X135625000Y-82225000D01*
X135675000Y-82225000D01*
X135675000Y-82725000D01*
X135700000Y-82750000D01*
X135919891Y-82750000D01*
X135956645Y-82734776D01*
X135984776Y-82706646D01*
X136000000Y-82669891D01*
X136000000Y-82250000D01*
X135975000Y-82225000D01*
X135675000Y-82225000D01*
X135625000Y-82225000D01*
X135325000Y-82225000D01*
X135300000Y-82250000D01*
X125395000Y-82250000D01*
X125395000Y-81730109D01*
X135300000Y-81730109D01*
X135300000Y-82150000D01*
X135325000Y-82175000D01*
X135625000Y-82175000D01*
X135625000Y-81675000D01*
X135675000Y-81675000D01*
X135675000Y-82175000D01*
X135975000Y-82175000D01*
X136000000Y-82150000D01*
X136000000Y-81730109D01*
X135984776Y-81693354D01*
X135956645Y-81665224D01*
X135919891Y-81650000D01*
X135700000Y-81650000D01*
X135675000Y-81675000D01*
X135625000Y-81675000D01*
X135600000Y-81650000D01*
X135380109Y-81650000D01*
X135343355Y-81665224D01*
X135315224Y-81693354D01*
X135300000Y-81730109D01*
X125395000Y-81730109D01*
X125395000Y-80522785D01*
X135079892Y-80522785D01*
X135174083Y-80750743D01*
X135348339Y-80925304D01*
X135576133Y-81019893D01*
X135822785Y-81020108D01*
X136050743Y-80925917D01*
X136106758Y-80870000D01*
X136341606Y-80870000D01*
X136346044Y-80893585D01*
X136416128Y-81002498D01*
X136523063Y-81075564D01*
X136650000Y-81101269D01*
X137450000Y-81101269D01*
X137568585Y-81078956D01*
X137677498Y-81008872D01*
X137750564Y-80901937D01*
X137776269Y-80775000D01*
X137776269Y-80450000D01*
X138050000Y-80450000D01*
X138050000Y-80794891D01*
X138065224Y-80831646D01*
X138093355Y-80859776D01*
X138130109Y-80875000D01*
X138500000Y-80875000D01*
X138525000Y-80850000D01*
X138525000Y-80425000D01*
X138575000Y-80425000D01*
X138575000Y-80850000D01*
X138600000Y-80875000D01*
X138969891Y-80875000D01*
X139006645Y-80859776D01*
X139034776Y-80831646D01*
X139050000Y-80794891D01*
X139050000Y-80450000D01*
X139025000Y-80425000D01*
X138575000Y-80425000D01*
X138525000Y-80425000D01*
X138075000Y-80425000D01*
X138050000Y-80450000D01*
X137776269Y-80450000D01*
X137776269Y-80025000D01*
X137772527Y-80005109D01*
X138050000Y-80005109D01*
X138050000Y-80350000D01*
X138075000Y-80375000D01*
X138525000Y-80375000D01*
X138525000Y-79950000D01*
X138575000Y-79950000D01*
X138575000Y-80375000D01*
X139025000Y-80375000D01*
X139050000Y-80350000D01*
X139050000Y-80005109D01*
X139034776Y-79968354D01*
X139006645Y-79940224D01*
X138969891Y-79925000D01*
X138600000Y-79925000D01*
X138575000Y-79950000D01*
X138525000Y-79950000D01*
X138500000Y-79925000D01*
X138130109Y-79925000D01*
X138093355Y-79940224D01*
X138065224Y-79968354D01*
X138050000Y-80005109D01*
X137772527Y-80005109D01*
X137753956Y-79906415D01*
X137683872Y-79797502D01*
X137576937Y-79724436D01*
X137450000Y-79698731D01*
X136650000Y-79698731D01*
X136531415Y-79721044D01*
X136422502Y-79791128D01*
X136349436Y-79898063D01*
X136342969Y-79930000D01*
X136106868Y-79930000D01*
X136051661Y-79874696D01*
X135823867Y-79780107D01*
X135577215Y-79779892D01*
X135349257Y-79874083D01*
X135174696Y-80048339D01*
X135080107Y-80276133D01*
X135079892Y-80522785D01*
X125395000Y-80522785D01*
X125395000Y-75422785D01*
X150679892Y-75422785D01*
X150774083Y-75650743D01*
X150919138Y-75796052D01*
X150849436Y-75898063D01*
X150823731Y-76025000D01*
X150823731Y-76775000D01*
X150846044Y-76893585D01*
X150916128Y-77002498D01*
X151023063Y-77075564D01*
X151150000Y-77101269D01*
X151950000Y-77101269D01*
X152068585Y-77078956D01*
X152177498Y-77008872D01*
X152250564Y-76901937D01*
X152276269Y-76775000D01*
X152276269Y-76025000D01*
X152253956Y-75906415D01*
X152183872Y-75797502D01*
X152076937Y-75724436D01*
X152020000Y-75712906D01*
X152020000Y-75550000D01*
X151984223Y-75370139D01*
X151920024Y-75274058D01*
X151920108Y-75177215D01*
X151825917Y-74949257D01*
X151651661Y-74774696D01*
X151423867Y-74680107D01*
X151177215Y-74679892D01*
X150949257Y-74774083D01*
X150774696Y-74948339D01*
X150680107Y-75176133D01*
X150679892Y-75422785D01*
X125395000Y-75422785D01*
X125395000Y-75100000D01*
X137250000Y-75100000D01*
X137250000Y-75319891D01*
X137265224Y-75356645D01*
X137293354Y-75384776D01*
X137330109Y-75400000D01*
X137750000Y-75400000D01*
X137775000Y-75375000D01*
X137775000Y-75075000D01*
X137825000Y-75075000D01*
X137825000Y-75375000D01*
X137850000Y-75400000D01*
X138269891Y-75400000D01*
X138306646Y-75384776D01*
X138334776Y-75356645D01*
X138350000Y-75319891D01*
X138350000Y-75100000D01*
X138850000Y-75100000D01*
X138850000Y-75319891D01*
X138865224Y-75356645D01*
X138893354Y-75384776D01*
X138930109Y-75400000D01*
X139350000Y-75400000D01*
X139375000Y-75375000D01*
X139375000Y-75075000D01*
X139425000Y-75075000D01*
X139425000Y-75375000D01*
X139450000Y-75400000D01*
X139869891Y-75400000D01*
X139906646Y-75384776D01*
X139934776Y-75356645D01*
X139950000Y-75319891D01*
X139950000Y-75100000D01*
X140450000Y-75100000D01*
X140450000Y-75319891D01*
X140465224Y-75356645D01*
X140493354Y-75384776D01*
X140530109Y-75400000D01*
X140950000Y-75400000D01*
X140975000Y-75375000D01*
X140975000Y-75075000D01*
X141025000Y-75075000D01*
X141025000Y-75375000D01*
X141050000Y-75400000D01*
X141469891Y-75400000D01*
X141506646Y-75384776D01*
X141534776Y-75356645D01*
X141550000Y-75319891D01*
X141550000Y-75100000D01*
X142050000Y-75100000D01*
X142050000Y-75319891D01*
X142065224Y-75356645D01*
X142093354Y-75384776D01*
X142130109Y-75400000D01*
X142550000Y-75400000D01*
X142575000Y-75375000D01*
X142575000Y-75075000D01*
X142625000Y-75075000D01*
X142625000Y-75375000D01*
X142650000Y-75400000D01*
X143069891Y-75400000D01*
X143106646Y-75384776D01*
X143134776Y-75356645D01*
X143150000Y-75319891D01*
X143150000Y-75100000D01*
X143125000Y-75075000D01*
X142625000Y-75075000D01*
X142575000Y-75075000D01*
X142075000Y-75075000D01*
X142050000Y-75100000D01*
X141550000Y-75100000D01*
X141525000Y-75075000D01*
X141025000Y-75075000D01*
X140975000Y-75075000D01*
X140475000Y-75075000D01*
X140450000Y-75100000D01*
X139950000Y-75100000D01*
X139925000Y-75075000D01*
X139425000Y-75075000D01*
X139375000Y-75075000D01*
X138875000Y-75075000D01*
X138850000Y-75100000D01*
X138350000Y-75100000D01*
X138325000Y-75075000D01*
X137825000Y-75075000D01*
X137775000Y-75075000D01*
X137275000Y-75075000D01*
X137250000Y-75100000D01*
X125395000Y-75100000D01*
X125395000Y-74780109D01*
X137250000Y-74780109D01*
X137250000Y-75000000D01*
X137275000Y-75025000D01*
X137775000Y-75025000D01*
X137775000Y-74725000D01*
X137825000Y-74725000D01*
X137825000Y-75025000D01*
X138325000Y-75025000D01*
X138350000Y-75000000D01*
X138350000Y-74780109D01*
X138850000Y-74780109D01*
X138850000Y-75000000D01*
X138875000Y-75025000D01*
X139375000Y-75025000D01*
X139375000Y-74725000D01*
X139425000Y-74725000D01*
X139425000Y-75025000D01*
X139925000Y-75025000D01*
X139950000Y-75000000D01*
X139950000Y-74780109D01*
X140450000Y-74780109D01*
X140450000Y-75000000D01*
X140475000Y-75025000D01*
X140975000Y-75025000D01*
X140975000Y-74725000D01*
X141025000Y-74725000D01*
X141025000Y-75025000D01*
X141525000Y-75025000D01*
X141550000Y-75000000D01*
X141550000Y-74780109D01*
X142050000Y-74780109D01*
X142050000Y-75000000D01*
X142075000Y-75025000D01*
X142575000Y-75025000D01*
X142575000Y-74725000D01*
X142625000Y-74725000D01*
X142625000Y-75025000D01*
X143125000Y-75025000D01*
X143150000Y-75000000D01*
X143150000Y-74780109D01*
X143134776Y-74743355D01*
X143106646Y-74715224D01*
X143069891Y-74700000D01*
X142650000Y-74700000D01*
X142625000Y-74725000D01*
X142575000Y-74725000D01*
X142550000Y-74700000D01*
X142130109Y-74700000D01*
X142093354Y-74715224D01*
X142065224Y-74743355D01*
X142050000Y-74780109D01*
X141550000Y-74780109D01*
X141534776Y-74743355D01*
X141506646Y-74715224D01*
X141469891Y-74700000D01*
X141050000Y-74700000D01*
X141025000Y-74725000D01*
X140975000Y-74725000D01*
X140950000Y-74700000D01*
X140530109Y-74700000D01*
X140493354Y-74715224D01*
X140465224Y-74743355D01*
X140450000Y-74780109D01*
X139950000Y-74780109D01*
X139934776Y-74743355D01*
X139906646Y-74715224D01*
X139869891Y-74700000D01*
X139450000Y-74700000D01*
X139425000Y-74725000D01*
X139375000Y-74725000D01*
X139350000Y-74700000D01*
X138930109Y-74700000D01*
X138893354Y-74715224D01*
X138865224Y-74743355D01*
X138850000Y-74780109D01*
X138350000Y-74780109D01*
X138334776Y-74743355D01*
X138306646Y-74715224D01*
X138269891Y-74700000D01*
X137850000Y-74700000D01*
X137825000Y-74725000D01*
X137775000Y-74725000D01*
X137750000Y-74700000D01*
X137330109Y-74700000D01*
X137293354Y-74715224D01*
X137265224Y-74743355D01*
X137250000Y-74780109D01*
X125395000Y-74780109D01*
X125395000Y-72038904D01*
X125505377Y-71484000D01*
X151070131Y-71484000D01*
X151070131Y-73516000D01*
X151092444Y-73634585D01*
X151162528Y-73743498D01*
X151269463Y-73816564D01*
X151396400Y-73842269D01*
X153123600Y-73842269D01*
X153242185Y-73819956D01*
X153351098Y-73749872D01*
X153424164Y-73642937D01*
X153449869Y-73516000D01*
X153449869Y-71484000D01*
X153427556Y-71365415D01*
X153357472Y-71256502D01*
X153250537Y-71183436D01*
X153123600Y-71157731D01*
X151396400Y-71157731D01*
X151277815Y-71180044D01*
X151168902Y-71250128D01*
X151095836Y-71357063D01*
X151070131Y-71484000D01*
X125505377Y-71484000D01*
X125524323Y-71388755D01*
X125870565Y-70870565D01*
X126388755Y-70524323D01*
X127038903Y-70395000D01*
X169561098Y-70395000D01*
X169597716Y-70402284D01*
G36*
X142705000Y-85363614D02*
X142705000Y-85373731D01*
X142650000Y-85373731D01*
X142531415Y-85396044D01*
X142422502Y-85466128D01*
X142349436Y-85573063D01*
X142323731Y-85700000D01*
X142323731Y-86200000D01*
X142346044Y-86318585D01*
X142416128Y-86427498D01*
X142523063Y-86500564D01*
X142650000Y-86526269D01*
X143550000Y-86526269D01*
X143668585Y-86503956D01*
X143777498Y-86433872D01*
X143838222Y-86345000D01*
X143886386Y-86345000D01*
X144105000Y-86563614D01*
X144105000Y-90836386D01*
X142220073Y-92721313D01*
X142134448Y-92849460D01*
X142104380Y-93000620D01*
X142104380Y-97386910D01*
X142055675Y-97396074D01*
X142000353Y-97431673D01*
X141953217Y-97399466D01*
X141896160Y-97387912D01*
X141896160Y-89701160D01*
X141866092Y-89550000D01*
X141780467Y-89421853D01*
X141095000Y-88736386D01*
X141095000Y-87800000D01*
X141450000Y-87800000D01*
X141475000Y-87775000D01*
X141475000Y-87475000D01*
X141525000Y-87475000D01*
X141525000Y-87775000D01*
X141550000Y-87800000D01*
X141969891Y-87800000D01*
X142006646Y-87784776D01*
X142034776Y-87756645D01*
X142050000Y-87719891D01*
X142050000Y-87500000D01*
X142550000Y-87500000D01*
X142550000Y-87719891D01*
X142565224Y-87756645D01*
X142593354Y-87784776D01*
X142630109Y-87800000D01*
X143050000Y-87800000D01*
X143075000Y-87775000D01*
X143075000Y-87475000D01*
X143125000Y-87475000D01*
X143125000Y-87775000D01*
X143150000Y-87800000D01*
X143569891Y-87800000D01*
X143606646Y-87784776D01*
X143634776Y-87756645D01*
X143650000Y-87719891D01*
X143650000Y-87500000D01*
X143625000Y-87475000D01*
X143125000Y-87475000D01*
X143075000Y-87475000D01*
X142575000Y-87475000D01*
X142550000Y-87500000D01*
X142050000Y-87500000D01*
X142025000Y-87475000D01*
X141525000Y-87475000D01*
X141475000Y-87475000D01*
X141455000Y-87475000D01*
X141455000Y-87425000D01*
X141475000Y-87425000D01*
X141475000Y-87125000D01*
X141525000Y-87125000D01*
X141525000Y-87425000D01*
X142025000Y-87425000D01*
X142050000Y-87400000D01*
X142050000Y-87180109D01*
X142550000Y-87180109D01*
X142550000Y-87400000D01*
X142575000Y-87425000D01*
X143075000Y-87425000D01*
X143075000Y-87125000D01*
X143125000Y-87125000D01*
X143125000Y-87425000D01*
X143625000Y-87425000D01*
X143650000Y-87400000D01*
X143650000Y-87180109D01*
X143634776Y-87143355D01*
X143606646Y-87115224D01*
X143569891Y-87100000D01*
X143150000Y-87100000D01*
X143125000Y-87125000D01*
X143075000Y-87125000D01*
X143050000Y-87100000D01*
X142630109Y-87100000D01*
X142593354Y-87115224D01*
X142565224Y-87143355D01*
X142550000Y-87180109D01*
X142050000Y-87180109D01*
X142034776Y-87143355D01*
X142006646Y-87115224D01*
X141969891Y-87100000D01*
X141550000Y-87100000D01*
X141525000Y-87125000D01*
X141475000Y-87125000D01*
X141450000Y-87100000D01*
X141095000Y-87100000D01*
X141095000Y-86526269D01*
X141950000Y-86526269D01*
X142068585Y-86503956D01*
X142177498Y-86433872D01*
X142250564Y-86326937D01*
X142276269Y-86200000D01*
X142276269Y-85700000D01*
X142253956Y-85581415D01*
X142184749Y-85473865D01*
X142429307Y-85229307D01*
X142485938Y-85144552D01*
X142705000Y-85363614D01*
X142705000Y-85363614D01*
G37*
X142705000Y-85363614D02*
X142705000Y-85373731D01*
X142650000Y-85373731D01*
X142531415Y-85396044D01*
X142422502Y-85466128D01*
X142349436Y-85573063D01*
X142323731Y-85700000D01*
X142323731Y-86200000D01*
X142346044Y-86318585D01*
X142416128Y-86427498D01*
X142523063Y-86500564D01*
X142650000Y-86526269D01*
X143550000Y-86526269D01*
X143668585Y-86503956D01*
X143777498Y-86433872D01*
X143838222Y-86345000D01*
X143886386Y-86345000D01*
X144105000Y-86563614D01*
X144105000Y-90836386D01*
X142220073Y-92721313D01*
X142134448Y-92849460D01*
X142104380Y-93000620D01*
X142104380Y-97386910D01*
X142055675Y-97396074D01*
X142000353Y-97431673D01*
X141953217Y-97399466D01*
X141896160Y-97387912D01*
X141896160Y-89701160D01*
X141866092Y-89550000D01*
X141780467Y-89421853D01*
X141095000Y-88736386D01*
X141095000Y-87800000D01*
X141450000Y-87800000D01*
X141475000Y-87775000D01*
X141475000Y-87475000D01*
X141525000Y-87475000D01*
X141525000Y-87775000D01*
X141550000Y-87800000D01*
X141969891Y-87800000D01*
X142006646Y-87784776D01*
X142034776Y-87756645D01*
X142050000Y-87719891D01*
X142050000Y-87500000D01*
X142550000Y-87500000D01*
X142550000Y-87719891D01*
X142565224Y-87756645D01*
X142593354Y-87784776D01*
X142630109Y-87800000D01*
X143050000Y-87800000D01*
X143075000Y-87775000D01*
X143075000Y-87475000D01*
X143125000Y-87475000D01*
X143125000Y-87775000D01*
X143150000Y-87800000D01*
X143569891Y-87800000D01*
X143606646Y-87784776D01*
X143634776Y-87756645D01*
X143650000Y-87719891D01*
X143650000Y-87500000D01*
X143625000Y-87475000D01*
X143125000Y-87475000D01*
X143075000Y-87475000D01*
X142575000Y-87475000D01*
X142550000Y-87500000D01*
X142050000Y-87500000D01*
X142025000Y-87475000D01*
X141525000Y-87475000D01*
X141475000Y-87475000D01*
X141455000Y-87475000D01*
X141455000Y-87425000D01*
X141475000Y-87425000D01*
X141475000Y-87125000D01*
X141525000Y-87125000D01*
X141525000Y-87425000D01*
X142025000Y-87425000D01*
X142050000Y-87400000D01*
X142050000Y-87180109D01*
X142550000Y-87180109D01*
X142550000Y-87400000D01*
X142575000Y-87425000D01*
X143075000Y-87425000D01*
X143075000Y-87125000D01*
X143125000Y-87125000D01*
X143125000Y-87425000D01*
X143625000Y-87425000D01*
X143650000Y-87400000D01*
X143650000Y-87180109D01*
X143634776Y-87143355D01*
X143606646Y-87115224D01*
X143569891Y-87100000D01*
X143150000Y-87100000D01*
X143125000Y-87125000D01*
X143075000Y-87125000D01*
X143050000Y-87100000D01*
X142630109Y-87100000D01*
X142593354Y-87115224D01*
X142565224Y-87143355D01*
X142550000Y-87180109D01*
X142050000Y-87180109D01*
X142034776Y-87143355D01*
X142006646Y-87115224D01*
X141969891Y-87100000D01*
X141550000Y-87100000D01*
X141525000Y-87125000D01*
X141475000Y-87125000D01*
X141450000Y-87100000D01*
X141095000Y-87100000D01*
X141095000Y-86526269D01*
X141950000Y-86526269D01*
X142068585Y-86503956D01*
X142177498Y-86433872D01*
X142250564Y-86326937D01*
X142276269Y-86200000D01*
X142276269Y-85700000D01*
X142253956Y-85581415D01*
X142184749Y-85473865D01*
X142429307Y-85229307D01*
X142485938Y-85144552D01*
X142705000Y-85363614D01*
G36*
X139216128Y-86427498D02*
X139323063Y-86500564D01*
X139450000Y-86526269D01*
X140305000Y-86526269D01*
X140305000Y-87100000D01*
X139950000Y-87100000D01*
X139925000Y-87125000D01*
X139925000Y-87425000D01*
X139945000Y-87425000D01*
X139945000Y-87475000D01*
X139925000Y-87475000D01*
X139925000Y-87775000D01*
X139950000Y-87800000D01*
X140305000Y-87800000D01*
X140305000Y-88900000D01*
X140335068Y-89051160D01*
X140420693Y-89179307D01*
X141106160Y-89864774D01*
X141106160Y-93060881D01*
X141079307Y-93020693D01*
X138895000Y-90836386D01*
X138895000Y-87500000D01*
X139350000Y-87500000D01*
X139350000Y-87719891D01*
X139365224Y-87756645D01*
X139393354Y-87784776D01*
X139430109Y-87800000D01*
X139850000Y-87800000D01*
X139875000Y-87775000D01*
X139875000Y-87475000D01*
X139375000Y-87475000D01*
X139350000Y-87500000D01*
X138895000Y-87500000D01*
X138895000Y-87180109D01*
X139350000Y-87180109D01*
X139350000Y-87400000D01*
X139375000Y-87425000D01*
X139875000Y-87425000D01*
X139875000Y-87125000D01*
X139850000Y-87100000D01*
X139430109Y-87100000D01*
X139393354Y-87115224D01*
X139365224Y-87143355D01*
X139350000Y-87180109D01*
X138895000Y-87180109D01*
X138895000Y-86663614D01*
X139182843Y-86375772D01*
X139216128Y-86427498D01*
X139216128Y-86427498D01*
G37*
X139216128Y-86427498D02*
X139323063Y-86500564D01*
X139450000Y-86526269D01*
X140305000Y-86526269D01*
X140305000Y-87100000D01*
X139950000Y-87100000D01*
X139925000Y-87125000D01*
X139925000Y-87425000D01*
X139945000Y-87425000D01*
X139945000Y-87475000D01*
X139925000Y-87475000D01*
X139925000Y-87775000D01*
X139950000Y-87800000D01*
X140305000Y-87800000D01*
X140305000Y-88900000D01*
X140335068Y-89051160D01*
X140420693Y-89179307D01*
X141106160Y-89864774D01*
X141106160Y-93060881D01*
X141079307Y-93020693D01*
X138895000Y-90836386D01*
X138895000Y-87500000D01*
X139350000Y-87500000D01*
X139350000Y-87719891D01*
X139365224Y-87756645D01*
X139393354Y-87784776D01*
X139430109Y-87800000D01*
X139850000Y-87800000D01*
X139875000Y-87775000D01*
X139875000Y-87475000D01*
X139375000Y-87475000D01*
X139350000Y-87500000D01*
X138895000Y-87500000D01*
X138895000Y-87180109D01*
X139350000Y-87180109D01*
X139350000Y-87400000D01*
X139375000Y-87425000D01*
X139875000Y-87425000D01*
X139875000Y-87125000D01*
X139850000Y-87100000D01*
X139430109Y-87100000D01*
X139393354Y-87115224D01*
X139365224Y-87143355D01*
X139350000Y-87180109D01*
X138895000Y-87180109D01*
X138895000Y-86663614D01*
X139182843Y-86375772D01*
X139216128Y-86427498D01*
M02*
