G04 #@! TF.FileFunction,Copper,L1,Top,Signal*
%FSLAX46Y46*%
G04 Gerber Fmt 4.6, Leading zero omitted, Abs format (unit mm)*
G04 Created by KiCad (PCBNEW 4.0.6-e0-6349~53~ubuntu14.04.1) date Wed Mar 29 11:21:43 2017*
%MOMM*%
%LPD*%
G01*
G04 APERTURE LIST*
%ADD10C,0.100000*%
%ADD11R,0.650240X3.599180*%
%ADD12R,0.650240X4.599940*%
%ADD13O,0.650240X0.650240*%
%ADD14R,2.032000X1.727200*%
%ADD15O,2.032000X1.727200*%
%ADD16R,1.727200X1.727200*%
%ADD17O,1.727200X1.727200*%
%ADD18C,1.524000*%
%ADD19C,0.600000*%
%ADD20C,0.500000*%
%ADD21C,0.200000*%
%ADD22C,0.150000*%
G04 APERTURE END LIST*
D10*
D11*
X159499600Y-99499620D03*
D12*
X158498840Y-100000000D03*
X157500620Y-100000000D03*
X156499860Y-100000000D03*
X155499100Y-100000000D03*
X154500880Y-100000000D03*
X153500120Y-100000000D03*
X152499360Y-100000000D03*
X151501140Y-100000000D03*
X150500380Y-100000000D03*
X149499620Y-100000000D03*
X144500900Y-100000000D03*
X143500140Y-100000000D03*
X142499380Y-100000000D03*
X141501160Y-100000000D03*
X140500400Y-100000000D03*
X146499880Y-100000000D03*
X145499120Y-100000000D03*
D13*
X156499860Y-102301240D03*
X155499100Y-102301240D03*
X154500880Y-102301240D03*
X153500120Y-102301240D03*
X152499360Y-102301240D03*
X151501140Y-102301240D03*
X150500380Y-102301240D03*
X144500900Y-102301240D03*
X143500140Y-102301240D03*
X157500620Y-102301240D03*
X145499120Y-102301240D03*
X142499380Y-102301240D03*
X149499620Y-102301240D03*
X146499880Y-102301240D03*
X141501160Y-102301240D03*
X140500400Y-102301240D03*
X158498840Y-102301240D03*
D14*
X131200000Y-83360000D03*
D15*
X131200000Y-85900000D03*
X131200000Y-88440000D03*
D16*
X165270000Y-85810000D03*
D17*
X162730000Y-85810000D03*
X165270000Y-83270000D03*
X162730000Y-83270000D03*
X165270000Y-80730000D03*
X162730000Y-80730000D03*
X165270000Y-78190000D03*
X162730000Y-78190000D03*
D18*
X150000000Y-84730000D03*
X150000000Y-87270000D03*
X138000000Y-84630000D03*
X138000000Y-87170000D03*
X138000000Y-77270000D03*
X138000000Y-74730000D03*
X150000000Y-77270000D03*
X150000000Y-74730000D03*
X143000000Y-84630000D03*
X143000000Y-87170000D03*
X143000000Y-77270000D03*
X143000000Y-74730000D03*
X155000000Y-77270000D03*
X155000000Y-74730000D03*
X155000000Y-84730000D03*
X155000000Y-87270000D03*
X165270000Y-74000000D03*
X162730000Y-74000000D03*
X162730000Y-90000000D03*
X165270000Y-90000000D03*
D19*
X147150000Y-91000000D03*
X143750000Y-92550000D03*
X142500000Y-93400000D03*
X148500000Y-91950000D03*
X158050000Y-83800000D03*
X158850000Y-89300000D03*
X158100000Y-77200000D03*
X158100000Y-80850000D03*
X158100000Y-73100000D03*
D20*
X162730000Y-74000000D02*
X165270000Y-74000000D01*
X131200000Y-88440000D02*
X129190000Y-88440000D01*
X162730000Y-72030000D02*
X162730000Y-74000000D01*
X161800000Y-71100000D02*
X162730000Y-72030000D01*
X129750000Y-71100000D02*
X161800000Y-71100000D01*
X128150000Y-72700000D02*
X129750000Y-71100000D01*
X128150000Y-87400000D02*
X128150000Y-72700000D01*
X129190000Y-88440000D02*
X128150000Y-87400000D01*
D21*
X143500140Y-100000000D02*
X143500140Y-92799860D01*
X150000000Y-90100000D02*
X150000000Y-87270000D01*
X149100000Y-91000000D02*
X150000000Y-90100000D01*
X147150000Y-91000000D02*
X149100000Y-91000000D01*
X143500140Y-92799860D02*
X143750000Y-92550000D01*
D22*
X143500140Y-102301240D02*
X143500140Y-100000000D01*
D21*
X144500900Y-100000000D02*
X144500900Y-92300900D01*
X138000000Y-89450000D02*
X138000000Y-87170000D01*
X139000000Y-90450000D02*
X138000000Y-89450000D01*
X142650000Y-90450000D02*
X139000000Y-90450000D01*
X144500900Y-92300900D02*
X142650000Y-90450000D01*
D22*
X144500900Y-100000000D02*
X144500900Y-102301240D01*
D21*
X145499120Y-100000000D02*
X145499120Y-92804142D01*
X139580000Y-74730000D02*
X138000000Y-74730000D01*
X140450000Y-75600000D02*
X139580000Y-74730000D01*
X140450000Y-89500000D02*
X140450000Y-75600000D01*
X141049998Y-90099998D02*
X140450000Y-89500000D01*
X142794976Y-90099998D02*
X141049998Y-90099998D01*
X145499120Y-92804142D02*
X142794976Y-90099998D01*
D22*
X145499120Y-100000000D02*
X145499120Y-102301240D01*
D21*
X146499880Y-100000000D02*
X146499880Y-76250120D01*
X148020000Y-74730000D02*
X150000000Y-74730000D01*
X146499880Y-76250120D02*
X148020000Y-74730000D01*
D22*
X146499880Y-100000000D02*
X146499880Y-102301240D01*
D20*
X152499360Y-100000000D02*
X153500120Y-100000000D01*
X153500120Y-100000000D02*
X154500880Y-100000000D01*
X154500880Y-100000000D02*
X155499100Y-100000000D01*
X155499100Y-100000000D02*
X156499860Y-100000000D01*
X156499860Y-100000000D02*
X157500620Y-100000000D01*
X157500620Y-100000000D02*
X158498840Y-100000000D01*
X158498840Y-100000000D02*
X158999220Y-99499620D01*
X158999220Y-99499620D02*
X159499600Y-99499620D01*
D22*
X158498840Y-100000000D02*
X158498840Y-102301240D01*
X157500620Y-100000000D02*
X157500620Y-102301240D01*
X156499860Y-100000000D02*
X156499860Y-102301240D01*
X155499100Y-100000000D02*
X155499100Y-102301240D01*
X154500880Y-100000000D02*
X154500880Y-102301240D01*
X153500120Y-100000000D02*
X153500120Y-102301240D01*
X152499360Y-100000000D02*
X152499360Y-102301240D01*
D20*
X151501140Y-94250000D02*
X151501140Y-92751140D01*
X132460000Y-83360000D02*
X131200000Y-83360000D01*
X133200000Y-84100000D02*
X132460000Y-83360000D01*
X133200000Y-90200000D02*
X133200000Y-84100000D01*
X134150000Y-91150000D02*
X133200000Y-90200000D01*
X141300000Y-91150000D02*
X134150000Y-91150000D01*
X142000000Y-91850000D02*
X141300000Y-91150000D01*
X142000000Y-92900000D02*
X142000000Y-91850000D01*
X142500000Y-93400000D02*
X142000000Y-92900000D01*
X150700000Y-91950000D02*
X148500000Y-91950000D01*
X151501140Y-92751140D02*
X150700000Y-91950000D01*
X151501140Y-100000000D02*
X151501140Y-94250000D01*
X151501140Y-94250000D02*
X151501140Y-93698860D01*
X161430000Y-91300000D02*
X162730000Y-90000000D01*
X153900000Y-91300000D02*
X161430000Y-91300000D01*
X151501140Y-93698860D02*
X153900000Y-91300000D01*
X162730000Y-90000000D02*
X165270000Y-90000000D01*
D22*
X151501140Y-100000000D02*
X150500380Y-100000000D01*
X150500380Y-100000000D02*
X149499620Y-100000000D01*
X151501140Y-100000000D02*
X151501140Y-102301240D01*
X150500380Y-100000000D02*
X150500380Y-102301240D01*
X149499620Y-100000000D02*
X149499620Y-102301240D01*
X142499380Y-102301240D02*
X142499380Y-100000000D01*
X141501160Y-102301240D02*
X141501160Y-100000000D01*
X140500400Y-100000000D02*
X140500400Y-102301240D01*
X158050000Y-83800000D02*
X158100000Y-83800000D01*
X158100000Y-83800000D02*
X158050000Y-83800000D01*
X158050000Y-83800000D02*
X158100000Y-83800000D01*
D20*
X158100000Y-80850000D02*
X158100000Y-83800000D01*
X158100000Y-83800000D02*
X158100000Y-89050000D01*
X158350000Y-89300000D02*
X158850000Y-89300000D01*
X158100000Y-89050000D02*
X158350000Y-89300000D01*
X158100000Y-80850000D02*
X158100000Y-77200000D01*
X158100000Y-77200000D02*
X158100000Y-73100000D01*
M02*
