G04 #@! TF.FileFunction,Copper,L2,Bot,Signal*
%FSLAX46Y46*%
G04 Gerber Fmt 4.6, Leading zero omitted, Abs format (unit mm)*
G04 Created by KiCad (PCBNEW 4.0.6-e0-6349~53~ubuntu14.04.1) date Wed Mar 29 11:21:43 2017*
%MOMM*%
%LPD*%
G01*
G04 APERTURE LIST*
%ADD10C,0.100000*%
%ADD11C,0.650240*%
%ADD12R,0.650240X4.599940*%
%ADD13R,0.650240X3.599180*%
%ADD14R,2.032000X1.727200*%
%ADD15O,2.032000X1.727200*%
%ADD16R,1.727200X1.727200*%
%ADD17O,1.727200X1.727200*%
%ADD18R,0.864000X0.787000*%
%ADD19C,1.524000*%
%ADD20C,1.000000*%
%ADD21C,0.600000*%
%ADD22C,0.500000*%
%ADD23C,0.150000*%
%ADD24C,0.200000*%
G04 APERTURE END LIST*
D10*
D11*
X140500400Y-102301240D03*
D12*
X159499600Y-100000000D03*
X158498840Y-100000000D03*
X157500620Y-100000000D03*
X156499860Y-100000000D03*
X155499100Y-100000000D03*
X154500880Y-100000000D03*
X153500120Y-100000000D03*
X152499360Y-100000000D03*
X151501140Y-100000000D03*
X150500380Y-100000000D03*
X149499620Y-100000000D03*
X144500900Y-100000000D03*
X143500140Y-100000000D03*
X142499380Y-100000000D03*
D13*
X141501160Y-99499620D03*
D12*
X140500400Y-100000000D03*
X146499880Y-100000000D03*
X145499120Y-100000000D03*
D11*
X157500620Y-102301240D03*
X156499860Y-102301240D03*
X155499100Y-102301240D03*
X154500880Y-102301240D03*
X153500120Y-102301240D03*
X152499360Y-102301240D03*
X151501140Y-102301240D03*
X150500380Y-102301240D03*
X149499620Y-102301240D03*
X159499600Y-102301240D03*
X146499880Y-102301240D03*
X145499120Y-102301240D03*
X144500900Y-102301240D03*
X143500140Y-102301240D03*
X142499380Y-102301240D03*
X158498840Y-102301240D03*
D14*
X131200000Y-83360000D03*
D15*
X131200000Y-85900000D03*
X131200000Y-88440000D03*
D16*
X165270000Y-85810000D03*
D17*
X162730000Y-85810000D03*
X165270000Y-83270000D03*
X162730000Y-83270000D03*
X165270000Y-80730000D03*
X162730000Y-80730000D03*
X165270000Y-78190000D03*
X162730000Y-78190000D03*
D18*
X147200000Y-86525500D03*
X147200000Y-88074500D03*
X135000000Y-86525500D03*
X135000000Y-88074500D03*
X135000000Y-75474500D03*
X135000000Y-73925500D03*
X147000000Y-75374500D03*
X147000000Y-73825500D03*
X158100000Y-86225500D03*
X158100000Y-87774500D03*
X146000000Y-83725500D03*
X146000000Y-85274500D03*
X146000000Y-78274500D03*
X146000000Y-76725500D03*
X158100000Y-75774500D03*
X158100000Y-74225500D03*
X160000000Y-87774500D03*
X160000000Y-86225500D03*
X160000000Y-83774500D03*
X160000000Y-82225500D03*
X160000000Y-78225500D03*
X160000000Y-79774500D03*
X160000000Y-74225500D03*
X160000000Y-75774500D03*
D19*
X150000000Y-84730000D03*
X150000000Y-87270000D03*
X138000000Y-84630000D03*
X138000000Y-87170000D03*
X138000000Y-77270000D03*
X138000000Y-74730000D03*
X150000000Y-77270000D03*
X150000000Y-74730000D03*
X143000000Y-84630000D03*
X143000000Y-87170000D03*
X143000000Y-77270000D03*
X143000000Y-74730000D03*
X155000000Y-77270000D03*
X155000000Y-74730000D03*
X155000000Y-84730000D03*
X155000000Y-87270000D03*
X165270000Y-74000000D03*
X162730000Y-74000000D03*
X162730000Y-90000000D03*
X165270000Y-90000000D03*
D20*
X127400000Y-91300000D03*
X158850000Y-91600000D03*
X127400000Y-72350000D03*
D21*
X147150000Y-91000000D03*
X143750000Y-92550000D03*
X142500000Y-93400000D03*
X148500000Y-91950000D03*
X158050000Y-83800000D03*
X158850000Y-89300000D03*
X158100000Y-77200000D03*
X158100000Y-80850000D03*
X158100000Y-73100000D03*
D22*
X151501140Y-100000000D02*
X150500380Y-100000000D01*
X150500380Y-100000000D02*
X149499620Y-100000000D01*
X150500380Y-100000000D02*
X150500380Y-91350380D01*
X150500380Y-91350380D02*
X149250000Y-90100000D01*
X149250000Y-90100000D02*
X132860000Y-90100000D01*
X132860000Y-90100000D02*
X131200000Y-88440000D01*
D23*
X151501140Y-102301240D02*
X151501140Y-100000000D01*
X150500380Y-102301240D02*
X150500380Y-100000000D01*
X149499620Y-102301240D02*
X149499620Y-100000000D01*
X159499600Y-102301240D02*
X159499600Y-100000000D01*
X158498840Y-102301240D02*
X158498840Y-100000000D01*
X157500620Y-102301240D02*
X157500620Y-100000000D01*
X156499860Y-102301240D02*
X156499860Y-100000000D01*
X155499100Y-102301240D02*
X155499100Y-100000000D01*
X154500880Y-102301240D02*
X154500880Y-100000000D01*
X153500120Y-102301240D02*
X153500120Y-100000000D01*
X152499360Y-102301240D02*
X152499360Y-100000000D01*
D24*
X145300000Y-91000000D02*
X147150000Y-91000000D01*
X143750000Y-92550000D02*
X145300000Y-91000000D01*
X155000000Y-87270000D02*
X150000000Y-87270000D01*
X158100000Y-87774500D02*
X155504500Y-87774500D01*
X155504500Y-87774500D02*
X155000000Y-87270000D01*
X138000000Y-87170000D02*
X143000000Y-87170000D01*
X146000000Y-85274500D02*
X144895500Y-85274500D01*
X144895500Y-85274500D02*
X143000000Y-87170000D01*
X143000000Y-74730000D02*
X138000000Y-74730000D01*
X146000000Y-76725500D02*
X144995500Y-76725500D01*
X144995500Y-76725500D02*
X143000000Y-74730000D01*
X155000000Y-74730000D02*
X150000000Y-74730000D01*
X158100000Y-74225500D02*
X155504500Y-74225500D01*
X155504500Y-74225500D02*
X155000000Y-74730000D01*
D23*
X140500400Y-102301240D02*
X140500400Y-100000000D01*
X144500900Y-102301240D02*
X144500900Y-100000000D01*
X143500140Y-102301240D02*
X143500140Y-100000000D01*
X142499380Y-102301240D02*
X142499380Y-100000000D01*
X146499880Y-102301240D02*
X146499880Y-100000000D01*
X145499120Y-102301240D02*
X145499120Y-100000000D01*
D22*
X142950000Y-93850000D02*
X142500000Y-93400000D01*
X144400000Y-93850000D02*
X142950000Y-93850000D01*
X146300000Y-91950000D02*
X144400000Y-93850000D01*
X148500000Y-91950000D02*
X146300000Y-91950000D01*
D23*
X160000000Y-83774500D02*
X158075500Y-83774500D01*
X158075500Y-83774500D02*
X158050000Y-83800000D01*
X160000000Y-87774500D02*
X160000000Y-88150000D01*
X160000000Y-88150000D02*
X158850000Y-89300000D01*
X160000000Y-78225500D02*
X160000000Y-77650000D01*
X159550000Y-77200000D02*
X158100000Y-77200000D01*
X160000000Y-77650000D02*
X159550000Y-77200000D01*
X160000000Y-74225500D02*
X160000000Y-73350000D01*
D22*
X132350000Y-85900000D02*
X133550000Y-84700000D01*
X133550000Y-84700000D02*
X133550000Y-82100000D01*
X133550000Y-82100000D02*
X134800000Y-80850000D01*
X134800000Y-80850000D02*
X158100000Y-80850000D01*
X132350000Y-85900000D02*
X131200000Y-85900000D01*
D23*
X159750000Y-73100000D02*
X158100000Y-73100000D01*
X160000000Y-73350000D02*
X159750000Y-73100000D01*
D24*
X158100000Y-86225500D02*
X156495500Y-86225500D01*
X156495500Y-86225500D02*
X155000000Y-84730000D01*
X160000000Y-86225500D02*
X158100000Y-86225500D01*
X162730000Y-85810000D02*
X160415500Y-85810000D01*
X160415500Y-85810000D02*
X160000000Y-86225500D01*
X160000000Y-82225500D02*
X159475500Y-82750000D01*
X146000000Y-83100000D02*
X146000000Y-83725500D01*
X146350000Y-82750000D02*
X146000000Y-83100000D01*
X159475500Y-82750000D02*
X146350000Y-82750000D01*
X146000000Y-83725500D02*
X143904500Y-83725500D01*
X143904500Y-83725500D02*
X143000000Y-84630000D01*
X160000000Y-82225500D02*
X161685500Y-82225500D01*
X161685500Y-82225500D02*
X162730000Y-83270000D01*
X146000000Y-78274500D02*
X146000000Y-79000000D01*
X159024500Y-79774500D02*
X160000000Y-79774500D01*
X158550000Y-79300000D02*
X159024500Y-79774500D01*
X146300000Y-79300000D02*
X158550000Y-79300000D01*
X146000000Y-79000000D02*
X146300000Y-79300000D01*
X160000000Y-79774500D02*
X159574500Y-79774500D01*
X146000000Y-78274500D02*
X144004500Y-78274500D01*
X144004500Y-78274500D02*
X143000000Y-77270000D01*
X160000000Y-79774500D02*
X161774500Y-79774500D01*
X161774500Y-79774500D02*
X162730000Y-80730000D01*
X158100000Y-75774500D02*
X156495500Y-75774500D01*
X156495500Y-75774500D02*
X155000000Y-77270000D01*
X160000000Y-75774500D02*
X158100000Y-75774500D01*
X162730000Y-78190000D02*
X162415500Y-78190000D01*
X162415500Y-78190000D02*
X160000000Y-75774500D01*
X147200000Y-86525500D02*
X148204500Y-86525500D01*
X148204500Y-86525500D02*
X150000000Y-84730000D01*
X135000000Y-86525500D02*
X136104500Y-86525500D01*
X136104500Y-86525500D02*
X138000000Y-84630000D01*
X135000000Y-75474500D02*
X136204500Y-75474500D01*
X136204500Y-75474500D02*
X138000000Y-77270000D01*
X147000000Y-75374500D02*
X148104500Y-75374500D01*
X148104500Y-75374500D02*
X150000000Y-77270000D01*
M02*
