G04 #@! TF.FileFunction,Legend,Top*
%FSLAX46Y46*%
G04 Gerber Fmt 4.6, Leading zero omitted, Abs format (unit mm)*
G04 Created by KiCad (PCBNEW 4.0.6-e0-6349~53~ubuntu14.04.1) date Wed Mar 29 11:21:43 2017*
%MOMM*%
%LPD*%
G01*
G04 APERTURE LIST*
%ADD10C,0.100000*%
%ADD11C,0.200000*%
%ADD12C,0.010000*%
G04 APERTURE END LIST*
D10*
D11*
X126338095Y-79135714D02*
X126338095Y-80135714D01*
X126338095Y-79183333D02*
X126433333Y-79135714D01*
X126623810Y-79135714D01*
X126719048Y-79183333D01*
X126766667Y-79230952D01*
X126814286Y-79326190D01*
X126814286Y-79611905D01*
X126766667Y-79707143D01*
X126719048Y-79754762D01*
X126623810Y-79802381D01*
X126433333Y-79802381D01*
X126338095Y-79754762D01*
X127385714Y-79802381D02*
X127290476Y-79754762D01*
X127242857Y-79659524D01*
X127242857Y-78802381D01*
X128195239Y-79135714D02*
X128195239Y-79802381D01*
X127766667Y-79135714D02*
X127766667Y-79659524D01*
X127814286Y-79754762D01*
X127909524Y-79802381D01*
X128052382Y-79802381D01*
X128147620Y-79754762D01*
X128195239Y-79707143D01*
X129100001Y-79135714D02*
X129100001Y-79945238D01*
X129052382Y-80040476D01*
X129004763Y-80088095D01*
X128909524Y-80135714D01*
X128766667Y-80135714D01*
X128671429Y-80088095D01*
X129100001Y-79754762D02*
X129004763Y-79802381D01*
X128814286Y-79802381D01*
X128719048Y-79754762D01*
X128671429Y-79707143D01*
X128623810Y-79611905D01*
X128623810Y-79326190D01*
X128671429Y-79230952D01*
X128719048Y-79183333D01*
X128814286Y-79135714D01*
X129004763Y-79135714D01*
X129100001Y-79183333D01*
X130004763Y-79135714D02*
X130004763Y-79945238D01*
X129957144Y-80040476D01*
X129909525Y-80088095D01*
X129814286Y-80135714D01*
X129671429Y-80135714D01*
X129576191Y-80088095D01*
X130004763Y-79754762D02*
X129909525Y-79802381D01*
X129719048Y-79802381D01*
X129623810Y-79754762D01*
X129576191Y-79707143D01*
X129528572Y-79611905D01*
X129528572Y-79326190D01*
X129576191Y-79230952D01*
X129623810Y-79183333D01*
X129719048Y-79135714D01*
X129909525Y-79135714D01*
X130004763Y-79183333D01*
X130480953Y-79707143D02*
X130528572Y-79754762D01*
X130480953Y-79802381D01*
X130433334Y-79754762D01*
X130480953Y-79707143D01*
X130480953Y-79802381D01*
X131338096Y-79754762D02*
X131242858Y-79802381D01*
X131052381Y-79802381D01*
X130957143Y-79754762D01*
X130909524Y-79659524D01*
X130909524Y-79278571D01*
X130957143Y-79183333D01*
X131052381Y-79135714D01*
X131242858Y-79135714D01*
X131338096Y-79183333D01*
X131385715Y-79278571D01*
X131385715Y-79373810D01*
X130909524Y-79469048D01*
X132195239Y-79754762D02*
X132100001Y-79802381D01*
X131909524Y-79802381D01*
X131814286Y-79754762D01*
X131766667Y-79659524D01*
X131766667Y-79278571D01*
X131814286Y-79183333D01*
X131909524Y-79135714D01*
X132100001Y-79135714D01*
X132195239Y-79183333D01*
X132242858Y-79278571D01*
X132242858Y-79373810D01*
X131766667Y-79469048D01*
X133909525Y-79802381D02*
X133433334Y-79802381D01*
X133433334Y-78802381D01*
X134671430Y-79802381D02*
X134671430Y-79278571D01*
X134623811Y-79183333D01*
X134528573Y-79135714D01*
X134338096Y-79135714D01*
X134242858Y-79183333D01*
X134671430Y-79754762D02*
X134576192Y-79802381D01*
X134338096Y-79802381D01*
X134242858Y-79754762D01*
X134195239Y-79659524D01*
X134195239Y-79564286D01*
X134242858Y-79469048D01*
X134338096Y-79421429D01*
X134576192Y-79421429D01*
X134671430Y-79373810D01*
X135147620Y-79802381D02*
X135147620Y-78802381D01*
X135147620Y-79183333D02*
X135242858Y-79135714D01*
X135433335Y-79135714D01*
X135528573Y-79183333D01*
X135576192Y-79230952D01*
X135623811Y-79326190D01*
X135623811Y-79611905D01*
X135576192Y-79707143D01*
X135528573Y-79754762D01*
X135433335Y-79802381D01*
X135242858Y-79802381D01*
X135147620Y-79754762D01*
X136004763Y-79754762D02*
X136100001Y-79802381D01*
X136290477Y-79802381D01*
X136385716Y-79754762D01*
X136433335Y-79659524D01*
X136433335Y-79611905D01*
X136385716Y-79516667D01*
X136290477Y-79469048D01*
X136147620Y-79469048D01*
X136052382Y-79421429D01*
X136004763Y-79326190D01*
X136004763Y-79278571D01*
X136052382Y-79183333D01*
X136147620Y-79135714D01*
X136290477Y-79135714D01*
X136385716Y-79183333D01*
X138100002Y-79802381D02*
X137623811Y-79802381D01*
X137623811Y-78802381D01*
X138909526Y-79802381D02*
X138433335Y-79802381D01*
X138433335Y-78802381D01*
X139814288Y-79707143D02*
X139766669Y-79754762D01*
X139623812Y-79802381D01*
X139528574Y-79802381D01*
X139385716Y-79754762D01*
X139290478Y-79659524D01*
X139242859Y-79564286D01*
X139195240Y-79373810D01*
X139195240Y-79230952D01*
X139242859Y-79040476D01*
X139290478Y-78945238D01*
X139385716Y-78850000D01*
X139528574Y-78802381D01*
X139623812Y-78802381D01*
X139766669Y-78850000D01*
X139814288Y-78897619D01*
X126338095Y-81502381D02*
X126338095Y-80502381D01*
X126766667Y-81502381D02*
X126766667Y-80978571D01*
X126719048Y-80883333D01*
X126623810Y-80835714D01*
X126480952Y-80835714D01*
X126385714Y-80883333D01*
X126338095Y-80930952D01*
X127100000Y-80835714D02*
X127480952Y-80835714D01*
X127242857Y-80502381D02*
X127242857Y-81359524D01*
X127290476Y-81454762D01*
X127385714Y-81502381D01*
X127480952Y-81502381D01*
X127671429Y-80835714D02*
X128052381Y-80835714D01*
X127814286Y-80502381D02*
X127814286Y-81359524D01*
X127861905Y-81454762D01*
X127957143Y-81502381D01*
X128052381Y-81502381D01*
X128385715Y-80835714D02*
X128385715Y-81835714D01*
X128385715Y-80883333D02*
X128480953Y-80835714D01*
X128671430Y-80835714D01*
X128766668Y-80883333D01*
X128814287Y-80930952D01*
X128861906Y-81026190D01*
X128861906Y-81311905D01*
X128814287Y-81407143D01*
X128766668Y-81454762D01*
X128671430Y-81502381D01*
X128480953Y-81502381D01*
X128385715Y-81454762D01*
X129290477Y-81407143D02*
X129338096Y-81454762D01*
X129290477Y-81502381D01*
X129242858Y-81454762D01*
X129290477Y-81407143D01*
X129290477Y-81502381D01*
X129290477Y-80883333D02*
X129338096Y-80930952D01*
X129290477Y-80978571D01*
X129242858Y-80930952D01*
X129290477Y-80883333D01*
X129290477Y-80978571D01*
X130480953Y-80454762D02*
X129623810Y-81740476D01*
X131528572Y-80454762D02*
X130671429Y-81740476D01*
X131861905Y-80835714D02*
X131861905Y-81835714D01*
X131861905Y-80883333D02*
X131957143Y-80835714D01*
X132147620Y-80835714D01*
X132242858Y-80883333D01*
X132290477Y-80930952D01*
X132338096Y-81026190D01*
X132338096Y-81311905D01*
X132290477Y-81407143D01*
X132242858Y-81454762D01*
X132147620Y-81502381D01*
X131957143Y-81502381D01*
X131861905Y-81454762D01*
X132909524Y-81502381D02*
X132814286Y-81454762D01*
X132766667Y-81359524D01*
X132766667Y-80502381D01*
X133719049Y-80835714D02*
X133719049Y-81502381D01*
X133290477Y-80835714D02*
X133290477Y-81359524D01*
X133338096Y-81454762D01*
X133433334Y-81502381D01*
X133576192Y-81502381D01*
X133671430Y-81454762D01*
X133719049Y-81407143D01*
X134623811Y-80835714D02*
X134623811Y-81645238D01*
X134576192Y-81740476D01*
X134528573Y-81788095D01*
X134433334Y-81835714D01*
X134290477Y-81835714D01*
X134195239Y-81788095D01*
X134623811Y-81454762D02*
X134528573Y-81502381D01*
X134338096Y-81502381D01*
X134242858Y-81454762D01*
X134195239Y-81407143D01*
X134147620Y-81311905D01*
X134147620Y-81026190D01*
X134195239Y-80930952D01*
X134242858Y-80883333D01*
X134338096Y-80835714D01*
X134528573Y-80835714D01*
X134623811Y-80883333D01*
X135528573Y-80835714D02*
X135528573Y-81645238D01*
X135480954Y-81740476D01*
X135433335Y-81788095D01*
X135338096Y-81835714D01*
X135195239Y-81835714D01*
X135100001Y-81788095D01*
X135528573Y-81454762D02*
X135433335Y-81502381D01*
X135242858Y-81502381D01*
X135147620Y-81454762D01*
X135100001Y-81407143D01*
X135052382Y-81311905D01*
X135052382Y-81026190D01*
X135100001Y-80930952D01*
X135147620Y-80883333D01*
X135242858Y-80835714D01*
X135433335Y-80835714D01*
X135528573Y-80883333D01*
X136004763Y-81407143D02*
X136052382Y-81454762D01*
X136004763Y-81502381D01*
X135957144Y-81454762D01*
X136004763Y-81407143D01*
X136004763Y-81502381D01*
X136861906Y-81454762D02*
X136766668Y-81502381D01*
X136576191Y-81502381D01*
X136480953Y-81454762D01*
X136433334Y-81359524D01*
X136433334Y-80978571D01*
X136480953Y-80883333D01*
X136576191Y-80835714D01*
X136766668Y-80835714D01*
X136861906Y-80883333D01*
X136909525Y-80978571D01*
X136909525Y-81073810D01*
X136433334Y-81169048D01*
X137719049Y-81454762D02*
X137623811Y-81502381D01*
X137433334Y-81502381D01*
X137338096Y-81454762D01*
X137290477Y-81359524D01*
X137290477Y-80978571D01*
X137338096Y-80883333D01*
X137433334Y-80835714D01*
X137623811Y-80835714D01*
X137719049Y-80883333D01*
X137766668Y-80978571D01*
X137766668Y-81073810D01*
X137290477Y-81169048D01*
X146509524Y-80352381D02*
X146176190Y-79876190D01*
X145938095Y-80352381D02*
X145938095Y-79352381D01*
X146319048Y-79352381D01*
X146414286Y-79400000D01*
X146461905Y-79447619D01*
X146509524Y-79542857D01*
X146509524Y-79685714D01*
X146461905Y-79780952D01*
X146414286Y-79828571D01*
X146319048Y-79876190D01*
X145938095Y-79876190D01*
X147461905Y-80352381D02*
X146890476Y-80352381D01*
X147176190Y-80352381D02*
X147176190Y-79352381D01*
X147080952Y-79495238D01*
X146985714Y-79590476D01*
X146890476Y-79638095D01*
X148080952Y-79352381D02*
X148176191Y-79352381D01*
X148271429Y-79400000D01*
X148319048Y-79447619D01*
X148366667Y-79542857D01*
X148414286Y-79733333D01*
X148414286Y-79971429D01*
X148366667Y-80161905D01*
X148319048Y-80257143D01*
X148271429Y-80304762D01*
X148176191Y-80352381D01*
X148080952Y-80352381D01*
X147985714Y-80304762D01*
X147938095Y-80257143D01*
X147890476Y-80161905D01*
X147842857Y-79971429D01*
X147842857Y-79733333D01*
X147890476Y-79542857D01*
X147938095Y-79447619D01*
X147985714Y-79400000D01*
X148080952Y-79352381D01*
X149033333Y-79352381D02*
X149128572Y-79352381D01*
X149223810Y-79400000D01*
X149271429Y-79447619D01*
X149319048Y-79542857D01*
X149366667Y-79733333D01*
X149366667Y-79971429D01*
X149319048Y-80161905D01*
X149271429Y-80257143D01*
X149223810Y-80304762D01*
X149128572Y-80352381D01*
X149033333Y-80352381D01*
X148938095Y-80304762D01*
X148890476Y-80257143D01*
X148842857Y-80161905D01*
X148795238Y-79971429D01*
X148795238Y-79733333D01*
X148842857Y-79542857D01*
X148890476Y-79447619D01*
X148938095Y-79400000D01*
X149033333Y-79352381D01*
X149700000Y-79352381D02*
X150319048Y-79352381D01*
X149985714Y-79733333D01*
X150128572Y-79733333D01*
X150223810Y-79780952D01*
X150271429Y-79828571D01*
X150319048Y-79923810D01*
X150319048Y-80161905D01*
X150271429Y-80257143D01*
X150223810Y-80304762D01*
X150128572Y-80352381D01*
X149842857Y-80352381D01*
X149747619Y-80304762D01*
X149700000Y-80257143D01*
X151414286Y-79685714D02*
X151652381Y-80352381D01*
X151890477Y-79685714D01*
X152795239Y-80352381D02*
X152223810Y-80352381D01*
X152509524Y-80352381D02*
X152509524Y-79352381D01*
X152414286Y-79495238D01*
X152319048Y-79590476D01*
X152223810Y-79638095D01*
X153223810Y-80257143D02*
X153271429Y-80304762D01*
X153223810Y-80352381D01*
X153176191Y-80304762D01*
X153223810Y-80257143D01*
X153223810Y-80352381D01*
X153890476Y-79352381D02*
X153985715Y-79352381D01*
X154080953Y-79400000D01*
X154128572Y-79447619D01*
X154176191Y-79542857D01*
X154223810Y-79733333D01*
X154223810Y-79971429D01*
X154176191Y-80161905D01*
X154128572Y-80257143D01*
X154080953Y-80304762D01*
X153985715Y-80352381D01*
X153890476Y-80352381D01*
X153795238Y-80304762D01*
X153747619Y-80257143D01*
X153700000Y-80161905D01*
X153652381Y-79971429D01*
X153652381Y-79733333D01*
X153700000Y-79542857D01*
X153747619Y-79447619D01*
X153795238Y-79400000D01*
X153890476Y-79352381D01*
X154652381Y-80257143D02*
X154700000Y-80304762D01*
X154652381Y-80352381D01*
X154604762Y-80304762D01*
X154652381Y-80257143D01*
X154652381Y-80352381D01*
X155652381Y-80352381D02*
X155080952Y-80352381D01*
X155366666Y-80352381D02*
X155366666Y-79352381D01*
X155271428Y-79495238D01*
X155176190Y-79590476D01*
X155080952Y-79638095D01*
X145890476Y-81766667D02*
X146366667Y-81766667D01*
X145795238Y-82052381D02*
X146128571Y-81052381D01*
X146461905Y-82052381D01*
X146795238Y-81385714D02*
X146795238Y-82052381D01*
X146795238Y-81480952D02*
X146842857Y-81433333D01*
X146938095Y-81385714D01*
X147080953Y-81385714D01*
X147176191Y-81433333D01*
X147223810Y-81528571D01*
X147223810Y-82052381D01*
X148128572Y-82052381D02*
X148128572Y-81528571D01*
X148080953Y-81433333D01*
X147985715Y-81385714D01*
X147795238Y-81385714D01*
X147700000Y-81433333D01*
X148128572Y-82004762D02*
X148033334Y-82052381D01*
X147795238Y-82052381D01*
X147700000Y-82004762D01*
X147652381Y-81909524D01*
X147652381Y-81814286D01*
X147700000Y-81719048D01*
X147795238Y-81671429D01*
X148033334Y-81671429D01*
X148128572Y-81623810D01*
X148747619Y-82052381D02*
X148652381Y-82004762D01*
X148604762Y-81909524D01*
X148604762Y-81052381D01*
X149271429Y-82052381D02*
X149176191Y-82004762D01*
X149128572Y-81957143D01*
X149080953Y-81861905D01*
X149080953Y-81576190D01*
X149128572Y-81480952D01*
X149176191Y-81433333D01*
X149271429Y-81385714D01*
X149414287Y-81385714D01*
X149509525Y-81433333D01*
X149557144Y-81480952D01*
X149604763Y-81576190D01*
X149604763Y-81861905D01*
X149557144Y-81957143D01*
X149509525Y-82004762D01*
X149414287Y-82052381D01*
X149271429Y-82052381D01*
X150461906Y-81385714D02*
X150461906Y-82195238D01*
X150414287Y-82290476D01*
X150366668Y-82338095D01*
X150271429Y-82385714D01*
X150128572Y-82385714D01*
X150033334Y-82338095D01*
X150461906Y-82004762D02*
X150366668Y-82052381D01*
X150176191Y-82052381D01*
X150080953Y-82004762D01*
X150033334Y-81957143D01*
X149985715Y-81861905D01*
X149985715Y-81576190D01*
X150033334Y-81480952D01*
X150080953Y-81433333D01*
X150176191Y-81385714D01*
X150366668Y-81385714D01*
X150461906Y-81433333D01*
X151652382Y-81004762D02*
X150795239Y-82290476D01*
X151985715Y-82052381D02*
X151985715Y-81052381D01*
X152223810Y-81052381D01*
X152366668Y-81100000D01*
X152461906Y-81195238D01*
X152509525Y-81290476D01*
X152557144Y-81480952D01*
X152557144Y-81623810D01*
X152509525Y-81814286D01*
X152461906Y-81909524D01*
X152366668Y-82004762D01*
X152223810Y-82052381D01*
X151985715Y-82052381D01*
X152985715Y-82052381D02*
X152985715Y-81385714D01*
X152985715Y-81052381D02*
X152938096Y-81100000D01*
X152985715Y-81147619D01*
X153033334Y-81100000D01*
X152985715Y-81052381D01*
X152985715Y-81147619D01*
X153890477Y-81385714D02*
X153890477Y-82195238D01*
X153842858Y-82290476D01*
X153795239Y-82338095D01*
X153700000Y-82385714D01*
X153557143Y-82385714D01*
X153461905Y-82338095D01*
X153890477Y-82004762D02*
X153795239Y-82052381D01*
X153604762Y-82052381D01*
X153509524Y-82004762D01*
X153461905Y-81957143D01*
X153414286Y-81861905D01*
X153414286Y-81576190D01*
X153461905Y-81480952D01*
X153509524Y-81433333D01*
X153604762Y-81385714D01*
X153795239Y-81385714D01*
X153890477Y-81433333D01*
X154366667Y-82052381D02*
X154366667Y-81385714D01*
X154366667Y-81052381D02*
X154319048Y-81100000D01*
X154366667Y-81147619D01*
X154414286Y-81100000D01*
X154366667Y-81052381D01*
X154366667Y-81147619D01*
X154700000Y-81385714D02*
X155080952Y-81385714D01*
X154842857Y-81052381D02*
X154842857Y-81909524D01*
X154890476Y-82004762D01*
X154985714Y-82052381D01*
X155080952Y-82052381D01*
X155842858Y-82052381D02*
X155842858Y-81528571D01*
X155795239Y-81433333D01*
X155700001Y-81385714D01*
X155509524Y-81385714D01*
X155414286Y-81433333D01*
X155842858Y-82004762D02*
X155747620Y-82052381D01*
X155509524Y-82052381D01*
X155414286Y-82004762D01*
X155366667Y-81909524D01*
X155366667Y-81814286D01*
X155414286Y-81719048D01*
X155509524Y-81671429D01*
X155747620Y-81671429D01*
X155842858Y-81623810D01*
X156461905Y-82052381D02*
X156366667Y-82004762D01*
X156319048Y-81909524D01*
X156319048Y-81052381D01*
X157604763Y-82052381D02*
X157604763Y-81052381D01*
X158795239Y-81004762D02*
X157938096Y-82290476D01*
X159319048Y-81052381D02*
X159509525Y-81052381D01*
X159604763Y-81100000D01*
X159700001Y-81195238D01*
X159747620Y-81385714D01*
X159747620Y-81719048D01*
X159700001Y-81909524D01*
X159604763Y-82004762D01*
X159509525Y-82052381D01*
X159319048Y-82052381D01*
X159223810Y-82004762D01*
X159128572Y-81909524D01*
X159080953Y-81719048D01*
X159080953Y-81385714D01*
X159128572Y-81195238D01*
X159223810Y-81100000D01*
X159319048Y-81052381D01*
X160128572Y-82004762D02*
X160223810Y-82052381D01*
X160414286Y-82052381D01*
X160509525Y-82004762D01*
X160557144Y-81909524D01*
X160557144Y-81861905D01*
X160509525Y-81766667D01*
X160414286Y-81719048D01*
X160271429Y-81719048D01*
X160176191Y-81671429D01*
X160128572Y-81576190D01*
X160128572Y-81528571D01*
X160176191Y-81433333D01*
X160271429Y-81385714D01*
X160414286Y-81385714D01*
X160509525Y-81433333D01*
D12*
G36*
X136691667Y-73568369D02*
X136509782Y-73792434D01*
X136327898Y-74016500D01*
X133838348Y-74016500D01*
X133795386Y-73943684D01*
X133749981Y-73886049D01*
X133688125Y-73829575D01*
X133666661Y-73814114D01*
X133611011Y-73781529D01*
X133560383Y-73766244D01*
X133496029Y-73764084D01*
X133453248Y-73766592D01*
X133327768Y-73794460D01*
X133224556Y-73855768D01*
X133148379Y-73946374D01*
X133104002Y-74062136D01*
X133102077Y-74071782D01*
X133097459Y-74191908D01*
X133126859Y-74297264D01*
X133183877Y-74385267D01*
X133262112Y-74453336D01*
X133355164Y-74498889D01*
X133456631Y-74519344D01*
X133560115Y-74512120D01*
X133659214Y-74474635D01*
X133747528Y-74404307D01*
X133790088Y-74349306D01*
X133841259Y-74270500D01*
X134992546Y-74270500D01*
X135250983Y-74270678D01*
X135469845Y-74271257D01*
X135651891Y-74272300D01*
X135799876Y-74273872D01*
X135916558Y-74276037D01*
X136004695Y-74278859D01*
X136067044Y-74282402D01*
X136106362Y-74286732D01*
X136125407Y-74291911D01*
X136127759Y-74296958D01*
X136110515Y-74320273D01*
X136070580Y-74371755D01*
X136011771Y-74446565D01*
X135937905Y-74539862D01*
X135852797Y-74646808D01*
X135785634Y-74730875D01*
X135459582Y-75138333D01*
X134101833Y-75138199D01*
X132744084Y-75138066D01*
X132708280Y-75075141D01*
X132641120Y-74997050D01*
X132548373Y-74942525D01*
X132441893Y-74915373D01*
X132333533Y-74919404D01*
X132276858Y-74936529D01*
X132161699Y-75005549D01*
X132077732Y-75102838D01*
X132043204Y-75173369D01*
X132019561Y-75286833D01*
X132031803Y-75396005D01*
X132074414Y-75495165D01*
X132141877Y-75578593D01*
X132228675Y-75640571D01*
X132329292Y-75675378D01*
X132438213Y-75677295D01*
X132510818Y-75658207D01*
X132568338Y-75627515D01*
X132631628Y-75580798D01*
X132690522Y-75527377D01*
X132734854Y-75476575D01*
X132754457Y-75437713D01*
X132754667Y-75434606D01*
X132775743Y-75429891D01*
X132838617Y-75425754D01*
X132942757Y-75422204D01*
X133087633Y-75419248D01*
X133272711Y-75416894D01*
X133497461Y-75415150D01*
X133761350Y-75414025D01*
X134063849Y-75413526D01*
X134158117Y-75413500D01*
X135561568Y-75413500D01*
X136126617Y-74680902D01*
X136691667Y-73948303D01*
X136691667Y-76001584D01*
X136453542Y-76289161D01*
X136215417Y-76576737D01*
X133371783Y-76577667D01*
X133348486Y-76507075D01*
X133297159Y-76411671D01*
X133219905Y-76342083D01*
X133124745Y-76298842D01*
X133019702Y-76282477D01*
X132912798Y-76293516D01*
X132812058Y-76332490D01*
X132725503Y-76399928D01*
X132678520Y-76462861D01*
X132633503Y-76576536D01*
X132626611Y-76690126D01*
X132654185Y-76796754D01*
X132712564Y-76889544D01*
X132798089Y-76961620D01*
X132907100Y-77006105D01*
X132972990Y-77016133D01*
X133093948Y-77004905D01*
X133200671Y-76954857D01*
X133288395Y-76868430D01*
X133303255Y-76846973D01*
X133354426Y-76768167D01*
X134841930Y-76768167D01*
X135129087Y-76768126D01*
X135376875Y-76767954D01*
X135588255Y-76767574D01*
X135766191Y-76766911D01*
X135913646Y-76765888D01*
X136033583Y-76764428D01*
X136128966Y-76762457D01*
X136202757Y-76759897D01*
X136257919Y-76756673D01*
X136297415Y-76752708D01*
X136324209Y-76747927D01*
X136341264Y-76742253D01*
X136351542Y-76735611D01*
X136357092Y-76729249D01*
X136382614Y-76697883D01*
X136429599Y-76644043D01*
X136490589Y-76576172D01*
X136538209Y-76524199D01*
X136691667Y-76358065D01*
X136691667Y-78122833D01*
X126108334Y-78122833D01*
X126108334Y-77142131D01*
X126393530Y-76768167D01*
X127645841Y-76768167D01*
X128898152Y-76768166D01*
X128941114Y-76840982D01*
X129018905Y-76935234D01*
X129117838Y-76998142D01*
X129229405Y-77027309D01*
X129345099Y-77020337D01*
X129443317Y-76982545D01*
X129542721Y-76907012D01*
X129604753Y-76812082D01*
X129630811Y-76695361D01*
X129631859Y-76659590D01*
X129627673Y-76581440D01*
X129612004Y-76525686D01*
X129578481Y-76472698D01*
X129566115Y-76457028D01*
X129479104Y-76368744D01*
X129386862Y-76317529D01*
X129279515Y-76298375D01*
X129252525Y-76297969D01*
X129131441Y-76315533D01*
X129029552Y-76362947D01*
X128953476Y-76435764D01*
X128910162Y-76528189D01*
X128897744Y-76577667D01*
X127746456Y-76577667D01*
X127530115Y-76577433D01*
X127327025Y-76576763D01*
X127141027Y-76575698D01*
X126975963Y-76574284D01*
X126835677Y-76572563D01*
X126724010Y-76570580D01*
X126644804Y-76568377D01*
X126601903Y-76565999D01*
X126595167Y-76564584D01*
X126607215Y-76544751D01*
X126641201Y-76495419D01*
X126693882Y-76421118D01*
X126762019Y-76326383D01*
X126842371Y-76215746D01*
X126931698Y-76093739D01*
X126935671Y-76088334D01*
X127276174Y-75625167D01*
X129982741Y-75625167D01*
X130006502Y-75677317D01*
X130048175Y-75732436D01*
X130117177Y-75788408D01*
X130199835Y-75835557D01*
X130264443Y-75859834D01*
X130369513Y-75868656D01*
X130471306Y-75841645D01*
X130563306Y-75785175D01*
X130638999Y-75705624D01*
X130691869Y-75609365D01*
X130715403Y-75502777D01*
X130710533Y-75423263D01*
X130670529Y-75312151D01*
X130600389Y-75219453D01*
X130508181Y-75150377D01*
X130401975Y-75110128D01*
X130289837Y-75103913D01*
X130233441Y-75115383D01*
X130160427Y-75147945D01*
X130087343Y-75197554D01*
X130027179Y-75253794D01*
X129992926Y-75306248D01*
X129992003Y-75308970D01*
X129988391Y-75317104D01*
X129981080Y-75324085D01*
X129967042Y-75330002D01*
X129943245Y-75334943D01*
X129906658Y-75338995D01*
X129854252Y-75342247D01*
X129782996Y-75344787D01*
X129689859Y-75346701D01*
X129571811Y-75348080D01*
X129425822Y-75349009D01*
X129248860Y-75349578D01*
X129037896Y-75349874D01*
X128789899Y-75349985D01*
X128578063Y-75350000D01*
X127177146Y-75350000D01*
X126669198Y-76020494D01*
X126556831Y-76168801D01*
X126451797Y-76307395D01*
X126356997Y-76432451D01*
X126275330Y-76540144D01*
X126209698Y-76626650D01*
X126163001Y-76688145D01*
X126138140Y-76720802D01*
X126135465Y-76724286D01*
X126128423Y-76725369D01*
X126122687Y-76706486D01*
X126118138Y-76664403D01*
X126114656Y-76595888D01*
X126112120Y-76497707D01*
X126110411Y-76366628D01*
X126109408Y-76199417D01*
X126109007Y-76011458D01*
X126108334Y-75265333D01*
X126507574Y-75265333D01*
X127410084Y-74208449D01*
X128842034Y-74207725D01*
X130273985Y-74207000D01*
X130316948Y-74279815D01*
X130392220Y-74370296D01*
X130490676Y-74434489D01*
X130600703Y-74465624D01*
X130638943Y-74467474D01*
X130753606Y-74449093D01*
X130853379Y-74395336D01*
X130940408Y-74308375D01*
X130997068Y-74208292D01*
X131017303Y-74100892D01*
X131004437Y-73993428D01*
X130961793Y-73893152D01*
X130892694Y-73807315D01*
X130800465Y-73743171D01*
X130688426Y-73707971D01*
X130663938Y-73705042D01*
X130556130Y-73713577D01*
X130452273Y-73753288D01*
X130366375Y-73817563D01*
X130331084Y-73862226D01*
X130288750Y-73930202D01*
X128804164Y-73931018D01*
X127319578Y-73931833D01*
X126858718Y-74471583D01*
X126397857Y-75011333D01*
X126108334Y-75011333D01*
X126108334Y-72577167D01*
X136691667Y-72577167D01*
X136691667Y-73568369D01*
X136691667Y-73568369D01*
G37*
X136691667Y-73568369D02*
X136509782Y-73792434D01*
X136327898Y-74016500D01*
X133838348Y-74016500D01*
X133795386Y-73943684D01*
X133749981Y-73886049D01*
X133688125Y-73829575D01*
X133666661Y-73814114D01*
X133611011Y-73781529D01*
X133560383Y-73766244D01*
X133496029Y-73764084D01*
X133453248Y-73766592D01*
X133327768Y-73794460D01*
X133224556Y-73855768D01*
X133148379Y-73946374D01*
X133104002Y-74062136D01*
X133102077Y-74071782D01*
X133097459Y-74191908D01*
X133126859Y-74297264D01*
X133183877Y-74385267D01*
X133262112Y-74453336D01*
X133355164Y-74498889D01*
X133456631Y-74519344D01*
X133560115Y-74512120D01*
X133659214Y-74474635D01*
X133747528Y-74404307D01*
X133790088Y-74349306D01*
X133841259Y-74270500D01*
X134992546Y-74270500D01*
X135250983Y-74270678D01*
X135469845Y-74271257D01*
X135651891Y-74272300D01*
X135799876Y-74273872D01*
X135916558Y-74276037D01*
X136004695Y-74278859D01*
X136067044Y-74282402D01*
X136106362Y-74286732D01*
X136125407Y-74291911D01*
X136127759Y-74296958D01*
X136110515Y-74320273D01*
X136070580Y-74371755D01*
X136011771Y-74446565D01*
X135937905Y-74539862D01*
X135852797Y-74646808D01*
X135785634Y-74730875D01*
X135459582Y-75138333D01*
X134101833Y-75138199D01*
X132744084Y-75138066D01*
X132708280Y-75075141D01*
X132641120Y-74997050D01*
X132548373Y-74942525D01*
X132441893Y-74915373D01*
X132333533Y-74919404D01*
X132276858Y-74936529D01*
X132161699Y-75005549D01*
X132077732Y-75102838D01*
X132043204Y-75173369D01*
X132019561Y-75286833D01*
X132031803Y-75396005D01*
X132074414Y-75495165D01*
X132141877Y-75578593D01*
X132228675Y-75640571D01*
X132329292Y-75675378D01*
X132438213Y-75677295D01*
X132510818Y-75658207D01*
X132568338Y-75627515D01*
X132631628Y-75580798D01*
X132690522Y-75527377D01*
X132734854Y-75476575D01*
X132754457Y-75437713D01*
X132754667Y-75434606D01*
X132775743Y-75429891D01*
X132838617Y-75425754D01*
X132942757Y-75422204D01*
X133087633Y-75419248D01*
X133272711Y-75416894D01*
X133497461Y-75415150D01*
X133761350Y-75414025D01*
X134063849Y-75413526D01*
X134158117Y-75413500D01*
X135561568Y-75413500D01*
X136126617Y-74680902D01*
X136691667Y-73948303D01*
X136691667Y-76001584D01*
X136453542Y-76289161D01*
X136215417Y-76576737D01*
X133371783Y-76577667D01*
X133348486Y-76507075D01*
X133297159Y-76411671D01*
X133219905Y-76342083D01*
X133124745Y-76298842D01*
X133019702Y-76282477D01*
X132912798Y-76293516D01*
X132812058Y-76332490D01*
X132725503Y-76399928D01*
X132678520Y-76462861D01*
X132633503Y-76576536D01*
X132626611Y-76690126D01*
X132654185Y-76796754D01*
X132712564Y-76889544D01*
X132798089Y-76961620D01*
X132907100Y-77006105D01*
X132972990Y-77016133D01*
X133093948Y-77004905D01*
X133200671Y-76954857D01*
X133288395Y-76868430D01*
X133303255Y-76846973D01*
X133354426Y-76768167D01*
X134841930Y-76768167D01*
X135129087Y-76768126D01*
X135376875Y-76767954D01*
X135588255Y-76767574D01*
X135766191Y-76766911D01*
X135913646Y-76765888D01*
X136033583Y-76764428D01*
X136128966Y-76762457D01*
X136202757Y-76759897D01*
X136257919Y-76756673D01*
X136297415Y-76752708D01*
X136324209Y-76747927D01*
X136341264Y-76742253D01*
X136351542Y-76735611D01*
X136357092Y-76729249D01*
X136382614Y-76697883D01*
X136429599Y-76644043D01*
X136490589Y-76576172D01*
X136538209Y-76524199D01*
X136691667Y-76358065D01*
X136691667Y-78122833D01*
X126108334Y-78122833D01*
X126108334Y-77142131D01*
X126393530Y-76768167D01*
X127645841Y-76768167D01*
X128898152Y-76768166D01*
X128941114Y-76840982D01*
X129018905Y-76935234D01*
X129117838Y-76998142D01*
X129229405Y-77027309D01*
X129345099Y-77020337D01*
X129443317Y-76982545D01*
X129542721Y-76907012D01*
X129604753Y-76812082D01*
X129630811Y-76695361D01*
X129631859Y-76659590D01*
X129627673Y-76581440D01*
X129612004Y-76525686D01*
X129578481Y-76472698D01*
X129566115Y-76457028D01*
X129479104Y-76368744D01*
X129386862Y-76317529D01*
X129279515Y-76298375D01*
X129252525Y-76297969D01*
X129131441Y-76315533D01*
X129029552Y-76362947D01*
X128953476Y-76435764D01*
X128910162Y-76528189D01*
X128897744Y-76577667D01*
X127746456Y-76577667D01*
X127530115Y-76577433D01*
X127327025Y-76576763D01*
X127141027Y-76575698D01*
X126975963Y-76574284D01*
X126835677Y-76572563D01*
X126724010Y-76570580D01*
X126644804Y-76568377D01*
X126601903Y-76565999D01*
X126595167Y-76564584D01*
X126607215Y-76544751D01*
X126641201Y-76495419D01*
X126693882Y-76421118D01*
X126762019Y-76326383D01*
X126842371Y-76215746D01*
X126931698Y-76093739D01*
X126935671Y-76088334D01*
X127276174Y-75625167D01*
X129982741Y-75625167D01*
X130006502Y-75677317D01*
X130048175Y-75732436D01*
X130117177Y-75788408D01*
X130199835Y-75835557D01*
X130264443Y-75859834D01*
X130369513Y-75868656D01*
X130471306Y-75841645D01*
X130563306Y-75785175D01*
X130638999Y-75705624D01*
X130691869Y-75609365D01*
X130715403Y-75502777D01*
X130710533Y-75423263D01*
X130670529Y-75312151D01*
X130600389Y-75219453D01*
X130508181Y-75150377D01*
X130401975Y-75110128D01*
X130289837Y-75103913D01*
X130233441Y-75115383D01*
X130160427Y-75147945D01*
X130087343Y-75197554D01*
X130027179Y-75253794D01*
X129992926Y-75306248D01*
X129992003Y-75308970D01*
X129988391Y-75317104D01*
X129981080Y-75324085D01*
X129967042Y-75330002D01*
X129943245Y-75334943D01*
X129906658Y-75338995D01*
X129854252Y-75342247D01*
X129782996Y-75344787D01*
X129689859Y-75346701D01*
X129571811Y-75348080D01*
X129425822Y-75349009D01*
X129248860Y-75349578D01*
X129037896Y-75349874D01*
X128789899Y-75349985D01*
X128578063Y-75350000D01*
X127177146Y-75350000D01*
X126669198Y-76020494D01*
X126556831Y-76168801D01*
X126451797Y-76307395D01*
X126356997Y-76432451D01*
X126275330Y-76540144D01*
X126209698Y-76626650D01*
X126163001Y-76688145D01*
X126138140Y-76720802D01*
X126135465Y-76724286D01*
X126128423Y-76725369D01*
X126122687Y-76706486D01*
X126118138Y-76664403D01*
X126114656Y-76595888D01*
X126112120Y-76497707D01*
X126110411Y-76366628D01*
X126109408Y-76199417D01*
X126109007Y-76011458D01*
X126108334Y-75265333D01*
X126507574Y-75265333D01*
X127410084Y-74208449D01*
X128842034Y-74207725D01*
X130273985Y-74207000D01*
X130316948Y-74279815D01*
X130392220Y-74370296D01*
X130490676Y-74434489D01*
X130600703Y-74465624D01*
X130638943Y-74467474D01*
X130753606Y-74449093D01*
X130853379Y-74395336D01*
X130940408Y-74308375D01*
X130997068Y-74208292D01*
X131017303Y-74100892D01*
X131004437Y-73993428D01*
X130961793Y-73893152D01*
X130892694Y-73807315D01*
X130800465Y-73743171D01*
X130688426Y-73707971D01*
X130663938Y-73705042D01*
X130556130Y-73713577D01*
X130452273Y-73753288D01*
X130366375Y-73817563D01*
X130331084Y-73862226D01*
X130288750Y-73930202D01*
X128804164Y-73931018D01*
X127319578Y-73931833D01*
X126858718Y-74471583D01*
X126397857Y-75011333D01*
X126108334Y-75011333D01*
X126108334Y-72577167D01*
X136691667Y-72577167D01*
X136691667Y-73568369D01*
M02*
