G04 #@! TF.FileFunction,Copper,L2,Bot,Signal*
%FSLAX46Y46*%
G04 Gerber Fmt 4.6, Leading zero omitted, Abs format (unit mm)*
G04 Created by KiCad (PCBNEW 4.0.6-e0-6349~53~ubuntu14.04.1) date Tue Mar 28 14:19:36 2017*
%MOMM*%
%LPD*%
G01*
G04 APERTURE LIST*
%ADD10C,0.100000*%
%ADD11C,0.650240*%
%ADD12R,0.650240X4.599940*%
%ADD13R,0.650240X3.599180*%
%ADD14R,2.032000X1.727200*%
%ADD15O,2.032000X1.727200*%
%ADD16R,1.727200X1.727200*%
%ADD17O,1.727200X1.727200*%
%ADD18R,0.864000X0.787000*%
%ADD19C,1.524000*%
%ADD20C,0.600000*%
%ADD21C,0.500000*%
%ADD22C,0.150000*%
%ADD23C,0.200000*%
G04 APERTURE END LIST*
D10*
D11*
X140500400Y-102301240D03*
D12*
X159499600Y-100000000D03*
X158498840Y-100000000D03*
X157500620Y-100000000D03*
X156499860Y-100000000D03*
X155499100Y-100000000D03*
X154500880Y-100000000D03*
X153500120Y-100000000D03*
X152499360Y-100000000D03*
X151501140Y-100000000D03*
X150500380Y-100000000D03*
X149499620Y-100000000D03*
X144500900Y-100000000D03*
X143500140Y-100000000D03*
X142499380Y-100000000D03*
D13*
X141501160Y-99499620D03*
D12*
X140500400Y-100000000D03*
X146499880Y-100000000D03*
X145499120Y-100000000D03*
D11*
X157500620Y-102301240D03*
X156499860Y-102301240D03*
X155499100Y-102301240D03*
X154500880Y-102301240D03*
X153500120Y-102301240D03*
X152499360Y-102301240D03*
X151501140Y-102301240D03*
X150500380Y-102301240D03*
X149499620Y-102301240D03*
X159499600Y-102301240D03*
X146499880Y-102301240D03*
X145499120Y-102301240D03*
X144500900Y-102301240D03*
X143500140Y-102301240D03*
X142499380Y-102301240D03*
X158498840Y-102301240D03*
D14*
X131200000Y-83360000D03*
D15*
X131200000Y-85900000D03*
X131200000Y-88440000D03*
D16*
X165270000Y-85810000D03*
D17*
X162730000Y-85810000D03*
X165270000Y-83270000D03*
X162730000Y-83270000D03*
X165270000Y-80730000D03*
X162730000Y-80730000D03*
X165270000Y-78190000D03*
X162730000Y-78190000D03*
D18*
X147200000Y-86525500D03*
X147200000Y-88074500D03*
X135000000Y-86525500D03*
X135000000Y-88074500D03*
X135000000Y-75474500D03*
X135000000Y-73925500D03*
X147000000Y-75374500D03*
X147000000Y-73825500D03*
X158100000Y-86225500D03*
X158100000Y-87774500D03*
X146000000Y-83725500D03*
X146000000Y-85274500D03*
X146000000Y-78274500D03*
X146000000Y-76725500D03*
X158100000Y-75774500D03*
X158100000Y-74225500D03*
X160000000Y-87774500D03*
X160000000Y-86225500D03*
X160000000Y-83774500D03*
X160000000Y-82225500D03*
X160000000Y-78225500D03*
X160000000Y-79774500D03*
X160000000Y-74225500D03*
X160000000Y-75774500D03*
D19*
X150000000Y-84730000D03*
X150000000Y-87270000D03*
X138000000Y-84630000D03*
X138000000Y-87170000D03*
X138000000Y-77270000D03*
X138000000Y-74730000D03*
X150000000Y-77270000D03*
X150000000Y-74730000D03*
X143000000Y-84630000D03*
X143000000Y-87170000D03*
X143000000Y-77270000D03*
X143000000Y-74730000D03*
X155000000Y-77270000D03*
X155000000Y-74730000D03*
X155000000Y-84730000D03*
X155000000Y-87270000D03*
X165270000Y-74000000D03*
X162730000Y-74000000D03*
X162730000Y-90000000D03*
X165270000Y-90000000D03*
D20*
X147150000Y-91000000D03*
X143750000Y-92550000D03*
X142500000Y-93400000D03*
X148500000Y-91950000D03*
X158050000Y-83800000D03*
X158850000Y-89300000D03*
X158100000Y-77200000D03*
X158100000Y-80850000D03*
X158100000Y-73100000D03*
D21*
X151501140Y-100000000D02*
X150500380Y-100000000D01*
X150500380Y-100000000D02*
X149499620Y-100000000D01*
X150500380Y-100000000D02*
X150500380Y-91350380D01*
X150500380Y-91350380D02*
X149250000Y-90100000D01*
X149250000Y-90100000D02*
X132860000Y-90100000D01*
X132860000Y-90100000D02*
X131200000Y-88440000D01*
D22*
X151501140Y-102301240D02*
X151501140Y-100000000D01*
X150500380Y-102301240D02*
X150500380Y-100000000D01*
X149499620Y-102301240D02*
X149499620Y-100000000D01*
X159499600Y-102301240D02*
X159499600Y-100000000D01*
X158498840Y-102301240D02*
X158498840Y-100000000D01*
X157500620Y-102301240D02*
X157500620Y-100000000D01*
X156499860Y-102301240D02*
X156499860Y-100000000D01*
X155499100Y-102301240D02*
X155499100Y-100000000D01*
X154500880Y-102301240D02*
X154500880Y-100000000D01*
X153500120Y-102301240D02*
X153500120Y-100000000D01*
X152499360Y-102301240D02*
X152499360Y-100000000D01*
D23*
X145300000Y-91000000D02*
X147150000Y-91000000D01*
X143750000Y-92550000D02*
X145300000Y-91000000D01*
X155000000Y-87270000D02*
X150000000Y-87270000D01*
X158100000Y-87774500D02*
X155504500Y-87774500D01*
X155504500Y-87774500D02*
X155000000Y-87270000D01*
X138000000Y-87170000D02*
X143000000Y-87170000D01*
X146000000Y-85274500D02*
X144895500Y-85274500D01*
X144895500Y-85274500D02*
X143000000Y-87170000D01*
X143000000Y-74730000D02*
X138000000Y-74730000D01*
X146000000Y-76725500D02*
X144995500Y-76725500D01*
X144995500Y-76725500D02*
X143000000Y-74730000D01*
X155000000Y-74730000D02*
X150000000Y-74730000D01*
X158100000Y-74225500D02*
X155504500Y-74225500D01*
X155504500Y-74225500D02*
X155000000Y-74730000D01*
D22*
X140500400Y-102301240D02*
X140500400Y-100000000D01*
X144500900Y-102301240D02*
X144500900Y-100000000D01*
X143500140Y-102301240D02*
X143500140Y-100000000D01*
X142499380Y-102301240D02*
X142499380Y-100000000D01*
X146499880Y-102301240D02*
X146499880Y-100000000D01*
X145499120Y-102301240D02*
X145499120Y-100000000D01*
D21*
X142950000Y-93850000D02*
X142500000Y-93400000D01*
X144400000Y-93850000D02*
X142950000Y-93850000D01*
X146300000Y-91950000D02*
X144400000Y-93850000D01*
X148500000Y-91950000D02*
X146300000Y-91950000D01*
D22*
X160000000Y-83774500D02*
X158075500Y-83774500D01*
X158075500Y-83774500D02*
X158050000Y-83800000D01*
X160000000Y-87774500D02*
X160000000Y-88150000D01*
X160000000Y-88150000D02*
X158850000Y-89300000D01*
X160000000Y-78225500D02*
X160000000Y-77650000D01*
X159550000Y-77200000D02*
X158100000Y-77200000D01*
X160000000Y-77650000D02*
X159550000Y-77200000D01*
X160000000Y-74225500D02*
X160000000Y-73350000D01*
D21*
X132350000Y-85900000D02*
X133550000Y-84700000D01*
X133550000Y-84700000D02*
X133550000Y-82100000D01*
X133550000Y-82100000D02*
X134800000Y-80850000D01*
X134800000Y-80850000D02*
X158100000Y-80850000D01*
X132350000Y-85900000D02*
X131200000Y-85900000D01*
D22*
X159750000Y-73100000D02*
X158100000Y-73100000D01*
X160000000Y-73350000D02*
X159750000Y-73100000D01*
D23*
X158100000Y-86225500D02*
X156495500Y-86225500D01*
X156495500Y-86225500D02*
X155000000Y-84730000D01*
X160000000Y-86225500D02*
X158100000Y-86225500D01*
X162730000Y-85810000D02*
X160415500Y-85810000D01*
X160415500Y-85810000D02*
X160000000Y-86225500D01*
X160000000Y-82225500D02*
X159475500Y-82750000D01*
X146000000Y-83100000D02*
X146000000Y-83725500D01*
X146350000Y-82750000D02*
X146000000Y-83100000D01*
X159475500Y-82750000D02*
X146350000Y-82750000D01*
X146000000Y-83725500D02*
X143904500Y-83725500D01*
X143904500Y-83725500D02*
X143000000Y-84630000D01*
X160000000Y-82225500D02*
X161685500Y-82225500D01*
X161685500Y-82225500D02*
X162730000Y-83270000D01*
X146000000Y-78274500D02*
X146000000Y-79000000D01*
X159024500Y-79774500D02*
X160000000Y-79774500D01*
X158550000Y-79300000D02*
X159024500Y-79774500D01*
X146300000Y-79300000D02*
X158550000Y-79300000D01*
X146000000Y-79000000D02*
X146300000Y-79300000D01*
X160000000Y-79774500D02*
X159574500Y-79774500D01*
X146000000Y-78274500D02*
X144004500Y-78274500D01*
X144004500Y-78274500D02*
X143000000Y-77270000D01*
X160000000Y-79774500D02*
X161774500Y-79774500D01*
X161774500Y-79774500D02*
X162730000Y-80730000D01*
X158100000Y-75774500D02*
X156495500Y-75774500D01*
X156495500Y-75774500D02*
X155000000Y-77270000D01*
X160000000Y-75774500D02*
X158100000Y-75774500D01*
X162730000Y-78190000D02*
X162415500Y-78190000D01*
X162415500Y-78190000D02*
X160000000Y-75774500D01*
X147200000Y-86525500D02*
X148204500Y-86525500D01*
X148204500Y-86525500D02*
X150000000Y-84730000D01*
X135000000Y-86525500D02*
X136104500Y-86525500D01*
X136104500Y-86525500D02*
X138000000Y-84630000D01*
X135000000Y-75474500D02*
X136204500Y-75474500D01*
X136204500Y-75474500D02*
X138000000Y-77270000D01*
X147000000Y-75374500D02*
X148104500Y-75374500D01*
X148104500Y-75374500D02*
X150000000Y-77270000D01*
G36*
X169597716Y-70402284D02*
X169605000Y-70438903D01*
X169605000Y-93061097D01*
X169597716Y-93097716D01*
X169561098Y-93105000D01*
X161100000Y-93105000D01*
X161061843Y-93112590D01*
X161022939Y-93112590D01*
X160659391Y-93184904D01*
X160659390Y-93184904D01*
X160517000Y-93243884D01*
X160208798Y-93449819D01*
X160154309Y-93504309D01*
X160099819Y-93558798D01*
X159893884Y-93867000D01*
X159834904Y-94009390D01*
X159834904Y-94009391D01*
X159762590Y-94372940D01*
X159762590Y-94411843D01*
X159755000Y-94450000D01*
X159755000Y-97600030D01*
X159549600Y-97600030D01*
X159524600Y-97625030D01*
X159524600Y-99975000D01*
X159544600Y-99975000D01*
X159544600Y-100025000D01*
X159524600Y-100025000D01*
X159524600Y-100045000D01*
X159474600Y-100045000D01*
X159474600Y-100025000D01*
X159099480Y-100025000D01*
X159074480Y-100050000D01*
X159074480Y-102220746D01*
X159072993Y-102224532D01*
X159074480Y-102305174D01*
X159074480Y-102319861D01*
X159074763Y-102320545D01*
X159076111Y-102393626D01*
X159134821Y-102535365D01*
X159193647Y-102571838D01*
X159365515Y-102399970D01*
X159436225Y-102399970D01*
X159229002Y-102607193D01*
X159265475Y-102666019D01*
X159422892Y-102727847D01*
X159591986Y-102724729D01*
X159733725Y-102666019D01*
X159755000Y-102631705D01*
X159755000Y-102861097D01*
X159747716Y-102897716D01*
X159711098Y-102905000D01*
X151729269Y-102905000D01*
X151866094Y-102848465D01*
X152047728Y-102667148D01*
X152118535Y-102496626D01*
X152134581Y-102535365D01*
X152193407Y-102571838D01*
X152365275Y-102399970D01*
X152435985Y-102399970D01*
X152228762Y-102607193D01*
X152265235Y-102666019D01*
X152422652Y-102727847D01*
X152591746Y-102724729D01*
X152733485Y-102666019D01*
X152769958Y-102607193D01*
X152562735Y-102399970D01*
X152633445Y-102399970D01*
X152805313Y-102571838D01*
X152864139Y-102535365D01*
X152925967Y-102377948D01*
X152924480Y-102297306D01*
X152924480Y-102224532D01*
X153073513Y-102224532D01*
X153075000Y-102305174D01*
X153075000Y-102319861D01*
X153075283Y-102320545D01*
X153076631Y-102393626D01*
X153135341Y-102535365D01*
X153194167Y-102571838D01*
X153366035Y-102399970D01*
X153436745Y-102399970D01*
X153229522Y-102607193D01*
X153265995Y-102666019D01*
X153423412Y-102727847D01*
X153592506Y-102724729D01*
X153734245Y-102666019D01*
X153770718Y-102607193D01*
X153563495Y-102399970D01*
X153634205Y-102399970D01*
X153806073Y-102571838D01*
X153864899Y-102535365D01*
X153926727Y-102377948D01*
X153925240Y-102297306D01*
X153925240Y-102224532D01*
X154074273Y-102224532D01*
X154075760Y-102305174D01*
X154075760Y-102319861D01*
X154076043Y-102320545D01*
X154077391Y-102393626D01*
X154136101Y-102535365D01*
X154194927Y-102571838D01*
X154366795Y-102399970D01*
X154437505Y-102399970D01*
X154230282Y-102607193D01*
X154266755Y-102666019D01*
X154424172Y-102727847D01*
X154593266Y-102724729D01*
X154735005Y-102666019D01*
X154771478Y-102607193D01*
X154564255Y-102399970D01*
X154634965Y-102399970D01*
X154806833Y-102571838D01*
X154865659Y-102535365D01*
X154927487Y-102377948D01*
X154926000Y-102297306D01*
X154926000Y-102224532D01*
X155072493Y-102224532D01*
X155073980Y-102305174D01*
X155073980Y-102319861D01*
X155074263Y-102320545D01*
X155075611Y-102393626D01*
X155134321Y-102535365D01*
X155193147Y-102571838D01*
X155365015Y-102399970D01*
X155435725Y-102399970D01*
X155228502Y-102607193D01*
X155264975Y-102666019D01*
X155422392Y-102727847D01*
X155591486Y-102724729D01*
X155733225Y-102666019D01*
X155769698Y-102607193D01*
X155562475Y-102399970D01*
X155633185Y-102399970D01*
X155805053Y-102571838D01*
X155863879Y-102535365D01*
X155925707Y-102377948D01*
X155924220Y-102297306D01*
X155924220Y-102224532D01*
X156073253Y-102224532D01*
X156074740Y-102305174D01*
X156074740Y-102319861D01*
X156075023Y-102320545D01*
X156076371Y-102393626D01*
X156135081Y-102535365D01*
X156193907Y-102571838D01*
X156365775Y-102399970D01*
X156436485Y-102399970D01*
X156229262Y-102607193D01*
X156265735Y-102666019D01*
X156423152Y-102727847D01*
X156592246Y-102724729D01*
X156733985Y-102666019D01*
X156770458Y-102607193D01*
X156563235Y-102399970D01*
X156633945Y-102399970D01*
X156805813Y-102571838D01*
X156864639Y-102535365D01*
X156926467Y-102377948D01*
X156924980Y-102297306D01*
X156924980Y-102224532D01*
X157074013Y-102224532D01*
X157075500Y-102305174D01*
X157075500Y-102319861D01*
X157075783Y-102320545D01*
X157077131Y-102393626D01*
X157135841Y-102535365D01*
X157194667Y-102571838D01*
X157366535Y-102399970D01*
X157437245Y-102399970D01*
X157230022Y-102607193D01*
X157266495Y-102666019D01*
X157423912Y-102727847D01*
X157593006Y-102724729D01*
X157734745Y-102666019D01*
X157771218Y-102607193D01*
X157563995Y-102399970D01*
X157634705Y-102399970D01*
X157806573Y-102571838D01*
X157865399Y-102535365D01*
X157927227Y-102377948D01*
X157925740Y-102297306D01*
X157925740Y-102224532D01*
X158072233Y-102224532D01*
X158073720Y-102305174D01*
X158073720Y-102319861D01*
X158074003Y-102320545D01*
X158075351Y-102393626D01*
X158134061Y-102535365D01*
X158192887Y-102571838D01*
X158364755Y-102399970D01*
X158435465Y-102399970D01*
X158228242Y-102607193D01*
X158264715Y-102666019D01*
X158422132Y-102727847D01*
X158591226Y-102724729D01*
X158732965Y-102666019D01*
X158769438Y-102607193D01*
X158562215Y-102399970D01*
X158632925Y-102399970D01*
X158804793Y-102571838D01*
X158863619Y-102535365D01*
X158925447Y-102377948D01*
X158923960Y-102297306D01*
X158923960Y-100050000D01*
X158898960Y-100025000D01*
X158523840Y-100025000D01*
X158523840Y-100045000D01*
X158473840Y-100045000D01*
X158473840Y-100025000D01*
X158098720Y-100025000D01*
X158073720Y-100050000D01*
X158073720Y-102220746D01*
X158072233Y-102224532D01*
X157925740Y-102224532D01*
X157925740Y-100050000D01*
X157900740Y-100025000D01*
X157525620Y-100025000D01*
X157525620Y-100045000D01*
X157475620Y-100045000D01*
X157475620Y-100025000D01*
X157100500Y-100025000D01*
X157075500Y-100050000D01*
X157075500Y-102220746D01*
X157074013Y-102224532D01*
X156924980Y-102224532D01*
X156924980Y-100050000D01*
X156899980Y-100025000D01*
X156524860Y-100025000D01*
X156524860Y-100045000D01*
X156474860Y-100045000D01*
X156474860Y-100025000D01*
X156099740Y-100025000D01*
X156074740Y-100050000D01*
X156074740Y-102220746D01*
X156073253Y-102224532D01*
X155924220Y-102224532D01*
X155924220Y-100050000D01*
X155899220Y-100025000D01*
X155524100Y-100025000D01*
X155524100Y-100045000D01*
X155474100Y-100045000D01*
X155474100Y-100025000D01*
X155098980Y-100025000D01*
X155073980Y-100050000D01*
X155073980Y-102220746D01*
X155072493Y-102224532D01*
X154926000Y-102224532D01*
X154926000Y-100050000D01*
X154901000Y-100025000D01*
X154525880Y-100025000D01*
X154525880Y-100045000D01*
X154475880Y-100045000D01*
X154475880Y-100025000D01*
X154100760Y-100025000D01*
X154075760Y-100050000D01*
X154075760Y-102220746D01*
X154074273Y-102224532D01*
X153925240Y-102224532D01*
X153925240Y-100050000D01*
X153900240Y-100025000D01*
X153525120Y-100025000D01*
X153525120Y-100045000D01*
X153475120Y-100045000D01*
X153475120Y-100025000D01*
X153100000Y-100025000D01*
X153075000Y-100050000D01*
X153075000Y-102220746D01*
X153073513Y-102224532D01*
X152924480Y-102224532D01*
X152924480Y-100050000D01*
X152899480Y-100025000D01*
X152524360Y-100025000D01*
X152524360Y-100045000D01*
X152474360Y-100045000D01*
X152474360Y-100025000D01*
X152454360Y-100025000D01*
X152454360Y-99975000D01*
X152474360Y-99975000D01*
X152474360Y-97625030D01*
X152524360Y-97625030D01*
X152524360Y-99975000D01*
X152899480Y-99975000D01*
X152924480Y-99950000D01*
X152924480Y-97680139D01*
X153075000Y-97680139D01*
X153075000Y-99950000D01*
X153100000Y-99975000D01*
X153475120Y-99975000D01*
X153475120Y-97625030D01*
X153525120Y-97625030D01*
X153525120Y-99975000D01*
X153900240Y-99975000D01*
X153925240Y-99950000D01*
X153925240Y-97680139D01*
X154075760Y-97680139D01*
X154075760Y-99950000D01*
X154100760Y-99975000D01*
X154475880Y-99975000D01*
X154475880Y-97625030D01*
X154525880Y-97625030D01*
X154525880Y-99975000D01*
X154901000Y-99975000D01*
X154926000Y-99950000D01*
X154926000Y-97680139D01*
X155073980Y-97680139D01*
X155073980Y-99950000D01*
X155098980Y-99975000D01*
X155474100Y-99975000D01*
X155474100Y-97625030D01*
X155524100Y-97625030D01*
X155524100Y-99975000D01*
X155899220Y-99975000D01*
X155924220Y-99950000D01*
X155924220Y-97680139D01*
X156074740Y-97680139D01*
X156074740Y-99950000D01*
X156099740Y-99975000D01*
X156474860Y-99975000D01*
X156474860Y-97625030D01*
X156524860Y-97625030D01*
X156524860Y-99975000D01*
X156899980Y-99975000D01*
X156924980Y-99950000D01*
X156924980Y-97680139D01*
X157075500Y-97680139D01*
X157075500Y-99950000D01*
X157100500Y-99975000D01*
X157475620Y-99975000D01*
X157475620Y-97625030D01*
X157525620Y-97625030D01*
X157525620Y-99975000D01*
X157900740Y-99975000D01*
X157925740Y-99950000D01*
X157925740Y-97680139D01*
X158073720Y-97680139D01*
X158073720Y-99950000D01*
X158098720Y-99975000D01*
X158473840Y-99975000D01*
X158473840Y-97625030D01*
X158523840Y-97625030D01*
X158523840Y-99975000D01*
X158898960Y-99975000D01*
X158923960Y-99950000D01*
X158923960Y-97680139D01*
X159074480Y-97680139D01*
X159074480Y-99950000D01*
X159099480Y-99975000D01*
X159474600Y-99975000D01*
X159474600Y-97625030D01*
X159449600Y-97600030D01*
X159154589Y-97600030D01*
X159117835Y-97615254D01*
X159089704Y-97643384D01*
X159074480Y-97680139D01*
X158923960Y-97680139D01*
X158908736Y-97643384D01*
X158880605Y-97615254D01*
X158843851Y-97600030D01*
X158548840Y-97600030D01*
X158523840Y-97625030D01*
X158473840Y-97625030D01*
X158448840Y-97600030D01*
X158153829Y-97600030D01*
X158117075Y-97615254D01*
X158088944Y-97643384D01*
X158073720Y-97680139D01*
X157925740Y-97680139D01*
X157910516Y-97643384D01*
X157882385Y-97615254D01*
X157845631Y-97600030D01*
X157550620Y-97600030D01*
X157525620Y-97625030D01*
X157475620Y-97625030D01*
X157450620Y-97600030D01*
X157155609Y-97600030D01*
X157118855Y-97615254D01*
X157090724Y-97643384D01*
X157075500Y-97680139D01*
X156924980Y-97680139D01*
X156909756Y-97643384D01*
X156881625Y-97615254D01*
X156844871Y-97600030D01*
X156549860Y-97600030D01*
X156524860Y-97625030D01*
X156474860Y-97625030D01*
X156449860Y-97600030D01*
X156154849Y-97600030D01*
X156118095Y-97615254D01*
X156089964Y-97643384D01*
X156074740Y-97680139D01*
X155924220Y-97680139D01*
X155908996Y-97643384D01*
X155880865Y-97615254D01*
X155844111Y-97600030D01*
X155549100Y-97600030D01*
X155524100Y-97625030D01*
X155474100Y-97625030D01*
X155449100Y-97600030D01*
X155154089Y-97600030D01*
X155117335Y-97615254D01*
X155089204Y-97643384D01*
X155073980Y-97680139D01*
X154926000Y-97680139D01*
X154910776Y-97643384D01*
X154882645Y-97615254D01*
X154845891Y-97600030D01*
X154550880Y-97600030D01*
X154525880Y-97625030D01*
X154475880Y-97625030D01*
X154450880Y-97600030D01*
X154155869Y-97600030D01*
X154119115Y-97615254D01*
X154090984Y-97643384D01*
X154075760Y-97680139D01*
X153925240Y-97680139D01*
X153910016Y-97643384D01*
X153881885Y-97615254D01*
X153845131Y-97600030D01*
X153550120Y-97600030D01*
X153525120Y-97625030D01*
X153475120Y-97625030D01*
X153450120Y-97600030D01*
X153155109Y-97600030D01*
X153118355Y-97615254D01*
X153090224Y-97643384D01*
X153075000Y-97680139D01*
X152924480Y-97680139D01*
X152909256Y-97643384D01*
X152881125Y-97615254D01*
X152844371Y-97600030D01*
X152549360Y-97600030D01*
X152524360Y-97625030D01*
X152474360Y-97625030D01*
X152449360Y-97600030D01*
X152154349Y-97600030D01*
X152135205Y-97607960D01*
X152130216Y-97581445D01*
X152060132Y-97472532D01*
X151953197Y-97399466D01*
X151826260Y-97373761D01*
X151176020Y-97373761D01*
X151070380Y-97393638D01*
X151070380Y-91350380D01*
X151026991Y-91132250D01*
X150903431Y-90947329D01*
X150170381Y-90214279D01*
X161647812Y-90214279D01*
X161812190Y-90612103D01*
X162116296Y-90916740D01*
X162513833Y-91081812D01*
X162944279Y-91082188D01*
X163342103Y-90917810D01*
X163646740Y-90613704D01*
X163811812Y-90216167D01*
X163811813Y-90214279D01*
X164187812Y-90214279D01*
X164352190Y-90612103D01*
X164656296Y-90916740D01*
X165053833Y-91081812D01*
X165484279Y-91082188D01*
X165882103Y-90917810D01*
X166186740Y-90613704D01*
X166351812Y-90216167D01*
X166352188Y-89785721D01*
X166187810Y-89387897D01*
X165883704Y-89083260D01*
X165486167Y-88918188D01*
X165055721Y-88917812D01*
X164657897Y-89082190D01*
X164353260Y-89386296D01*
X164188188Y-89783833D01*
X164187812Y-90214279D01*
X163811813Y-90214279D01*
X163812188Y-89785721D01*
X163647810Y-89387897D01*
X163343704Y-89083260D01*
X162946167Y-88918188D01*
X162515721Y-88917812D01*
X162117897Y-89082190D01*
X161813260Y-89386296D01*
X161648188Y-89783833D01*
X161647812Y-90214279D01*
X150170381Y-90214279D01*
X149653051Y-89696949D01*
X149605134Y-89664932D01*
X149468130Y-89573389D01*
X149250000Y-89530000D01*
X133096102Y-89530000D01*
X132988887Y-89422785D01*
X158229892Y-89422785D01*
X158324083Y-89650743D01*
X158498339Y-89825304D01*
X158726133Y-89919893D01*
X158972785Y-89920108D01*
X159200743Y-89825917D01*
X159375304Y-89651661D01*
X159469893Y-89423867D01*
X159470055Y-89238559D01*
X160214345Y-88494269D01*
X160432000Y-88494269D01*
X160550585Y-88471956D01*
X160659498Y-88401872D01*
X160732564Y-88294937D01*
X160758269Y-88168000D01*
X160758269Y-87381000D01*
X160735956Y-87262415D01*
X160665872Y-87153502D01*
X160558937Y-87080436D01*
X160432000Y-87054731D01*
X159568000Y-87054731D01*
X159449415Y-87077044D01*
X159340502Y-87147128D01*
X159267436Y-87254063D01*
X159241731Y-87381000D01*
X159241731Y-88168000D01*
X159264044Y-88286585D01*
X159280002Y-88311384D01*
X158911334Y-88680052D01*
X158727215Y-88679892D01*
X158499257Y-88774083D01*
X158324696Y-88948339D01*
X158230107Y-89176133D01*
X158229892Y-89422785D01*
X132988887Y-89422785D01*
X132466858Y-88900756D01*
X132472078Y-88892944D01*
X132562174Y-88440000D01*
X132499418Y-88124500D01*
X134468000Y-88124500D01*
X134468000Y-88487891D01*
X134483224Y-88524645D01*
X134511354Y-88552776D01*
X134548109Y-88568000D01*
X134950000Y-88568000D01*
X134975000Y-88543000D01*
X134975000Y-88099500D01*
X135025000Y-88099500D01*
X135025000Y-88543000D01*
X135050000Y-88568000D01*
X135451891Y-88568000D01*
X135488646Y-88552776D01*
X135516776Y-88524645D01*
X135532000Y-88487891D01*
X135532000Y-88124500D01*
X135507000Y-88099500D01*
X135025000Y-88099500D01*
X134975000Y-88099500D01*
X134493000Y-88099500D01*
X134468000Y-88124500D01*
X132499418Y-88124500D01*
X132472078Y-87987056D01*
X132254288Y-87661109D01*
X134468000Y-87661109D01*
X134468000Y-88024500D01*
X134493000Y-88049500D01*
X134975000Y-88049500D01*
X134975000Y-87606000D01*
X135025000Y-87606000D01*
X135025000Y-88049500D01*
X135507000Y-88049500D01*
X135532000Y-88024500D01*
X135532000Y-87661109D01*
X135516776Y-87624355D01*
X135488646Y-87596224D01*
X135451891Y-87581000D01*
X135050000Y-87581000D01*
X135025000Y-87606000D01*
X134975000Y-87606000D01*
X134950000Y-87581000D01*
X134548109Y-87581000D01*
X134511354Y-87596224D01*
X134483224Y-87624355D01*
X134468000Y-87661109D01*
X132254288Y-87661109D01*
X132215506Y-87603068D01*
X131888065Y-87384279D01*
X136917812Y-87384279D01*
X137082190Y-87782103D01*
X137386296Y-88086740D01*
X137783833Y-88251812D01*
X138214279Y-88252188D01*
X138612103Y-88087810D01*
X138916740Y-87783704D01*
X138997173Y-87590000D01*
X142002814Y-87590000D01*
X142082190Y-87782103D01*
X142386296Y-88086740D01*
X142783833Y-88251812D01*
X143214279Y-88252188D01*
X143523306Y-88124500D01*
X146668000Y-88124500D01*
X146668000Y-88487891D01*
X146683224Y-88524645D01*
X146711354Y-88552776D01*
X146748109Y-88568000D01*
X147150000Y-88568000D01*
X147175000Y-88543000D01*
X147175000Y-88099500D01*
X147225000Y-88099500D01*
X147225000Y-88543000D01*
X147250000Y-88568000D01*
X147651891Y-88568000D01*
X147688646Y-88552776D01*
X147716776Y-88524645D01*
X147732000Y-88487891D01*
X147732000Y-88124500D01*
X147707000Y-88099500D01*
X147225000Y-88099500D01*
X147175000Y-88099500D01*
X146693000Y-88099500D01*
X146668000Y-88124500D01*
X143523306Y-88124500D01*
X143612103Y-88087810D01*
X143916740Y-87783704D01*
X143967645Y-87661109D01*
X146668000Y-87661109D01*
X146668000Y-88024500D01*
X146693000Y-88049500D01*
X147175000Y-88049500D01*
X147175000Y-87606000D01*
X147225000Y-87606000D01*
X147225000Y-88049500D01*
X147707000Y-88049500D01*
X147732000Y-88024500D01*
X147732000Y-87661109D01*
X147716776Y-87624355D01*
X147688646Y-87596224D01*
X147651891Y-87581000D01*
X147250000Y-87581000D01*
X147225000Y-87606000D01*
X147175000Y-87606000D01*
X147150000Y-87581000D01*
X146748109Y-87581000D01*
X146711354Y-87596224D01*
X146683224Y-87624355D01*
X146668000Y-87661109D01*
X143967645Y-87661109D01*
X144041071Y-87484279D01*
X148917812Y-87484279D01*
X149082190Y-87882103D01*
X149386296Y-88186740D01*
X149783833Y-88351812D01*
X150214279Y-88352188D01*
X150612103Y-88187810D01*
X150916740Y-87883704D01*
X150997173Y-87690000D01*
X154002814Y-87690000D01*
X154082190Y-87882103D01*
X154386296Y-88186740D01*
X154783833Y-88351812D01*
X155214279Y-88352188D01*
X155595912Y-88194500D01*
X157346717Y-88194500D01*
X157364044Y-88286585D01*
X157434128Y-88395498D01*
X157541063Y-88468564D01*
X157668000Y-88494269D01*
X158532000Y-88494269D01*
X158650585Y-88471956D01*
X158759498Y-88401872D01*
X158832564Y-88294937D01*
X158858269Y-88168000D01*
X158858269Y-87381000D01*
X158835956Y-87262415D01*
X158765872Y-87153502D01*
X158658937Y-87080436D01*
X158532000Y-87054731D01*
X157668000Y-87054731D01*
X157549415Y-87077044D01*
X157440502Y-87147128D01*
X157367436Y-87254063D01*
X157347097Y-87354500D01*
X156081927Y-87354500D01*
X156082188Y-87055721D01*
X155917810Y-86657897D01*
X155613704Y-86353260D01*
X155216167Y-86188188D01*
X154785721Y-86187812D01*
X154387897Y-86352190D01*
X154083260Y-86656296D01*
X154002827Y-86850000D01*
X150997186Y-86850000D01*
X150917810Y-86657897D01*
X150613704Y-86353260D01*
X150216167Y-86188188D01*
X149785721Y-86187812D01*
X149387897Y-86352190D01*
X149083260Y-86656296D01*
X148918188Y-87053833D01*
X148917812Y-87484279D01*
X144041071Y-87484279D01*
X144081812Y-87386167D01*
X144082188Y-86955721D01*
X144002093Y-86761877D01*
X145069470Y-85694500D01*
X145246717Y-85694500D01*
X145264044Y-85786585D01*
X145334128Y-85895498D01*
X145441063Y-85968564D01*
X145568000Y-85994269D01*
X146432000Y-85994269D01*
X146481127Y-85985025D01*
X146467436Y-86005063D01*
X146441731Y-86132000D01*
X146441731Y-86919000D01*
X146464044Y-87037585D01*
X146534128Y-87146498D01*
X146641063Y-87219564D01*
X146768000Y-87245269D01*
X147632000Y-87245269D01*
X147750585Y-87222956D01*
X147859498Y-87152872D01*
X147932564Y-87045937D01*
X147952903Y-86945500D01*
X148204500Y-86945500D01*
X148365227Y-86913529D01*
X148501485Y-86822485D01*
X149591869Y-85732101D01*
X149783833Y-85811812D01*
X150214279Y-85812188D01*
X150612103Y-85647810D01*
X150916740Y-85343704D01*
X151081812Y-84946167D01*
X151081813Y-84944279D01*
X153917812Y-84944279D01*
X154082190Y-85342103D01*
X154386296Y-85646740D01*
X154783833Y-85811812D01*
X155214279Y-85812188D01*
X155408123Y-85732093D01*
X156198515Y-86522485D01*
X156334773Y-86613529D01*
X156495500Y-86645500D01*
X157346717Y-86645500D01*
X157364044Y-86737585D01*
X157434128Y-86846498D01*
X157541063Y-86919564D01*
X157668000Y-86945269D01*
X158532000Y-86945269D01*
X158650585Y-86922956D01*
X158759498Y-86852872D01*
X158832564Y-86745937D01*
X158852903Y-86645500D01*
X159246717Y-86645500D01*
X159264044Y-86737585D01*
X159334128Y-86846498D01*
X159441063Y-86919564D01*
X159568000Y-86945269D01*
X160432000Y-86945269D01*
X160550585Y-86922956D01*
X160659498Y-86852872D01*
X160732564Y-86745937D01*
X160758269Y-86619000D01*
X160758269Y-86230000D01*
X161625331Y-86230000D01*
X161636496Y-86286132D01*
X161893068Y-86670120D01*
X162277056Y-86926692D01*
X162730000Y-87016788D01*
X163182944Y-86926692D01*
X163566932Y-86670120D01*
X163823504Y-86286132D01*
X163908266Y-85860000D01*
X164306400Y-85860000D01*
X164306400Y-86693491D01*
X164321624Y-86730245D01*
X164349754Y-86758376D01*
X164386509Y-86773600D01*
X165220000Y-86773600D01*
X165245000Y-86748600D01*
X165245000Y-85835000D01*
X165295000Y-85835000D01*
X165295000Y-86748600D01*
X165320000Y-86773600D01*
X166153491Y-86773600D01*
X166190246Y-86758376D01*
X166218376Y-86730245D01*
X166233600Y-86693491D01*
X166233600Y-85860000D01*
X166208600Y-85835000D01*
X165295000Y-85835000D01*
X165245000Y-85835000D01*
X164331400Y-85835000D01*
X164306400Y-85860000D01*
X163908266Y-85860000D01*
X163913600Y-85833188D01*
X163913600Y-85786812D01*
X163823504Y-85333868D01*
X163566932Y-84949880D01*
X163531955Y-84926509D01*
X164306400Y-84926509D01*
X164306400Y-85760000D01*
X164331400Y-85785000D01*
X165245000Y-85785000D01*
X165245000Y-84871400D01*
X165295000Y-84871400D01*
X165295000Y-85785000D01*
X166208600Y-85785000D01*
X166233600Y-85760000D01*
X166233600Y-84926509D01*
X166218376Y-84889755D01*
X166190246Y-84861624D01*
X166153491Y-84846400D01*
X165320000Y-84846400D01*
X165295000Y-84871400D01*
X165245000Y-84871400D01*
X165220000Y-84846400D01*
X164386509Y-84846400D01*
X164349754Y-84861624D01*
X164321624Y-84889755D01*
X164306400Y-84926509D01*
X163531955Y-84926509D01*
X163182944Y-84693308D01*
X162730000Y-84603212D01*
X162277056Y-84693308D01*
X161893068Y-84949880D01*
X161636496Y-85333868D01*
X161625331Y-85390000D01*
X160415500Y-85390000D01*
X160254773Y-85421971D01*
X160129416Y-85505731D01*
X159568000Y-85505731D01*
X159449415Y-85528044D01*
X159340502Y-85598128D01*
X159267436Y-85705063D01*
X159247097Y-85805500D01*
X158853283Y-85805500D01*
X158835956Y-85713415D01*
X158765872Y-85604502D01*
X158658937Y-85531436D01*
X158532000Y-85505731D01*
X157668000Y-85505731D01*
X157549415Y-85528044D01*
X157440502Y-85598128D01*
X157367436Y-85705063D01*
X157347097Y-85805500D01*
X156669470Y-85805500D01*
X156002101Y-85138131D01*
X156081812Y-84946167D01*
X156082188Y-84515721D01*
X155917810Y-84117897D01*
X155613704Y-83813260D01*
X155216167Y-83648188D01*
X154785721Y-83647812D01*
X154387897Y-83812190D01*
X154083260Y-84116296D01*
X153918188Y-84513833D01*
X153917812Y-84944279D01*
X151081813Y-84944279D01*
X151082188Y-84515721D01*
X150917810Y-84117897D01*
X150613704Y-83813260D01*
X150216167Y-83648188D01*
X149785721Y-83647812D01*
X149387897Y-83812190D01*
X149083260Y-84116296D01*
X148918188Y-84513833D01*
X148917812Y-84944279D01*
X148997907Y-85138123D01*
X148030530Y-86105500D01*
X147953283Y-86105500D01*
X147935956Y-86013415D01*
X147865872Y-85904502D01*
X147758937Y-85831436D01*
X147632000Y-85805731D01*
X146768000Y-85805731D01*
X146718873Y-85814975D01*
X146732564Y-85794937D01*
X146758269Y-85668000D01*
X146758269Y-84881000D01*
X146735956Y-84762415D01*
X146665872Y-84653502D01*
X146558937Y-84580436D01*
X146432000Y-84554731D01*
X145568000Y-84554731D01*
X145449415Y-84577044D01*
X145340502Y-84647128D01*
X145267436Y-84754063D01*
X145247097Y-84854500D01*
X144895500Y-84854500D01*
X144734773Y-84886471D01*
X144598515Y-84977515D01*
X143408131Y-86167899D01*
X143216167Y-86088188D01*
X142785721Y-86087812D01*
X142387897Y-86252190D01*
X142083260Y-86556296D01*
X142002827Y-86750000D01*
X138997186Y-86750000D01*
X138917810Y-86557897D01*
X138613704Y-86253260D01*
X138216167Y-86088188D01*
X137785721Y-86087812D01*
X137387897Y-86252190D01*
X137083260Y-86556296D01*
X136918188Y-86953833D01*
X136917812Y-87384279D01*
X131888065Y-87384279D01*
X131831518Y-87346496D01*
X131378574Y-87256400D01*
X131021426Y-87256400D01*
X130568482Y-87346496D01*
X130184494Y-87603068D01*
X129927922Y-87987056D01*
X129837826Y-88440000D01*
X129927922Y-88892944D01*
X130184494Y-89276932D01*
X130568482Y-89533504D01*
X131021426Y-89623600D01*
X131378574Y-89623600D01*
X131544494Y-89590596D01*
X132456949Y-90503051D01*
X132641871Y-90626612D01*
X132860000Y-90670001D01*
X132860005Y-90670000D01*
X145052426Y-90670000D01*
X145003015Y-90703015D01*
X143776008Y-91930022D01*
X143627215Y-91929892D01*
X143399257Y-92024083D01*
X143224696Y-92198339D01*
X143130107Y-92426133D01*
X143129892Y-92672785D01*
X143224083Y-92900743D01*
X143398339Y-93075304D01*
X143626133Y-93169893D01*
X143872785Y-93170108D01*
X144100743Y-93075917D01*
X144275304Y-92901661D01*
X144369893Y-92673867D01*
X144370024Y-92523946D01*
X145473970Y-91420000D01*
X146098904Y-91420000D01*
X146081871Y-91423388D01*
X145896949Y-91546949D01*
X144163898Y-93280000D01*
X143186102Y-93280000D01*
X143075600Y-93169498D01*
X143025917Y-93049257D01*
X142851661Y-92874696D01*
X142623867Y-92780107D01*
X142377215Y-92779892D01*
X142149257Y-92874083D01*
X141974696Y-93048339D01*
X141880107Y-93276133D01*
X141879892Y-93522785D01*
X141974083Y-93750743D01*
X142148339Y-93925304D01*
X142269522Y-93975624D01*
X142546949Y-94253051D01*
X142731870Y-94376611D01*
X142950000Y-94420000D01*
X144400000Y-94420000D01*
X144618130Y-94376611D01*
X144803051Y-94253051D01*
X146536102Y-92520000D01*
X148255978Y-92520000D01*
X148376133Y-92569893D01*
X148622785Y-92570108D01*
X148850743Y-92475917D01*
X149025304Y-92301661D01*
X149119893Y-92073867D01*
X149120108Y-91827215D01*
X149025917Y-91599257D01*
X148851661Y-91424696D01*
X148623867Y-91330107D01*
X148377215Y-91329892D01*
X148255945Y-91380000D01*
X147646915Y-91380000D01*
X147675304Y-91351661D01*
X147769893Y-91123867D01*
X147770108Y-90877215D01*
X147684488Y-90670000D01*
X149013898Y-90670000D01*
X149930380Y-91586482D01*
X149930380Y-97395153D01*
X149824740Y-97373761D01*
X149345000Y-97373761D01*
X149345000Y-94450000D01*
X149337410Y-94411843D01*
X149337410Y-94372939D01*
X149265096Y-94009391D01*
X149265096Y-94009390D01*
X149206116Y-93867000D01*
X149000181Y-93558798D01*
X148945691Y-93504309D01*
X148891202Y-93449819D01*
X148583000Y-93243884D01*
X148440610Y-93184904D01*
X148440609Y-93184904D01*
X148077062Y-93112590D01*
X147922939Y-93112590D01*
X147559391Y-93184904D01*
X147559390Y-93184904D01*
X147417000Y-93243884D01*
X147108798Y-93449819D01*
X147054309Y-93504309D01*
X146999819Y-93558798D01*
X146793884Y-93867000D01*
X146734904Y-94009390D01*
X146734904Y-94009391D01*
X146662590Y-94372940D01*
X146662590Y-94411843D01*
X146655000Y-94450000D01*
X146655000Y-97373761D01*
X146174760Y-97373761D01*
X146056175Y-97396074D01*
X145999545Y-97432515D01*
X145951177Y-97399466D01*
X145824240Y-97373761D01*
X145174000Y-97373761D01*
X145055415Y-97396074D01*
X145000093Y-97431673D01*
X144952957Y-97399466D01*
X144826020Y-97373761D01*
X144175780Y-97373761D01*
X144057195Y-97396074D01*
X144000565Y-97432515D01*
X143952197Y-97399466D01*
X143825260Y-97373761D01*
X143175020Y-97373761D01*
X143056435Y-97396074D01*
X142999805Y-97432515D01*
X142951437Y-97399466D01*
X142824500Y-97373761D01*
X142174260Y-97373761D01*
X142055675Y-97396074D01*
X142000353Y-97431673D01*
X141953217Y-97399466D01*
X141826280Y-97373761D01*
X141176040Y-97373761D01*
X141057455Y-97396074D01*
X141000825Y-97432515D01*
X140952457Y-97399466D01*
X140825520Y-97373761D01*
X140245000Y-97373761D01*
X140245000Y-94450000D01*
X140237410Y-94411843D01*
X140237410Y-94372939D01*
X140165096Y-94009391D01*
X140165096Y-94009390D01*
X140106116Y-93867000D01*
X139900181Y-93558798D01*
X139845691Y-93504309D01*
X139791202Y-93449819D01*
X139483000Y-93243884D01*
X139340610Y-93184904D01*
X139340609Y-93184904D01*
X138977060Y-93112590D01*
X138938157Y-93112590D01*
X138900000Y-93105000D01*
X127038903Y-93105000D01*
X126388755Y-92975677D01*
X125870565Y-92629435D01*
X125524323Y-92111245D01*
X125395000Y-91461096D01*
X125395000Y-85900000D01*
X129837826Y-85900000D01*
X129927922Y-86352944D01*
X130184494Y-86736932D01*
X130568482Y-86993504D01*
X131021426Y-87083600D01*
X131378574Y-87083600D01*
X131831518Y-86993504D01*
X132215506Y-86736932D01*
X132400587Y-86459937D01*
X132568130Y-86426611D01*
X132753051Y-86303051D01*
X132924102Y-86132000D01*
X134241731Y-86132000D01*
X134241731Y-86919000D01*
X134264044Y-87037585D01*
X134334128Y-87146498D01*
X134441063Y-87219564D01*
X134568000Y-87245269D01*
X135432000Y-87245269D01*
X135550585Y-87222956D01*
X135659498Y-87152872D01*
X135732564Y-87045937D01*
X135752903Y-86945500D01*
X136104500Y-86945500D01*
X136265227Y-86913529D01*
X136401485Y-86822485D01*
X137591869Y-85632101D01*
X137783833Y-85711812D01*
X138214279Y-85712188D01*
X138612103Y-85547810D01*
X138916740Y-85243704D01*
X139081812Y-84846167D01*
X139081813Y-84844279D01*
X141917812Y-84844279D01*
X142082190Y-85242103D01*
X142386296Y-85546740D01*
X142783833Y-85711812D01*
X143214279Y-85712188D01*
X143612103Y-85547810D01*
X143916740Y-85243704D01*
X144081812Y-84846167D01*
X144082188Y-84415721D01*
X144002093Y-84221877D01*
X144078470Y-84145500D01*
X145246717Y-84145500D01*
X145264044Y-84237585D01*
X145334128Y-84346498D01*
X145441063Y-84419564D01*
X145568000Y-84445269D01*
X146432000Y-84445269D01*
X146550585Y-84422956D01*
X146659498Y-84352872D01*
X146732564Y-84245937D01*
X146758269Y-84119000D01*
X146758269Y-83332000D01*
X146735956Y-83213415D01*
X146708019Y-83170000D01*
X159324874Y-83170000D01*
X159267436Y-83254063D01*
X159242035Y-83379500D01*
X158506282Y-83379500D01*
X158401661Y-83274696D01*
X158173867Y-83180107D01*
X157927215Y-83179892D01*
X157699257Y-83274083D01*
X157524696Y-83448339D01*
X157430107Y-83676133D01*
X157429892Y-83922785D01*
X157524083Y-84150743D01*
X157698339Y-84325304D01*
X157926133Y-84419893D01*
X158172785Y-84420108D01*
X158400743Y-84325917D01*
X158557434Y-84169500D01*
X159242013Y-84169500D01*
X159264044Y-84286585D01*
X159334128Y-84395498D01*
X159441063Y-84468564D01*
X159568000Y-84494269D01*
X160432000Y-84494269D01*
X160550585Y-84471956D01*
X160659498Y-84401872D01*
X160732564Y-84294937D01*
X160758269Y-84168000D01*
X160758269Y-83381000D01*
X160735956Y-83262415D01*
X160665872Y-83153502D01*
X160558937Y-83080436D01*
X160432000Y-83054731D01*
X159760892Y-83054731D01*
X159772485Y-83046985D01*
X159874201Y-82945269D01*
X160432000Y-82945269D01*
X160550585Y-82922956D01*
X160659498Y-82852872D01*
X160732564Y-82745937D01*
X160752903Y-82645500D01*
X161511530Y-82645500D01*
X161645870Y-82779840D01*
X161636496Y-82793868D01*
X161546400Y-83246812D01*
X161546400Y-83293188D01*
X161636496Y-83746132D01*
X161893068Y-84130120D01*
X162277056Y-84386692D01*
X162730000Y-84476788D01*
X163182944Y-84386692D01*
X163566932Y-84130120D01*
X163823504Y-83746132D01*
X163883326Y-83445382D01*
X164322491Y-83445382D01*
X164461732Y-83794628D01*
X164724024Y-84064004D01*
X165069436Y-84212500D01*
X165094618Y-84217506D01*
X165245000Y-84208267D01*
X165245000Y-83295000D01*
X165295000Y-83295000D01*
X165295000Y-84208267D01*
X165445382Y-84217506D01*
X165470564Y-84212500D01*
X165815976Y-84064004D01*
X166078268Y-83794628D01*
X166217509Y-83445382D01*
X166208279Y-83295000D01*
X165295000Y-83295000D01*
X165245000Y-83295000D01*
X164331721Y-83295000D01*
X164322491Y-83445382D01*
X163883326Y-83445382D01*
X163913600Y-83293188D01*
X163913600Y-83246812D01*
X163883327Y-83094618D01*
X164322491Y-83094618D01*
X164331721Y-83245000D01*
X165245000Y-83245000D01*
X165245000Y-82331733D01*
X165295000Y-82331733D01*
X165295000Y-83245000D01*
X166208279Y-83245000D01*
X166217509Y-83094618D01*
X166078268Y-82745372D01*
X165815976Y-82475996D01*
X165470564Y-82327500D01*
X165445382Y-82322494D01*
X165295000Y-82331733D01*
X165245000Y-82331733D01*
X165094618Y-82322494D01*
X165069436Y-82327500D01*
X164724024Y-82475996D01*
X164461732Y-82745372D01*
X164322491Y-83094618D01*
X163883327Y-83094618D01*
X163823504Y-82793868D01*
X163566932Y-82409880D01*
X163182944Y-82153308D01*
X162730000Y-82063212D01*
X162277056Y-82153308D01*
X162235227Y-82181257D01*
X161982485Y-81928515D01*
X161846227Y-81837471D01*
X161685500Y-81805500D01*
X160753283Y-81805500D01*
X160735956Y-81713415D01*
X160665872Y-81604502D01*
X160558937Y-81531436D01*
X160432000Y-81505731D01*
X159568000Y-81505731D01*
X159449415Y-81528044D01*
X159340502Y-81598128D01*
X159267436Y-81705063D01*
X159241731Y-81832000D01*
X159241731Y-82330000D01*
X146350000Y-82330000D01*
X146189273Y-82361971D01*
X146053015Y-82453015D01*
X145703015Y-82803015D01*
X145611971Y-82939273D01*
X145598752Y-83005731D01*
X145568000Y-83005731D01*
X145449415Y-83028044D01*
X145340502Y-83098128D01*
X145267436Y-83205063D01*
X145247097Y-83305500D01*
X143904500Y-83305500D01*
X143743773Y-83337471D01*
X143607515Y-83428515D01*
X143408131Y-83627899D01*
X143216167Y-83548188D01*
X142785721Y-83547812D01*
X142387897Y-83712190D01*
X142083260Y-84016296D01*
X141918188Y-84413833D01*
X141917812Y-84844279D01*
X139081813Y-84844279D01*
X139082188Y-84415721D01*
X138917810Y-84017897D01*
X138613704Y-83713260D01*
X138216167Y-83548188D01*
X137785721Y-83547812D01*
X137387897Y-83712190D01*
X137083260Y-84016296D01*
X136918188Y-84413833D01*
X136917812Y-84844279D01*
X136997907Y-85038123D01*
X135930530Y-86105500D01*
X135753283Y-86105500D01*
X135735956Y-86013415D01*
X135665872Y-85904502D01*
X135558937Y-85831436D01*
X135432000Y-85805731D01*
X134568000Y-85805731D01*
X134449415Y-85828044D01*
X134340502Y-85898128D01*
X134267436Y-86005063D01*
X134241731Y-86132000D01*
X132924102Y-86132000D01*
X133953051Y-85103051D01*
X133988498Y-85050000D01*
X134076611Y-84918130D01*
X134120000Y-84700000D01*
X134120000Y-82336102D01*
X135036102Y-81420000D01*
X157855978Y-81420000D01*
X157976133Y-81469893D01*
X158222785Y-81470108D01*
X158450743Y-81375917D01*
X158625304Y-81201661D01*
X158719893Y-80973867D01*
X158720108Y-80727215D01*
X158625917Y-80499257D01*
X158451661Y-80324696D01*
X158223867Y-80230107D01*
X157977215Y-80229892D01*
X157855945Y-80280000D01*
X134800000Y-80280000D01*
X134581870Y-80323389D01*
X134473951Y-80395498D01*
X134396949Y-80446949D01*
X133146949Y-81696949D01*
X133023389Y-81881870D01*
X132980000Y-82100000D01*
X132980000Y-84463898D01*
X132281725Y-85162173D01*
X132215506Y-85063068D01*
X131831518Y-84806496D01*
X131378574Y-84716400D01*
X131021426Y-84716400D01*
X130568482Y-84806496D01*
X130184494Y-85063068D01*
X129927922Y-85447056D01*
X129837826Y-85900000D01*
X125395000Y-85900000D01*
X125395000Y-82496400D01*
X129857731Y-82496400D01*
X129857731Y-84223600D01*
X129880044Y-84342185D01*
X129950128Y-84451098D01*
X130057063Y-84524164D01*
X130184000Y-84549869D01*
X132216000Y-84549869D01*
X132334585Y-84527556D01*
X132443498Y-84457472D01*
X132516564Y-84350537D01*
X132542269Y-84223600D01*
X132542269Y-82496400D01*
X132519956Y-82377815D01*
X132449872Y-82268902D01*
X132342937Y-82195836D01*
X132216000Y-82170131D01*
X130184000Y-82170131D01*
X130065415Y-82192444D01*
X129956502Y-82262528D01*
X129883436Y-82369463D01*
X129857731Y-82496400D01*
X125395000Y-82496400D01*
X125395000Y-75081000D01*
X134241731Y-75081000D01*
X134241731Y-75868000D01*
X134264044Y-75986585D01*
X134334128Y-76095498D01*
X134441063Y-76168564D01*
X134568000Y-76194269D01*
X135432000Y-76194269D01*
X135550585Y-76171956D01*
X135659498Y-76101872D01*
X135732564Y-75994937D01*
X135752903Y-75894500D01*
X136030530Y-75894500D01*
X136997899Y-76861869D01*
X136918188Y-77053833D01*
X136917812Y-77484279D01*
X137082190Y-77882103D01*
X137386296Y-78186740D01*
X137783833Y-78351812D01*
X138214279Y-78352188D01*
X138612103Y-78187810D01*
X138916740Y-77883704D01*
X139081812Y-77486167D01*
X139081813Y-77484279D01*
X141917812Y-77484279D01*
X142082190Y-77882103D01*
X142386296Y-78186740D01*
X142783833Y-78351812D01*
X143214279Y-78352188D01*
X143408123Y-78272093D01*
X143707515Y-78571485D01*
X143843773Y-78662529D01*
X143870440Y-78667834D01*
X144004500Y-78694501D01*
X144004505Y-78694500D01*
X145246717Y-78694500D01*
X145264044Y-78786585D01*
X145334128Y-78895498D01*
X145441063Y-78968564D01*
X145568000Y-78994269D01*
X145580000Y-78994269D01*
X145580000Y-79000000D01*
X145611971Y-79160727D01*
X145703015Y-79296985D01*
X146003015Y-79596985D01*
X146139273Y-79688029D01*
X146300000Y-79720000D01*
X158376030Y-79720000D01*
X158727515Y-80071485D01*
X158863773Y-80162529D01*
X159024500Y-80194500D01*
X159246717Y-80194500D01*
X159264044Y-80286585D01*
X159334128Y-80395498D01*
X159441063Y-80468564D01*
X159568000Y-80494269D01*
X160432000Y-80494269D01*
X160550585Y-80471956D01*
X160659498Y-80401872D01*
X160732564Y-80294937D01*
X160752903Y-80194500D01*
X161600530Y-80194500D01*
X161645870Y-80239840D01*
X161636496Y-80253868D01*
X161546400Y-80706812D01*
X161546400Y-80753188D01*
X161636496Y-81206132D01*
X161893068Y-81590120D01*
X162277056Y-81846692D01*
X162730000Y-81936788D01*
X163182944Y-81846692D01*
X163566932Y-81590120D01*
X163823504Y-81206132D01*
X163883326Y-80905382D01*
X164322491Y-80905382D01*
X164461732Y-81254628D01*
X164724024Y-81524004D01*
X165069436Y-81672500D01*
X165094618Y-81677506D01*
X165245000Y-81668267D01*
X165245000Y-80755000D01*
X165295000Y-80755000D01*
X165295000Y-81668267D01*
X165445382Y-81677506D01*
X165470564Y-81672500D01*
X165815976Y-81524004D01*
X166078268Y-81254628D01*
X166217509Y-80905382D01*
X166208279Y-80755000D01*
X165295000Y-80755000D01*
X165245000Y-80755000D01*
X164331721Y-80755000D01*
X164322491Y-80905382D01*
X163883326Y-80905382D01*
X163913600Y-80753188D01*
X163913600Y-80706812D01*
X163883327Y-80554618D01*
X164322491Y-80554618D01*
X164331721Y-80705000D01*
X165245000Y-80705000D01*
X165245000Y-79791733D01*
X165295000Y-79791733D01*
X165295000Y-80705000D01*
X166208279Y-80705000D01*
X166217509Y-80554618D01*
X166078268Y-80205372D01*
X165815976Y-79935996D01*
X165470564Y-79787500D01*
X165445382Y-79782494D01*
X165295000Y-79791733D01*
X165245000Y-79791733D01*
X165094618Y-79782494D01*
X165069436Y-79787500D01*
X164724024Y-79935996D01*
X164461732Y-80205372D01*
X164322491Y-80554618D01*
X163883327Y-80554618D01*
X163823504Y-80253868D01*
X163566932Y-79869880D01*
X163182944Y-79613308D01*
X162730000Y-79523212D01*
X162277056Y-79613308D01*
X162235227Y-79641257D01*
X162071485Y-79477515D01*
X161935227Y-79386471D01*
X161774500Y-79354500D01*
X160753283Y-79354500D01*
X160735956Y-79262415D01*
X160665872Y-79153502D01*
X160558937Y-79080436D01*
X160432000Y-79054731D01*
X159568000Y-79054731D01*
X159449415Y-79077044D01*
X159340502Y-79147128D01*
X159267436Y-79254063D01*
X159247097Y-79354500D01*
X159198470Y-79354500D01*
X158846985Y-79003015D01*
X158710727Y-78911971D01*
X158550000Y-78880000D01*
X146674443Y-78880000D01*
X146732564Y-78794937D01*
X146758269Y-78668000D01*
X146758269Y-77881000D01*
X146735956Y-77762415D01*
X146665872Y-77653502D01*
X146558937Y-77580436D01*
X146432000Y-77554731D01*
X145568000Y-77554731D01*
X145449415Y-77577044D01*
X145340502Y-77647128D01*
X145267436Y-77754063D01*
X145247097Y-77854500D01*
X144178470Y-77854500D01*
X144002101Y-77678131D01*
X144081812Y-77486167D01*
X144082188Y-77055721D01*
X143917810Y-76657897D01*
X143613704Y-76353260D01*
X143216167Y-76188188D01*
X142785721Y-76187812D01*
X142387897Y-76352190D01*
X142083260Y-76656296D01*
X141918188Y-77053833D01*
X141917812Y-77484279D01*
X139081813Y-77484279D01*
X139082188Y-77055721D01*
X138917810Y-76657897D01*
X138613704Y-76353260D01*
X138216167Y-76188188D01*
X137785721Y-76187812D01*
X137591877Y-76267907D01*
X136501485Y-75177515D01*
X136365227Y-75086471D01*
X136204500Y-75054500D01*
X135753283Y-75054500D01*
X135735956Y-74962415D01*
X135724286Y-74944279D01*
X136917812Y-74944279D01*
X137082190Y-75342103D01*
X137386296Y-75646740D01*
X137783833Y-75811812D01*
X138214279Y-75812188D01*
X138612103Y-75647810D01*
X138916740Y-75343704D01*
X138997173Y-75150000D01*
X142002814Y-75150000D01*
X142082190Y-75342103D01*
X142386296Y-75646740D01*
X142783833Y-75811812D01*
X143214279Y-75812188D01*
X143408123Y-75732093D01*
X144698515Y-77022485D01*
X144834773Y-77113529D01*
X144995500Y-77145500D01*
X145246717Y-77145500D01*
X145264044Y-77237585D01*
X145334128Y-77346498D01*
X145441063Y-77419564D01*
X145568000Y-77445269D01*
X146432000Y-77445269D01*
X146550585Y-77422956D01*
X146659498Y-77352872D01*
X146732564Y-77245937D01*
X146758269Y-77119000D01*
X146758269Y-76332000D01*
X146735956Y-76213415D01*
X146665872Y-76104502D01*
X146650896Y-76094269D01*
X147432000Y-76094269D01*
X147550585Y-76071956D01*
X147659498Y-76001872D01*
X147732564Y-75894937D01*
X147752903Y-75794500D01*
X147930530Y-75794500D01*
X148997899Y-76861869D01*
X148918188Y-77053833D01*
X148917812Y-77484279D01*
X149082190Y-77882103D01*
X149386296Y-78186740D01*
X149783833Y-78351812D01*
X150214279Y-78352188D01*
X150612103Y-78187810D01*
X150916740Y-77883704D01*
X151081812Y-77486167D01*
X151081813Y-77484279D01*
X153917812Y-77484279D01*
X154082190Y-77882103D01*
X154386296Y-78186740D01*
X154783833Y-78351812D01*
X155214279Y-78352188D01*
X155612103Y-78187810D01*
X155916740Y-77883704D01*
X156081812Y-77486167D01*
X156081954Y-77322785D01*
X157479892Y-77322785D01*
X157574083Y-77550743D01*
X157748339Y-77725304D01*
X157976133Y-77819893D01*
X158222785Y-77820108D01*
X158450743Y-77725917D01*
X158581889Y-77595000D01*
X159345363Y-77595000D01*
X159340502Y-77598128D01*
X159267436Y-77705063D01*
X159241731Y-77832000D01*
X159241731Y-78619000D01*
X159264044Y-78737585D01*
X159334128Y-78846498D01*
X159441063Y-78919564D01*
X159568000Y-78945269D01*
X160432000Y-78945269D01*
X160550585Y-78922956D01*
X160659498Y-78852872D01*
X160732564Y-78745937D01*
X160758269Y-78619000D01*
X160758269Y-77832000D01*
X160735956Y-77713415D01*
X160665872Y-77604502D01*
X160558937Y-77531436D01*
X160432000Y-77505731D01*
X160366303Y-77505731D01*
X160364932Y-77498840D01*
X160279307Y-77370693D01*
X159829307Y-76920693D01*
X159701160Y-76835068D01*
X159550000Y-76805000D01*
X158581737Y-76805000D01*
X158451661Y-76674696D01*
X158223867Y-76580107D01*
X157977215Y-76579892D01*
X157749257Y-76674083D01*
X157574696Y-76848339D01*
X157480107Y-77076133D01*
X157479892Y-77322785D01*
X156081954Y-77322785D01*
X156082188Y-77055721D01*
X156002093Y-76861877D01*
X156669470Y-76194500D01*
X157346717Y-76194500D01*
X157364044Y-76286585D01*
X157434128Y-76395498D01*
X157541063Y-76468564D01*
X157668000Y-76494269D01*
X158532000Y-76494269D01*
X158650585Y-76471956D01*
X158759498Y-76401872D01*
X158832564Y-76294937D01*
X158852903Y-76194500D01*
X159246717Y-76194500D01*
X159264044Y-76286585D01*
X159334128Y-76395498D01*
X159441063Y-76468564D01*
X159568000Y-76494269D01*
X160125799Y-76494269D01*
X161588200Y-77956670D01*
X161546400Y-78166812D01*
X161546400Y-78213188D01*
X161636496Y-78666132D01*
X161893068Y-79050120D01*
X162277056Y-79306692D01*
X162730000Y-79396788D01*
X163182944Y-79306692D01*
X163566932Y-79050120D01*
X163823504Y-78666132D01*
X163883326Y-78365382D01*
X164322491Y-78365382D01*
X164461732Y-78714628D01*
X164724024Y-78984004D01*
X165069436Y-79132500D01*
X165094618Y-79137506D01*
X165245000Y-79128267D01*
X165245000Y-78215000D01*
X165295000Y-78215000D01*
X165295000Y-79128267D01*
X165445382Y-79137506D01*
X165470564Y-79132500D01*
X165815976Y-78984004D01*
X166078268Y-78714628D01*
X166217509Y-78365382D01*
X166208279Y-78215000D01*
X165295000Y-78215000D01*
X165245000Y-78215000D01*
X164331721Y-78215000D01*
X164322491Y-78365382D01*
X163883326Y-78365382D01*
X163913600Y-78213188D01*
X163913600Y-78166812D01*
X163883327Y-78014618D01*
X164322491Y-78014618D01*
X164331721Y-78165000D01*
X165245000Y-78165000D01*
X165245000Y-77251733D01*
X165295000Y-77251733D01*
X165295000Y-78165000D01*
X166208279Y-78165000D01*
X166217509Y-78014618D01*
X166078268Y-77665372D01*
X165815976Y-77395996D01*
X165470564Y-77247500D01*
X165445382Y-77242494D01*
X165295000Y-77251733D01*
X165245000Y-77251733D01*
X165094618Y-77242494D01*
X165069436Y-77247500D01*
X164724024Y-77395996D01*
X164461732Y-77665372D01*
X164322491Y-78014618D01*
X163883327Y-78014618D01*
X163823504Y-77713868D01*
X163566932Y-77329880D01*
X163182944Y-77073308D01*
X162730000Y-76983212D01*
X162277056Y-77073308D01*
X162046698Y-77227228D01*
X160758269Y-75938799D01*
X160758269Y-75381000D01*
X160735956Y-75262415D01*
X160665872Y-75153502D01*
X160558937Y-75080436D01*
X160432000Y-75054731D01*
X159568000Y-75054731D01*
X159449415Y-75077044D01*
X159340502Y-75147128D01*
X159267436Y-75254063D01*
X159247097Y-75354500D01*
X158853283Y-75354500D01*
X158835956Y-75262415D01*
X158765872Y-75153502D01*
X158658937Y-75080436D01*
X158532000Y-75054731D01*
X157668000Y-75054731D01*
X157549415Y-75077044D01*
X157440502Y-75147128D01*
X157367436Y-75254063D01*
X157347097Y-75354500D01*
X156495500Y-75354500D01*
X156334773Y-75386471D01*
X156198515Y-75477515D01*
X155408131Y-76267899D01*
X155216167Y-76188188D01*
X154785721Y-76187812D01*
X154387897Y-76352190D01*
X154083260Y-76656296D01*
X153918188Y-77053833D01*
X153917812Y-77484279D01*
X151081813Y-77484279D01*
X151082188Y-77055721D01*
X150917810Y-76657897D01*
X150613704Y-76353260D01*
X150216167Y-76188188D01*
X149785721Y-76187812D01*
X149591877Y-76267907D01*
X148401485Y-75077515D01*
X148265227Y-74986471D01*
X148104500Y-74954500D01*
X147753283Y-74954500D01*
X147751360Y-74944279D01*
X148917812Y-74944279D01*
X149082190Y-75342103D01*
X149386296Y-75646740D01*
X149783833Y-75811812D01*
X150214279Y-75812188D01*
X150612103Y-75647810D01*
X150916740Y-75343704D01*
X150997173Y-75150000D01*
X154002814Y-75150000D01*
X154082190Y-75342103D01*
X154386296Y-75646740D01*
X154783833Y-75811812D01*
X155214279Y-75812188D01*
X155612103Y-75647810D01*
X155916740Y-75343704D01*
X156081812Y-74946167D01*
X156082075Y-74645500D01*
X157346717Y-74645500D01*
X157364044Y-74737585D01*
X157434128Y-74846498D01*
X157541063Y-74919564D01*
X157668000Y-74945269D01*
X158532000Y-74945269D01*
X158650585Y-74922956D01*
X158759498Y-74852872D01*
X158832564Y-74745937D01*
X158858269Y-74619000D01*
X158858269Y-73832000D01*
X158835956Y-73713415D01*
X158765872Y-73604502D01*
X158658937Y-73531436D01*
X158564539Y-73512320D01*
X158581889Y-73495000D01*
X159586386Y-73495000D01*
X159597117Y-73505731D01*
X159568000Y-73505731D01*
X159449415Y-73528044D01*
X159340502Y-73598128D01*
X159267436Y-73705063D01*
X159241731Y-73832000D01*
X159241731Y-74619000D01*
X159264044Y-74737585D01*
X159334128Y-74846498D01*
X159441063Y-74919564D01*
X159568000Y-74945269D01*
X160432000Y-74945269D01*
X160550585Y-74922956D01*
X160659498Y-74852872D01*
X160732564Y-74745937D01*
X160758269Y-74619000D01*
X160758269Y-74214279D01*
X161647812Y-74214279D01*
X161812190Y-74612103D01*
X162116296Y-74916740D01*
X162513833Y-75081812D01*
X162944279Y-75082188D01*
X163342103Y-74917810D01*
X163646740Y-74613704D01*
X163811812Y-74216167D01*
X163811813Y-74214279D01*
X164187812Y-74214279D01*
X164352190Y-74612103D01*
X164656296Y-74916740D01*
X165053833Y-75081812D01*
X165484279Y-75082188D01*
X165882103Y-74917810D01*
X166186740Y-74613704D01*
X166351812Y-74216167D01*
X166352188Y-73785721D01*
X166187810Y-73387897D01*
X165883704Y-73083260D01*
X165486167Y-72918188D01*
X165055721Y-72917812D01*
X164657897Y-73082190D01*
X164353260Y-73386296D01*
X164188188Y-73783833D01*
X164187812Y-74214279D01*
X163811813Y-74214279D01*
X163812188Y-73785721D01*
X163647810Y-73387897D01*
X163343704Y-73083260D01*
X162946167Y-72918188D01*
X162515721Y-72917812D01*
X162117897Y-73082190D01*
X161813260Y-73386296D01*
X161648188Y-73783833D01*
X161647812Y-74214279D01*
X160758269Y-74214279D01*
X160758269Y-73832000D01*
X160735956Y-73713415D01*
X160665872Y-73604502D01*
X160558937Y-73531436D01*
X160432000Y-73505731D01*
X160395000Y-73505731D01*
X160395000Y-73350000D01*
X160364932Y-73198840D01*
X160279307Y-73070693D01*
X160029307Y-72820693D01*
X159901160Y-72735068D01*
X159750000Y-72705000D01*
X158581737Y-72705000D01*
X158451661Y-72574696D01*
X158223867Y-72480107D01*
X157977215Y-72479892D01*
X157749257Y-72574083D01*
X157574696Y-72748339D01*
X157480107Y-72976133D01*
X157479892Y-73222785D01*
X157574083Y-73450743D01*
X157635146Y-73511913D01*
X157549415Y-73528044D01*
X157440502Y-73598128D01*
X157367436Y-73705063D01*
X157347097Y-73805500D01*
X155595016Y-73805500D01*
X155216167Y-73648188D01*
X154785721Y-73647812D01*
X154387897Y-73812190D01*
X154083260Y-74116296D01*
X154002827Y-74310000D01*
X150997186Y-74310000D01*
X150917810Y-74117897D01*
X150613704Y-73813260D01*
X150216167Y-73648188D01*
X149785721Y-73647812D01*
X149387897Y-73812190D01*
X149083260Y-74116296D01*
X148918188Y-74513833D01*
X148917812Y-74944279D01*
X147751360Y-74944279D01*
X147735956Y-74862415D01*
X147665872Y-74753502D01*
X147558937Y-74680436D01*
X147432000Y-74654731D01*
X146568000Y-74654731D01*
X146449415Y-74677044D01*
X146340502Y-74747128D01*
X146267436Y-74854063D01*
X146241731Y-74981000D01*
X146241731Y-75768000D01*
X146264044Y-75886585D01*
X146334128Y-75995498D01*
X146349104Y-76005731D01*
X145568000Y-76005731D01*
X145449415Y-76028044D01*
X145340502Y-76098128D01*
X145267436Y-76205063D01*
X145247097Y-76305500D01*
X145169470Y-76305500D01*
X144002101Y-75138131D01*
X144081812Y-74946167D01*
X144082188Y-74515721D01*
X143917810Y-74117897D01*
X143675836Y-73875500D01*
X146468000Y-73875500D01*
X146468000Y-74238891D01*
X146483224Y-74275645D01*
X146511354Y-74303776D01*
X146548109Y-74319000D01*
X146950000Y-74319000D01*
X146975000Y-74294000D01*
X146975000Y-73850500D01*
X147025000Y-73850500D01*
X147025000Y-74294000D01*
X147050000Y-74319000D01*
X147451891Y-74319000D01*
X147488646Y-74303776D01*
X147516776Y-74275645D01*
X147532000Y-74238891D01*
X147532000Y-73875500D01*
X147507000Y-73850500D01*
X147025000Y-73850500D01*
X146975000Y-73850500D01*
X146493000Y-73850500D01*
X146468000Y-73875500D01*
X143675836Y-73875500D01*
X143613704Y-73813260D01*
X143216167Y-73648188D01*
X142785721Y-73647812D01*
X142387897Y-73812190D01*
X142083260Y-74116296D01*
X142002827Y-74310000D01*
X138997186Y-74310000D01*
X138917810Y-74117897D01*
X138613704Y-73813260D01*
X138216167Y-73648188D01*
X137785721Y-73647812D01*
X137387897Y-73812190D01*
X137083260Y-74116296D01*
X136918188Y-74513833D01*
X136917812Y-74944279D01*
X135724286Y-74944279D01*
X135665872Y-74853502D01*
X135558937Y-74780436D01*
X135432000Y-74754731D01*
X134568000Y-74754731D01*
X134449415Y-74777044D01*
X134340502Y-74847128D01*
X134267436Y-74954063D01*
X134241731Y-75081000D01*
X125395000Y-75081000D01*
X125395000Y-73975500D01*
X134468000Y-73975500D01*
X134468000Y-74338891D01*
X134483224Y-74375645D01*
X134511354Y-74403776D01*
X134548109Y-74419000D01*
X134950000Y-74419000D01*
X134975000Y-74394000D01*
X134975000Y-73950500D01*
X135025000Y-73950500D01*
X135025000Y-74394000D01*
X135050000Y-74419000D01*
X135451891Y-74419000D01*
X135488646Y-74403776D01*
X135516776Y-74375645D01*
X135532000Y-74338891D01*
X135532000Y-73975500D01*
X135507000Y-73950500D01*
X135025000Y-73950500D01*
X134975000Y-73950500D01*
X134493000Y-73950500D01*
X134468000Y-73975500D01*
X125395000Y-73975500D01*
X125395000Y-73512109D01*
X134468000Y-73512109D01*
X134468000Y-73875500D01*
X134493000Y-73900500D01*
X134975000Y-73900500D01*
X134975000Y-73457000D01*
X135025000Y-73457000D01*
X135025000Y-73900500D01*
X135507000Y-73900500D01*
X135532000Y-73875500D01*
X135532000Y-73512109D01*
X135516776Y-73475355D01*
X135488646Y-73447224D01*
X135451891Y-73432000D01*
X135050000Y-73432000D01*
X135025000Y-73457000D01*
X134975000Y-73457000D01*
X134950000Y-73432000D01*
X134548109Y-73432000D01*
X134511354Y-73447224D01*
X134483224Y-73475355D01*
X134468000Y-73512109D01*
X125395000Y-73512109D01*
X125395000Y-73412109D01*
X146468000Y-73412109D01*
X146468000Y-73775500D01*
X146493000Y-73800500D01*
X146975000Y-73800500D01*
X146975000Y-73357000D01*
X147025000Y-73357000D01*
X147025000Y-73800500D01*
X147507000Y-73800500D01*
X147532000Y-73775500D01*
X147532000Y-73412109D01*
X147516776Y-73375355D01*
X147488646Y-73347224D01*
X147451891Y-73332000D01*
X147050000Y-73332000D01*
X147025000Y-73357000D01*
X146975000Y-73357000D01*
X146950000Y-73332000D01*
X146548109Y-73332000D01*
X146511354Y-73347224D01*
X146483224Y-73375355D01*
X146468000Y-73412109D01*
X125395000Y-73412109D01*
X125395000Y-72038904D01*
X125524323Y-71388755D01*
X125870565Y-70870565D01*
X126388755Y-70524323D01*
X127038903Y-70395000D01*
X169561098Y-70395000D01*
X169597716Y-70402284D01*
X169597716Y-70402284D01*
G37*
X169597716Y-70402284D02*
X169605000Y-70438903D01*
X169605000Y-93061097D01*
X169597716Y-93097716D01*
X169561098Y-93105000D01*
X161100000Y-93105000D01*
X161061843Y-93112590D01*
X161022939Y-93112590D01*
X160659391Y-93184904D01*
X160659390Y-93184904D01*
X160517000Y-93243884D01*
X160208798Y-93449819D01*
X160154309Y-93504309D01*
X160099819Y-93558798D01*
X159893884Y-93867000D01*
X159834904Y-94009390D01*
X159834904Y-94009391D01*
X159762590Y-94372940D01*
X159762590Y-94411843D01*
X159755000Y-94450000D01*
X159755000Y-97600030D01*
X159549600Y-97600030D01*
X159524600Y-97625030D01*
X159524600Y-99975000D01*
X159544600Y-99975000D01*
X159544600Y-100025000D01*
X159524600Y-100025000D01*
X159524600Y-100045000D01*
X159474600Y-100045000D01*
X159474600Y-100025000D01*
X159099480Y-100025000D01*
X159074480Y-100050000D01*
X159074480Y-102220746D01*
X159072993Y-102224532D01*
X159074480Y-102305174D01*
X159074480Y-102319861D01*
X159074763Y-102320545D01*
X159076111Y-102393626D01*
X159134821Y-102535365D01*
X159193647Y-102571838D01*
X159365515Y-102399970D01*
X159436225Y-102399970D01*
X159229002Y-102607193D01*
X159265475Y-102666019D01*
X159422892Y-102727847D01*
X159591986Y-102724729D01*
X159733725Y-102666019D01*
X159755000Y-102631705D01*
X159755000Y-102861097D01*
X159747716Y-102897716D01*
X159711098Y-102905000D01*
X151729269Y-102905000D01*
X151866094Y-102848465D01*
X152047728Y-102667148D01*
X152118535Y-102496626D01*
X152134581Y-102535365D01*
X152193407Y-102571838D01*
X152365275Y-102399970D01*
X152435985Y-102399970D01*
X152228762Y-102607193D01*
X152265235Y-102666019D01*
X152422652Y-102727847D01*
X152591746Y-102724729D01*
X152733485Y-102666019D01*
X152769958Y-102607193D01*
X152562735Y-102399970D01*
X152633445Y-102399970D01*
X152805313Y-102571838D01*
X152864139Y-102535365D01*
X152925967Y-102377948D01*
X152924480Y-102297306D01*
X152924480Y-102224532D01*
X153073513Y-102224532D01*
X153075000Y-102305174D01*
X153075000Y-102319861D01*
X153075283Y-102320545D01*
X153076631Y-102393626D01*
X153135341Y-102535365D01*
X153194167Y-102571838D01*
X153366035Y-102399970D01*
X153436745Y-102399970D01*
X153229522Y-102607193D01*
X153265995Y-102666019D01*
X153423412Y-102727847D01*
X153592506Y-102724729D01*
X153734245Y-102666019D01*
X153770718Y-102607193D01*
X153563495Y-102399970D01*
X153634205Y-102399970D01*
X153806073Y-102571838D01*
X153864899Y-102535365D01*
X153926727Y-102377948D01*
X153925240Y-102297306D01*
X153925240Y-102224532D01*
X154074273Y-102224532D01*
X154075760Y-102305174D01*
X154075760Y-102319861D01*
X154076043Y-102320545D01*
X154077391Y-102393626D01*
X154136101Y-102535365D01*
X154194927Y-102571838D01*
X154366795Y-102399970D01*
X154437505Y-102399970D01*
X154230282Y-102607193D01*
X154266755Y-102666019D01*
X154424172Y-102727847D01*
X154593266Y-102724729D01*
X154735005Y-102666019D01*
X154771478Y-102607193D01*
X154564255Y-102399970D01*
X154634965Y-102399970D01*
X154806833Y-102571838D01*
X154865659Y-102535365D01*
X154927487Y-102377948D01*
X154926000Y-102297306D01*
X154926000Y-102224532D01*
X155072493Y-102224532D01*
X155073980Y-102305174D01*
X155073980Y-102319861D01*
X155074263Y-102320545D01*
X155075611Y-102393626D01*
X155134321Y-102535365D01*
X155193147Y-102571838D01*
X155365015Y-102399970D01*
X155435725Y-102399970D01*
X155228502Y-102607193D01*
X155264975Y-102666019D01*
X155422392Y-102727847D01*
X155591486Y-102724729D01*
X155733225Y-102666019D01*
X155769698Y-102607193D01*
X155562475Y-102399970D01*
X155633185Y-102399970D01*
X155805053Y-102571838D01*
X155863879Y-102535365D01*
X155925707Y-102377948D01*
X155924220Y-102297306D01*
X155924220Y-102224532D01*
X156073253Y-102224532D01*
X156074740Y-102305174D01*
X156074740Y-102319861D01*
X156075023Y-102320545D01*
X156076371Y-102393626D01*
X156135081Y-102535365D01*
X156193907Y-102571838D01*
X156365775Y-102399970D01*
X156436485Y-102399970D01*
X156229262Y-102607193D01*
X156265735Y-102666019D01*
X156423152Y-102727847D01*
X156592246Y-102724729D01*
X156733985Y-102666019D01*
X156770458Y-102607193D01*
X156563235Y-102399970D01*
X156633945Y-102399970D01*
X156805813Y-102571838D01*
X156864639Y-102535365D01*
X156926467Y-102377948D01*
X156924980Y-102297306D01*
X156924980Y-102224532D01*
X157074013Y-102224532D01*
X157075500Y-102305174D01*
X157075500Y-102319861D01*
X157075783Y-102320545D01*
X157077131Y-102393626D01*
X157135841Y-102535365D01*
X157194667Y-102571838D01*
X157366535Y-102399970D01*
X157437245Y-102399970D01*
X157230022Y-102607193D01*
X157266495Y-102666019D01*
X157423912Y-102727847D01*
X157593006Y-102724729D01*
X157734745Y-102666019D01*
X157771218Y-102607193D01*
X157563995Y-102399970D01*
X157634705Y-102399970D01*
X157806573Y-102571838D01*
X157865399Y-102535365D01*
X157927227Y-102377948D01*
X157925740Y-102297306D01*
X157925740Y-102224532D01*
X158072233Y-102224532D01*
X158073720Y-102305174D01*
X158073720Y-102319861D01*
X158074003Y-102320545D01*
X158075351Y-102393626D01*
X158134061Y-102535365D01*
X158192887Y-102571838D01*
X158364755Y-102399970D01*
X158435465Y-102399970D01*
X158228242Y-102607193D01*
X158264715Y-102666019D01*
X158422132Y-102727847D01*
X158591226Y-102724729D01*
X158732965Y-102666019D01*
X158769438Y-102607193D01*
X158562215Y-102399970D01*
X158632925Y-102399970D01*
X158804793Y-102571838D01*
X158863619Y-102535365D01*
X158925447Y-102377948D01*
X158923960Y-102297306D01*
X158923960Y-100050000D01*
X158898960Y-100025000D01*
X158523840Y-100025000D01*
X158523840Y-100045000D01*
X158473840Y-100045000D01*
X158473840Y-100025000D01*
X158098720Y-100025000D01*
X158073720Y-100050000D01*
X158073720Y-102220746D01*
X158072233Y-102224532D01*
X157925740Y-102224532D01*
X157925740Y-100050000D01*
X157900740Y-100025000D01*
X157525620Y-100025000D01*
X157525620Y-100045000D01*
X157475620Y-100045000D01*
X157475620Y-100025000D01*
X157100500Y-100025000D01*
X157075500Y-100050000D01*
X157075500Y-102220746D01*
X157074013Y-102224532D01*
X156924980Y-102224532D01*
X156924980Y-100050000D01*
X156899980Y-100025000D01*
X156524860Y-100025000D01*
X156524860Y-100045000D01*
X156474860Y-100045000D01*
X156474860Y-100025000D01*
X156099740Y-100025000D01*
X156074740Y-100050000D01*
X156074740Y-102220746D01*
X156073253Y-102224532D01*
X155924220Y-102224532D01*
X155924220Y-100050000D01*
X155899220Y-100025000D01*
X155524100Y-100025000D01*
X155524100Y-100045000D01*
X155474100Y-100045000D01*
X155474100Y-100025000D01*
X155098980Y-100025000D01*
X155073980Y-100050000D01*
X155073980Y-102220746D01*
X155072493Y-102224532D01*
X154926000Y-102224532D01*
X154926000Y-100050000D01*
X154901000Y-100025000D01*
X154525880Y-100025000D01*
X154525880Y-100045000D01*
X154475880Y-100045000D01*
X154475880Y-100025000D01*
X154100760Y-100025000D01*
X154075760Y-100050000D01*
X154075760Y-102220746D01*
X154074273Y-102224532D01*
X153925240Y-102224532D01*
X153925240Y-100050000D01*
X153900240Y-100025000D01*
X153525120Y-100025000D01*
X153525120Y-100045000D01*
X153475120Y-100045000D01*
X153475120Y-100025000D01*
X153100000Y-100025000D01*
X153075000Y-100050000D01*
X153075000Y-102220746D01*
X153073513Y-102224532D01*
X152924480Y-102224532D01*
X152924480Y-100050000D01*
X152899480Y-100025000D01*
X152524360Y-100025000D01*
X152524360Y-100045000D01*
X152474360Y-100045000D01*
X152474360Y-100025000D01*
X152454360Y-100025000D01*
X152454360Y-99975000D01*
X152474360Y-99975000D01*
X152474360Y-97625030D01*
X152524360Y-97625030D01*
X152524360Y-99975000D01*
X152899480Y-99975000D01*
X152924480Y-99950000D01*
X152924480Y-97680139D01*
X153075000Y-97680139D01*
X153075000Y-99950000D01*
X153100000Y-99975000D01*
X153475120Y-99975000D01*
X153475120Y-97625030D01*
X153525120Y-97625030D01*
X153525120Y-99975000D01*
X153900240Y-99975000D01*
X153925240Y-99950000D01*
X153925240Y-97680139D01*
X154075760Y-97680139D01*
X154075760Y-99950000D01*
X154100760Y-99975000D01*
X154475880Y-99975000D01*
X154475880Y-97625030D01*
X154525880Y-97625030D01*
X154525880Y-99975000D01*
X154901000Y-99975000D01*
X154926000Y-99950000D01*
X154926000Y-97680139D01*
X155073980Y-97680139D01*
X155073980Y-99950000D01*
X155098980Y-99975000D01*
X155474100Y-99975000D01*
X155474100Y-97625030D01*
X155524100Y-97625030D01*
X155524100Y-99975000D01*
X155899220Y-99975000D01*
X155924220Y-99950000D01*
X155924220Y-97680139D01*
X156074740Y-97680139D01*
X156074740Y-99950000D01*
X156099740Y-99975000D01*
X156474860Y-99975000D01*
X156474860Y-97625030D01*
X156524860Y-97625030D01*
X156524860Y-99975000D01*
X156899980Y-99975000D01*
X156924980Y-99950000D01*
X156924980Y-97680139D01*
X157075500Y-97680139D01*
X157075500Y-99950000D01*
X157100500Y-99975000D01*
X157475620Y-99975000D01*
X157475620Y-97625030D01*
X157525620Y-97625030D01*
X157525620Y-99975000D01*
X157900740Y-99975000D01*
X157925740Y-99950000D01*
X157925740Y-97680139D01*
X158073720Y-97680139D01*
X158073720Y-99950000D01*
X158098720Y-99975000D01*
X158473840Y-99975000D01*
X158473840Y-97625030D01*
X158523840Y-97625030D01*
X158523840Y-99975000D01*
X158898960Y-99975000D01*
X158923960Y-99950000D01*
X158923960Y-97680139D01*
X159074480Y-97680139D01*
X159074480Y-99950000D01*
X159099480Y-99975000D01*
X159474600Y-99975000D01*
X159474600Y-97625030D01*
X159449600Y-97600030D01*
X159154589Y-97600030D01*
X159117835Y-97615254D01*
X159089704Y-97643384D01*
X159074480Y-97680139D01*
X158923960Y-97680139D01*
X158908736Y-97643384D01*
X158880605Y-97615254D01*
X158843851Y-97600030D01*
X158548840Y-97600030D01*
X158523840Y-97625030D01*
X158473840Y-97625030D01*
X158448840Y-97600030D01*
X158153829Y-97600030D01*
X158117075Y-97615254D01*
X158088944Y-97643384D01*
X158073720Y-97680139D01*
X157925740Y-97680139D01*
X157910516Y-97643384D01*
X157882385Y-97615254D01*
X157845631Y-97600030D01*
X157550620Y-97600030D01*
X157525620Y-97625030D01*
X157475620Y-97625030D01*
X157450620Y-97600030D01*
X157155609Y-97600030D01*
X157118855Y-97615254D01*
X157090724Y-97643384D01*
X157075500Y-97680139D01*
X156924980Y-97680139D01*
X156909756Y-97643384D01*
X156881625Y-97615254D01*
X156844871Y-97600030D01*
X156549860Y-97600030D01*
X156524860Y-97625030D01*
X156474860Y-97625030D01*
X156449860Y-97600030D01*
X156154849Y-97600030D01*
X156118095Y-97615254D01*
X156089964Y-97643384D01*
X156074740Y-97680139D01*
X155924220Y-97680139D01*
X155908996Y-97643384D01*
X155880865Y-97615254D01*
X155844111Y-97600030D01*
X155549100Y-97600030D01*
X155524100Y-97625030D01*
X155474100Y-97625030D01*
X155449100Y-97600030D01*
X155154089Y-97600030D01*
X155117335Y-97615254D01*
X155089204Y-97643384D01*
X155073980Y-97680139D01*
X154926000Y-97680139D01*
X154910776Y-97643384D01*
X154882645Y-97615254D01*
X154845891Y-97600030D01*
X154550880Y-97600030D01*
X154525880Y-97625030D01*
X154475880Y-97625030D01*
X154450880Y-97600030D01*
X154155869Y-97600030D01*
X154119115Y-97615254D01*
X154090984Y-97643384D01*
X154075760Y-97680139D01*
X153925240Y-97680139D01*
X153910016Y-97643384D01*
X153881885Y-97615254D01*
X153845131Y-97600030D01*
X153550120Y-97600030D01*
X153525120Y-97625030D01*
X153475120Y-97625030D01*
X153450120Y-97600030D01*
X153155109Y-97600030D01*
X153118355Y-97615254D01*
X153090224Y-97643384D01*
X153075000Y-97680139D01*
X152924480Y-97680139D01*
X152909256Y-97643384D01*
X152881125Y-97615254D01*
X152844371Y-97600030D01*
X152549360Y-97600030D01*
X152524360Y-97625030D01*
X152474360Y-97625030D01*
X152449360Y-97600030D01*
X152154349Y-97600030D01*
X152135205Y-97607960D01*
X152130216Y-97581445D01*
X152060132Y-97472532D01*
X151953197Y-97399466D01*
X151826260Y-97373761D01*
X151176020Y-97373761D01*
X151070380Y-97393638D01*
X151070380Y-91350380D01*
X151026991Y-91132250D01*
X150903431Y-90947329D01*
X150170381Y-90214279D01*
X161647812Y-90214279D01*
X161812190Y-90612103D01*
X162116296Y-90916740D01*
X162513833Y-91081812D01*
X162944279Y-91082188D01*
X163342103Y-90917810D01*
X163646740Y-90613704D01*
X163811812Y-90216167D01*
X163811813Y-90214279D01*
X164187812Y-90214279D01*
X164352190Y-90612103D01*
X164656296Y-90916740D01*
X165053833Y-91081812D01*
X165484279Y-91082188D01*
X165882103Y-90917810D01*
X166186740Y-90613704D01*
X166351812Y-90216167D01*
X166352188Y-89785721D01*
X166187810Y-89387897D01*
X165883704Y-89083260D01*
X165486167Y-88918188D01*
X165055721Y-88917812D01*
X164657897Y-89082190D01*
X164353260Y-89386296D01*
X164188188Y-89783833D01*
X164187812Y-90214279D01*
X163811813Y-90214279D01*
X163812188Y-89785721D01*
X163647810Y-89387897D01*
X163343704Y-89083260D01*
X162946167Y-88918188D01*
X162515721Y-88917812D01*
X162117897Y-89082190D01*
X161813260Y-89386296D01*
X161648188Y-89783833D01*
X161647812Y-90214279D01*
X150170381Y-90214279D01*
X149653051Y-89696949D01*
X149605134Y-89664932D01*
X149468130Y-89573389D01*
X149250000Y-89530000D01*
X133096102Y-89530000D01*
X132988887Y-89422785D01*
X158229892Y-89422785D01*
X158324083Y-89650743D01*
X158498339Y-89825304D01*
X158726133Y-89919893D01*
X158972785Y-89920108D01*
X159200743Y-89825917D01*
X159375304Y-89651661D01*
X159469893Y-89423867D01*
X159470055Y-89238559D01*
X160214345Y-88494269D01*
X160432000Y-88494269D01*
X160550585Y-88471956D01*
X160659498Y-88401872D01*
X160732564Y-88294937D01*
X160758269Y-88168000D01*
X160758269Y-87381000D01*
X160735956Y-87262415D01*
X160665872Y-87153502D01*
X160558937Y-87080436D01*
X160432000Y-87054731D01*
X159568000Y-87054731D01*
X159449415Y-87077044D01*
X159340502Y-87147128D01*
X159267436Y-87254063D01*
X159241731Y-87381000D01*
X159241731Y-88168000D01*
X159264044Y-88286585D01*
X159280002Y-88311384D01*
X158911334Y-88680052D01*
X158727215Y-88679892D01*
X158499257Y-88774083D01*
X158324696Y-88948339D01*
X158230107Y-89176133D01*
X158229892Y-89422785D01*
X132988887Y-89422785D01*
X132466858Y-88900756D01*
X132472078Y-88892944D01*
X132562174Y-88440000D01*
X132499418Y-88124500D01*
X134468000Y-88124500D01*
X134468000Y-88487891D01*
X134483224Y-88524645D01*
X134511354Y-88552776D01*
X134548109Y-88568000D01*
X134950000Y-88568000D01*
X134975000Y-88543000D01*
X134975000Y-88099500D01*
X135025000Y-88099500D01*
X135025000Y-88543000D01*
X135050000Y-88568000D01*
X135451891Y-88568000D01*
X135488646Y-88552776D01*
X135516776Y-88524645D01*
X135532000Y-88487891D01*
X135532000Y-88124500D01*
X135507000Y-88099500D01*
X135025000Y-88099500D01*
X134975000Y-88099500D01*
X134493000Y-88099500D01*
X134468000Y-88124500D01*
X132499418Y-88124500D01*
X132472078Y-87987056D01*
X132254288Y-87661109D01*
X134468000Y-87661109D01*
X134468000Y-88024500D01*
X134493000Y-88049500D01*
X134975000Y-88049500D01*
X134975000Y-87606000D01*
X135025000Y-87606000D01*
X135025000Y-88049500D01*
X135507000Y-88049500D01*
X135532000Y-88024500D01*
X135532000Y-87661109D01*
X135516776Y-87624355D01*
X135488646Y-87596224D01*
X135451891Y-87581000D01*
X135050000Y-87581000D01*
X135025000Y-87606000D01*
X134975000Y-87606000D01*
X134950000Y-87581000D01*
X134548109Y-87581000D01*
X134511354Y-87596224D01*
X134483224Y-87624355D01*
X134468000Y-87661109D01*
X132254288Y-87661109D01*
X132215506Y-87603068D01*
X131888065Y-87384279D01*
X136917812Y-87384279D01*
X137082190Y-87782103D01*
X137386296Y-88086740D01*
X137783833Y-88251812D01*
X138214279Y-88252188D01*
X138612103Y-88087810D01*
X138916740Y-87783704D01*
X138997173Y-87590000D01*
X142002814Y-87590000D01*
X142082190Y-87782103D01*
X142386296Y-88086740D01*
X142783833Y-88251812D01*
X143214279Y-88252188D01*
X143523306Y-88124500D01*
X146668000Y-88124500D01*
X146668000Y-88487891D01*
X146683224Y-88524645D01*
X146711354Y-88552776D01*
X146748109Y-88568000D01*
X147150000Y-88568000D01*
X147175000Y-88543000D01*
X147175000Y-88099500D01*
X147225000Y-88099500D01*
X147225000Y-88543000D01*
X147250000Y-88568000D01*
X147651891Y-88568000D01*
X147688646Y-88552776D01*
X147716776Y-88524645D01*
X147732000Y-88487891D01*
X147732000Y-88124500D01*
X147707000Y-88099500D01*
X147225000Y-88099500D01*
X147175000Y-88099500D01*
X146693000Y-88099500D01*
X146668000Y-88124500D01*
X143523306Y-88124500D01*
X143612103Y-88087810D01*
X143916740Y-87783704D01*
X143967645Y-87661109D01*
X146668000Y-87661109D01*
X146668000Y-88024500D01*
X146693000Y-88049500D01*
X147175000Y-88049500D01*
X147175000Y-87606000D01*
X147225000Y-87606000D01*
X147225000Y-88049500D01*
X147707000Y-88049500D01*
X147732000Y-88024500D01*
X147732000Y-87661109D01*
X147716776Y-87624355D01*
X147688646Y-87596224D01*
X147651891Y-87581000D01*
X147250000Y-87581000D01*
X147225000Y-87606000D01*
X147175000Y-87606000D01*
X147150000Y-87581000D01*
X146748109Y-87581000D01*
X146711354Y-87596224D01*
X146683224Y-87624355D01*
X146668000Y-87661109D01*
X143967645Y-87661109D01*
X144041071Y-87484279D01*
X148917812Y-87484279D01*
X149082190Y-87882103D01*
X149386296Y-88186740D01*
X149783833Y-88351812D01*
X150214279Y-88352188D01*
X150612103Y-88187810D01*
X150916740Y-87883704D01*
X150997173Y-87690000D01*
X154002814Y-87690000D01*
X154082190Y-87882103D01*
X154386296Y-88186740D01*
X154783833Y-88351812D01*
X155214279Y-88352188D01*
X155595912Y-88194500D01*
X157346717Y-88194500D01*
X157364044Y-88286585D01*
X157434128Y-88395498D01*
X157541063Y-88468564D01*
X157668000Y-88494269D01*
X158532000Y-88494269D01*
X158650585Y-88471956D01*
X158759498Y-88401872D01*
X158832564Y-88294937D01*
X158858269Y-88168000D01*
X158858269Y-87381000D01*
X158835956Y-87262415D01*
X158765872Y-87153502D01*
X158658937Y-87080436D01*
X158532000Y-87054731D01*
X157668000Y-87054731D01*
X157549415Y-87077044D01*
X157440502Y-87147128D01*
X157367436Y-87254063D01*
X157347097Y-87354500D01*
X156081927Y-87354500D01*
X156082188Y-87055721D01*
X155917810Y-86657897D01*
X155613704Y-86353260D01*
X155216167Y-86188188D01*
X154785721Y-86187812D01*
X154387897Y-86352190D01*
X154083260Y-86656296D01*
X154002827Y-86850000D01*
X150997186Y-86850000D01*
X150917810Y-86657897D01*
X150613704Y-86353260D01*
X150216167Y-86188188D01*
X149785721Y-86187812D01*
X149387897Y-86352190D01*
X149083260Y-86656296D01*
X148918188Y-87053833D01*
X148917812Y-87484279D01*
X144041071Y-87484279D01*
X144081812Y-87386167D01*
X144082188Y-86955721D01*
X144002093Y-86761877D01*
X145069470Y-85694500D01*
X145246717Y-85694500D01*
X145264044Y-85786585D01*
X145334128Y-85895498D01*
X145441063Y-85968564D01*
X145568000Y-85994269D01*
X146432000Y-85994269D01*
X146481127Y-85985025D01*
X146467436Y-86005063D01*
X146441731Y-86132000D01*
X146441731Y-86919000D01*
X146464044Y-87037585D01*
X146534128Y-87146498D01*
X146641063Y-87219564D01*
X146768000Y-87245269D01*
X147632000Y-87245269D01*
X147750585Y-87222956D01*
X147859498Y-87152872D01*
X147932564Y-87045937D01*
X147952903Y-86945500D01*
X148204500Y-86945500D01*
X148365227Y-86913529D01*
X148501485Y-86822485D01*
X149591869Y-85732101D01*
X149783833Y-85811812D01*
X150214279Y-85812188D01*
X150612103Y-85647810D01*
X150916740Y-85343704D01*
X151081812Y-84946167D01*
X151081813Y-84944279D01*
X153917812Y-84944279D01*
X154082190Y-85342103D01*
X154386296Y-85646740D01*
X154783833Y-85811812D01*
X155214279Y-85812188D01*
X155408123Y-85732093D01*
X156198515Y-86522485D01*
X156334773Y-86613529D01*
X156495500Y-86645500D01*
X157346717Y-86645500D01*
X157364044Y-86737585D01*
X157434128Y-86846498D01*
X157541063Y-86919564D01*
X157668000Y-86945269D01*
X158532000Y-86945269D01*
X158650585Y-86922956D01*
X158759498Y-86852872D01*
X158832564Y-86745937D01*
X158852903Y-86645500D01*
X159246717Y-86645500D01*
X159264044Y-86737585D01*
X159334128Y-86846498D01*
X159441063Y-86919564D01*
X159568000Y-86945269D01*
X160432000Y-86945269D01*
X160550585Y-86922956D01*
X160659498Y-86852872D01*
X160732564Y-86745937D01*
X160758269Y-86619000D01*
X160758269Y-86230000D01*
X161625331Y-86230000D01*
X161636496Y-86286132D01*
X161893068Y-86670120D01*
X162277056Y-86926692D01*
X162730000Y-87016788D01*
X163182944Y-86926692D01*
X163566932Y-86670120D01*
X163823504Y-86286132D01*
X163908266Y-85860000D01*
X164306400Y-85860000D01*
X164306400Y-86693491D01*
X164321624Y-86730245D01*
X164349754Y-86758376D01*
X164386509Y-86773600D01*
X165220000Y-86773600D01*
X165245000Y-86748600D01*
X165245000Y-85835000D01*
X165295000Y-85835000D01*
X165295000Y-86748600D01*
X165320000Y-86773600D01*
X166153491Y-86773600D01*
X166190246Y-86758376D01*
X166218376Y-86730245D01*
X166233600Y-86693491D01*
X166233600Y-85860000D01*
X166208600Y-85835000D01*
X165295000Y-85835000D01*
X165245000Y-85835000D01*
X164331400Y-85835000D01*
X164306400Y-85860000D01*
X163908266Y-85860000D01*
X163913600Y-85833188D01*
X163913600Y-85786812D01*
X163823504Y-85333868D01*
X163566932Y-84949880D01*
X163531955Y-84926509D01*
X164306400Y-84926509D01*
X164306400Y-85760000D01*
X164331400Y-85785000D01*
X165245000Y-85785000D01*
X165245000Y-84871400D01*
X165295000Y-84871400D01*
X165295000Y-85785000D01*
X166208600Y-85785000D01*
X166233600Y-85760000D01*
X166233600Y-84926509D01*
X166218376Y-84889755D01*
X166190246Y-84861624D01*
X166153491Y-84846400D01*
X165320000Y-84846400D01*
X165295000Y-84871400D01*
X165245000Y-84871400D01*
X165220000Y-84846400D01*
X164386509Y-84846400D01*
X164349754Y-84861624D01*
X164321624Y-84889755D01*
X164306400Y-84926509D01*
X163531955Y-84926509D01*
X163182944Y-84693308D01*
X162730000Y-84603212D01*
X162277056Y-84693308D01*
X161893068Y-84949880D01*
X161636496Y-85333868D01*
X161625331Y-85390000D01*
X160415500Y-85390000D01*
X160254773Y-85421971D01*
X160129416Y-85505731D01*
X159568000Y-85505731D01*
X159449415Y-85528044D01*
X159340502Y-85598128D01*
X159267436Y-85705063D01*
X159247097Y-85805500D01*
X158853283Y-85805500D01*
X158835956Y-85713415D01*
X158765872Y-85604502D01*
X158658937Y-85531436D01*
X158532000Y-85505731D01*
X157668000Y-85505731D01*
X157549415Y-85528044D01*
X157440502Y-85598128D01*
X157367436Y-85705063D01*
X157347097Y-85805500D01*
X156669470Y-85805500D01*
X156002101Y-85138131D01*
X156081812Y-84946167D01*
X156082188Y-84515721D01*
X155917810Y-84117897D01*
X155613704Y-83813260D01*
X155216167Y-83648188D01*
X154785721Y-83647812D01*
X154387897Y-83812190D01*
X154083260Y-84116296D01*
X153918188Y-84513833D01*
X153917812Y-84944279D01*
X151081813Y-84944279D01*
X151082188Y-84515721D01*
X150917810Y-84117897D01*
X150613704Y-83813260D01*
X150216167Y-83648188D01*
X149785721Y-83647812D01*
X149387897Y-83812190D01*
X149083260Y-84116296D01*
X148918188Y-84513833D01*
X148917812Y-84944279D01*
X148997907Y-85138123D01*
X148030530Y-86105500D01*
X147953283Y-86105500D01*
X147935956Y-86013415D01*
X147865872Y-85904502D01*
X147758937Y-85831436D01*
X147632000Y-85805731D01*
X146768000Y-85805731D01*
X146718873Y-85814975D01*
X146732564Y-85794937D01*
X146758269Y-85668000D01*
X146758269Y-84881000D01*
X146735956Y-84762415D01*
X146665872Y-84653502D01*
X146558937Y-84580436D01*
X146432000Y-84554731D01*
X145568000Y-84554731D01*
X145449415Y-84577044D01*
X145340502Y-84647128D01*
X145267436Y-84754063D01*
X145247097Y-84854500D01*
X144895500Y-84854500D01*
X144734773Y-84886471D01*
X144598515Y-84977515D01*
X143408131Y-86167899D01*
X143216167Y-86088188D01*
X142785721Y-86087812D01*
X142387897Y-86252190D01*
X142083260Y-86556296D01*
X142002827Y-86750000D01*
X138997186Y-86750000D01*
X138917810Y-86557897D01*
X138613704Y-86253260D01*
X138216167Y-86088188D01*
X137785721Y-86087812D01*
X137387897Y-86252190D01*
X137083260Y-86556296D01*
X136918188Y-86953833D01*
X136917812Y-87384279D01*
X131888065Y-87384279D01*
X131831518Y-87346496D01*
X131378574Y-87256400D01*
X131021426Y-87256400D01*
X130568482Y-87346496D01*
X130184494Y-87603068D01*
X129927922Y-87987056D01*
X129837826Y-88440000D01*
X129927922Y-88892944D01*
X130184494Y-89276932D01*
X130568482Y-89533504D01*
X131021426Y-89623600D01*
X131378574Y-89623600D01*
X131544494Y-89590596D01*
X132456949Y-90503051D01*
X132641871Y-90626612D01*
X132860000Y-90670001D01*
X132860005Y-90670000D01*
X145052426Y-90670000D01*
X145003015Y-90703015D01*
X143776008Y-91930022D01*
X143627215Y-91929892D01*
X143399257Y-92024083D01*
X143224696Y-92198339D01*
X143130107Y-92426133D01*
X143129892Y-92672785D01*
X143224083Y-92900743D01*
X143398339Y-93075304D01*
X143626133Y-93169893D01*
X143872785Y-93170108D01*
X144100743Y-93075917D01*
X144275304Y-92901661D01*
X144369893Y-92673867D01*
X144370024Y-92523946D01*
X145473970Y-91420000D01*
X146098904Y-91420000D01*
X146081871Y-91423388D01*
X145896949Y-91546949D01*
X144163898Y-93280000D01*
X143186102Y-93280000D01*
X143075600Y-93169498D01*
X143025917Y-93049257D01*
X142851661Y-92874696D01*
X142623867Y-92780107D01*
X142377215Y-92779892D01*
X142149257Y-92874083D01*
X141974696Y-93048339D01*
X141880107Y-93276133D01*
X141879892Y-93522785D01*
X141974083Y-93750743D01*
X142148339Y-93925304D01*
X142269522Y-93975624D01*
X142546949Y-94253051D01*
X142731870Y-94376611D01*
X142950000Y-94420000D01*
X144400000Y-94420000D01*
X144618130Y-94376611D01*
X144803051Y-94253051D01*
X146536102Y-92520000D01*
X148255978Y-92520000D01*
X148376133Y-92569893D01*
X148622785Y-92570108D01*
X148850743Y-92475917D01*
X149025304Y-92301661D01*
X149119893Y-92073867D01*
X149120108Y-91827215D01*
X149025917Y-91599257D01*
X148851661Y-91424696D01*
X148623867Y-91330107D01*
X148377215Y-91329892D01*
X148255945Y-91380000D01*
X147646915Y-91380000D01*
X147675304Y-91351661D01*
X147769893Y-91123867D01*
X147770108Y-90877215D01*
X147684488Y-90670000D01*
X149013898Y-90670000D01*
X149930380Y-91586482D01*
X149930380Y-97395153D01*
X149824740Y-97373761D01*
X149345000Y-97373761D01*
X149345000Y-94450000D01*
X149337410Y-94411843D01*
X149337410Y-94372939D01*
X149265096Y-94009391D01*
X149265096Y-94009390D01*
X149206116Y-93867000D01*
X149000181Y-93558798D01*
X148945691Y-93504309D01*
X148891202Y-93449819D01*
X148583000Y-93243884D01*
X148440610Y-93184904D01*
X148440609Y-93184904D01*
X148077062Y-93112590D01*
X147922939Y-93112590D01*
X147559391Y-93184904D01*
X147559390Y-93184904D01*
X147417000Y-93243884D01*
X147108798Y-93449819D01*
X147054309Y-93504309D01*
X146999819Y-93558798D01*
X146793884Y-93867000D01*
X146734904Y-94009390D01*
X146734904Y-94009391D01*
X146662590Y-94372940D01*
X146662590Y-94411843D01*
X146655000Y-94450000D01*
X146655000Y-97373761D01*
X146174760Y-97373761D01*
X146056175Y-97396074D01*
X145999545Y-97432515D01*
X145951177Y-97399466D01*
X145824240Y-97373761D01*
X145174000Y-97373761D01*
X145055415Y-97396074D01*
X145000093Y-97431673D01*
X144952957Y-97399466D01*
X144826020Y-97373761D01*
X144175780Y-97373761D01*
X144057195Y-97396074D01*
X144000565Y-97432515D01*
X143952197Y-97399466D01*
X143825260Y-97373761D01*
X143175020Y-97373761D01*
X143056435Y-97396074D01*
X142999805Y-97432515D01*
X142951437Y-97399466D01*
X142824500Y-97373761D01*
X142174260Y-97373761D01*
X142055675Y-97396074D01*
X142000353Y-97431673D01*
X141953217Y-97399466D01*
X141826280Y-97373761D01*
X141176040Y-97373761D01*
X141057455Y-97396074D01*
X141000825Y-97432515D01*
X140952457Y-97399466D01*
X140825520Y-97373761D01*
X140245000Y-97373761D01*
X140245000Y-94450000D01*
X140237410Y-94411843D01*
X140237410Y-94372939D01*
X140165096Y-94009391D01*
X140165096Y-94009390D01*
X140106116Y-93867000D01*
X139900181Y-93558798D01*
X139845691Y-93504309D01*
X139791202Y-93449819D01*
X139483000Y-93243884D01*
X139340610Y-93184904D01*
X139340609Y-93184904D01*
X138977060Y-93112590D01*
X138938157Y-93112590D01*
X138900000Y-93105000D01*
X127038903Y-93105000D01*
X126388755Y-92975677D01*
X125870565Y-92629435D01*
X125524323Y-92111245D01*
X125395000Y-91461096D01*
X125395000Y-85900000D01*
X129837826Y-85900000D01*
X129927922Y-86352944D01*
X130184494Y-86736932D01*
X130568482Y-86993504D01*
X131021426Y-87083600D01*
X131378574Y-87083600D01*
X131831518Y-86993504D01*
X132215506Y-86736932D01*
X132400587Y-86459937D01*
X132568130Y-86426611D01*
X132753051Y-86303051D01*
X132924102Y-86132000D01*
X134241731Y-86132000D01*
X134241731Y-86919000D01*
X134264044Y-87037585D01*
X134334128Y-87146498D01*
X134441063Y-87219564D01*
X134568000Y-87245269D01*
X135432000Y-87245269D01*
X135550585Y-87222956D01*
X135659498Y-87152872D01*
X135732564Y-87045937D01*
X135752903Y-86945500D01*
X136104500Y-86945500D01*
X136265227Y-86913529D01*
X136401485Y-86822485D01*
X137591869Y-85632101D01*
X137783833Y-85711812D01*
X138214279Y-85712188D01*
X138612103Y-85547810D01*
X138916740Y-85243704D01*
X139081812Y-84846167D01*
X139081813Y-84844279D01*
X141917812Y-84844279D01*
X142082190Y-85242103D01*
X142386296Y-85546740D01*
X142783833Y-85711812D01*
X143214279Y-85712188D01*
X143612103Y-85547810D01*
X143916740Y-85243704D01*
X144081812Y-84846167D01*
X144082188Y-84415721D01*
X144002093Y-84221877D01*
X144078470Y-84145500D01*
X145246717Y-84145500D01*
X145264044Y-84237585D01*
X145334128Y-84346498D01*
X145441063Y-84419564D01*
X145568000Y-84445269D01*
X146432000Y-84445269D01*
X146550585Y-84422956D01*
X146659498Y-84352872D01*
X146732564Y-84245937D01*
X146758269Y-84119000D01*
X146758269Y-83332000D01*
X146735956Y-83213415D01*
X146708019Y-83170000D01*
X159324874Y-83170000D01*
X159267436Y-83254063D01*
X159242035Y-83379500D01*
X158506282Y-83379500D01*
X158401661Y-83274696D01*
X158173867Y-83180107D01*
X157927215Y-83179892D01*
X157699257Y-83274083D01*
X157524696Y-83448339D01*
X157430107Y-83676133D01*
X157429892Y-83922785D01*
X157524083Y-84150743D01*
X157698339Y-84325304D01*
X157926133Y-84419893D01*
X158172785Y-84420108D01*
X158400743Y-84325917D01*
X158557434Y-84169500D01*
X159242013Y-84169500D01*
X159264044Y-84286585D01*
X159334128Y-84395498D01*
X159441063Y-84468564D01*
X159568000Y-84494269D01*
X160432000Y-84494269D01*
X160550585Y-84471956D01*
X160659498Y-84401872D01*
X160732564Y-84294937D01*
X160758269Y-84168000D01*
X160758269Y-83381000D01*
X160735956Y-83262415D01*
X160665872Y-83153502D01*
X160558937Y-83080436D01*
X160432000Y-83054731D01*
X159760892Y-83054731D01*
X159772485Y-83046985D01*
X159874201Y-82945269D01*
X160432000Y-82945269D01*
X160550585Y-82922956D01*
X160659498Y-82852872D01*
X160732564Y-82745937D01*
X160752903Y-82645500D01*
X161511530Y-82645500D01*
X161645870Y-82779840D01*
X161636496Y-82793868D01*
X161546400Y-83246812D01*
X161546400Y-83293188D01*
X161636496Y-83746132D01*
X161893068Y-84130120D01*
X162277056Y-84386692D01*
X162730000Y-84476788D01*
X163182944Y-84386692D01*
X163566932Y-84130120D01*
X163823504Y-83746132D01*
X163883326Y-83445382D01*
X164322491Y-83445382D01*
X164461732Y-83794628D01*
X164724024Y-84064004D01*
X165069436Y-84212500D01*
X165094618Y-84217506D01*
X165245000Y-84208267D01*
X165245000Y-83295000D01*
X165295000Y-83295000D01*
X165295000Y-84208267D01*
X165445382Y-84217506D01*
X165470564Y-84212500D01*
X165815976Y-84064004D01*
X166078268Y-83794628D01*
X166217509Y-83445382D01*
X166208279Y-83295000D01*
X165295000Y-83295000D01*
X165245000Y-83295000D01*
X164331721Y-83295000D01*
X164322491Y-83445382D01*
X163883326Y-83445382D01*
X163913600Y-83293188D01*
X163913600Y-83246812D01*
X163883327Y-83094618D01*
X164322491Y-83094618D01*
X164331721Y-83245000D01*
X165245000Y-83245000D01*
X165245000Y-82331733D01*
X165295000Y-82331733D01*
X165295000Y-83245000D01*
X166208279Y-83245000D01*
X166217509Y-83094618D01*
X166078268Y-82745372D01*
X165815976Y-82475996D01*
X165470564Y-82327500D01*
X165445382Y-82322494D01*
X165295000Y-82331733D01*
X165245000Y-82331733D01*
X165094618Y-82322494D01*
X165069436Y-82327500D01*
X164724024Y-82475996D01*
X164461732Y-82745372D01*
X164322491Y-83094618D01*
X163883327Y-83094618D01*
X163823504Y-82793868D01*
X163566932Y-82409880D01*
X163182944Y-82153308D01*
X162730000Y-82063212D01*
X162277056Y-82153308D01*
X162235227Y-82181257D01*
X161982485Y-81928515D01*
X161846227Y-81837471D01*
X161685500Y-81805500D01*
X160753283Y-81805500D01*
X160735956Y-81713415D01*
X160665872Y-81604502D01*
X160558937Y-81531436D01*
X160432000Y-81505731D01*
X159568000Y-81505731D01*
X159449415Y-81528044D01*
X159340502Y-81598128D01*
X159267436Y-81705063D01*
X159241731Y-81832000D01*
X159241731Y-82330000D01*
X146350000Y-82330000D01*
X146189273Y-82361971D01*
X146053015Y-82453015D01*
X145703015Y-82803015D01*
X145611971Y-82939273D01*
X145598752Y-83005731D01*
X145568000Y-83005731D01*
X145449415Y-83028044D01*
X145340502Y-83098128D01*
X145267436Y-83205063D01*
X145247097Y-83305500D01*
X143904500Y-83305500D01*
X143743773Y-83337471D01*
X143607515Y-83428515D01*
X143408131Y-83627899D01*
X143216167Y-83548188D01*
X142785721Y-83547812D01*
X142387897Y-83712190D01*
X142083260Y-84016296D01*
X141918188Y-84413833D01*
X141917812Y-84844279D01*
X139081813Y-84844279D01*
X139082188Y-84415721D01*
X138917810Y-84017897D01*
X138613704Y-83713260D01*
X138216167Y-83548188D01*
X137785721Y-83547812D01*
X137387897Y-83712190D01*
X137083260Y-84016296D01*
X136918188Y-84413833D01*
X136917812Y-84844279D01*
X136997907Y-85038123D01*
X135930530Y-86105500D01*
X135753283Y-86105500D01*
X135735956Y-86013415D01*
X135665872Y-85904502D01*
X135558937Y-85831436D01*
X135432000Y-85805731D01*
X134568000Y-85805731D01*
X134449415Y-85828044D01*
X134340502Y-85898128D01*
X134267436Y-86005063D01*
X134241731Y-86132000D01*
X132924102Y-86132000D01*
X133953051Y-85103051D01*
X133988498Y-85050000D01*
X134076611Y-84918130D01*
X134120000Y-84700000D01*
X134120000Y-82336102D01*
X135036102Y-81420000D01*
X157855978Y-81420000D01*
X157976133Y-81469893D01*
X158222785Y-81470108D01*
X158450743Y-81375917D01*
X158625304Y-81201661D01*
X158719893Y-80973867D01*
X158720108Y-80727215D01*
X158625917Y-80499257D01*
X158451661Y-80324696D01*
X158223867Y-80230107D01*
X157977215Y-80229892D01*
X157855945Y-80280000D01*
X134800000Y-80280000D01*
X134581870Y-80323389D01*
X134473951Y-80395498D01*
X134396949Y-80446949D01*
X133146949Y-81696949D01*
X133023389Y-81881870D01*
X132980000Y-82100000D01*
X132980000Y-84463898D01*
X132281725Y-85162173D01*
X132215506Y-85063068D01*
X131831518Y-84806496D01*
X131378574Y-84716400D01*
X131021426Y-84716400D01*
X130568482Y-84806496D01*
X130184494Y-85063068D01*
X129927922Y-85447056D01*
X129837826Y-85900000D01*
X125395000Y-85900000D01*
X125395000Y-82496400D01*
X129857731Y-82496400D01*
X129857731Y-84223600D01*
X129880044Y-84342185D01*
X129950128Y-84451098D01*
X130057063Y-84524164D01*
X130184000Y-84549869D01*
X132216000Y-84549869D01*
X132334585Y-84527556D01*
X132443498Y-84457472D01*
X132516564Y-84350537D01*
X132542269Y-84223600D01*
X132542269Y-82496400D01*
X132519956Y-82377815D01*
X132449872Y-82268902D01*
X132342937Y-82195836D01*
X132216000Y-82170131D01*
X130184000Y-82170131D01*
X130065415Y-82192444D01*
X129956502Y-82262528D01*
X129883436Y-82369463D01*
X129857731Y-82496400D01*
X125395000Y-82496400D01*
X125395000Y-75081000D01*
X134241731Y-75081000D01*
X134241731Y-75868000D01*
X134264044Y-75986585D01*
X134334128Y-76095498D01*
X134441063Y-76168564D01*
X134568000Y-76194269D01*
X135432000Y-76194269D01*
X135550585Y-76171956D01*
X135659498Y-76101872D01*
X135732564Y-75994937D01*
X135752903Y-75894500D01*
X136030530Y-75894500D01*
X136997899Y-76861869D01*
X136918188Y-77053833D01*
X136917812Y-77484279D01*
X137082190Y-77882103D01*
X137386296Y-78186740D01*
X137783833Y-78351812D01*
X138214279Y-78352188D01*
X138612103Y-78187810D01*
X138916740Y-77883704D01*
X139081812Y-77486167D01*
X139081813Y-77484279D01*
X141917812Y-77484279D01*
X142082190Y-77882103D01*
X142386296Y-78186740D01*
X142783833Y-78351812D01*
X143214279Y-78352188D01*
X143408123Y-78272093D01*
X143707515Y-78571485D01*
X143843773Y-78662529D01*
X143870440Y-78667834D01*
X144004500Y-78694501D01*
X144004505Y-78694500D01*
X145246717Y-78694500D01*
X145264044Y-78786585D01*
X145334128Y-78895498D01*
X145441063Y-78968564D01*
X145568000Y-78994269D01*
X145580000Y-78994269D01*
X145580000Y-79000000D01*
X145611971Y-79160727D01*
X145703015Y-79296985D01*
X146003015Y-79596985D01*
X146139273Y-79688029D01*
X146300000Y-79720000D01*
X158376030Y-79720000D01*
X158727515Y-80071485D01*
X158863773Y-80162529D01*
X159024500Y-80194500D01*
X159246717Y-80194500D01*
X159264044Y-80286585D01*
X159334128Y-80395498D01*
X159441063Y-80468564D01*
X159568000Y-80494269D01*
X160432000Y-80494269D01*
X160550585Y-80471956D01*
X160659498Y-80401872D01*
X160732564Y-80294937D01*
X160752903Y-80194500D01*
X161600530Y-80194500D01*
X161645870Y-80239840D01*
X161636496Y-80253868D01*
X161546400Y-80706812D01*
X161546400Y-80753188D01*
X161636496Y-81206132D01*
X161893068Y-81590120D01*
X162277056Y-81846692D01*
X162730000Y-81936788D01*
X163182944Y-81846692D01*
X163566932Y-81590120D01*
X163823504Y-81206132D01*
X163883326Y-80905382D01*
X164322491Y-80905382D01*
X164461732Y-81254628D01*
X164724024Y-81524004D01*
X165069436Y-81672500D01*
X165094618Y-81677506D01*
X165245000Y-81668267D01*
X165245000Y-80755000D01*
X165295000Y-80755000D01*
X165295000Y-81668267D01*
X165445382Y-81677506D01*
X165470564Y-81672500D01*
X165815976Y-81524004D01*
X166078268Y-81254628D01*
X166217509Y-80905382D01*
X166208279Y-80755000D01*
X165295000Y-80755000D01*
X165245000Y-80755000D01*
X164331721Y-80755000D01*
X164322491Y-80905382D01*
X163883326Y-80905382D01*
X163913600Y-80753188D01*
X163913600Y-80706812D01*
X163883327Y-80554618D01*
X164322491Y-80554618D01*
X164331721Y-80705000D01*
X165245000Y-80705000D01*
X165245000Y-79791733D01*
X165295000Y-79791733D01*
X165295000Y-80705000D01*
X166208279Y-80705000D01*
X166217509Y-80554618D01*
X166078268Y-80205372D01*
X165815976Y-79935996D01*
X165470564Y-79787500D01*
X165445382Y-79782494D01*
X165295000Y-79791733D01*
X165245000Y-79791733D01*
X165094618Y-79782494D01*
X165069436Y-79787500D01*
X164724024Y-79935996D01*
X164461732Y-80205372D01*
X164322491Y-80554618D01*
X163883327Y-80554618D01*
X163823504Y-80253868D01*
X163566932Y-79869880D01*
X163182944Y-79613308D01*
X162730000Y-79523212D01*
X162277056Y-79613308D01*
X162235227Y-79641257D01*
X162071485Y-79477515D01*
X161935227Y-79386471D01*
X161774500Y-79354500D01*
X160753283Y-79354500D01*
X160735956Y-79262415D01*
X160665872Y-79153502D01*
X160558937Y-79080436D01*
X160432000Y-79054731D01*
X159568000Y-79054731D01*
X159449415Y-79077044D01*
X159340502Y-79147128D01*
X159267436Y-79254063D01*
X159247097Y-79354500D01*
X159198470Y-79354500D01*
X158846985Y-79003015D01*
X158710727Y-78911971D01*
X158550000Y-78880000D01*
X146674443Y-78880000D01*
X146732564Y-78794937D01*
X146758269Y-78668000D01*
X146758269Y-77881000D01*
X146735956Y-77762415D01*
X146665872Y-77653502D01*
X146558937Y-77580436D01*
X146432000Y-77554731D01*
X145568000Y-77554731D01*
X145449415Y-77577044D01*
X145340502Y-77647128D01*
X145267436Y-77754063D01*
X145247097Y-77854500D01*
X144178470Y-77854500D01*
X144002101Y-77678131D01*
X144081812Y-77486167D01*
X144082188Y-77055721D01*
X143917810Y-76657897D01*
X143613704Y-76353260D01*
X143216167Y-76188188D01*
X142785721Y-76187812D01*
X142387897Y-76352190D01*
X142083260Y-76656296D01*
X141918188Y-77053833D01*
X141917812Y-77484279D01*
X139081813Y-77484279D01*
X139082188Y-77055721D01*
X138917810Y-76657897D01*
X138613704Y-76353260D01*
X138216167Y-76188188D01*
X137785721Y-76187812D01*
X137591877Y-76267907D01*
X136501485Y-75177515D01*
X136365227Y-75086471D01*
X136204500Y-75054500D01*
X135753283Y-75054500D01*
X135735956Y-74962415D01*
X135724286Y-74944279D01*
X136917812Y-74944279D01*
X137082190Y-75342103D01*
X137386296Y-75646740D01*
X137783833Y-75811812D01*
X138214279Y-75812188D01*
X138612103Y-75647810D01*
X138916740Y-75343704D01*
X138997173Y-75150000D01*
X142002814Y-75150000D01*
X142082190Y-75342103D01*
X142386296Y-75646740D01*
X142783833Y-75811812D01*
X143214279Y-75812188D01*
X143408123Y-75732093D01*
X144698515Y-77022485D01*
X144834773Y-77113529D01*
X144995500Y-77145500D01*
X145246717Y-77145500D01*
X145264044Y-77237585D01*
X145334128Y-77346498D01*
X145441063Y-77419564D01*
X145568000Y-77445269D01*
X146432000Y-77445269D01*
X146550585Y-77422956D01*
X146659498Y-77352872D01*
X146732564Y-77245937D01*
X146758269Y-77119000D01*
X146758269Y-76332000D01*
X146735956Y-76213415D01*
X146665872Y-76104502D01*
X146650896Y-76094269D01*
X147432000Y-76094269D01*
X147550585Y-76071956D01*
X147659498Y-76001872D01*
X147732564Y-75894937D01*
X147752903Y-75794500D01*
X147930530Y-75794500D01*
X148997899Y-76861869D01*
X148918188Y-77053833D01*
X148917812Y-77484279D01*
X149082190Y-77882103D01*
X149386296Y-78186740D01*
X149783833Y-78351812D01*
X150214279Y-78352188D01*
X150612103Y-78187810D01*
X150916740Y-77883704D01*
X151081812Y-77486167D01*
X151081813Y-77484279D01*
X153917812Y-77484279D01*
X154082190Y-77882103D01*
X154386296Y-78186740D01*
X154783833Y-78351812D01*
X155214279Y-78352188D01*
X155612103Y-78187810D01*
X155916740Y-77883704D01*
X156081812Y-77486167D01*
X156081954Y-77322785D01*
X157479892Y-77322785D01*
X157574083Y-77550743D01*
X157748339Y-77725304D01*
X157976133Y-77819893D01*
X158222785Y-77820108D01*
X158450743Y-77725917D01*
X158581889Y-77595000D01*
X159345363Y-77595000D01*
X159340502Y-77598128D01*
X159267436Y-77705063D01*
X159241731Y-77832000D01*
X159241731Y-78619000D01*
X159264044Y-78737585D01*
X159334128Y-78846498D01*
X159441063Y-78919564D01*
X159568000Y-78945269D01*
X160432000Y-78945269D01*
X160550585Y-78922956D01*
X160659498Y-78852872D01*
X160732564Y-78745937D01*
X160758269Y-78619000D01*
X160758269Y-77832000D01*
X160735956Y-77713415D01*
X160665872Y-77604502D01*
X160558937Y-77531436D01*
X160432000Y-77505731D01*
X160366303Y-77505731D01*
X160364932Y-77498840D01*
X160279307Y-77370693D01*
X159829307Y-76920693D01*
X159701160Y-76835068D01*
X159550000Y-76805000D01*
X158581737Y-76805000D01*
X158451661Y-76674696D01*
X158223867Y-76580107D01*
X157977215Y-76579892D01*
X157749257Y-76674083D01*
X157574696Y-76848339D01*
X157480107Y-77076133D01*
X157479892Y-77322785D01*
X156081954Y-77322785D01*
X156082188Y-77055721D01*
X156002093Y-76861877D01*
X156669470Y-76194500D01*
X157346717Y-76194500D01*
X157364044Y-76286585D01*
X157434128Y-76395498D01*
X157541063Y-76468564D01*
X157668000Y-76494269D01*
X158532000Y-76494269D01*
X158650585Y-76471956D01*
X158759498Y-76401872D01*
X158832564Y-76294937D01*
X158852903Y-76194500D01*
X159246717Y-76194500D01*
X159264044Y-76286585D01*
X159334128Y-76395498D01*
X159441063Y-76468564D01*
X159568000Y-76494269D01*
X160125799Y-76494269D01*
X161588200Y-77956670D01*
X161546400Y-78166812D01*
X161546400Y-78213188D01*
X161636496Y-78666132D01*
X161893068Y-79050120D01*
X162277056Y-79306692D01*
X162730000Y-79396788D01*
X163182944Y-79306692D01*
X163566932Y-79050120D01*
X163823504Y-78666132D01*
X163883326Y-78365382D01*
X164322491Y-78365382D01*
X164461732Y-78714628D01*
X164724024Y-78984004D01*
X165069436Y-79132500D01*
X165094618Y-79137506D01*
X165245000Y-79128267D01*
X165245000Y-78215000D01*
X165295000Y-78215000D01*
X165295000Y-79128267D01*
X165445382Y-79137506D01*
X165470564Y-79132500D01*
X165815976Y-78984004D01*
X166078268Y-78714628D01*
X166217509Y-78365382D01*
X166208279Y-78215000D01*
X165295000Y-78215000D01*
X165245000Y-78215000D01*
X164331721Y-78215000D01*
X164322491Y-78365382D01*
X163883326Y-78365382D01*
X163913600Y-78213188D01*
X163913600Y-78166812D01*
X163883327Y-78014618D01*
X164322491Y-78014618D01*
X164331721Y-78165000D01*
X165245000Y-78165000D01*
X165245000Y-77251733D01*
X165295000Y-77251733D01*
X165295000Y-78165000D01*
X166208279Y-78165000D01*
X166217509Y-78014618D01*
X166078268Y-77665372D01*
X165815976Y-77395996D01*
X165470564Y-77247500D01*
X165445382Y-77242494D01*
X165295000Y-77251733D01*
X165245000Y-77251733D01*
X165094618Y-77242494D01*
X165069436Y-77247500D01*
X164724024Y-77395996D01*
X164461732Y-77665372D01*
X164322491Y-78014618D01*
X163883327Y-78014618D01*
X163823504Y-77713868D01*
X163566932Y-77329880D01*
X163182944Y-77073308D01*
X162730000Y-76983212D01*
X162277056Y-77073308D01*
X162046698Y-77227228D01*
X160758269Y-75938799D01*
X160758269Y-75381000D01*
X160735956Y-75262415D01*
X160665872Y-75153502D01*
X160558937Y-75080436D01*
X160432000Y-75054731D01*
X159568000Y-75054731D01*
X159449415Y-75077044D01*
X159340502Y-75147128D01*
X159267436Y-75254063D01*
X159247097Y-75354500D01*
X158853283Y-75354500D01*
X158835956Y-75262415D01*
X158765872Y-75153502D01*
X158658937Y-75080436D01*
X158532000Y-75054731D01*
X157668000Y-75054731D01*
X157549415Y-75077044D01*
X157440502Y-75147128D01*
X157367436Y-75254063D01*
X157347097Y-75354500D01*
X156495500Y-75354500D01*
X156334773Y-75386471D01*
X156198515Y-75477515D01*
X155408131Y-76267899D01*
X155216167Y-76188188D01*
X154785721Y-76187812D01*
X154387897Y-76352190D01*
X154083260Y-76656296D01*
X153918188Y-77053833D01*
X153917812Y-77484279D01*
X151081813Y-77484279D01*
X151082188Y-77055721D01*
X150917810Y-76657897D01*
X150613704Y-76353260D01*
X150216167Y-76188188D01*
X149785721Y-76187812D01*
X149591877Y-76267907D01*
X148401485Y-75077515D01*
X148265227Y-74986471D01*
X148104500Y-74954500D01*
X147753283Y-74954500D01*
X147751360Y-74944279D01*
X148917812Y-74944279D01*
X149082190Y-75342103D01*
X149386296Y-75646740D01*
X149783833Y-75811812D01*
X150214279Y-75812188D01*
X150612103Y-75647810D01*
X150916740Y-75343704D01*
X150997173Y-75150000D01*
X154002814Y-75150000D01*
X154082190Y-75342103D01*
X154386296Y-75646740D01*
X154783833Y-75811812D01*
X155214279Y-75812188D01*
X155612103Y-75647810D01*
X155916740Y-75343704D01*
X156081812Y-74946167D01*
X156082075Y-74645500D01*
X157346717Y-74645500D01*
X157364044Y-74737585D01*
X157434128Y-74846498D01*
X157541063Y-74919564D01*
X157668000Y-74945269D01*
X158532000Y-74945269D01*
X158650585Y-74922956D01*
X158759498Y-74852872D01*
X158832564Y-74745937D01*
X158858269Y-74619000D01*
X158858269Y-73832000D01*
X158835956Y-73713415D01*
X158765872Y-73604502D01*
X158658937Y-73531436D01*
X158564539Y-73512320D01*
X158581889Y-73495000D01*
X159586386Y-73495000D01*
X159597117Y-73505731D01*
X159568000Y-73505731D01*
X159449415Y-73528044D01*
X159340502Y-73598128D01*
X159267436Y-73705063D01*
X159241731Y-73832000D01*
X159241731Y-74619000D01*
X159264044Y-74737585D01*
X159334128Y-74846498D01*
X159441063Y-74919564D01*
X159568000Y-74945269D01*
X160432000Y-74945269D01*
X160550585Y-74922956D01*
X160659498Y-74852872D01*
X160732564Y-74745937D01*
X160758269Y-74619000D01*
X160758269Y-74214279D01*
X161647812Y-74214279D01*
X161812190Y-74612103D01*
X162116296Y-74916740D01*
X162513833Y-75081812D01*
X162944279Y-75082188D01*
X163342103Y-74917810D01*
X163646740Y-74613704D01*
X163811812Y-74216167D01*
X163811813Y-74214279D01*
X164187812Y-74214279D01*
X164352190Y-74612103D01*
X164656296Y-74916740D01*
X165053833Y-75081812D01*
X165484279Y-75082188D01*
X165882103Y-74917810D01*
X166186740Y-74613704D01*
X166351812Y-74216167D01*
X166352188Y-73785721D01*
X166187810Y-73387897D01*
X165883704Y-73083260D01*
X165486167Y-72918188D01*
X165055721Y-72917812D01*
X164657897Y-73082190D01*
X164353260Y-73386296D01*
X164188188Y-73783833D01*
X164187812Y-74214279D01*
X163811813Y-74214279D01*
X163812188Y-73785721D01*
X163647810Y-73387897D01*
X163343704Y-73083260D01*
X162946167Y-72918188D01*
X162515721Y-72917812D01*
X162117897Y-73082190D01*
X161813260Y-73386296D01*
X161648188Y-73783833D01*
X161647812Y-74214279D01*
X160758269Y-74214279D01*
X160758269Y-73832000D01*
X160735956Y-73713415D01*
X160665872Y-73604502D01*
X160558937Y-73531436D01*
X160432000Y-73505731D01*
X160395000Y-73505731D01*
X160395000Y-73350000D01*
X160364932Y-73198840D01*
X160279307Y-73070693D01*
X160029307Y-72820693D01*
X159901160Y-72735068D01*
X159750000Y-72705000D01*
X158581737Y-72705000D01*
X158451661Y-72574696D01*
X158223867Y-72480107D01*
X157977215Y-72479892D01*
X157749257Y-72574083D01*
X157574696Y-72748339D01*
X157480107Y-72976133D01*
X157479892Y-73222785D01*
X157574083Y-73450743D01*
X157635146Y-73511913D01*
X157549415Y-73528044D01*
X157440502Y-73598128D01*
X157367436Y-73705063D01*
X157347097Y-73805500D01*
X155595016Y-73805500D01*
X155216167Y-73648188D01*
X154785721Y-73647812D01*
X154387897Y-73812190D01*
X154083260Y-74116296D01*
X154002827Y-74310000D01*
X150997186Y-74310000D01*
X150917810Y-74117897D01*
X150613704Y-73813260D01*
X150216167Y-73648188D01*
X149785721Y-73647812D01*
X149387897Y-73812190D01*
X149083260Y-74116296D01*
X148918188Y-74513833D01*
X148917812Y-74944279D01*
X147751360Y-74944279D01*
X147735956Y-74862415D01*
X147665872Y-74753502D01*
X147558937Y-74680436D01*
X147432000Y-74654731D01*
X146568000Y-74654731D01*
X146449415Y-74677044D01*
X146340502Y-74747128D01*
X146267436Y-74854063D01*
X146241731Y-74981000D01*
X146241731Y-75768000D01*
X146264044Y-75886585D01*
X146334128Y-75995498D01*
X146349104Y-76005731D01*
X145568000Y-76005731D01*
X145449415Y-76028044D01*
X145340502Y-76098128D01*
X145267436Y-76205063D01*
X145247097Y-76305500D01*
X145169470Y-76305500D01*
X144002101Y-75138131D01*
X144081812Y-74946167D01*
X144082188Y-74515721D01*
X143917810Y-74117897D01*
X143675836Y-73875500D01*
X146468000Y-73875500D01*
X146468000Y-74238891D01*
X146483224Y-74275645D01*
X146511354Y-74303776D01*
X146548109Y-74319000D01*
X146950000Y-74319000D01*
X146975000Y-74294000D01*
X146975000Y-73850500D01*
X147025000Y-73850500D01*
X147025000Y-74294000D01*
X147050000Y-74319000D01*
X147451891Y-74319000D01*
X147488646Y-74303776D01*
X147516776Y-74275645D01*
X147532000Y-74238891D01*
X147532000Y-73875500D01*
X147507000Y-73850500D01*
X147025000Y-73850500D01*
X146975000Y-73850500D01*
X146493000Y-73850500D01*
X146468000Y-73875500D01*
X143675836Y-73875500D01*
X143613704Y-73813260D01*
X143216167Y-73648188D01*
X142785721Y-73647812D01*
X142387897Y-73812190D01*
X142083260Y-74116296D01*
X142002827Y-74310000D01*
X138997186Y-74310000D01*
X138917810Y-74117897D01*
X138613704Y-73813260D01*
X138216167Y-73648188D01*
X137785721Y-73647812D01*
X137387897Y-73812190D01*
X137083260Y-74116296D01*
X136918188Y-74513833D01*
X136917812Y-74944279D01*
X135724286Y-74944279D01*
X135665872Y-74853502D01*
X135558937Y-74780436D01*
X135432000Y-74754731D01*
X134568000Y-74754731D01*
X134449415Y-74777044D01*
X134340502Y-74847128D01*
X134267436Y-74954063D01*
X134241731Y-75081000D01*
X125395000Y-75081000D01*
X125395000Y-73975500D01*
X134468000Y-73975500D01*
X134468000Y-74338891D01*
X134483224Y-74375645D01*
X134511354Y-74403776D01*
X134548109Y-74419000D01*
X134950000Y-74419000D01*
X134975000Y-74394000D01*
X134975000Y-73950500D01*
X135025000Y-73950500D01*
X135025000Y-74394000D01*
X135050000Y-74419000D01*
X135451891Y-74419000D01*
X135488646Y-74403776D01*
X135516776Y-74375645D01*
X135532000Y-74338891D01*
X135532000Y-73975500D01*
X135507000Y-73950500D01*
X135025000Y-73950500D01*
X134975000Y-73950500D01*
X134493000Y-73950500D01*
X134468000Y-73975500D01*
X125395000Y-73975500D01*
X125395000Y-73512109D01*
X134468000Y-73512109D01*
X134468000Y-73875500D01*
X134493000Y-73900500D01*
X134975000Y-73900500D01*
X134975000Y-73457000D01*
X135025000Y-73457000D01*
X135025000Y-73900500D01*
X135507000Y-73900500D01*
X135532000Y-73875500D01*
X135532000Y-73512109D01*
X135516776Y-73475355D01*
X135488646Y-73447224D01*
X135451891Y-73432000D01*
X135050000Y-73432000D01*
X135025000Y-73457000D01*
X134975000Y-73457000D01*
X134950000Y-73432000D01*
X134548109Y-73432000D01*
X134511354Y-73447224D01*
X134483224Y-73475355D01*
X134468000Y-73512109D01*
X125395000Y-73512109D01*
X125395000Y-73412109D01*
X146468000Y-73412109D01*
X146468000Y-73775500D01*
X146493000Y-73800500D01*
X146975000Y-73800500D01*
X146975000Y-73357000D01*
X147025000Y-73357000D01*
X147025000Y-73800500D01*
X147507000Y-73800500D01*
X147532000Y-73775500D01*
X147532000Y-73412109D01*
X147516776Y-73375355D01*
X147488646Y-73347224D01*
X147451891Y-73332000D01*
X147050000Y-73332000D01*
X147025000Y-73357000D01*
X146975000Y-73357000D01*
X146950000Y-73332000D01*
X146548109Y-73332000D01*
X146511354Y-73347224D01*
X146483224Y-73375355D01*
X146468000Y-73412109D01*
X125395000Y-73412109D01*
X125395000Y-72038904D01*
X125524323Y-71388755D01*
X125870565Y-70870565D01*
X126388755Y-70524323D01*
X127038903Y-70395000D01*
X169561098Y-70395000D01*
X169597716Y-70402284D01*
M02*
