G04 #@! TF.FileFunction,Legend,Bot*
%FSLAX46Y46*%
G04 Gerber Fmt 4.6, Leading zero omitted, Abs format (unit mm)*
G04 Created by KiCad (PCBNEW 4.0.6-e0-6349~53~ubuntu14.04.1) date Wed Mar 29 11:21:43 2017*
%MOMM*%
%LPD*%
G01*
G04 APERTURE LIST*
%ADD10C,0.100000*%
%ADD11C,0.150000*%
%ADD12C,0.300000*%
%ADD13C,0.152400*%
G04 APERTURE END LIST*
D10*
D11*
X135185715Y-80752381D02*
X135185715Y-79752381D01*
X134804762Y-79752381D01*
X134709524Y-79800000D01*
X134661905Y-79847619D01*
X134614286Y-79942857D01*
X134614286Y-80085714D01*
X134661905Y-80180952D01*
X134709524Y-80228571D01*
X134804762Y-80276190D01*
X135185715Y-80276190D01*
X133757143Y-80085714D02*
X133757143Y-80752381D01*
X134185715Y-80085714D02*
X134185715Y-80609524D01*
X134138096Y-80704762D01*
X134042858Y-80752381D01*
X133900000Y-80752381D01*
X133804762Y-80704762D01*
X133757143Y-80657143D01*
X133138096Y-80752381D02*
X133233334Y-80704762D01*
X133280953Y-80609524D01*
X133280953Y-79752381D01*
X132614286Y-80752381D02*
X132709524Y-80704762D01*
X132757143Y-80609524D01*
X132757143Y-79752381D01*
X132233333Y-80371429D02*
X131471428Y-80371429D01*
X130995238Y-79752381D02*
X130995238Y-80561905D01*
X130947619Y-80657143D01*
X130900000Y-80704762D01*
X130804762Y-80752381D01*
X130614285Y-80752381D01*
X130519047Y-80704762D01*
X130471428Y-80657143D01*
X130423809Y-80561905D01*
X130423809Y-79752381D01*
X129947619Y-80085714D02*
X129947619Y-81085714D01*
X129947619Y-80133333D02*
X129852381Y-80085714D01*
X129661904Y-80085714D01*
X129566666Y-80133333D01*
X129519047Y-80180952D01*
X129471428Y-80276190D01*
X129471428Y-80561905D01*
X129519047Y-80657143D01*
X129566666Y-80704762D01*
X129661904Y-80752381D01*
X129852381Y-80752381D01*
X129947619Y-80704762D01*
X128423809Y-79752381D02*
X127852380Y-79752381D01*
X128138095Y-80752381D02*
X128138095Y-79752381D01*
X127376190Y-80752381D02*
X127471428Y-80704762D01*
X127519047Y-80657143D01*
X127566666Y-80561905D01*
X127566666Y-80276190D01*
X127519047Y-80180952D01*
X127471428Y-80133333D01*
X127376190Y-80085714D01*
X127233332Y-80085714D01*
X127138094Y-80133333D01*
X127090475Y-80180952D01*
X127042856Y-80276190D01*
X127042856Y-80561905D01*
X127090475Y-80657143D01*
X127138094Y-80704762D01*
X127233332Y-80752381D01*
X127376190Y-80752381D01*
X126614285Y-80657143D02*
X126566666Y-80704762D01*
X126614285Y-80752381D01*
X126661904Y-80704762D01*
X126614285Y-80657143D01*
X126614285Y-80752381D01*
X126614285Y-80133333D02*
X126566666Y-80180952D01*
X126614285Y-80228571D01*
X126661904Y-80180952D01*
X126614285Y-80133333D01*
X126614285Y-80228571D01*
D12*
X139428572Y-90783333D02*
X138476191Y-90783333D01*
X139619048Y-91354762D02*
X138952381Y-89354762D01*
X138285714Y-91354762D01*
X137809524Y-89354762D02*
X136571428Y-89354762D01*
X137238095Y-90116667D01*
X136952381Y-90116667D01*
X136761905Y-90211905D01*
X136666667Y-90307143D01*
X136571428Y-90497619D01*
X136571428Y-90973810D01*
X136666667Y-91164286D01*
X136761905Y-91259524D01*
X136952381Y-91354762D01*
X137523809Y-91354762D01*
X137714286Y-91259524D01*
X137809524Y-91164286D01*
X144476191Y-91454762D02*
X144476191Y-89454762D01*
X144000000Y-89454762D01*
X143714286Y-89550000D01*
X143523810Y-89740476D01*
X143428571Y-89930952D01*
X143333333Y-90311905D01*
X143333333Y-90597619D01*
X143428571Y-90978571D01*
X143523810Y-91169048D01*
X143714286Y-91359524D01*
X144000000Y-91454762D01*
X144476191Y-91454762D01*
X142666667Y-89454762D02*
X141428571Y-89454762D01*
X142095238Y-90216667D01*
X141809524Y-90216667D01*
X141619048Y-90311905D01*
X141523810Y-90407143D01*
X141428571Y-90597619D01*
X141428571Y-91073810D01*
X141523810Y-91264286D01*
X141619048Y-91359524D01*
X141809524Y-91454762D01*
X142380952Y-91454762D01*
X142571429Y-91359524D01*
X142666667Y-91264286D01*
X139378572Y-72183333D02*
X138426191Y-72183333D01*
X139569048Y-72754762D02*
X138902381Y-70754762D01*
X138235714Y-72754762D01*
X137664286Y-70945238D02*
X137569048Y-70850000D01*
X137378571Y-70754762D01*
X136902381Y-70754762D01*
X136711905Y-70850000D01*
X136616667Y-70945238D01*
X136521428Y-71135714D01*
X136521428Y-71326190D01*
X136616667Y-71611905D01*
X137759524Y-72754762D01*
X136521428Y-72754762D01*
X144526191Y-72804762D02*
X144526191Y-70804762D01*
X144050000Y-70804762D01*
X143764286Y-70900000D01*
X143573810Y-71090476D01*
X143478571Y-71280952D01*
X143383333Y-71661905D01*
X143383333Y-71947619D01*
X143478571Y-72328571D01*
X143573810Y-72519048D01*
X143764286Y-72709524D01*
X144050000Y-72804762D01*
X144526191Y-72804762D01*
X142621429Y-70995238D02*
X142526191Y-70900000D01*
X142335714Y-70804762D01*
X141859524Y-70804762D01*
X141669048Y-70900000D01*
X141573810Y-70995238D01*
X141478571Y-71185714D01*
X141478571Y-71376190D01*
X141573810Y-71661905D01*
X142716667Y-72804762D01*
X141478571Y-72804762D01*
X151428572Y-72283333D02*
X150476191Y-72283333D01*
X151619048Y-72854762D02*
X150952381Y-70854762D01*
X150285714Y-72854762D01*
X148571428Y-72854762D02*
X149714286Y-72854762D01*
X149142857Y-72854762D02*
X149142857Y-70854762D01*
X149333333Y-71140476D01*
X149523809Y-71330952D01*
X149714286Y-71426190D01*
X156476191Y-72904762D02*
X156476191Y-70904762D01*
X156000000Y-70904762D01*
X155714286Y-71000000D01*
X155523810Y-71190476D01*
X155428571Y-71380952D01*
X155333333Y-71761905D01*
X155333333Y-72047619D01*
X155428571Y-72428571D01*
X155523810Y-72619048D01*
X155714286Y-72809524D01*
X156000000Y-72904762D01*
X156476191Y-72904762D01*
X153428571Y-72904762D02*
X154571429Y-72904762D01*
X154000000Y-72904762D02*
X154000000Y-70904762D01*
X154190476Y-71190476D01*
X154380952Y-71380952D01*
X154571429Y-71476190D01*
X151428572Y-90983333D02*
X150476191Y-90983333D01*
X151619048Y-91554762D02*
X150952381Y-89554762D01*
X150285714Y-91554762D01*
X148761905Y-90221429D02*
X148761905Y-91554762D01*
X149238095Y-89459524D02*
X149714286Y-90888095D01*
X148476190Y-90888095D01*
X156526191Y-91554762D02*
X156526191Y-89554762D01*
X156050000Y-89554762D01*
X155764286Y-89650000D01*
X155573810Y-89840476D01*
X155478571Y-90030952D01*
X155383333Y-90411905D01*
X155383333Y-90697619D01*
X155478571Y-91078571D01*
X155573810Y-91269048D01*
X155764286Y-91459524D01*
X156050000Y-91554762D01*
X156526191Y-91554762D01*
X153669048Y-90221429D02*
X153669048Y-91554762D01*
X154145238Y-89459524D02*
X154621429Y-90888095D01*
X153383333Y-90888095D01*
D11*
X168227381Y-78485715D02*
X168227381Y-77914286D01*
X168227381Y-78200000D02*
X167227381Y-78200000D01*
X167370238Y-78104762D01*
X167465476Y-78009524D01*
X167513095Y-77914286D01*
X169496429Y-77819048D02*
X169496429Y-78580953D01*
X167322619Y-80464286D02*
X167275000Y-80511905D01*
X167227381Y-80607143D01*
X167227381Y-80845239D01*
X167275000Y-80940477D01*
X167322619Y-80988096D01*
X167417857Y-81035715D01*
X167513095Y-81035715D01*
X167655952Y-80988096D01*
X168227381Y-80416667D01*
X168227381Y-81035715D01*
X169496429Y-80369048D02*
X169496429Y-81130953D01*
X167227381Y-82916667D02*
X167227381Y-83535715D01*
X167608333Y-83202381D01*
X167608333Y-83345239D01*
X167655952Y-83440477D01*
X167703571Y-83488096D01*
X167798810Y-83535715D01*
X168036905Y-83535715D01*
X168132143Y-83488096D01*
X168179762Y-83440477D01*
X168227381Y-83345239D01*
X168227381Y-83059524D01*
X168179762Y-82964286D01*
X168132143Y-82916667D01*
X169496429Y-82869048D02*
X169496429Y-83630953D01*
X167510714Y-85990477D02*
X168177381Y-85990477D01*
X167129762Y-85752381D02*
X167844048Y-85514286D01*
X167844048Y-86133334D01*
X169446429Y-85419048D02*
X169446429Y-86180953D01*
X167721429Y-71550000D02*
X167721429Y-72311905D01*
X168102381Y-71930953D02*
X167340476Y-71930953D01*
X167102381Y-72692857D02*
X167102381Y-73311905D01*
X167483333Y-72978571D01*
X167483333Y-73121429D01*
X167530952Y-73216667D01*
X167578571Y-73264286D01*
X167673810Y-73311905D01*
X167911905Y-73311905D01*
X168007143Y-73264286D01*
X168054762Y-73216667D01*
X168102381Y-73121429D01*
X168102381Y-72835714D01*
X168054762Y-72740476D01*
X168007143Y-72692857D01*
X168007143Y-73740476D02*
X168054762Y-73788095D01*
X168102381Y-73740476D01*
X168054762Y-73692857D01*
X168007143Y-73740476D01*
X168102381Y-73740476D01*
X167102381Y-74121428D02*
X167102381Y-74740476D01*
X167483333Y-74407142D01*
X167483333Y-74550000D01*
X167530952Y-74645238D01*
X167578571Y-74692857D01*
X167673810Y-74740476D01*
X167911905Y-74740476D01*
X168007143Y-74692857D01*
X168054762Y-74645238D01*
X168102381Y-74550000D01*
X168102381Y-74264285D01*
X168054762Y-74169047D01*
X168007143Y-74121428D01*
X167102381Y-75026190D02*
X168102381Y-75359523D01*
X167102381Y-75692857D01*
X167571429Y-88714286D02*
X167571429Y-89476191D01*
X167952381Y-89095239D02*
X167190476Y-89095239D01*
X166952381Y-90428572D02*
X166952381Y-89952381D01*
X167428571Y-89904762D01*
X167380952Y-89952381D01*
X167333333Y-90047619D01*
X167333333Y-90285715D01*
X167380952Y-90380953D01*
X167428571Y-90428572D01*
X167523810Y-90476191D01*
X167761905Y-90476191D01*
X167857143Y-90428572D01*
X167904762Y-90380953D01*
X167952381Y-90285715D01*
X167952381Y-90047619D01*
X167904762Y-89952381D01*
X167857143Y-89904762D01*
X166952381Y-90761905D02*
X167952381Y-91095238D01*
X166952381Y-91428572D01*
X129471428Y-87942857D02*
X128728571Y-87942857D01*
X129128571Y-88400000D01*
X128957143Y-88400000D01*
X128842857Y-88457143D01*
X128785714Y-88514286D01*
X128728571Y-88628571D01*
X128728571Y-88914286D01*
X128785714Y-89028571D01*
X128842857Y-89085714D01*
X128957143Y-89142857D01*
X129300000Y-89142857D01*
X129414286Y-89085714D01*
X129471428Y-89028571D01*
X128214286Y-89028571D02*
X128157143Y-89085714D01*
X128214286Y-89142857D01*
X128271429Y-89085714D01*
X128214286Y-89028571D01*
X128214286Y-89142857D01*
X127757142Y-87942857D02*
X127014285Y-87942857D01*
X127414285Y-88400000D01*
X127242857Y-88400000D01*
X127128571Y-88457143D01*
X127071428Y-88514286D01*
X127014285Y-88628571D01*
X127014285Y-88914286D01*
X127071428Y-89028571D01*
X127128571Y-89085714D01*
X127242857Y-89142857D01*
X127585714Y-89142857D01*
X127700000Y-89085714D01*
X127757142Y-89028571D01*
X126671428Y-87942857D02*
X126271428Y-89142857D01*
X125871428Y-87942857D01*
X127728571Y-82742857D02*
X128300000Y-82742857D01*
X128357143Y-83314286D01*
X128300000Y-83257143D01*
X128185714Y-83200000D01*
X127900000Y-83200000D01*
X127785714Y-83257143D01*
X127728571Y-83314286D01*
X127671428Y-83428571D01*
X127671428Y-83714286D01*
X127728571Y-83828571D01*
X127785714Y-83885714D01*
X127900000Y-83942857D01*
X128185714Y-83942857D01*
X128300000Y-83885714D01*
X128357143Y-83828571D01*
X127328571Y-82742857D02*
X126928571Y-83942857D01*
X126528571Y-82742857D01*
X148900180Y-97500640D02*
X148900180Y-94300240D01*
X148900180Y-94300240D02*
X147099320Y-94300240D01*
X147099320Y-94300240D02*
X147099320Y-97500640D01*
X160200640Y-97500640D02*
X148900180Y-97500640D01*
X148900180Y-97500640D02*
X148900180Y-103299460D01*
X148900180Y-103299460D02*
X160200640Y-103299460D01*
X160200640Y-103299460D02*
X160200640Y-97500640D01*
X139799360Y-97500640D02*
X147099320Y-97500640D01*
X147099320Y-103299460D02*
X139799360Y-103299460D01*
X147099320Y-97500640D02*
X147099320Y-103299460D01*
X139799360Y-97500640D02*
X139799360Y-103299460D01*
X129930000Y-84630000D02*
X129930000Y-89710000D01*
X132470000Y-84630000D02*
X132470000Y-89710000D01*
X132750000Y-81810000D02*
X132750000Y-83360000D01*
X129930000Y-89710000D02*
X132470000Y-89710000D01*
X132470000Y-84630000D02*
X129930000Y-84630000D01*
X129650000Y-83360000D02*
X129650000Y-81810000D01*
X129650000Y-81810000D02*
X132750000Y-81810000D01*
X166540000Y-84540000D02*
X166540000Y-76920000D01*
X166540000Y-76920000D02*
X161460000Y-76920000D01*
X161460000Y-76920000D02*
X161460000Y-87080000D01*
X161460000Y-87080000D02*
X164000000Y-87080000D01*
X166820000Y-85810000D02*
X166820000Y-87360000D01*
X164000000Y-87080000D02*
X164000000Y-84540000D01*
X164000000Y-84540000D02*
X166540000Y-84540000D01*
X166820000Y-87360000D02*
X165270000Y-87360000D01*
X147875000Y-87800000D02*
X147875000Y-86800000D01*
X146525000Y-86800000D02*
X146525000Y-87800000D01*
X135675000Y-87800000D02*
X135675000Y-86800000D01*
X134325000Y-86800000D02*
X134325000Y-87800000D01*
X134325000Y-74200000D02*
X134325000Y-75200000D01*
X135675000Y-75200000D02*
X135675000Y-74200000D01*
X146325000Y-74100000D02*
X146325000Y-75100000D01*
X147675000Y-75100000D02*
X147675000Y-74100000D01*
X158775000Y-87500000D02*
X158775000Y-86500000D01*
X157425000Y-86500000D02*
X157425000Y-87500000D01*
X146675000Y-85000000D02*
X146675000Y-84000000D01*
X145325000Y-84000000D02*
X145325000Y-85000000D01*
X145325000Y-77000000D02*
X145325000Y-78000000D01*
X146675000Y-78000000D02*
X146675000Y-77000000D01*
X157425000Y-74500000D02*
X157425000Y-75500000D01*
X158775000Y-75500000D02*
X158775000Y-74500000D01*
X159325000Y-86500000D02*
X159325000Y-87500000D01*
X160675000Y-87500000D02*
X160675000Y-86500000D01*
X159325000Y-82500000D02*
X159325000Y-83500000D01*
X160675000Y-83500000D02*
X160675000Y-82500000D01*
X160675000Y-79500000D02*
X160675000Y-78500000D01*
X159325000Y-78500000D02*
X159325000Y-79500000D01*
X160675000Y-75500000D02*
X160675000Y-74500000D01*
X159325000Y-74500000D02*
X159325000Y-75500000D01*
D13*
X151500000Y-88540000D02*
X151500000Y-83460000D01*
X148500000Y-88540000D02*
X148500000Y-83460000D01*
X151500000Y-88540000D02*
X148500000Y-88540000D01*
X151500000Y-83460000D02*
X148500000Y-83460000D01*
X139500000Y-88440000D02*
X139500000Y-83360000D01*
X136500000Y-88440000D02*
X136500000Y-83360000D01*
X139500000Y-88440000D02*
X136500000Y-88440000D01*
X139500000Y-83360000D02*
X136500000Y-83360000D01*
X136500000Y-73460000D02*
X136500000Y-78540000D01*
X139500000Y-73460000D02*
X139500000Y-78540000D01*
X136500000Y-73460000D02*
X139500000Y-73460000D01*
X136500000Y-78540000D02*
X139500000Y-78540000D01*
X148500000Y-73460000D02*
X148500000Y-78540000D01*
X151500000Y-73460000D02*
X151500000Y-78540000D01*
X148500000Y-73460000D02*
X151500000Y-73460000D01*
X148500000Y-78540000D02*
X151500000Y-78540000D01*
X144500000Y-88440000D02*
X144500000Y-83360000D01*
X141500000Y-88440000D02*
X141500000Y-83360000D01*
X144500000Y-88440000D02*
X141500000Y-88440000D01*
X144500000Y-83360000D02*
X141500000Y-83360000D01*
X141500000Y-73460000D02*
X141500000Y-78540000D01*
X144500000Y-73460000D02*
X144500000Y-78540000D01*
X141500000Y-73460000D02*
X144500000Y-73460000D01*
X141500000Y-78540000D02*
X144500000Y-78540000D01*
X153500000Y-73460000D02*
X153500000Y-78540000D01*
X156500000Y-73460000D02*
X156500000Y-78540000D01*
X153500000Y-73460000D02*
X156500000Y-73460000D01*
X153500000Y-78540000D02*
X156500000Y-78540000D01*
X156500000Y-88540000D02*
X156500000Y-83460000D01*
X153500000Y-88540000D02*
X153500000Y-83460000D01*
X156500000Y-88540000D02*
X153500000Y-88540000D01*
X156500000Y-83460000D02*
X153500000Y-83460000D01*
X161460000Y-75500000D02*
X166540000Y-75500000D01*
X161460000Y-72500000D02*
X166540000Y-72500000D01*
X161460000Y-75500000D02*
X161460000Y-72500000D01*
X166540000Y-75500000D02*
X166540000Y-72500000D01*
X166540000Y-88500000D02*
X161460000Y-88500000D01*
X166540000Y-91500000D02*
X161460000Y-91500000D01*
X166540000Y-88500000D02*
X166540000Y-91500000D01*
X161460000Y-88500000D02*
X161460000Y-91500000D01*
D11*
X146050000Y-87183334D02*
X146083333Y-87150000D01*
X146116667Y-87050000D01*
X146116667Y-86983334D01*
X146083333Y-86883334D01*
X146016667Y-86816667D01*
X145950000Y-86783334D01*
X145816667Y-86750000D01*
X145716667Y-86750000D01*
X145583333Y-86783334D01*
X145516667Y-86816667D01*
X145450000Y-86883334D01*
X145416667Y-86983334D01*
X145416667Y-87050000D01*
X145450000Y-87150000D01*
X145483333Y-87183334D01*
X145483333Y-87450000D02*
X145450000Y-87483334D01*
X145416667Y-87550000D01*
X145416667Y-87716667D01*
X145450000Y-87783334D01*
X145483333Y-87816667D01*
X145550000Y-87850000D01*
X145616667Y-87850000D01*
X145716667Y-87816667D01*
X146116667Y-87416667D01*
X146116667Y-87850000D01*
X135250000Y-89283334D02*
X135283333Y-89250000D01*
X135316667Y-89150000D01*
X135316667Y-89083334D01*
X135283333Y-88983334D01*
X135216667Y-88916667D01*
X135150000Y-88883334D01*
X135016667Y-88850000D01*
X134916667Y-88850000D01*
X134783333Y-88883334D01*
X134716667Y-88916667D01*
X134650000Y-88983334D01*
X134616667Y-89083334D01*
X134616667Y-89150000D01*
X134650000Y-89250000D01*
X134683333Y-89283334D01*
X134616667Y-89516667D02*
X134616667Y-89950000D01*
X134883333Y-89716667D01*
X134883333Y-89816667D01*
X134916667Y-89883334D01*
X134950000Y-89916667D01*
X135016667Y-89950000D01*
X135183333Y-89950000D01*
X135250000Y-89916667D01*
X135283333Y-89883334D01*
X135316667Y-89816667D01*
X135316667Y-89616667D01*
X135283333Y-89550000D01*
X135250000Y-89516667D01*
X135250000Y-72483334D02*
X135283333Y-72450000D01*
X135316667Y-72350000D01*
X135316667Y-72283334D01*
X135283333Y-72183334D01*
X135216667Y-72116667D01*
X135150000Y-72083334D01*
X135016667Y-72050000D01*
X134916667Y-72050000D01*
X134783333Y-72083334D01*
X134716667Y-72116667D01*
X134650000Y-72183334D01*
X134616667Y-72283334D01*
X134616667Y-72350000D01*
X134650000Y-72450000D01*
X134683333Y-72483334D01*
X134850000Y-73083334D02*
X135316667Y-73083334D01*
X134583333Y-72916667D02*
X135083333Y-72750000D01*
X135083333Y-73183334D01*
X145850000Y-74483334D02*
X145883333Y-74450000D01*
X145916667Y-74350000D01*
X145916667Y-74283334D01*
X145883333Y-74183334D01*
X145816667Y-74116667D01*
X145750000Y-74083334D01*
X145616667Y-74050000D01*
X145516667Y-74050000D01*
X145383333Y-74083334D01*
X145316667Y-74116667D01*
X145250000Y-74183334D01*
X145216667Y-74283334D01*
X145216667Y-74350000D01*
X145250000Y-74450000D01*
X145283333Y-74483334D01*
X145216667Y-75116667D02*
X145216667Y-74783334D01*
X145550000Y-74750000D01*
X145516667Y-74783334D01*
X145483333Y-74850000D01*
X145483333Y-75016667D01*
X145516667Y-75083334D01*
X145550000Y-75116667D01*
X145616667Y-75150000D01*
X145783333Y-75150000D01*
X145850000Y-75116667D01*
X145883333Y-75083334D01*
X145916667Y-75016667D01*
X145916667Y-74850000D01*
X145883333Y-74783334D01*
X145850000Y-74750000D01*
X158416667Y-88983334D02*
X158083333Y-88750000D01*
X158416667Y-88583334D02*
X157716667Y-88583334D01*
X157716667Y-88850000D01*
X157750000Y-88916667D01*
X157783333Y-88950000D01*
X157850000Y-88983334D01*
X157950000Y-88983334D01*
X158016667Y-88950000D01*
X158050000Y-88916667D01*
X158083333Y-88850000D01*
X158083333Y-88583334D01*
X158416667Y-89316667D02*
X158416667Y-89450000D01*
X158383333Y-89516667D01*
X158350000Y-89550000D01*
X158250000Y-89616667D01*
X158116667Y-89650000D01*
X157850000Y-89650000D01*
X157783333Y-89616667D01*
X157750000Y-89583334D01*
X157716667Y-89516667D01*
X157716667Y-89383334D01*
X157750000Y-89316667D01*
X157783333Y-89283334D01*
X157850000Y-89250000D01*
X158016667Y-89250000D01*
X158083333Y-89283334D01*
X158116667Y-89316667D01*
X158150000Y-89383334D01*
X158150000Y-89516667D01*
X158116667Y-89583334D01*
X158083333Y-89616667D01*
X158016667Y-89650000D01*
X147716667Y-84050000D02*
X147383333Y-83816666D01*
X147716667Y-83650000D02*
X147016667Y-83650000D01*
X147016667Y-83916666D01*
X147050000Y-83983333D01*
X147083333Y-84016666D01*
X147150000Y-84050000D01*
X147250000Y-84050000D01*
X147316667Y-84016666D01*
X147350000Y-83983333D01*
X147383333Y-83916666D01*
X147383333Y-83650000D01*
X147716667Y-84716666D02*
X147716667Y-84316666D01*
X147716667Y-84516666D02*
X147016667Y-84516666D01*
X147116667Y-84450000D01*
X147183333Y-84383333D01*
X147216667Y-84316666D01*
X147016667Y-85150000D02*
X147016667Y-85216667D01*
X147050000Y-85283333D01*
X147083333Y-85316667D01*
X147150000Y-85350000D01*
X147283333Y-85383333D01*
X147450000Y-85383333D01*
X147583333Y-85350000D01*
X147650000Y-85316667D01*
X147683333Y-85283333D01*
X147716667Y-85216667D01*
X147716667Y-85150000D01*
X147683333Y-85083333D01*
X147650000Y-85050000D01*
X147583333Y-85016667D01*
X147450000Y-84983333D01*
X147283333Y-84983333D01*
X147150000Y-85016667D01*
X147083333Y-85050000D01*
X147050000Y-85083333D01*
X147016667Y-85150000D01*
X147716667Y-77050000D02*
X147383333Y-76816666D01*
X147716667Y-76650000D02*
X147016667Y-76650000D01*
X147016667Y-76916666D01*
X147050000Y-76983333D01*
X147083333Y-77016666D01*
X147150000Y-77050000D01*
X147250000Y-77050000D01*
X147316667Y-77016666D01*
X147350000Y-76983333D01*
X147383333Y-76916666D01*
X147383333Y-76650000D01*
X147716667Y-77716666D02*
X147716667Y-77316666D01*
X147716667Y-77516666D02*
X147016667Y-77516666D01*
X147116667Y-77450000D01*
X147183333Y-77383333D01*
X147216667Y-77316666D01*
X147716667Y-78383333D02*
X147716667Y-77983333D01*
X147716667Y-78183333D02*
X147016667Y-78183333D01*
X147116667Y-78116667D01*
X147183333Y-78050000D01*
X147216667Y-77983333D01*
X158416667Y-72150000D02*
X158083333Y-71916666D01*
X158416667Y-71750000D02*
X157716667Y-71750000D01*
X157716667Y-72016666D01*
X157750000Y-72083333D01*
X157783333Y-72116666D01*
X157850000Y-72150000D01*
X157950000Y-72150000D01*
X158016667Y-72116666D01*
X158050000Y-72083333D01*
X158083333Y-72016666D01*
X158083333Y-71750000D01*
X158416667Y-72816666D02*
X158416667Y-72416666D01*
X158416667Y-72616666D02*
X157716667Y-72616666D01*
X157816667Y-72550000D01*
X157883333Y-72483333D01*
X157916667Y-72416666D01*
X157783333Y-73083333D02*
X157750000Y-73116667D01*
X157716667Y-73183333D01*
X157716667Y-73350000D01*
X157750000Y-73416667D01*
X157783333Y-73450000D01*
X157850000Y-73483333D01*
X157916667Y-73483333D01*
X158016667Y-73450000D01*
X158416667Y-73050000D01*
X158416667Y-73483333D01*
X160316667Y-88950000D02*
X159983333Y-88716666D01*
X160316667Y-88550000D02*
X159616667Y-88550000D01*
X159616667Y-88816666D01*
X159650000Y-88883333D01*
X159683333Y-88916666D01*
X159750000Y-88950000D01*
X159850000Y-88950000D01*
X159916667Y-88916666D01*
X159950000Y-88883333D01*
X159983333Y-88816666D01*
X159983333Y-88550000D01*
X160316667Y-89616666D02*
X160316667Y-89216666D01*
X160316667Y-89416666D02*
X159616667Y-89416666D01*
X159716667Y-89350000D01*
X159783333Y-89283333D01*
X159816667Y-89216666D01*
X159616667Y-89850000D02*
X159616667Y-90283333D01*
X159883333Y-90050000D01*
X159883333Y-90150000D01*
X159916667Y-90216667D01*
X159950000Y-90250000D01*
X160016667Y-90283333D01*
X160183333Y-90283333D01*
X160250000Y-90250000D01*
X160283333Y-90216667D01*
X160316667Y-90150000D01*
X160316667Y-89950000D01*
X160283333Y-89883333D01*
X160250000Y-89850000D01*
X159016667Y-82550000D02*
X158683333Y-82316666D01*
X159016667Y-82150000D02*
X158316667Y-82150000D01*
X158316667Y-82416666D01*
X158350000Y-82483333D01*
X158383333Y-82516666D01*
X158450000Y-82550000D01*
X158550000Y-82550000D01*
X158616667Y-82516666D01*
X158650000Y-82483333D01*
X158683333Y-82416666D01*
X158683333Y-82150000D01*
X159016667Y-83216666D02*
X159016667Y-82816666D01*
X159016667Y-83016666D02*
X158316667Y-83016666D01*
X158416667Y-82950000D01*
X158483333Y-82883333D01*
X158516667Y-82816666D01*
X158550000Y-83816667D02*
X159016667Y-83816667D01*
X158283333Y-83650000D02*
X158783333Y-83483333D01*
X158783333Y-83916667D01*
X159046667Y-78550000D02*
X158713333Y-78316666D01*
X159046667Y-78150000D02*
X158346667Y-78150000D01*
X158346667Y-78416666D01*
X158380000Y-78483333D01*
X158413333Y-78516666D01*
X158480000Y-78550000D01*
X158580000Y-78550000D01*
X158646667Y-78516666D01*
X158680000Y-78483333D01*
X158713333Y-78416666D01*
X158713333Y-78150000D01*
X159046667Y-79216666D02*
X159046667Y-78816666D01*
X159046667Y-79016666D02*
X158346667Y-79016666D01*
X158446667Y-78950000D01*
X158513333Y-78883333D01*
X158546667Y-78816666D01*
X158346667Y-79850000D02*
X158346667Y-79516667D01*
X158680000Y-79483333D01*
X158646667Y-79516667D01*
X158613333Y-79583333D01*
X158613333Y-79750000D01*
X158646667Y-79816667D01*
X158680000Y-79850000D01*
X158746667Y-79883333D01*
X158913333Y-79883333D01*
X158980000Y-79850000D01*
X159013333Y-79816667D01*
X159046667Y-79750000D01*
X159046667Y-79583333D01*
X159013333Y-79516667D01*
X158980000Y-79483333D01*
X160316667Y-72150000D02*
X159983333Y-71916666D01*
X160316667Y-71750000D02*
X159616667Y-71750000D01*
X159616667Y-72016666D01*
X159650000Y-72083333D01*
X159683333Y-72116666D01*
X159750000Y-72150000D01*
X159850000Y-72150000D01*
X159916667Y-72116666D01*
X159950000Y-72083333D01*
X159983333Y-72016666D01*
X159983333Y-71750000D01*
X160316667Y-72816666D02*
X160316667Y-72416666D01*
X160316667Y-72616666D02*
X159616667Y-72616666D01*
X159716667Y-72550000D01*
X159783333Y-72483333D01*
X159816667Y-72416666D01*
X159616667Y-73416667D02*
X159616667Y-73283333D01*
X159650000Y-73216667D01*
X159683333Y-73183333D01*
X159783333Y-73116667D01*
X159916667Y-73083333D01*
X160183333Y-73083333D01*
X160250000Y-73116667D01*
X160283333Y-73150000D01*
X160316667Y-73216667D01*
X160316667Y-73350000D01*
X160283333Y-73416667D01*
X160250000Y-73450000D01*
X160183333Y-73483333D01*
X160016667Y-73483333D01*
X159950000Y-73450000D01*
X159916667Y-73416667D01*
X159883333Y-73350000D01*
X159883333Y-73216667D01*
X159916667Y-73150000D01*
X159950000Y-73116667D01*
X160016667Y-73083333D01*
M02*
