G04 #@! TF.FileFunction,Copper,L1,Top,Signal*
%FSLAX46Y46*%
G04 Gerber Fmt 4.6, Leading zero omitted, Abs format (unit mm)*
G04 Created by KiCad (PCBNEW 4.0.6-e0-6349~53~ubuntu14.04.1) date Sat Apr 15 21:20:43 2017*
%MOMM*%
%LPD*%
G01*
G04 APERTURE LIST*
%ADD10C,0.100000*%
%ADD11R,0.650240X3.599180*%
%ADD12R,0.650240X4.599940*%
%ADD13O,0.650240X0.650240*%
%ADD14C,1.524000*%
%ADD15R,1.727200X1.727200*%
%ADD16O,1.727200X1.727200*%
%ADD17R,2.032000X1.727200*%
%ADD18O,2.032000X1.727200*%
%ADD19C,0.600000*%
%ADD20C,0.500000*%
%ADD21C,0.200000*%
%ADD22C,0.150000*%
G04 APERTURE END LIST*
D10*
D11*
X159499600Y-99499620D03*
D12*
X158498840Y-100000000D03*
X157500620Y-100000000D03*
X156499860Y-100000000D03*
X155499100Y-100000000D03*
X154500880Y-100000000D03*
X153500120Y-100000000D03*
X152499360Y-100000000D03*
X151501140Y-100000000D03*
X150500380Y-100000000D03*
X149499620Y-100000000D03*
X144500900Y-100000000D03*
X143500140Y-100000000D03*
X142499380Y-100000000D03*
X141501160Y-100000000D03*
X140500400Y-100000000D03*
X146499880Y-100000000D03*
X145499120Y-100000000D03*
D13*
X156499860Y-102301240D03*
X155499100Y-102301240D03*
X154500880Y-102301240D03*
X153500120Y-102301240D03*
X152499360Y-102301240D03*
X151501140Y-102301240D03*
X150500380Y-102301240D03*
X144500900Y-102301240D03*
X143500140Y-102301240D03*
X157500620Y-102301240D03*
X145499120Y-102301240D03*
X142499380Y-102301240D03*
X149499620Y-102301240D03*
X146499880Y-102301240D03*
X141501160Y-102301240D03*
X140500400Y-102301240D03*
X158498840Y-102301240D03*
D14*
X150000000Y-84730000D03*
X150000000Y-87270000D03*
X138000000Y-84630000D03*
X138000000Y-87170000D03*
X138000000Y-77270000D03*
X138000000Y-74730000D03*
X150000000Y-77270000D03*
X150000000Y-74730000D03*
X143000000Y-84630000D03*
X143000000Y-87170000D03*
X143000000Y-77270000D03*
X143000000Y-74730000D03*
X155000000Y-77270000D03*
X155000000Y-74730000D03*
X155000000Y-84730000D03*
X155000000Y-87270000D03*
X165270000Y-74000000D03*
X162730000Y-74000000D03*
X162730000Y-90000000D03*
X165270000Y-90000000D03*
D15*
X165270000Y-85810000D03*
D16*
X162730000Y-85810000D03*
X165270000Y-83270000D03*
X162730000Y-83270000D03*
X165270000Y-80730000D03*
X162730000Y-80730000D03*
X165270000Y-78190000D03*
X162730000Y-78190000D03*
D17*
X131200000Y-83360000D03*
D18*
X131200000Y-85900000D03*
X131200000Y-88440000D03*
D19*
X147150000Y-91000000D03*
X143750000Y-92550000D03*
X142500000Y-93400000D03*
X148500000Y-91950000D03*
X158050000Y-83800000D03*
X158850000Y-89300000D03*
X158100000Y-77200000D03*
X158100000Y-80850000D03*
X158100000Y-73100000D03*
D20*
X162730000Y-74000000D02*
X165270000Y-74000000D01*
X131200000Y-88440000D02*
X129190000Y-88440000D01*
X162730000Y-72030000D02*
X162730000Y-74000000D01*
X161800000Y-71100000D02*
X162730000Y-72030000D01*
X129750000Y-71100000D02*
X161800000Y-71100000D01*
X128150000Y-72700000D02*
X129750000Y-71100000D01*
X128150000Y-87400000D02*
X128150000Y-72700000D01*
X129190000Y-88440000D02*
X128150000Y-87400000D01*
D21*
X143500140Y-100000000D02*
X143500140Y-92799860D01*
X150000000Y-90100000D02*
X150000000Y-87270000D01*
X149100000Y-91000000D02*
X150000000Y-90100000D01*
X147150000Y-91000000D02*
X149100000Y-91000000D01*
X143500140Y-92799860D02*
X143750000Y-92550000D01*
D22*
X143500140Y-102301240D02*
X143500140Y-100000000D01*
D21*
X144500900Y-100000000D02*
X144500900Y-92300900D01*
X138000000Y-89450000D02*
X138000000Y-87170000D01*
X139000000Y-90450000D02*
X138000000Y-89450000D01*
X142650000Y-90450000D02*
X139000000Y-90450000D01*
X144500900Y-92300900D02*
X142650000Y-90450000D01*
D22*
X144500900Y-100000000D02*
X144500900Y-102301240D01*
D21*
X145499120Y-100000000D02*
X145499120Y-92804142D01*
X139580000Y-74730000D02*
X138000000Y-74730000D01*
X140450000Y-75600000D02*
X139580000Y-74730000D01*
X140450000Y-89500000D02*
X140450000Y-75600000D01*
X141049998Y-90099998D02*
X140450000Y-89500000D01*
X142794976Y-90099998D02*
X141049998Y-90099998D01*
X145499120Y-92804142D02*
X142794976Y-90099998D01*
D22*
X145499120Y-100000000D02*
X145499120Y-102301240D01*
D21*
X146499880Y-100000000D02*
X146499880Y-76250120D01*
X148020000Y-74730000D02*
X150000000Y-74730000D01*
X146499880Y-76250120D02*
X148020000Y-74730000D01*
D22*
X146499880Y-100000000D02*
X146499880Y-102301240D01*
D20*
X152499360Y-100000000D02*
X153500120Y-100000000D01*
X153500120Y-100000000D02*
X154500880Y-100000000D01*
X154500880Y-100000000D02*
X155499100Y-100000000D01*
X155499100Y-100000000D02*
X156499860Y-100000000D01*
X156499860Y-100000000D02*
X157500620Y-100000000D01*
X157500620Y-100000000D02*
X158498840Y-100000000D01*
X158498840Y-100000000D02*
X158999220Y-99499620D01*
X158999220Y-99499620D02*
X159499600Y-99499620D01*
D22*
X158498840Y-100000000D02*
X158498840Y-102301240D01*
X157500620Y-100000000D02*
X157500620Y-102301240D01*
X156499860Y-100000000D02*
X156499860Y-102301240D01*
X155499100Y-100000000D02*
X155499100Y-102301240D01*
X154500880Y-100000000D02*
X154500880Y-102301240D01*
X153500120Y-100000000D02*
X153500120Y-102301240D01*
X152499360Y-100000000D02*
X152499360Y-102301240D01*
D20*
X151501140Y-94250000D02*
X151501140Y-92751140D01*
X132460000Y-83360000D02*
X131200000Y-83360000D01*
X133200000Y-84100000D02*
X132460000Y-83360000D01*
X133200000Y-90200000D02*
X133200000Y-84100000D01*
X134150000Y-91150000D02*
X133200000Y-90200000D01*
X141300000Y-91150000D02*
X134150000Y-91150000D01*
X142000000Y-91850000D02*
X141300000Y-91150000D01*
X142000000Y-92900000D02*
X142000000Y-91850000D01*
X142500000Y-93400000D02*
X142000000Y-92900000D01*
X150700000Y-91950000D02*
X148500000Y-91950000D01*
X151501140Y-92751140D02*
X150700000Y-91950000D01*
X151501140Y-100000000D02*
X151501140Y-94250000D01*
X151501140Y-94250000D02*
X151501140Y-93698860D01*
X161430000Y-91300000D02*
X162730000Y-90000000D01*
X153900000Y-91300000D02*
X161430000Y-91300000D01*
X151501140Y-93698860D02*
X153900000Y-91300000D01*
X162730000Y-90000000D02*
X165270000Y-90000000D01*
D22*
X151501140Y-100000000D02*
X150500380Y-100000000D01*
X150500380Y-100000000D02*
X149499620Y-100000000D01*
X151501140Y-100000000D02*
X151501140Y-102301240D01*
X150500380Y-100000000D02*
X150500380Y-102301240D01*
X149499620Y-100000000D02*
X149499620Y-102301240D01*
X142499380Y-102301240D02*
X142499380Y-100000000D01*
X141501160Y-102301240D02*
X141501160Y-100000000D01*
X140500400Y-100000000D02*
X140500400Y-102301240D01*
X158050000Y-83800000D02*
X158100000Y-83800000D01*
X158100000Y-83800000D02*
X158050000Y-83800000D01*
X158050000Y-83800000D02*
X158100000Y-83800000D01*
D20*
X158100000Y-80850000D02*
X158100000Y-83800000D01*
X158100000Y-83800000D02*
X158100000Y-89050000D01*
X158350000Y-89300000D02*
X158850000Y-89300000D01*
X158100000Y-89050000D02*
X158350000Y-89300000D01*
X158100000Y-80850000D02*
X158100000Y-77200000D01*
X158100000Y-77200000D02*
X158100000Y-73100000D01*
D21*
G36*
X169597716Y-70402284D02*
X169605000Y-70438903D01*
X169605000Y-93061097D01*
X169597716Y-93097716D01*
X169561098Y-93105000D01*
X161100000Y-93105000D01*
X161061843Y-93112590D01*
X161022939Y-93112590D01*
X160659391Y-93184904D01*
X160659390Y-93184904D01*
X160517000Y-93243884D01*
X160208798Y-93449819D01*
X160154309Y-93504309D01*
X160099819Y-93558798D01*
X159893884Y-93867000D01*
X159834904Y-94009390D01*
X159834904Y-94009391D01*
X159762590Y-94372940D01*
X159762590Y-94411843D01*
X159755000Y-94450000D01*
X159755000Y-97373761D01*
X159174480Y-97373761D01*
X159055895Y-97396074D01*
X158999265Y-97432515D01*
X158950897Y-97399466D01*
X158823960Y-97373761D01*
X158173720Y-97373761D01*
X158055135Y-97396074D01*
X157999813Y-97431673D01*
X157952677Y-97399466D01*
X157825740Y-97373761D01*
X157175500Y-97373761D01*
X157056915Y-97396074D01*
X157000285Y-97432515D01*
X156951917Y-97399466D01*
X156824980Y-97373761D01*
X156174740Y-97373761D01*
X156056155Y-97396074D01*
X155999525Y-97432515D01*
X155951157Y-97399466D01*
X155824220Y-97373761D01*
X155173980Y-97373761D01*
X155055395Y-97396074D01*
X155000073Y-97431673D01*
X154952937Y-97399466D01*
X154826000Y-97373761D01*
X154175760Y-97373761D01*
X154057175Y-97396074D01*
X154000545Y-97432515D01*
X153952177Y-97399466D01*
X153825240Y-97373761D01*
X153175000Y-97373761D01*
X153056415Y-97396074D01*
X152999785Y-97432515D01*
X152951417Y-97399466D01*
X152824480Y-97373761D01*
X152174240Y-97373761D01*
X152071140Y-97393160D01*
X152071140Y-93934962D01*
X154136102Y-91870000D01*
X161430000Y-91870000D01*
X161648130Y-91826611D01*
X161833051Y-91703051D01*
X162471760Y-91064342D01*
X162513833Y-91081812D01*
X162944279Y-91082188D01*
X163342103Y-90917810D01*
X163646740Y-90613704D01*
X163664888Y-90570000D01*
X164334793Y-90570000D01*
X164352190Y-90612103D01*
X164656296Y-90916740D01*
X165053833Y-91081812D01*
X165484279Y-91082188D01*
X165882103Y-90917810D01*
X166186740Y-90613704D01*
X166351812Y-90216167D01*
X166352188Y-89785721D01*
X166187810Y-89387897D01*
X165883704Y-89083260D01*
X165486167Y-88918188D01*
X165055721Y-88917812D01*
X164657897Y-89082190D01*
X164353260Y-89386296D01*
X164335112Y-89430000D01*
X163665207Y-89430000D01*
X163647810Y-89387897D01*
X163343704Y-89083260D01*
X162946167Y-88918188D01*
X162515721Y-88917812D01*
X162117897Y-89082190D01*
X161813260Y-89386296D01*
X161648188Y-89783833D01*
X161647812Y-90214279D01*
X161665883Y-90258015D01*
X161193898Y-90730000D01*
X153900000Y-90730000D01*
X153681870Y-90773389D01*
X153526483Y-90877215D01*
X153496949Y-90896949D01*
X151960915Y-92432983D01*
X151904191Y-92348089D01*
X151103051Y-91546949D01*
X151059920Y-91518130D01*
X150918130Y-91423389D01*
X150700000Y-91380000D01*
X149272743Y-91380000D01*
X149396985Y-91296985D01*
X150296985Y-90396985D01*
X150388029Y-90260727D01*
X150420000Y-90100000D01*
X150420000Y-88267186D01*
X150612103Y-88187810D01*
X150916740Y-87883704D01*
X151081812Y-87486167D01*
X151081813Y-87484279D01*
X153917812Y-87484279D01*
X154082190Y-87882103D01*
X154386296Y-88186740D01*
X154783833Y-88351812D01*
X155214279Y-88352188D01*
X155612103Y-88187810D01*
X155916740Y-87883704D01*
X156081812Y-87486167D01*
X156082188Y-87055721D01*
X155917810Y-86657897D01*
X155613704Y-86353260D01*
X155216167Y-86188188D01*
X154785721Y-86187812D01*
X154387897Y-86352190D01*
X154083260Y-86656296D01*
X153918188Y-87053833D01*
X153917812Y-87484279D01*
X151081813Y-87484279D01*
X151082188Y-87055721D01*
X150917810Y-86657897D01*
X150613704Y-86353260D01*
X150216167Y-86188188D01*
X149785721Y-86187812D01*
X149387897Y-86352190D01*
X149083260Y-86656296D01*
X148918188Y-87053833D01*
X148917812Y-87484279D01*
X149082190Y-87882103D01*
X149386296Y-88186740D01*
X149580000Y-88267173D01*
X149580000Y-89926030D01*
X148926030Y-90580000D01*
X147606781Y-90580000D01*
X147501661Y-90474696D01*
X147273867Y-90380107D01*
X147027215Y-90379892D01*
X146919880Y-90424242D01*
X146919880Y-84944279D01*
X148917812Y-84944279D01*
X149082190Y-85342103D01*
X149386296Y-85646740D01*
X149783833Y-85811812D01*
X150214279Y-85812188D01*
X150612103Y-85647810D01*
X150916740Y-85343704D01*
X151081812Y-84946167D01*
X151081813Y-84944279D01*
X153917812Y-84944279D01*
X154082190Y-85342103D01*
X154386296Y-85646740D01*
X154783833Y-85811812D01*
X155214279Y-85812188D01*
X155612103Y-85647810D01*
X155916740Y-85343704D01*
X156081812Y-84946167D01*
X156082188Y-84515721D01*
X155917810Y-84117897D01*
X155723039Y-83922785D01*
X157429892Y-83922785D01*
X157524083Y-84150743D01*
X157530000Y-84156670D01*
X157530000Y-89050000D01*
X157573389Y-89268130D01*
X157652345Y-89386296D01*
X157696949Y-89453051D01*
X157946949Y-89703051D01*
X158131870Y-89826611D01*
X158350000Y-89870000D01*
X158605978Y-89870000D01*
X158726133Y-89919893D01*
X158972785Y-89920108D01*
X159200743Y-89825917D01*
X159375304Y-89651661D01*
X159469893Y-89423867D01*
X159470108Y-89177215D01*
X159375917Y-88949257D01*
X159201661Y-88774696D01*
X158973867Y-88680107D01*
X158727215Y-88679892D01*
X158670000Y-88703533D01*
X158670000Y-85786812D01*
X161546400Y-85786812D01*
X161546400Y-85833188D01*
X161636496Y-86286132D01*
X161893068Y-86670120D01*
X162277056Y-86926692D01*
X162730000Y-87016788D01*
X163182944Y-86926692D01*
X163566932Y-86670120D01*
X163823504Y-86286132D01*
X163908266Y-85860000D01*
X164306400Y-85860000D01*
X164306400Y-86693491D01*
X164321624Y-86730245D01*
X164349754Y-86758376D01*
X164386509Y-86773600D01*
X165220000Y-86773600D01*
X165245000Y-86748600D01*
X165245000Y-85835000D01*
X165295000Y-85835000D01*
X165295000Y-86748600D01*
X165320000Y-86773600D01*
X166153491Y-86773600D01*
X166190246Y-86758376D01*
X166218376Y-86730245D01*
X166233600Y-86693491D01*
X166233600Y-85860000D01*
X166208600Y-85835000D01*
X165295000Y-85835000D01*
X165245000Y-85835000D01*
X164331400Y-85835000D01*
X164306400Y-85860000D01*
X163908266Y-85860000D01*
X163913600Y-85833188D01*
X163913600Y-85786812D01*
X163823504Y-85333868D01*
X163566932Y-84949880D01*
X163531955Y-84926509D01*
X164306400Y-84926509D01*
X164306400Y-85760000D01*
X164331400Y-85785000D01*
X165245000Y-85785000D01*
X165245000Y-84871400D01*
X165295000Y-84871400D01*
X165295000Y-85785000D01*
X166208600Y-85785000D01*
X166233600Y-85760000D01*
X166233600Y-84926509D01*
X166218376Y-84889755D01*
X166190246Y-84861624D01*
X166153491Y-84846400D01*
X165320000Y-84846400D01*
X165295000Y-84871400D01*
X165245000Y-84871400D01*
X165220000Y-84846400D01*
X164386509Y-84846400D01*
X164349754Y-84861624D01*
X164321624Y-84889755D01*
X164306400Y-84926509D01*
X163531955Y-84926509D01*
X163182944Y-84693308D01*
X162730000Y-84603212D01*
X162277056Y-84693308D01*
X161893068Y-84949880D01*
X161636496Y-85333868D01*
X161546400Y-85786812D01*
X158670000Y-85786812D01*
X158670000Y-83801115D01*
X158670108Y-83677215D01*
X158670000Y-83676954D01*
X158670000Y-83246812D01*
X161546400Y-83246812D01*
X161546400Y-83293188D01*
X161636496Y-83746132D01*
X161893068Y-84130120D01*
X162277056Y-84386692D01*
X162730000Y-84476788D01*
X163182944Y-84386692D01*
X163566932Y-84130120D01*
X163823504Y-83746132D01*
X163883326Y-83445382D01*
X164322491Y-83445382D01*
X164461732Y-83794628D01*
X164724024Y-84064004D01*
X165069436Y-84212500D01*
X165094618Y-84217506D01*
X165245000Y-84208267D01*
X165245000Y-83295000D01*
X165295000Y-83295000D01*
X165295000Y-84208267D01*
X165445382Y-84217506D01*
X165470564Y-84212500D01*
X165815976Y-84064004D01*
X166078268Y-83794628D01*
X166217509Y-83445382D01*
X166208279Y-83295000D01*
X165295000Y-83295000D01*
X165245000Y-83295000D01*
X164331721Y-83295000D01*
X164322491Y-83445382D01*
X163883326Y-83445382D01*
X163913600Y-83293188D01*
X163913600Y-83246812D01*
X163883327Y-83094618D01*
X164322491Y-83094618D01*
X164331721Y-83245000D01*
X165245000Y-83245000D01*
X165245000Y-82331733D01*
X165295000Y-82331733D01*
X165295000Y-83245000D01*
X166208279Y-83245000D01*
X166217509Y-83094618D01*
X166078268Y-82745372D01*
X165815976Y-82475996D01*
X165470564Y-82327500D01*
X165445382Y-82322494D01*
X165295000Y-82331733D01*
X165245000Y-82331733D01*
X165094618Y-82322494D01*
X165069436Y-82327500D01*
X164724024Y-82475996D01*
X164461732Y-82745372D01*
X164322491Y-83094618D01*
X163883327Y-83094618D01*
X163823504Y-82793868D01*
X163566932Y-82409880D01*
X163182944Y-82153308D01*
X162730000Y-82063212D01*
X162277056Y-82153308D01*
X161893068Y-82409880D01*
X161636496Y-82793868D01*
X161546400Y-83246812D01*
X158670000Y-83246812D01*
X158670000Y-81094022D01*
X158719893Y-80973867D01*
X158720108Y-80727215D01*
X158711678Y-80706812D01*
X161546400Y-80706812D01*
X161546400Y-80753188D01*
X161636496Y-81206132D01*
X161893068Y-81590120D01*
X162277056Y-81846692D01*
X162730000Y-81936788D01*
X163182944Y-81846692D01*
X163566932Y-81590120D01*
X163823504Y-81206132D01*
X163883326Y-80905382D01*
X164322491Y-80905382D01*
X164461732Y-81254628D01*
X164724024Y-81524004D01*
X165069436Y-81672500D01*
X165094618Y-81677506D01*
X165245000Y-81668267D01*
X165245000Y-80755000D01*
X165295000Y-80755000D01*
X165295000Y-81668267D01*
X165445382Y-81677506D01*
X165470564Y-81672500D01*
X165815976Y-81524004D01*
X166078268Y-81254628D01*
X166217509Y-80905382D01*
X166208279Y-80755000D01*
X165295000Y-80755000D01*
X165245000Y-80755000D01*
X164331721Y-80755000D01*
X164322491Y-80905382D01*
X163883326Y-80905382D01*
X163913600Y-80753188D01*
X163913600Y-80706812D01*
X163883327Y-80554618D01*
X164322491Y-80554618D01*
X164331721Y-80705000D01*
X165245000Y-80705000D01*
X165245000Y-79791733D01*
X165295000Y-79791733D01*
X165295000Y-80705000D01*
X166208279Y-80705000D01*
X166217509Y-80554618D01*
X166078268Y-80205372D01*
X165815976Y-79935996D01*
X165470564Y-79787500D01*
X165445382Y-79782494D01*
X165295000Y-79791733D01*
X165245000Y-79791733D01*
X165094618Y-79782494D01*
X165069436Y-79787500D01*
X164724024Y-79935996D01*
X164461732Y-80205372D01*
X164322491Y-80554618D01*
X163883327Y-80554618D01*
X163823504Y-80253868D01*
X163566932Y-79869880D01*
X163182944Y-79613308D01*
X162730000Y-79523212D01*
X162277056Y-79613308D01*
X161893068Y-79869880D01*
X161636496Y-80253868D01*
X161546400Y-80706812D01*
X158711678Y-80706812D01*
X158670000Y-80605945D01*
X158670000Y-78166812D01*
X161546400Y-78166812D01*
X161546400Y-78213188D01*
X161636496Y-78666132D01*
X161893068Y-79050120D01*
X162277056Y-79306692D01*
X162730000Y-79396788D01*
X163182944Y-79306692D01*
X163566932Y-79050120D01*
X163823504Y-78666132D01*
X163883326Y-78365382D01*
X164322491Y-78365382D01*
X164461732Y-78714628D01*
X164724024Y-78984004D01*
X165069436Y-79132500D01*
X165094618Y-79137506D01*
X165245000Y-79128267D01*
X165245000Y-78215000D01*
X165295000Y-78215000D01*
X165295000Y-79128267D01*
X165445382Y-79137506D01*
X165470564Y-79132500D01*
X165815976Y-78984004D01*
X166078268Y-78714628D01*
X166217509Y-78365382D01*
X166208279Y-78215000D01*
X165295000Y-78215000D01*
X165245000Y-78215000D01*
X164331721Y-78215000D01*
X164322491Y-78365382D01*
X163883326Y-78365382D01*
X163913600Y-78213188D01*
X163913600Y-78166812D01*
X163883327Y-78014618D01*
X164322491Y-78014618D01*
X164331721Y-78165000D01*
X165245000Y-78165000D01*
X165245000Y-77251733D01*
X165295000Y-77251733D01*
X165295000Y-78165000D01*
X166208279Y-78165000D01*
X166217509Y-78014618D01*
X166078268Y-77665372D01*
X165815976Y-77395996D01*
X165470564Y-77247500D01*
X165445382Y-77242494D01*
X165295000Y-77251733D01*
X165245000Y-77251733D01*
X165094618Y-77242494D01*
X165069436Y-77247500D01*
X164724024Y-77395996D01*
X164461732Y-77665372D01*
X164322491Y-78014618D01*
X163883327Y-78014618D01*
X163823504Y-77713868D01*
X163566932Y-77329880D01*
X163182944Y-77073308D01*
X162730000Y-76983212D01*
X162277056Y-77073308D01*
X161893068Y-77329880D01*
X161636496Y-77713868D01*
X161546400Y-78166812D01*
X158670000Y-78166812D01*
X158670000Y-77444022D01*
X158719893Y-77323867D01*
X158720108Y-77077215D01*
X158670000Y-76955945D01*
X158670000Y-73344022D01*
X158719893Y-73223867D01*
X158720108Y-72977215D01*
X158625917Y-72749257D01*
X158451661Y-72574696D01*
X158223867Y-72480107D01*
X157977215Y-72479892D01*
X157749257Y-72574083D01*
X157574696Y-72748339D01*
X157480107Y-72976133D01*
X157479892Y-73222785D01*
X157530000Y-73344055D01*
X157530000Y-76955978D01*
X157480107Y-77076133D01*
X157479892Y-77322785D01*
X157530000Y-77444055D01*
X157530000Y-80605978D01*
X157480107Y-80726133D01*
X157479892Y-80972785D01*
X157530000Y-81094055D01*
X157530000Y-83443044D01*
X157524696Y-83448339D01*
X157430107Y-83676133D01*
X157429892Y-83922785D01*
X155723039Y-83922785D01*
X155613704Y-83813260D01*
X155216167Y-83648188D01*
X154785721Y-83647812D01*
X154387897Y-83812190D01*
X154083260Y-84116296D01*
X153918188Y-84513833D01*
X153917812Y-84944279D01*
X151081813Y-84944279D01*
X151082188Y-84515721D01*
X150917810Y-84117897D01*
X150613704Y-83813260D01*
X150216167Y-83648188D01*
X149785721Y-83647812D01*
X149387897Y-83812190D01*
X149083260Y-84116296D01*
X148918188Y-84513833D01*
X148917812Y-84944279D01*
X146919880Y-84944279D01*
X146919880Y-77484279D01*
X148917812Y-77484279D01*
X149082190Y-77882103D01*
X149386296Y-78186740D01*
X149783833Y-78351812D01*
X150214279Y-78352188D01*
X150612103Y-78187810D01*
X150916740Y-77883704D01*
X151081812Y-77486167D01*
X151081813Y-77484279D01*
X153917812Y-77484279D01*
X154082190Y-77882103D01*
X154386296Y-78186740D01*
X154783833Y-78351812D01*
X155214279Y-78352188D01*
X155612103Y-78187810D01*
X155916740Y-77883704D01*
X156081812Y-77486167D01*
X156082188Y-77055721D01*
X155917810Y-76657897D01*
X155613704Y-76353260D01*
X155216167Y-76188188D01*
X154785721Y-76187812D01*
X154387897Y-76352190D01*
X154083260Y-76656296D01*
X153918188Y-77053833D01*
X153917812Y-77484279D01*
X151081813Y-77484279D01*
X151082188Y-77055721D01*
X150917810Y-76657897D01*
X150613704Y-76353260D01*
X150216167Y-76188188D01*
X149785721Y-76187812D01*
X149387897Y-76352190D01*
X149083260Y-76656296D01*
X148918188Y-77053833D01*
X148917812Y-77484279D01*
X146919880Y-77484279D01*
X146919880Y-76424090D01*
X148193970Y-75150000D01*
X149002814Y-75150000D01*
X149082190Y-75342103D01*
X149386296Y-75646740D01*
X149783833Y-75811812D01*
X150214279Y-75812188D01*
X150612103Y-75647810D01*
X150916740Y-75343704D01*
X151081812Y-74946167D01*
X151081813Y-74944279D01*
X153917812Y-74944279D01*
X154082190Y-75342103D01*
X154386296Y-75646740D01*
X154783833Y-75811812D01*
X155214279Y-75812188D01*
X155612103Y-75647810D01*
X155916740Y-75343704D01*
X156081812Y-74946167D01*
X156082188Y-74515721D01*
X155917810Y-74117897D01*
X155613704Y-73813260D01*
X155216167Y-73648188D01*
X154785721Y-73647812D01*
X154387897Y-73812190D01*
X154083260Y-74116296D01*
X153918188Y-74513833D01*
X153917812Y-74944279D01*
X151081813Y-74944279D01*
X151082188Y-74515721D01*
X150917810Y-74117897D01*
X150613704Y-73813260D01*
X150216167Y-73648188D01*
X149785721Y-73647812D01*
X149387897Y-73812190D01*
X149083260Y-74116296D01*
X149002827Y-74310000D01*
X148020000Y-74310000D01*
X147859273Y-74341971D01*
X147723015Y-74433015D01*
X146202895Y-75953135D01*
X146111851Y-76089393D01*
X146079880Y-76250120D01*
X146079880Y-97391614D01*
X146056175Y-97396074D01*
X145999545Y-97432515D01*
X145951177Y-97399466D01*
X145919120Y-97392974D01*
X145919120Y-92804142D01*
X145887149Y-92643415D01*
X145796105Y-92507157D01*
X143091961Y-89803013D01*
X142955703Y-89711969D01*
X142794976Y-89679998D01*
X141223968Y-89679998D01*
X140870000Y-89326030D01*
X140870000Y-87384279D01*
X141917812Y-87384279D01*
X142082190Y-87782103D01*
X142386296Y-88086740D01*
X142783833Y-88251812D01*
X143214279Y-88252188D01*
X143612103Y-88087810D01*
X143916740Y-87783704D01*
X144081812Y-87386167D01*
X144082188Y-86955721D01*
X143917810Y-86557897D01*
X143613704Y-86253260D01*
X143216167Y-86088188D01*
X142785721Y-86087812D01*
X142387897Y-86252190D01*
X142083260Y-86556296D01*
X141918188Y-86953833D01*
X141917812Y-87384279D01*
X140870000Y-87384279D01*
X140870000Y-84844279D01*
X141917812Y-84844279D01*
X142082190Y-85242103D01*
X142386296Y-85546740D01*
X142783833Y-85711812D01*
X143214279Y-85712188D01*
X143612103Y-85547810D01*
X143916740Y-85243704D01*
X144081812Y-84846167D01*
X144082188Y-84415721D01*
X143917810Y-84017897D01*
X143613704Y-83713260D01*
X143216167Y-83548188D01*
X142785721Y-83547812D01*
X142387897Y-83712190D01*
X142083260Y-84016296D01*
X141918188Y-84413833D01*
X141917812Y-84844279D01*
X140870000Y-84844279D01*
X140870000Y-77484279D01*
X141917812Y-77484279D01*
X142082190Y-77882103D01*
X142386296Y-78186740D01*
X142783833Y-78351812D01*
X143214279Y-78352188D01*
X143612103Y-78187810D01*
X143916740Y-77883704D01*
X144081812Y-77486167D01*
X144082188Y-77055721D01*
X143917810Y-76657897D01*
X143613704Y-76353260D01*
X143216167Y-76188188D01*
X142785721Y-76187812D01*
X142387897Y-76352190D01*
X142083260Y-76656296D01*
X141918188Y-77053833D01*
X141917812Y-77484279D01*
X140870000Y-77484279D01*
X140870000Y-75600000D01*
X140838029Y-75439273D01*
X140746985Y-75303015D01*
X140388249Y-74944279D01*
X141917812Y-74944279D01*
X142082190Y-75342103D01*
X142386296Y-75646740D01*
X142783833Y-75811812D01*
X143214279Y-75812188D01*
X143612103Y-75647810D01*
X143916740Y-75343704D01*
X144081812Y-74946167D01*
X144082188Y-74515721D01*
X143917810Y-74117897D01*
X143613704Y-73813260D01*
X143216167Y-73648188D01*
X142785721Y-73647812D01*
X142387897Y-73812190D01*
X142083260Y-74116296D01*
X141918188Y-74513833D01*
X141917812Y-74944279D01*
X140388249Y-74944279D01*
X139876985Y-74433015D01*
X139740727Y-74341971D01*
X139580000Y-74310000D01*
X138997186Y-74310000D01*
X138917810Y-74117897D01*
X138613704Y-73813260D01*
X138216167Y-73648188D01*
X137785721Y-73647812D01*
X137387897Y-73812190D01*
X137083260Y-74116296D01*
X136918188Y-74513833D01*
X136917812Y-74944279D01*
X137082190Y-75342103D01*
X137386296Y-75646740D01*
X137783833Y-75811812D01*
X138214279Y-75812188D01*
X138612103Y-75647810D01*
X138916740Y-75343704D01*
X138997173Y-75150000D01*
X139406030Y-75150000D01*
X140030000Y-75773970D01*
X140030000Y-89500000D01*
X140061971Y-89660727D01*
X140153015Y-89796985D01*
X140386030Y-90030000D01*
X139173970Y-90030000D01*
X138420000Y-89276030D01*
X138420000Y-88167186D01*
X138612103Y-88087810D01*
X138916740Y-87783704D01*
X139081812Y-87386167D01*
X139082188Y-86955721D01*
X138917810Y-86557897D01*
X138613704Y-86253260D01*
X138216167Y-86088188D01*
X137785721Y-86087812D01*
X137387897Y-86252190D01*
X137083260Y-86556296D01*
X136918188Y-86953833D01*
X136917812Y-87384279D01*
X137082190Y-87782103D01*
X137386296Y-88086740D01*
X137580000Y-88167173D01*
X137580000Y-89450000D01*
X137611971Y-89610727D01*
X137703015Y-89746985D01*
X138536030Y-90580000D01*
X134386102Y-90580000D01*
X133770000Y-89963898D01*
X133770000Y-84844279D01*
X136917812Y-84844279D01*
X137082190Y-85242103D01*
X137386296Y-85546740D01*
X137783833Y-85711812D01*
X138214279Y-85712188D01*
X138612103Y-85547810D01*
X138916740Y-85243704D01*
X139081812Y-84846167D01*
X139082188Y-84415721D01*
X138917810Y-84017897D01*
X138613704Y-83713260D01*
X138216167Y-83548188D01*
X137785721Y-83547812D01*
X137387897Y-83712190D01*
X137083260Y-84016296D01*
X136918188Y-84413833D01*
X136917812Y-84844279D01*
X133770000Y-84844279D01*
X133770000Y-84100000D01*
X133726611Y-83881870D01*
X133603051Y-83696949D01*
X132863051Y-82956949D01*
X132678130Y-82833389D01*
X132542269Y-82806364D01*
X132542269Y-82496400D01*
X132519956Y-82377815D01*
X132449872Y-82268902D01*
X132342937Y-82195836D01*
X132216000Y-82170131D01*
X130184000Y-82170131D01*
X130065415Y-82192444D01*
X129956502Y-82262528D01*
X129883436Y-82369463D01*
X129857731Y-82496400D01*
X129857731Y-84223600D01*
X129880044Y-84342185D01*
X129950128Y-84451098D01*
X130057063Y-84524164D01*
X130184000Y-84549869D01*
X132216000Y-84549869D01*
X132334585Y-84527556D01*
X132443498Y-84457472D01*
X132516564Y-84350537D01*
X132538098Y-84244200D01*
X132630000Y-84336102D01*
X132630000Y-90200000D01*
X132673389Y-90418130D01*
X132745874Y-90526611D01*
X132796949Y-90603051D01*
X133746949Y-91553051D01*
X133931870Y-91676611D01*
X134150000Y-91720000D01*
X141063898Y-91720000D01*
X141430000Y-92086102D01*
X141430000Y-92900000D01*
X141473389Y-93118130D01*
X141578963Y-93276133D01*
X141596949Y-93303051D01*
X141924400Y-93630502D01*
X141974083Y-93750743D01*
X142148339Y-93925304D01*
X142376133Y-94019893D01*
X142622785Y-94020108D01*
X142850743Y-93925917D01*
X143025304Y-93751661D01*
X143080140Y-93619602D01*
X143080140Y-97391614D01*
X143056435Y-97396074D01*
X142999805Y-97432515D01*
X142951437Y-97399466D01*
X142824500Y-97373761D01*
X142174260Y-97373761D01*
X142055675Y-97396074D01*
X142000353Y-97431673D01*
X141953217Y-97399466D01*
X141826280Y-97373761D01*
X141176040Y-97373761D01*
X141057455Y-97396074D01*
X141000825Y-97432515D01*
X140952457Y-97399466D01*
X140825520Y-97373761D01*
X140245000Y-97373761D01*
X140245000Y-94450000D01*
X140237410Y-94411843D01*
X140237410Y-94372939D01*
X140165096Y-94009391D01*
X140165096Y-94009390D01*
X140106116Y-93867000D01*
X139900181Y-93558798D01*
X139845691Y-93504309D01*
X139791202Y-93449819D01*
X139483000Y-93243884D01*
X139340610Y-93184904D01*
X139340609Y-93184904D01*
X138977060Y-93112590D01*
X138938157Y-93112590D01*
X138900000Y-93105000D01*
X127038903Y-93105000D01*
X126388755Y-92975677D01*
X125870565Y-92629435D01*
X125524323Y-92111245D01*
X125395000Y-91461096D01*
X125395000Y-72700000D01*
X127580000Y-72700000D01*
X127580000Y-87400000D01*
X127623389Y-87618130D01*
X127732952Y-87782103D01*
X127746949Y-87803051D01*
X128786949Y-88843051D01*
X128971870Y-88966611D01*
X129190000Y-89010000D01*
X130006136Y-89010000D01*
X130184494Y-89276932D01*
X130568482Y-89533504D01*
X131021426Y-89623600D01*
X131378574Y-89623600D01*
X131831518Y-89533504D01*
X132215506Y-89276932D01*
X132472078Y-88892944D01*
X132562174Y-88440000D01*
X132472078Y-87987056D01*
X132215506Y-87603068D01*
X131831518Y-87346496D01*
X131378574Y-87256400D01*
X131021426Y-87256400D01*
X130568482Y-87346496D01*
X130184494Y-87603068D01*
X130006136Y-87870000D01*
X129426102Y-87870000D01*
X128720000Y-87163898D01*
X128720000Y-85900000D01*
X129837826Y-85900000D01*
X129927922Y-86352944D01*
X130184494Y-86736932D01*
X130568482Y-86993504D01*
X131021426Y-87083600D01*
X131378574Y-87083600D01*
X131831518Y-86993504D01*
X132215506Y-86736932D01*
X132472078Y-86352944D01*
X132562174Y-85900000D01*
X132472078Y-85447056D01*
X132215506Y-85063068D01*
X131831518Y-84806496D01*
X131378574Y-84716400D01*
X131021426Y-84716400D01*
X130568482Y-84806496D01*
X130184494Y-85063068D01*
X129927922Y-85447056D01*
X129837826Y-85900000D01*
X128720000Y-85900000D01*
X128720000Y-77484279D01*
X136917812Y-77484279D01*
X137082190Y-77882103D01*
X137386296Y-78186740D01*
X137783833Y-78351812D01*
X138214279Y-78352188D01*
X138612103Y-78187810D01*
X138916740Y-77883704D01*
X139081812Y-77486167D01*
X139082188Y-77055721D01*
X138917810Y-76657897D01*
X138613704Y-76353260D01*
X138216167Y-76188188D01*
X137785721Y-76187812D01*
X137387897Y-76352190D01*
X137083260Y-76656296D01*
X136918188Y-77053833D01*
X136917812Y-77484279D01*
X128720000Y-77484279D01*
X128720000Y-72936102D01*
X129986102Y-71670000D01*
X161563898Y-71670000D01*
X162160000Y-72266102D01*
X162160000Y-73064793D01*
X162117897Y-73082190D01*
X161813260Y-73386296D01*
X161648188Y-73783833D01*
X161647812Y-74214279D01*
X161812190Y-74612103D01*
X162116296Y-74916740D01*
X162513833Y-75081812D01*
X162944279Y-75082188D01*
X163342103Y-74917810D01*
X163646740Y-74613704D01*
X163664888Y-74570000D01*
X164334793Y-74570000D01*
X164352190Y-74612103D01*
X164656296Y-74916740D01*
X165053833Y-75081812D01*
X165484279Y-75082188D01*
X165882103Y-74917810D01*
X166186740Y-74613704D01*
X166351812Y-74216167D01*
X166352188Y-73785721D01*
X166187810Y-73387897D01*
X165883704Y-73083260D01*
X165486167Y-72918188D01*
X165055721Y-72917812D01*
X164657897Y-73082190D01*
X164353260Y-73386296D01*
X164335112Y-73430000D01*
X163665207Y-73430000D01*
X163647810Y-73387897D01*
X163343704Y-73083260D01*
X163300000Y-73065112D01*
X163300000Y-72030000D01*
X163294033Y-72000000D01*
X163256612Y-71811871D01*
X163133051Y-71626949D01*
X162203051Y-70696949D01*
X162087065Y-70619450D01*
X162018130Y-70573389D01*
X161800000Y-70530000D01*
X129750000Y-70530000D01*
X129531871Y-70573388D01*
X129346949Y-70696949D01*
X127746949Y-72296949D01*
X127623389Y-72481870D01*
X127580000Y-72700000D01*
X125395000Y-72700000D01*
X125395000Y-72038904D01*
X125524323Y-71388755D01*
X125870565Y-70870565D01*
X126388755Y-70524323D01*
X127038903Y-70395000D01*
X169561098Y-70395000D01*
X169597716Y-70402284D01*
X169597716Y-70402284D01*
G37*
X169597716Y-70402284D02*
X169605000Y-70438903D01*
X169605000Y-93061097D01*
X169597716Y-93097716D01*
X169561098Y-93105000D01*
X161100000Y-93105000D01*
X161061843Y-93112590D01*
X161022939Y-93112590D01*
X160659391Y-93184904D01*
X160659390Y-93184904D01*
X160517000Y-93243884D01*
X160208798Y-93449819D01*
X160154309Y-93504309D01*
X160099819Y-93558798D01*
X159893884Y-93867000D01*
X159834904Y-94009390D01*
X159834904Y-94009391D01*
X159762590Y-94372940D01*
X159762590Y-94411843D01*
X159755000Y-94450000D01*
X159755000Y-97373761D01*
X159174480Y-97373761D01*
X159055895Y-97396074D01*
X158999265Y-97432515D01*
X158950897Y-97399466D01*
X158823960Y-97373761D01*
X158173720Y-97373761D01*
X158055135Y-97396074D01*
X157999813Y-97431673D01*
X157952677Y-97399466D01*
X157825740Y-97373761D01*
X157175500Y-97373761D01*
X157056915Y-97396074D01*
X157000285Y-97432515D01*
X156951917Y-97399466D01*
X156824980Y-97373761D01*
X156174740Y-97373761D01*
X156056155Y-97396074D01*
X155999525Y-97432515D01*
X155951157Y-97399466D01*
X155824220Y-97373761D01*
X155173980Y-97373761D01*
X155055395Y-97396074D01*
X155000073Y-97431673D01*
X154952937Y-97399466D01*
X154826000Y-97373761D01*
X154175760Y-97373761D01*
X154057175Y-97396074D01*
X154000545Y-97432515D01*
X153952177Y-97399466D01*
X153825240Y-97373761D01*
X153175000Y-97373761D01*
X153056415Y-97396074D01*
X152999785Y-97432515D01*
X152951417Y-97399466D01*
X152824480Y-97373761D01*
X152174240Y-97373761D01*
X152071140Y-97393160D01*
X152071140Y-93934962D01*
X154136102Y-91870000D01*
X161430000Y-91870000D01*
X161648130Y-91826611D01*
X161833051Y-91703051D01*
X162471760Y-91064342D01*
X162513833Y-91081812D01*
X162944279Y-91082188D01*
X163342103Y-90917810D01*
X163646740Y-90613704D01*
X163664888Y-90570000D01*
X164334793Y-90570000D01*
X164352190Y-90612103D01*
X164656296Y-90916740D01*
X165053833Y-91081812D01*
X165484279Y-91082188D01*
X165882103Y-90917810D01*
X166186740Y-90613704D01*
X166351812Y-90216167D01*
X166352188Y-89785721D01*
X166187810Y-89387897D01*
X165883704Y-89083260D01*
X165486167Y-88918188D01*
X165055721Y-88917812D01*
X164657897Y-89082190D01*
X164353260Y-89386296D01*
X164335112Y-89430000D01*
X163665207Y-89430000D01*
X163647810Y-89387897D01*
X163343704Y-89083260D01*
X162946167Y-88918188D01*
X162515721Y-88917812D01*
X162117897Y-89082190D01*
X161813260Y-89386296D01*
X161648188Y-89783833D01*
X161647812Y-90214279D01*
X161665883Y-90258015D01*
X161193898Y-90730000D01*
X153900000Y-90730000D01*
X153681870Y-90773389D01*
X153526483Y-90877215D01*
X153496949Y-90896949D01*
X151960915Y-92432983D01*
X151904191Y-92348089D01*
X151103051Y-91546949D01*
X151059920Y-91518130D01*
X150918130Y-91423389D01*
X150700000Y-91380000D01*
X149272743Y-91380000D01*
X149396985Y-91296985D01*
X150296985Y-90396985D01*
X150388029Y-90260727D01*
X150420000Y-90100000D01*
X150420000Y-88267186D01*
X150612103Y-88187810D01*
X150916740Y-87883704D01*
X151081812Y-87486167D01*
X151081813Y-87484279D01*
X153917812Y-87484279D01*
X154082190Y-87882103D01*
X154386296Y-88186740D01*
X154783833Y-88351812D01*
X155214279Y-88352188D01*
X155612103Y-88187810D01*
X155916740Y-87883704D01*
X156081812Y-87486167D01*
X156082188Y-87055721D01*
X155917810Y-86657897D01*
X155613704Y-86353260D01*
X155216167Y-86188188D01*
X154785721Y-86187812D01*
X154387897Y-86352190D01*
X154083260Y-86656296D01*
X153918188Y-87053833D01*
X153917812Y-87484279D01*
X151081813Y-87484279D01*
X151082188Y-87055721D01*
X150917810Y-86657897D01*
X150613704Y-86353260D01*
X150216167Y-86188188D01*
X149785721Y-86187812D01*
X149387897Y-86352190D01*
X149083260Y-86656296D01*
X148918188Y-87053833D01*
X148917812Y-87484279D01*
X149082190Y-87882103D01*
X149386296Y-88186740D01*
X149580000Y-88267173D01*
X149580000Y-89926030D01*
X148926030Y-90580000D01*
X147606781Y-90580000D01*
X147501661Y-90474696D01*
X147273867Y-90380107D01*
X147027215Y-90379892D01*
X146919880Y-90424242D01*
X146919880Y-84944279D01*
X148917812Y-84944279D01*
X149082190Y-85342103D01*
X149386296Y-85646740D01*
X149783833Y-85811812D01*
X150214279Y-85812188D01*
X150612103Y-85647810D01*
X150916740Y-85343704D01*
X151081812Y-84946167D01*
X151081813Y-84944279D01*
X153917812Y-84944279D01*
X154082190Y-85342103D01*
X154386296Y-85646740D01*
X154783833Y-85811812D01*
X155214279Y-85812188D01*
X155612103Y-85647810D01*
X155916740Y-85343704D01*
X156081812Y-84946167D01*
X156082188Y-84515721D01*
X155917810Y-84117897D01*
X155723039Y-83922785D01*
X157429892Y-83922785D01*
X157524083Y-84150743D01*
X157530000Y-84156670D01*
X157530000Y-89050000D01*
X157573389Y-89268130D01*
X157652345Y-89386296D01*
X157696949Y-89453051D01*
X157946949Y-89703051D01*
X158131870Y-89826611D01*
X158350000Y-89870000D01*
X158605978Y-89870000D01*
X158726133Y-89919893D01*
X158972785Y-89920108D01*
X159200743Y-89825917D01*
X159375304Y-89651661D01*
X159469893Y-89423867D01*
X159470108Y-89177215D01*
X159375917Y-88949257D01*
X159201661Y-88774696D01*
X158973867Y-88680107D01*
X158727215Y-88679892D01*
X158670000Y-88703533D01*
X158670000Y-85786812D01*
X161546400Y-85786812D01*
X161546400Y-85833188D01*
X161636496Y-86286132D01*
X161893068Y-86670120D01*
X162277056Y-86926692D01*
X162730000Y-87016788D01*
X163182944Y-86926692D01*
X163566932Y-86670120D01*
X163823504Y-86286132D01*
X163908266Y-85860000D01*
X164306400Y-85860000D01*
X164306400Y-86693491D01*
X164321624Y-86730245D01*
X164349754Y-86758376D01*
X164386509Y-86773600D01*
X165220000Y-86773600D01*
X165245000Y-86748600D01*
X165245000Y-85835000D01*
X165295000Y-85835000D01*
X165295000Y-86748600D01*
X165320000Y-86773600D01*
X166153491Y-86773600D01*
X166190246Y-86758376D01*
X166218376Y-86730245D01*
X166233600Y-86693491D01*
X166233600Y-85860000D01*
X166208600Y-85835000D01*
X165295000Y-85835000D01*
X165245000Y-85835000D01*
X164331400Y-85835000D01*
X164306400Y-85860000D01*
X163908266Y-85860000D01*
X163913600Y-85833188D01*
X163913600Y-85786812D01*
X163823504Y-85333868D01*
X163566932Y-84949880D01*
X163531955Y-84926509D01*
X164306400Y-84926509D01*
X164306400Y-85760000D01*
X164331400Y-85785000D01*
X165245000Y-85785000D01*
X165245000Y-84871400D01*
X165295000Y-84871400D01*
X165295000Y-85785000D01*
X166208600Y-85785000D01*
X166233600Y-85760000D01*
X166233600Y-84926509D01*
X166218376Y-84889755D01*
X166190246Y-84861624D01*
X166153491Y-84846400D01*
X165320000Y-84846400D01*
X165295000Y-84871400D01*
X165245000Y-84871400D01*
X165220000Y-84846400D01*
X164386509Y-84846400D01*
X164349754Y-84861624D01*
X164321624Y-84889755D01*
X164306400Y-84926509D01*
X163531955Y-84926509D01*
X163182944Y-84693308D01*
X162730000Y-84603212D01*
X162277056Y-84693308D01*
X161893068Y-84949880D01*
X161636496Y-85333868D01*
X161546400Y-85786812D01*
X158670000Y-85786812D01*
X158670000Y-83801115D01*
X158670108Y-83677215D01*
X158670000Y-83676954D01*
X158670000Y-83246812D01*
X161546400Y-83246812D01*
X161546400Y-83293188D01*
X161636496Y-83746132D01*
X161893068Y-84130120D01*
X162277056Y-84386692D01*
X162730000Y-84476788D01*
X163182944Y-84386692D01*
X163566932Y-84130120D01*
X163823504Y-83746132D01*
X163883326Y-83445382D01*
X164322491Y-83445382D01*
X164461732Y-83794628D01*
X164724024Y-84064004D01*
X165069436Y-84212500D01*
X165094618Y-84217506D01*
X165245000Y-84208267D01*
X165245000Y-83295000D01*
X165295000Y-83295000D01*
X165295000Y-84208267D01*
X165445382Y-84217506D01*
X165470564Y-84212500D01*
X165815976Y-84064004D01*
X166078268Y-83794628D01*
X166217509Y-83445382D01*
X166208279Y-83295000D01*
X165295000Y-83295000D01*
X165245000Y-83295000D01*
X164331721Y-83295000D01*
X164322491Y-83445382D01*
X163883326Y-83445382D01*
X163913600Y-83293188D01*
X163913600Y-83246812D01*
X163883327Y-83094618D01*
X164322491Y-83094618D01*
X164331721Y-83245000D01*
X165245000Y-83245000D01*
X165245000Y-82331733D01*
X165295000Y-82331733D01*
X165295000Y-83245000D01*
X166208279Y-83245000D01*
X166217509Y-83094618D01*
X166078268Y-82745372D01*
X165815976Y-82475996D01*
X165470564Y-82327500D01*
X165445382Y-82322494D01*
X165295000Y-82331733D01*
X165245000Y-82331733D01*
X165094618Y-82322494D01*
X165069436Y-82327500D01*
X164724024Y-82475996D01*
X164461732Y-82745372D01*
X164322491Y-83094618D01*
X163883327Y-83094618D01*
X163823504Y-82793868D01*
X163566932Y-82409880D01*
X163182944Y-82153308D01*
X162730000Y-82063212D01*
X162277056Y-82153308D01*
X161893068Y-82409880D01*
X161636496Y-82793868D01*
X161546400Y-83246812D01*
X158670000Y-83246812D01*
X158670000Y-81094022D01*
X158719893Y-80973867D01*
X158720108Y-80727215D01*
X158711678Y-80706812D01*
X161546400Y-80706812D01*
X161546400Y-80753188D01*
X161636496Y-81206132D01*
X161893068Y-81590120D01*
X162277056Y-81846692D01*
X162730000Y-81936788D01*
X163182944Y-81846692D01*
X163566932Y-81590120D01*
X163823504Y-81206132D01*
X163883326Y-80905382D01*
X164322491Y-80905382D01*
X164461732Y-81254628D01*
X164724024Y-81524004D01*
X165069436Y-81672500D01*
X165094618Y-81677506D01*
X165245000Y-81668267D01*
X165245000Y-80755000D01*
X165295000Y-80755000D01*
X165295000Y-81668267D01*
X165445382Y-81677506D01*
X165470564Y-81672500D01*
X165815976Y-81524004D01*
X166078268Y-81254628D01*
X166217509Y-80905382D01*
X166208279Y-80755000D01*
X165295000Y-80755000D01*
X165245000Y-80755000D01*
X164331721Y-80755000D01*
X164322491Y-80905382D01*
X163883326Y-80905382D01*
X163913600Y-80753188D01*
X163913600Y-80706812D01*
X163883327Y-80554618D01*
X164322491Y-80554618D01*
X164331721Y-80705000D01*
X165245000Y-80705000D01*
X165245000Y-79791733D01*
X165295000Y-79791733D01*
X165295000Y-80705000D01*
X166208279Y-80705000D01*
X166217509Y-80554618D01*
X166078268Y-80205372D01*
X165815976Y-79935996D01*
X165470564Y-79787500D01*
X165445382Y-79782494D01*
X165295000Y-79791733D01*
X165245000Y-79791733D01*
X165094618Y-79782494D01*
X165069436Y-79787500D01*
X164724024Y-79935996D01*
X164461732Y-80205372D01*
X164322491Y-80554618D01*
X163883327Y-80554618D01*
X163823504Y-80253868D01*
X163566932Y-79869880D01*
X163182944Y-79613308D01*
X162730000Y-79523212D01*
X162277056Y-79613308D01*
X161893068Y-79869880D01*
X161636496Y-80253868D01*
X161546400Y-80706812D01*
X158711678Y-80706812D01*
X158670000Y-80605945D01*
X158670000Y-78166812D01*
X161546400Y-78166812D01*
X161546400Y-78213188D01*
X161636496Y-78666132D01*
X161893068Y-79050120D01*
X162277056Y-79306692D01*
X162730000Y-79396788D01*
X163182944Y-79306692D01*
X163566932Y-79050120D01*
X163823504Y-78666132D01*
X163883326Y-78365382D01*
X164322491Y-78365382D01*
X164461732Y-78714628D01*
X164724024Y-78984004D01*
X165069436Y-79132500D01*
X165094618Y-79137506D01*
X165245000Y-79128267D01*
X165245000Y-78215000D01*
X165295000Y-78215000D01*
X165295000Y-79128267D01*
X165445382Y-79137506D01*
X165470564Y-79132500D01*
X165815976Y-78984004D01*
X166078268Y-78714628D01*
X166217509Y-78365382D01*
X166208279Y-78215000D01*
X165295000Y-78215000D01*
X165245000Y-78215000D01*
X164331721Y-78215000D01*
X164322491Y-78365382D01*
X163883326Y-78365382D01*
X163913600Y-78213188D01*
X163913600Y-78166812D01*
X163883327Y-78014618D01*
X164322491Y-78014618D01*
X164331721Y-78165000D01*
X165245000Y-78165000D01*
X165245000Y-77251733D01*
X165295000Y-77251733D01*
X165295000Y-78165000D01*
X166208279Y-78165000D01*
X166217509Y-78014618D01*
X166078268Y-77665372D01*
X165815976Y-77395996D01*
X165470564Y-77247500D01*
X165445382Y-77242494D01*
X165295000Y-77251733D01*
X165245000Y-77251733D01*
X165094618Y-77242494D01*
X165069436Y-77247500D01*
X164724024Y-77395996D01*
X164461732Y-77665372D01*
X164322491Y-78014618D01*
X163883327Y-78014618D01*
X163823504Y-77713868D01*
X163566932Y-77329880D01*
X163182944Y-77073308D01*
X162730000Y-76983212D01*
X162277056Y-77073308D01*
X161893068Y-77329880D01*
X161636496Y-77713868D01*
X161546400Y-78166812D01*
X158670000Y-78166812D01*
X158670000Y-77444022D01*
X158719893Y-77323867D01*
X158720108Y-77077215D01*
X158670000Y-76955945D01*
X158670000Y-73344022D01*
X158719893Y-73223867D01*
X158720108Y-72977215D01*
X158625917Y-72749257D01*
X158451661Y-72574696D01*
X158223867Y-72480107D01*
X157977215Y-72479892D01*
X157749257Y-72574083D01*
X157574696Y-72748339D01*
X157480107Y-72976133D01*
X157479892Y-73222785D01*
X157530000Y-73344055D01*
X157530000Y-76955978D01*
X157480107Y-77076133D01*
X157479892Y-77322785D01*
X157530000Y-77444055D01*
X157530000Y-80605978D01*
X157480107Y-80726133D01*
X157479892Y-80972785D01*
X157530000Y-81094055D01*
X157530000Y-83443044D01*
X157524696Y-83448339D01*
X157430107Y-83676133D01*
X157429892Y-83922785D01*
X155723039Y-83922785D01*
X155613704Y-83813260D01*
X155216167Y-83648188D01*
X154785721Y-83647812D01*
X154387897Y-83812190D01*
X154083260Y-84116296D01*
X153918188Y-84513833D01*
X153917812Y-84944279D01*
X151081813Y-84944279D01*
X151082188Y-84515721D01*
X150917810Y-84117897D01*
X150613704Y-83813260D01*
X150216167Y-83648188D01*
X149785721Y-83647812D01*
X149387897Y-83812190D01*
X149083260Y-84116296D01*
X148918188Y-84513833D01*
X148917812Y-84944279D01*
X146919880Y-84944279D01*
X146919880Y-77484279D01*
X148917812Y-77484279D01*
X149082190Y-77882103D01*
X149386296Y-78186740D01*
X149783833Y-78351812D01*
X150214279Y-78352188D01*
X150612103Y-78187810D01*
X150916740Y-77883704D01*
X151081812Y-77486167D01*
X151081813Y-77484279D01*
X153917812Y-77484279D01*
X154082190Y-77882103D01*
X154386296Y-78186740D01*
X154783833Y-78351812D01*
X155214279Y-78352188D01*
X155612103Y-78187810D01*
X155916740Y-77883704D01*
X156081812Y-77486167D01*
X156082188Y-77055721D01*
X155917810Y-76657897D01*
X155613704Y-76353260D01*
X155216167Y-76188188D01*
X154785721Y-76187812D01*
X154387897Y-76352190D01*
X154083260Y-76656296D01*
X153918188Y-77053833D01*
X153917812Y-77484279D01*
X151081813Y-77484279D01*
X151082188Y-77055721D01*
X150917810Y-76657897D01*
X150613704Y-76353260D01*
X150216167Y-76188188D01*
X149785721Y-76187812D01*
X149387897Y-76352190D01*
X149083260Y-76656296D01*
X148918188Y-77053833D01*
X148917812Y-77484279D01*
X146919880Y-77484279D01*
X146919880Y-76424090D01*
X148193970Y-75150000D01*
X149002814Y-75150000D01*
X149082190Y-75342103D01*
X149386296Y-75646740D01*
X149783833Y-75811812D01*
X150214279Y-75812188D01*
X150612103Y-75647810D01*
X150916740Y-75343704D01*
X151081812Y-74946167D01*
X151081813Y-74944279D01*
X153917812Y-74944279D01*
X154082190Y-75342103D01*
X154386296Y-75646740D01*
X154783833Y-75811812D01*
X155214279Y-75812188D01*
X155612103Y-75647810D01*
X155916740Y-75343704D01*
X156081812Y-74946167D01*
X156082188Y-74515721D01*
X155917810Y-74117897D01*
X155613704Y-73813260D01*
X155216167Y-73648188D01*
X154785721Y-73647812D01*
X154387897Y-73812190D01*
X154083260Y-74116296D01*
X153918188Y-74513833D01*
X153917812Y-74944279D01*
X151081813Y-74944279D01*
X151082188Y-74515721D01*
X150917810Y-74117897D01*
X150613704Y-73813260D01*
X150216167Y-73648188D01*
X149785721Y-73647812D01*
X149387897Y-73812190D01*
X149083260Y-74116296D01*
X149002827Y-74310000D01*
X148020000Y-74310000D01*
X147859273Y-74341971D01*
X147723015Y-74433015D01*
X146202895Y-75953135D01*
X146111851Y-76089393D01*
X146079880Y-76250120D01*
X146079880Y-97391614D01*
X146056175Y-97396074D01*
X145999545Y-97432515D01*
X145951177Y-97399466D01*
X145919120Y-97392974D01*
X145919120Y-92804142D01*
X145887149Y-92643415D01*
X145796105Y-92507157D01*
X143091961Y-89803013D01*
X142955703Y-89711969D01*
X142794976Y-89679998D01*
X141223968Y-89679998D01*
X140870000Y-89326030D01*
X140870000Y-87384279D01*
X141917812Y-87384279D01*
X142082190Y-87782103D01*
X142386296Y-88086740D01*
X142783833Y-88251812D01*
X143214279Y-88252188D01*
X143612103Y-88087810D01*
X143916740Y-87783704D01*
X144081812Y-87386167D01*
X144082188Y-86955721D01*
X143917810Y-86557897D01*
X143613704Y-86253260D01*
X143216167Y-86088188D01*
X142785721Y-86087812D01*
X142387897Y-86252190D01*
X142083260Y-86556296D01*
X141918188Y-86953833D01*
X141917812Y-87384279D01*
X140870000Y-87384279D01*
X140870000Y-84844279D01*
X141917812Y-84844279D01*
X142082190Y-85242103D01*
X142386296Y-85546740D01*
X142783833Y-85711812D01*
X143214279Y-85712188D01*
X143612103Y-85547810D01*
X143916740Y-85243704D01*
X144081812Y-84846167D01*
X144082188Y-84415721D01*
X143917810Y-84017897D01*
X143613704Y-83713260D01*
X143216167Y-83548188D01*
X142785721Y-83547812D01*
X142387897Y-83712190D01*
X142083260Y-84016296D01*
X141918188Y-84413833D01*
X141917812Y-84844279D01*
X140870000Y-84844279D01*
X140870000Y-77484279D01*
X141917812Y-77484279D01*
X142082190Y-77882103D01*
X142386296Y-78186740D01*
X142783833Y-78351812D01*
X143214279Y-78352188D01*
X143612103Y-78187810D01*
X143916740Y-77883704D01*
X144081812Y-77486167D01*
X144082188Y-77055721D01*
X143917810Y-76657897D01*
X143613704Y-76353260D01*
X143216167Y-76188188D01*
X142785721Y-76187812D01*
X142387897Y-76352190D01*
X142083260Y-76656296D01*
X141918188Y-77053833D01*
X141917812Y-77484279D01*
X140870000Y-77484279D01*
X140870000Y-75600000D01*
X140838029Y-75439273D01*
X140746985Y-75303015D01*
X140388249Y-74944279D01*
X141917812Y-74944279D01*
X142082190Y-75342103D01*
X142386296Y-75646740D01*
X142783833Y-75811812D01*
X143214279Y-75812188D01*
X143612103Y-75647810D01*
X143916740Y-75343704D01*
X144081812Y-74946167D01*
X144082188Y-74515721D01*
X143917810Y-74117897D01*
X143613704Y-73813260D01*
X143216167Y-73648188D01*
X142785721Y-73647812D01*
X142387897Y-73812190D01*
X142083260Y-74116296D01*
X141918188Y-74513833D01*
X141917812Y-74944279D01*
X140388249Y-74944279D01*
X139876985Y-74433015D01*
X139740727Y-74341971D01*
X139580000Y-74310000D01*
X138997186Y-74310000D01*
X138917810Y-74117897D01*
X138613704Y-73813260D01*
X138216167Y-73648188D01*
X137785721Y-73647812D01*
X137387897Y-73812190D01*
X137083260Y-74116296D01*
X136918188Y-74513833D01*
X136917812Y-74944279D01*
X137082190Y-75342103D01*
X137386296Y-75646740D01*
X137783833Y-75811812D01*
X138214279Y-75812188D01*
X138612103Y-75647810D01*
X138916740Y-75343704D01*
X138997173Y-75150000D01*
X139406030Y-75150000D01*
X140030000Y-75773970D01*
X140030000Y-89500000D01*
X140061971Y-89660727D01*
X140153015Y-89796985D01*
X140386030Y-90030000D01*
X139173970Y-90030000D01*
X138420000Y-89276030D01*
X138420000Y-88167186D01*
X138612103Y-88087810D01*
X138916740Y-87783704D01*
X139081812Y-87386167D01*
X139082188Y-86955721D01*
X138917810Y-86557897D01*
X138613704Y-86253260D01*
X138216167Y-86088188D01*
X137785721Y-86087812D01*
X137387897Y-86252190D01*
X137083260Y-86556296D01*
X136918188Y-86953833D01*
X136917812Y-87384279D01*
X137082190Y-87782103D01*
X137386296Y-88086740D01*
X137580000Y-88167173D01*
X137580000Y-89450000D01*
X137611971Y-89610727D01*
X137703015Y-89746985D01*
X138536030Y-90580000D01*
X134386102Y-90580000D01*
X133770000Y-89963898D01*
X133770000Y-84844279D01*
X136917812Y-84844279D01*
X137082190Y-85242103D01*
X137386296Y-85546740D01*
X137783833Y-85711812D01*
X138214279Y-85712188D01*
X138612103Y-85547810D01*
X138916740Y-85243704D01*
X139081812Y-84846167D01*
X139082188Y-84415721D01*
X138917810Y-84017897D01*
X138613704Y-83713260D01*
X138216167Y-83548188D01*
X137785721Y-83547812D01*
X137387897Y-83712190D01*
X137083260Y-84016296D01*
X136918188Y-84413833D01*
X136917812Y-84844279D01*
X133770000Y-84844279D01*
X133770000Y-84100000D01*
X133726611Y-83881870D01*
X133603051Y-83696949D01*
X132863051Y-82956949D01*
X132678130Y-82833389D01*
X132542269Y-82806364D01*
X132542269Y-82496400D01*
X132519956Y-82377815D01*
X132449872Y-82268902D01*
X132342937Y-82195836D01*
X132216000Y-82170131D01*
X130184000Y-82170131D01*
X130065415Y-82192444D01*
X129956502Y-82262528D01*
X129883436Y-82369463D01*
X129857731Y-82496400D01*
X129857731Y-84223600D01*
X129880044Y-84342185D01*
X129950128Y-84451098D01*
X130057063Y-84524164D01*
X130184000Y-84549869D01*
X132216000Y-84549869D01*
X132334585Y-84527556D01*
X132443498Y-84457472D01*
X132516564Y-84350537D01*
X132538098Y-84244200D01*
X132630000Y-84336102D01*
X132630000Y-90200000D01*
X132673389Y-90418130D01*
X132745874Y-90526611D01*
X132796949Y-90603051D01*
X133746949Y-91553051D01*
X133931870Y-91676611D01*
X134150000Y-91720000D01*
X141063898Y-91720000D01*
X141430000Y-92086102D01*
X141430000Y-92900000D01*
X141473389Y-93118130D01*
X141578963Y-93276133D01*
X141596949Y-93303051D01*
X141924400Y-93630502D01*
X141974083Y-93750743D01*
X142148339Y-93925304D01*
X142376133Y-94019893D01*
X142622785Y-94020108D01*
X142850743Y-93925917D01*
X143025304Y-93751661D01*
X143080140Y-93619602D01*
X143080140Y-97391614D01*
X143056435Y-97396074D01*
X142999805Y-97432515D01*
X142951437Y-97399466D01*
X142824500Y-97373761D01*
X142174260Y-97373761D01*
X142055675Y-97396074D01*
X142000353Y-97431673D01*
X141953217Y-97399466D01*
X141826280Y-97373761D01*
X141176040Y-97373761D01*
X141057455Y-97396074D01*
X141000825Y-97432515D01*
X140952457Y-97399466D01*
X140825520Y-97373761D01*
X140245000Y-97373761D01*
X140245000Y-94450000D01*
X140237410Y-94411843D01*
X140237410Y-94372939D01*
X140165096Y-94009391D01*
X140165096Y-94009390D01*
X140106116Y-93867000D01*
X139900181Y-93558798D01*
X139845691Y-93504309D01*
X139791202Y-93449819D01*
X139483000Y-93243884D01*
X139340610Y-93184904D01*
X139340609Y-93184904D01*
X138977060Y-93112590D01*
X138938157Y-93112590D01*
X138900000Y-93105000D01*
X127038903Y-93105000D01*
X126388755Y-92975677D01*
X125870565Y-92629435D01*
X125524323Y-92111245D01*
X125395000Y-91461096D01*
X125395000Y-72700000D01*
X127580000Y-72700000D01*
X127580000Y-87400000D01*
X127623389Y-87618130D01*
X127732952Y-87782103D01*
X127746949Y-87803051D01*
X128786949Y-88843051D01*
X128971870Y-88966611D01*
X129190000Y-89010000D01*
X130006136Y-89010000D01*
X130184494Y-89276932D01*
X130568482Y-89533504D01*
X131021426Y-89623600D01*
X131378574Y-89623600D01*
X131831518Y-89533504D01*
X132215506Y-89276932D01*
X132472078Y-88892944D01*
X132562174Y-88440000D01*
X132472078Y-87987056D01*
X132215506Y-87603068D01*
X131831518Y-87346496D01*
X131378574Y-87256400D01*
X131021426Y-87256400D01*
X130568482Y-87346496D01*
X130184494Y-87603068D01*
X130006136Y-87870000D01*
X129426102Y-87870000D01*
X128720000Y-87163898D01*
X128720000Y-85900000D01*
X129837826Y-85900000D01*
X129927922Y-86352944D01*
X130184494Y-86736932D01*
X130568482Y-86993504D01*
X131021426Y-87083600D01*
X131378574Y-87083600D01*
X131831518Y-86993504D01*
X132215506Y-86736932D01*
X132472078Y-86352944D01*
X132562174Y-85900000D01*
X132472078Y-85447056D01*
X132215506Y-85063068D01*
X131831518Y-84806496D01*
X131378574Y-84716400D01*
X131021426Y-84716400D01*
X130568482Y-84806496D01*
X130184494Y-85063068D01*
X129927922Y-85447056D01*
X129837826Y-85900000D01*
X128720000Y-85900000D01*
X128720000Y-77484279D01*
X136917812Y-77484279D01*
X137082190Y-77882103D01*
X137386296Y-78186740D01*
X137783833Y-78351812D01*
X138214279Y-78352188D01*
X138612103Y-78187810D01*
X138916740Y-77883704D01*
X139081812Y-77486167D01*
X139082188Y-77055721D01*
X138917810Y-76657897D01*
X138613704Y-76353260D01*
X138216167Y-76188188D01*
X137785721Y-76187812D01*
X137387897Y-76352190D01*
X137083260Y-76656296D01*
X136918188Y-77053833D01*
X136917812Y-77484279D01*
X128720000Y-77484279D01*
X128720000Y-72936102D01*
X129986102Y-71670000D01*
X161563898Y-71670000D01*
X162160000Y-72266102D01*
X162160000Y-73064793D01*
X162117897Y-73082190D01*
X161813260Y-73386296D01*
X161648188Y-73783833D01*
X161647812Y-74214279D01*
X161812190Y-74612103D01*
X162116296Y-74916740D01*
X162513833Y-75081812D01*
X162944279Y-75082188D01*
X163342103Y-74917810D01*
X163646740Y-74613704D01*
X163664888Y-74570000D01*
X164334793Y-74570000D01*
X164352190Y-74612103D01*
X164656296Y-74916740D01*
X165053833Y-75081812D01*
X165484279Y-75082188D01*
X165882103Y-74917810D01*
X166186740Y-74613704D01*
X166351812Y-74216167D01*
X166352188Y-73785721D01*
X166187810Y-73387897D01*
X165883704Y-73083260D01*
X165486167Y-72918188D01*
X165055721Y-72917812D01*
X164657897Y-73082190D01*
X164353260Y-73386296D01*
X164335112Y-73430000D01*
X163665207Y-73430000D01*
X163647810Y-73387897D01*
X163343704Y-73083260D01*
X163300000Y-73065112D01*
X163300000Y-72030000D01*
X163294033Y-72000000D01*
X163256612Y-71811871D01*
X163133051Y-71626949D01*
X162203051Y-70696949D01*
X162087065Y-70619450D01*
X162018130Y-70573389D01*
X161800000Y-70530000D01*
X129750000Y-70530000D01*
X129531871Y-70573388D01*
X129346949Y-70696949D01*
X127746949Y-72296949D01*
X127623389Y-72481870D01*
X127580000Y-72700000D01*
X125395000Y-72700000D01*
X125395000Y-72038904D01*
X125524323Y-71388755D01*
X125870565Y-70870565D01*
X126388755Y-70524323D01*
X127038903Y-70395000D01*
X169561098Y-70395000D01*
X169597716Y-70402284D01*
M02*
