M48
;DRILL file {KiCad 4.0.6-e0-6349~53~ubuntu14.04.1} date Sat Apr 15 21:20:45 2017
;FORMAT={-:-/ absolute / inch / decimal}
FMAT,2
INCH,TZ
T1C0.012
T2C0.040
T3C0.041
%
G90
G05
M72
T1
X5.6102Y-3.6772
X5.6594Y-3.6437
X5.7933Y-3.5827
X5.8465Y-3.6201
X6.2224Y-3.2992
X6.2244Y-2.878
X6.2244Y-3.0394
X6.2244Y-3.1831
X6.2539Y-3.5157
T2
X5.1654Y-3.2819
X5.1654Y-3.3819
X5.1654Y-3.4819
X6.4067Y-3.0783
X6.4067Y-3.1783
X6.4067Y-3.2783
X6.4067Y-3.3783
X6.5067Y-3.0783
X6.5067Y-3.1783
X6.5067Y-3.2783
X6.5067Y-3.3783
T3
X5.4331Y-2.9421
X5.4331Y-3.0421
X5.4331Y-3.3319
X5.4331Y-3.4319
X5.6299Y-2.9421
X5.6299Y-3.0421
X5.6299Y-3.3319
X5.6299Y-3.4319
X5.9055Y-2.9421
X5.9055Y-3.0421
X5.9055Y-3.3358
X5.9055Y-3.4358
X6.1024Y-2.9421
X6.1024Y-3.0421
X6.1024Y-3.3358
X6.1024Y-3.4358
X6.4067Y-2.9134
X6.4067Y-3.5433
X6.5067Y-2.9134
X6.5067Y-3.5433
T0
M30
